<svg width="19" height="19" viewBox="0 0 19 19" fill="none" xmlns="http://www.w3.org/2000/svg">
<g clip-path="url(#clip0_396_18021)">
<g clip-path="url(#clip1_396_18021)">
<g clip-path="url(#clip2_396_18021)">
<path d="M10.6407 10.0469L10.4072 10.4514H10.8742L10.6407 10.0469ZM9.30772 11.3559L9.54122 10.9514H9.07422L9.30772 11.3559Z" fill="#EDECEC"/>
<path d="M0.308594 13.0469H18.3086V6.04688H0.308594V13.0469ZM0.455594 4.29688H18.1621C17.8651 3.56437 17.1476 3.04688 16.3086 3.04688H2.30859C1.46959 3.04688 0.752094 3.56437 0.455594 4.29688Z" fill="#EEEEEE"/>
<path d="M10.8752 8.64278H10.4082L10.6417 9.04728L10.8752 8.64278ZM8.20919 8.64278H7.74219L7.97569 9.04728L8.20919 8.64278ZM9.83069 10.4518L10.3532 9.54728L9.83069 8.64278H8.78669L8.26419 9.54728L8.78669 10.4518H9.83069ZM7.97569 10.0473L7.74219 10.4518H8.20919L7.97569 10.0473ZM9.30869 7.73828L9.07519 8.14278H9.54219L9.30869 7.73828Z" fill="#EDECEC"/>
<path d="M0.455594 4.29688C0.361594 4.52887 0.308594 4.78137 0.308594 5.04688V6.04688H18.3086V5.04688C18.3086 4.78137 18.2556 4.52887 18.1616 4.29688H0.455594Z" fill="#0038B8"/>
<path d="M0.457031 14.7969H18.1635C17.8665 15.5294 17.149 16.0469 16.31 16.0469H2.31003C1.47103 16.0469 0.753531 15.5294 0.457031 14.7969Z" fill="#EEEEEE"/>
<path d="M0.455594 14.7973C0.361594 14.5653 0.308594 14.3128 0.308594 14.0473V13.0473H18.3086V14.0473C18.3086 14.3128 18.2556 14.5653 18.1616 14.7973H0.455594ZM8.49759 10.9518L9.30859 12.3563L10.1196 10.9518H11.7411L10.9306 9.54728L11.7416 8.14278H10.1201L9.30859 6.73828L8.49759 8.14278H6.87609L7.68659 9.54728L6.87559 10.9518H8.49759ZM9.30859 11.3563L9.07509 10.9518H9.54209L9.30859 11.3563ZM10.8751 8.64278L10.6416 9.04728L10.4081 8.64328L10.8751 8.64278ZM10.6416 10.0473L10.8751 10.4513H10.4081L10.6416 10.0473ZM9.30859 7.73828L9.54209 8.14278H9.07509L9.30859 7.73828ZM8.78659 8.64278H9.83109L10.3531 9.54728L9.83109 10.4518H8.78659L8.26409 9.54728L8.78659 8.64278ZM8.20909 8.64278L7.97559 9.04728L7.74209 8.64328L8.20909 8.64278ZM7.97559 10.0473L8.20909 10.4513H7.74209L7.97559 10.0473Z" fill="#0038B8"/>
</g>
</g>
</g>
<defs>
<clipPath id="clip0_396_18021">
<rect width="18" height="18" fill="white" transform="translate(0.308594 0.546875)"/>
</clipPath>
<clipPath id="clip1_396_18021">
<rect width="18" height="18" fill="white" transform="translate(0.308594 0.546875)"/>
</clipPath>
<clipPath id="clip2_396_18021">
<rect width="18" height="18" fill="white" transform="translate(0.308594 0.546875)"/>
</clipPath>
</defs>
</svg>
