<svg width="17" height="17" viewBox="0 0 17 17" fill="none" xmlns="http://www.w3.org/2000/svg">
<g clip-path="url(#clip0_396_18093)">
<g clip-path="url(#clip1_396_18093)">
<g clip-path="url(#clip2_396_18093)">
<path d="M10.015 15.5427C10.015 16.4303 9.29545 16.7481 8.40789 16.7481C7.52034 16.7481 6.80078 16.4303 6.80078 15.5427L7.20256 11.9267C7.20256 11.0396 7.52034 11.1232 8.40789 11.1232C9.29545 11.1232 9.61323 11.0396 9.61323 11.9267L10.015 15.5427Z" fill="#662113"/>
<path d="M13.7929 13.2533C10.9956 10.8569 9.8627 7.42578 8.40715 7.42578C6.95159 7.42578 5.8187 10.8573 3.02137 13.2533C1.84581 14.2604 2.40581 14.8431 4.01737 14.7262C5.45381 14.6227 6.79737 14.2969 8.40715 14.2969C10.0169 14.2969 11.3609 14.6227 12.7965 14.7262C14.4085 14.8431 14.968 14.26 13.7929 13.2533Z" fill="#5C913B"/>
<path d="M12.887 12.302C10.7372 10.3309 9.52922 7.50781 8.40967 7.50781C7.291 7.50781 6.08255 10.3309 3.93278 12.302C2.22433 13.8683 6.17144 14.2198 8.40967 12.302C10.647 14.2203 14.595 13.8683 12.887 12.302Z" fill="#3E721D"/>
<path d="M12.887 10.7052C10.7372 8.8639 9.52922 6.22656 8.40967 6.22656C7.291 6.22656 6.08255 8.8639 3.93278 10.7052C2.22433 12.1683 6.17144 12.4968 8.40967 10.7052C10.647 12.4972 14.595 12.1683 12.887 10.7052Z" fill="#5C913B"/>
<path d="M11.9056 9.39923C10.2278 7.96145 9.2847 5.90234 8.41048 5.90234C7.53715 5.90234 6.59359 7.96101 4.91537 9.39923C3.58204 10.5415 6.66292 10.7979 8.41048 9.39923C10.1571 10.7975 13.2394 10.5415 11.9056 9.39923Z" fill="#3E721D"/>
<path d="M11.9056 8.20348C10.2278 6.7657 9.2847 4.70703 8.41048 4.70703C7.53715 4.70703 6.59359 6.7657 4.91537 8.20348C3.58204 9.34614 6.66292 9.60214 8.41048 8.20348C10.1571 9.60214 13.2394 9.34614 11.9056 8.20348Z" fill="#5C913B"/>
<path d="M11.2288 7.13818C9.8746 5.97818 9.11327 4.31641 8.40793 4.31641C7.70304 4.31641 6.94171 5.97818 5.58704 7.13818C4.5106 8.06041 6.99771 8.26707 8.40793 7.13818C9.8186 8.26707 12.3057 8.06041 11.2288 7.13818Z" fill="#3E721D"/>
<path d="M11.2288 6.23975C9.8746 5.07975 9.11327 3.41797 8.40793 3.41797C7.70304 3.41797 6.94171 5.07975 5.58704 6.23975C4.5106 7.16197 6.99771 7.36864 8.40793 6.23975C9.8186 7.36864 12.3057 7.16197 11.2288 6.23975Z" fill="#5C913B"/>
<path d="M10.5554 4.91274C9.52517 4.03007 8.94606 2.76562 8.40917 2.76562C7.87272 2.76562 7.29317 4.03007 6.2625 4.91274C5.44339 5.61451 7.33583 5.77185 8.40917 4.91274C9.48206 5.77185 11.3749 5.61451 10.5554 4.91274Z" fill="#3E721D"/>
<path d="M10.5554 4.43271C9.52517 3.5496 8.94606 2.28516 8.40917 2.28516C7.87272 2.28516 7.29317 3.5496 6.2625 4.43271C5.44339 5.13449 7.33583 5.29182 8.40917 4.43271C9.48206 5.29138 11.3749 5.13405 10.5554 4.43271Z" fill="#5C913B"/>
<path d="M7.53385 6.97005C7.90204 6.97005 8.20052 6.67158 8.20052 6.30339C8.20052 5.9352 7.90204 5.63672 7.53385 5.63672C7.16566 5.63672 6.86719 5.9352 6.86719 6.30339C6.86719 6.67158 7.16566 6.97005 7.53385 6.97005Z" fill="#FFCC4D"/>
<path d="M9.08811 12.9536C9.57903 12.9536 9.977 12.5556 9.977 12.0647C9.977 11.5738 9.57903 11.1758 9.08811 11.1758C8.59719 11.1758 8.19922 11.5738 8.19922 12.0647C8.19922 12.5556 8.59719 12.9536 9.08811 12.9536Z" fill="#FFCC4D"/>
<path d="M10.201 8.95269C10.8146 8.95269 11.3121 8.45523 11.3121 7.84158C11.3121 7.22793 10.8146 6.73047 10.201 6.73047C9.58731 6.73047 9.08984 7.22793 9.08984 7.84158C9.08984 8.45523 9.58731 8.95269 10.201 8.95269Z" fill="#4B48E6"/>
<path d="M4.6428 13.3989C5.13371 13.3989 5.53168 13.0009 5.53168 12.51C5.53168 12.0191 5.13371 11.6211 4.6428 11.6211C4.15188 11.6211 3.75391 12.0191 3.75391 12.51C3.75391 13.0009 4.15188 13.3989 4.6428 13.3989Z" fill="#4B48E6"/>
<path d="M6.42014 10.2856C6.91106 10.2856 7.30903 9.88762 7.30903 9.3967C7.30903 8.90578 6.91106 8.50781 6.42014 8.50781C5.92922 8.50781 5.53125 8.90578 5.53125 9.3967C5.53125 9.88762 5.92922 10.2856 6.42014 10.2856Z" fill="#A6D388"/>
<path d="M11.7561 12.0629C12.247 12.0629 12.645 11.665 12.645 11.174C12.645 10.6831 12.247 10.2852 11.7561 10.2852C11.2652 10.2852 10.8672 10.6831 10.8672 11.174C10.8672 11.665 11.2652 12.0629 11.7561 12.0629Z" fill="#A6D388"/>
<path d="M8.81329 1.70097C8.87684 1.82319 9.04084 1.94497 9.1764 1.97164L9.78929 2.09119C9.92484 2.11786 9.95684 2.22008 9.85995 2.31875L9.42306 2.76497C9.32662 2.86364 9.26084 3.05697 9.27818 3.19386L9.35373 3.81342C9.37062 3.95075 9.28307 4.01253 9.15907 3.95119L8.6004 3.67342C8.4764 3.61208 8.2724 3.60942 8.14706 3.66764L7.58084 3.93164C7.45551 3.98942 7.36929 3.92542 7.38973 3.78853L7.48084 3.17075C7.50084 3.0343 7.4404 2.83964 7.34662 2.7383L6.9204 2.28186C6.82618 2.18097 6.8604 2.07875 6.99684 2.05608L7.6124 1.95208C7.74884 1.92942 7.91507 1.81164 7.98218 1.69075L8.28484 1.14453C8.35195 1.02364 8.45995 1.02497 8.52351 1.14719L8.81329 1.70097Z" fill="#FFAC33"/>
</g>
</g>
</g>
<defs>
<clipPath id="clip0_396_18093">
<rect width="16" height="16" fill="white" transform="translate(0.199219 0.953125)"/>
</clipPath>
<clipPath id="clip1_396_18093">
<rect width="16" height="16" fill="white" transform="translate(0.199219 0.953125)"/>
</clipPath>
<clipPath id="clip2_396_18093">
<rect width="16" height="16" fill="white" transform="translate(0.199219 0.953125)"/>
</clipPath>
</defs>
</svg>
