<svg width="17" height="17" viewBox="0 0 17 17" fill="none" xmlns="http://www.w3.org/2000/svg">
<g clip-path="url(#clip0_396_18114)">
<g clip-path="url(#clip1_396_18114)">
<g clip-path="url(#clip2_396_18114)">
<path d="M10.4056 15.5427C10.4056 16.4303 9.68607 16.7481 8.79852 16.7481C7.91096 16.7481 7.19141 16.4303 7.19141 15.5427L7.59318 11.9267C7.59318 11.0396 7.91096 11.1232 8.79852 11.1232C9.68607 11.1232 10.0039 11.0396 10.0039 11.9267L10.4056 15.5427Z" fill="#662113"/>
<path d="M14.1835 13.2533C11.3862 10.8569 10.2533 7.42578 8.79777 7.42578C7.34221 7.42578 6.20933 10.8573 3.41199 13.2533C2.23644 14.2604 2.79644 14.8431 4.40799 14.7262C5.84444 14.6227 7.18799 14.2969 8.79777 14.2969C10.4075 14.2969 11.7515 14.6227 13.1871 14.7262C14.7991 14.8431 15.3587 14.26 14.1835 13.2533Z" fill="#5C913B"/>
<path d="M13.2776 12.302C11.1278 10.3309 9.91985 7.50781 8.80029 7.50781C7.68162 7.50781 6.47318 10.3309 4.3234 12.302C2.61496 13.8683 6.56207 14.2198 8.80029 12.302C11.0376 14.2203 14.9856 13.8683 13.2776 12.302Z" fill="#3E721D"/>
<path d="M13.2776 10.7052C11.1278 8.8639 9.91985 6.22656 8.80029 6.22656C7.68162 6.22656 6.47318 8.8639 4.3234 10.7052C2.61496 12.1683 6.56207 12.4968 8.80029 10.7052C11.0376 12.4972 14.9856 12.1683 13.2776 10.7052Z" fill="#5C913B"/>
<path d="M12.2962 9.39923C10.6184 7.96145 9.67533 5.90234 8.80111 5.90234C7.92777 5.90234 6.98422 7.96101 5.30599 9.39923C3.97266 10.5415 7.05355 10.7979 8.80111 9.39923C10.5478 10.7975 13.63 10.5415 12.2962 9.39923Z" fill="#3E721D"/>
<path d="M12.2962 8.20348C10.6184 6.7657 9.67533 4.70703 8.80111 4.70703C7.92777 4.70703 6.98422 6.7657 5.30599 8.20348C3.97266 9.34614 7.05355 9.60214 8.80111 8.20348C10.5478 9.60214 13.63 9.34614 12.2962 8.20348Z" fill="#5C913B"/>
<path d="M11.6194 7.13818C10.2652 5.97818 9.50389 4.31641 8.79856 4.31641C8.09367 4.31641 7.33234 5.97818 5.97767 7.13818C4.90122 8.06041 7.38834 8.26707 8.79856 7.13818C10.2092 8.26707 12.6963 8.06041 11.6194 7.13818Z" fill="#3E721D"/>
<path d="M11.6194 6.23975C10.2652 5.07975 9.50389 3.41797 8.79856 3.41797C8.09367 3.41797 7.33234 5.07975 5.97767 6.23975C4.90122 7.16197 7.38834 7.36864 8.79856 6.23975C10.2092 7.36864 12.6963 7.16197 11.6194 6.23975Z" fill="#5C913B"/>
<path d="M10.946 4.91274C9.91579 4.03007 9.33668 2.76562 8.79979 2.76562C8.26335 2.76562 7.68379 4.03007 6.65313 4.91274C5.83402 5.61451 7.72646 5.77185 8.79979 4.91274C9.87268 5.77185 11.7656 5.61451 10.946 4.91274Z" fill="#3E721D"/>
<path d="M10.946 4.43271C9.91579 3.5496 9.33668 2.28516 8.79979 2.28516C8.26335 2.28516 7.68379 3.5496 6.65313 4.43271C5.83402 5.13449 7.72646 5.29182 8.79979 4.43271C9.87268 5.29138 11.7656 5.13405 10.946 4.43271Z" fill="#5C913B"/>
<path d="M7.92448 6.97005C8.29267 6.97005 8.59115 6.67158 8.59115 6.30339C8.59115 5.9352 8.29267 5.63672 7.92448 5.63672C7.55629 5.63672 7.25781 5.9352 7.25781 6.30339C7.25781 6.67158 7.55629 6.97005 7.92448 6.97005Z" fill="#FFCC4D"/>
<path d="M9.47873 12.9536C9.96965 12.9536 10.3676 12.5556 10.3676 12.0647C10.3676 11.5738 9.96965 11.1758 9.47873 11.1758C8.98781 11.1758 8.58984 11.5738 8.58984 12.0647C8.58984 12.5556 8.98781 12.9536 9.47873 12.9536Z" fill="#FFCC4D"/>
<path d="M10.5916 8.95269C11.2052 8.95269 11.7027 8.45523 11.7027 7.84158C11.7027 7.22793 11.2052 6.73047 10.5916 6.73047C9.97793 6.73047 9.48047 7.22793 9.48047 7.84158C9.48047 8.45523 9.97793 8.95269 10.5916 8.95269Z" fill="#4B48E6"/>
<path d="M5.03342 13.3989C5.52434 13.3989 5.92231 13.0009 5.92231 12.51C5.92231 12.0191 5.52434 11.6211 5.03342 11.6211C4.5425 11.6211 4.14453 12.0191 4.14453 12.51C4.14453 13.0009 4.5425 13.3989 5.03342 13.3989Z" fill="#4B48E6"/>
<path d="M6.81076 10.2856C7.30168 10.2856 7.69965 9.88762 7.69965 9.3967C7.69965 8.90578 7.30168 8.50781 6.81076 8.50781C6.31984 8.50781 5.92188 8.90578 5.92188 9.3967C5.92188 9.88762 6.31984 10.2856 6.81076 10.2856Z" fill="#A6D388"/>
<path d="M12.1467 12.0629C12.6376 12.0629 13.0356 11.665 13.0356 11.174C13.0356 10.6831 12.6376 10.2852 12.1467 10.2852C11.6558 10.2852 11.2578 10.6831 11.2578 11.174C11.2578 11.665 11.6558 12.0629 12.1467 12.0629Z" fill="#A6D388"/>
<path d="M9.20391 1.70097C9.26747 1.82319 9.43147 1.94497 9.56702 1.97164L10.1799 2.09119C10.3155 2.11786 10.3475 2.22008 10.2506 2.31875L9.81369 2.76497C9.71725 2.86364 9.65147 3.05697 9.6688 3.19386L9.74436 3.81342C9.76125 3.95075 9.67369 4.01253 9.54969 3.95119L8.99102 3.67342C8.86702 3.61208 8.66302 3.60942 8.53769 3.66764L7.97147 3.93164C7.84614 3.98942 7.75991 3.92542 7.78036 3.78853L7.87147 3.17075C7.89147 3.0343 7.83102 2.83964 7.73725 2.7383L7.31102 2.28186C7.2168 2.18097 7.25102 2.07875 7.38747 2.05608L8.00302 1.95208C8.13947 1.92942 8.30569 1.81164 8.3728 1.69075L8.67547 1.14453C8.74258 1.02364 8.85058 1.02497 8.91413 1.14719L9.20391 1.70097Z" fill="#FFAC33"/>
</g>
</g>
</g>
<defs>
<clipPath id="clip0_396_18114">
<rect width="16" height="16" fill="white" transform="translate(0.589844 0.953125)"/>
</clipPath>
<clipPath id="clip1_396_18114">
<rect width="16" height="16" fill="white" transform="translate(0.589844 0.953125)"/>
</clipPath>
<clipPath id="clip2_396_18114">
<rect width="16" height="16" fill="white" transform="translate(0.589844 0.953125)"/>
</clipPath>
</defs>
</svg>
