<svg width="18" height="17" viewBox="0 0 18 17" fill="none" xmlns="http://www.w3.org/2000/svg">
<g clip-path="url(#clip0_396_17967)">
<g clip-path="url(#clip1_396_17967)">
<g clip-path="url(#clip2_396_17967)">
<path d="M16.1608 1.75249C14.1523 -0.25604 10.8959 -0.25604 8.88686 1.75249C7.30439 3.33543 6.97446 5.69069 7.88633 7.60216L6.05886 9.42916C5.76019 9.72829 5.66639 10.1492 5.76719 10.53L4.84646 11.4503C4.62293 11.2263 4.26219 11.2263 4.03866 11.4503L3.23086 12.2586C3.00733 12.4821 3.00733 12.8433 3.23086 13.0668L2.82626 13.47C2.60273 13.247 2.24153 13.247 2.01846 13.47L1.61433 13.8746C1.39079 14.0982 1.39079 14.4594 1.61433 14.6829C1.62133 14.6904 1.63113 14.6922 1.63813 14.6983C1.26759 15.2532 1.32639 16.0106 1.81639 16.501C2.37406 17.0587 3.27893 17.0587 3.83659 16.501L10.3116 10.0265C12.2235 10.9388 14.5788 10.6084 16.1613 9.02503C18.1689 7.01743 18.1689 3.76103 16.1608 1.75249ZM15.353 4.17683C14.9064 4.62296 14.1821 4.62296 13.7365 4.17683C13.2903 3.73069 13.2903 3.00689 13.7365 2.56029C14.1821 2.11416 14.9064 2.11416 15.353 2.56029C15.7991 3.00689 15.7991 3.73069 15.353 4.17683Z" fill="#C1694F"/>
</g>
</g>
</g>
<defs>
<clipPath id="clip0_396_17967">
<rect width="16.8" height="16.8" fill="white" transform="translate(0.941406 0.160156)"/>
</clipPath>
<clipPath id="clip1_396_17967">
<rect width="16.8" height="16.8" fill="white" transform="translate(0.941406 0.160156)"/>
</clipPath>
<clipPath id="clip2_396_17967">
<rect width="16.8" height="16.8" fill="white" transform="translate(0.941406 0.160156)"/>
</clipPath>
</defs>
</svg>
