<svg width="25" height="25" viewBox="0 0 25 25" fill="none" xmlns="http://www.w3.org/2000/svg">
<g clip-path="url(#clip0_396_17738)">
<g clip-path="url(#clip1_396_17738)">
<g clip-path="url(#clip2_396_17738)">
<path d="M12.1602 24.0586C18.7876 24.0586 24.1602 18.686 24.1602 12.0586C24.1602 5.43118 18.7876 0.0585938 12.1602 0.0585938C5.53274 0.0585938 0.160156 5.43118 0.160156 12.0586C0.160156 18.686 5.53274 24.0586 12.1602 24.0586Z" fill="#FFCC4D"/>
<path d="M7.17027 15.8046C7.20027 15.924 7.94893 18.724 12.1603 18.724C16.3723 18.724 17.1203 15.924 17.1503 15.8046C17.1869 15.66 17.1216 15.51 16.9923 15.4353C16.8623 15.3613 16.6996 15.3833 16.5923 15.4866C16.5796 15.4993 15.2896 16.724 12.1603 16.724C9.03093 16.724 7.74027 15.4993 7.72827 15.4873C7.66427 15.424 7.57893 15.3906 7.4936 15.3906C7.4376 15.3906 7.38093 15.4046 7.3296 15.4333C7.19893 15.508 7.1336 15.6593 7.17027 15.8046Z" fill="#664500"/>
<path d="M8.15885 11.3932C9.07933 11.3932 9.82552 10.3486 9.82552 9.0599C9.82552 7.77123 9.07933 6.72656 8.15885 6.72656C7.23838 6.72656 6.49219 7.77123 6.49219 9.0599C6.49219 10.3486 7.23838 11.3932 8.15885 11.3932Z" fill="#664500"/>
<path d="M16.1589 11.3932C17.0793 11.3932 17.8255 10.3486 17.8255 9.0599C17.8255 7.77123 17.0793 6.72656 16.1589 6.72656C15.2384 6.72656 14.4922 7.77123 14.4922 9.0599C14.4922 10.3486 15.2384 11.3932 16.1589 11.3932Z" fill="#664500"/>
</g>
</g>
</g>
<defs>
<clipPath id="clip0_396_17738">
<rect width="24" height="24" fill="white" transform="translate(0.160156 0.0585938)"/>
</clipPath>
<clipPath id="clip1_396_17738">
<rect width="24" height="24" fill="white" transform="translate(0.160156 0.0585938)"/>
</clipPath>
<clipPath id="clip2_396_17738">
<rect width="24" height="24" fill="white" transform="translate(0.160156 0.0585938)"/>
</clipPath>
</defs>
</svg>
