<svg width="25" height="25" viewBox="0 0 25 25" fill="none" xmlns="http://www.w3.org/2000/svg">
<g clip-path="url(#clip0_396_17796)">
<g clip-path="url(#clip1_396_17796)">
<g clip-path="url(#clip2_396_17796)">
<path d="M12.1094 24.0586C18.7368 24.0586 24.1094 18.686 24.1094 12.0586C24.1094 5.43118 18.7368 0.0585938 12.1094 0.0585938C5.48196 0.0585938 0.109375 5.43118 0.109375 12.0586C0.109375 18.686 5.48196 24.0586 12.1094 24.0586Z" fill="#FFCC4D"/>
<path d="M18.3341 15.8123C18.2154 15.705 18.0381 15.6983 17.9107 15.793C17.8847 15.8123 15.2961 17.7263 12.1107 17.7263C8.93339 17.7263 6.33606 15.8123 6.31073 15.793C6.18339 15.6983 6.00606 15.7063 5.88739 15.8123C5.76939 15.919 5.74273 16.095 5.82473 16.231C5.91073 16.3743 7.96939 19.7263 12.1107 19.7263C16.2521 19.7263 18.3114 16.3743 18.3967 16.231C18.4787 16.0943 18.4527 15.919 18.3341 15.8123Z" fill="#664500"/>
<path d="M12.1084 17.7848C12.0097 17.7848 11.9144 17.7774 11.8164 17.7741V20.7848H12.3997V17.7734C12.3031 17.7768 12.2071 17.7848 12.1084 17.7848Z" fill="#65471B"/>
<path d="M14.7748 17.3906C14.7855 17.388 13.8082 17.6426 13.1442 17.7146C12.9002 17.7426 12.6528 17.7653 12.3995 17.774V20.7853H13.4415C14.1748 20.7853 14.7748 20.1853 14.7748 19.452V17.3906ZM9.44149 17.3906C9.43083 17.388 10.4082 17.6426 11.0722 17.7146C11.3162 17.7426 11.5635 17.7653 11.8168 17.774V20.7853H10.7748C10.0415 20.7853 9.44149 20.1853 9.44149 19.452V17.3906Z" fill="white"/>
<path d="M18.3342 15.8125C18.2156 15.7052 18.0382 15.6985 17.9109 15.7932C17.8909 15.8078 16.4049 16.9052 14.3036 17.4398C14.0082 17.5152 13.0609 17.7265 12.1129 17.7272C11.1636 17.7272 10.2136 17.5152 9.91825 17.4398C7.81691 16.9052 6.33091 15.8078 6.31091 15.7932C6.18425 15.6985 6.00625 15.7052 5.88758 15.8125C5.76891 15.9192 5.74291 16.0945 5.82491 16.2312C5.88958 16.3392 7.08158 18.2758 9.44425 19.2185V17.9992C9.43358 17.9965 10.4109 18.2512 11.0749 18.3232C11.3189 18.3512 11.5662 18.3738 11.8196 18.3825C11.9169 18.3858 12.0122 18.3932 12.1109 18.3932C12.2096 18.3932 12.3049 18.3858 12.4029 18.3825C12.6562 18.3738 12.9036 18.3518 13.1476 18.3232C13.8116 18.2512 14.7889 17.9965 14.7782 17.9992V19.2185C17.1409 18.2758 18.3329 16.3392 18.3976 16.2312C18.4789 16.0945 18.4529 15.9192 18.3342 15.8125ZM17.8602 9.40918C17.8602 10.5518 17.2349 11.4785 16.4629 11.4785C15.6916 11.4785 15.0656 10.5518 15.0656 9.40918C15.0656 8.26651 15.6909 7.33984 16.4629 7.33984C17.2349 7.33984 17.8602 8.26651 17.8602 9.40918ZM6.41558 9.40918C6.41558 10.5518 7.04091 11.4785 7.81291 11.4785C8.58425 11.4785 9.21025 10.5518 9.21025 9.40918C9.21025 8.26651 8.58491 7.33984 7.81291 7.33984C7.04091 7.33984 6.41558 8.26651 6.41558 9.40918Z" fill="#65471B"/>
<path d="M23.316 6.4772C23.202 6.36653 22.4714 6.65987 21.732 6.2832C20.2067 5.50586 16.352 4.75586 13.8427 6.53386C13.574 6.72386 12.4514 6.75586 12.1374 6.74253C11.8234 6.75653 10.7007 6.72453 10.432 6.53386C7.92336 4.75586 4.06869 5.50586 2.54335 6.2832C1.80402 6.65987 1.07335 6.36653 0.959354 6.4772C0.794688 6.63653 0.794688 7.27453 0.960021 7.43453C1.12402 7.59386 1.94469 7.77786 2.10802 8.25586C2.27269 8.73453 2.27402 11.5612 3.58335 12.5385C4.80935 13.4532 7.66935 13.7285 9.48202 12.6972C11.0634 11.7979 11.008 9.90453 11.298 8.77653C11.4014 8.37453 11.6927 8.17186 12.138 8.17186C12.5834 8.17186 12.8747 8.37453 12.978 8.77653C13.268 9.90386 13.212 11.7979 14.794 12.6972C16.6067 13.7279 19.4667 13.4525 20.692 12.5385C22.002 11.5619 22.0034 8.73453 22.1674 8.25586C22.3307 7.77786 23.1514 7.5932 23.3154 7.43453C23.4807 7.27453 23.4814 6.63653 23.316 6.4772ZM9.85336 8.91053C9.80202 9.6472 9.67069 11.0619 8.78869 11.5639C8.24802 11.8719 7.54335 12.0592 6.80602 12.0592H6.80535C5.98869 12.0592 4.85669 11.8279 4.41402 11.4979C3.86069 11.0852 3.65002 9.38653 3.57069 8.7512C3.52002 8.34653 3.38402 7.35786 3.82935 7.20586C4.53602 6.9652 5.52202 6.7772 6.53069 6.7772C6.99269 6.7772 8.54469 6.80586 9.30069 7.2712C9.97069 7.68253 9.88202 8.5052 9.85336 8.91053ZM20.7054 8.74186C20.626 9.37786 20.4154 11.0852 19.862 11.4979C19.4194 11.8279 18.2874 12.0592 17.4707 12.0592H17.47C16.732 12.0592 16.028 11.8719 15.4867 11.5639C14.6047 11.0625 14.4734 9.65653 14.422 8.91987C14.394 8.51453 14.3047 7.68586 14.9747 7.27453C15.7314 6.8092 17.2827 6.7772 17.7447 6.7772C18.7534 6.7772 19.7387 6.96186 20.446 7.20253C20.8914 7.35453 20.756 8.3372 20.7054 8.74186Z" fill="#292F33"/>
</g>
</g>
</g>
<defs>
<clipPath id="clip0_396_17796">
<rect width="24" height="24" fill="white" transform="translate(0.109375 0.0585938)"/>
</clipPath>
<clipPath id="clip1_396_17796">
<rect width="24" height="24" fill="white" transform="translate(0.109375 0.0585938)"/>
</clipPath>
<clipPath id="clip2_396_17796">
<rect width="24" height="24" fill="white" transform="translate(0.109375 0.0585938)"/>
</clipPath>
</defs>
</svg>
