<svg width="25" height="25" viewBox="0 0 25 25" fill="none" xmlns="http://www.w3.org/2000/svg">
<g clip-path="url(#clip0_396_17718)">
<g clip-path="url(#clip1_396_17718)">
<g clip-path="url(#clip2_396_17718)">
<path d="M20.029 2.83019C19.701 2.66685 19.5663 2.26419 19.7296 1.93619L20.443 0.505521C20.6063 0.177521 21.009 0.0428541 21.337 0.206187C21.665 0.369521 21.7996 0.772187 21.6363 1.10019L20.923 2.53085C20.7596 2.85885 20.357 2.99352 20.029 2.83019ZM20.6823 4.29619L20.6643 4.24085C20.553 3.90819 20.7336 3.54552 21.0663 3.43419L23.669 2.57019C24.001 2.45885 24.365 2.63952 24.4756 2.97219L24.4936 3.02752C24.605 3.36019 24.4236 3.72352 24.091 3.83485L21.489 4.69819C21.157 4.80952 20.7936 4.62885 20.6823 4.29619ZM21.025 5.80552C20.8616 6.13352 20.9963 6.53619 21.3243 6.69952L22.755 7.41285C23.083 7.57619 23.4856 7.44152 23.649 7.11352C23.8123 6.78552 23.6776 6.38285 23.3496 6.21952L21.919 5.50619C21.591 5.34285 21.1883 5.47752 21.025 5.80552Z" fill="#FA743E"/>
<path d="M8.0099 21.4078C7.31523 21.1752 5.93123 20.7738 6.22456 18.4238L6.65523 14.9745C6.7359 14.3278 7.4399 14.1312 8.2079 13.7672C8.87523 13.4505 10.4846 12.3652 10.8806 9.19582C11.2259 6.42516 10.7039 2.04782 10.5672 0.991156L7.51523 0.63849L4.4619 0.285156C4.08723 1.28316 2.5799 5.42516 2.2839 8.20182C1.9459 11.3778 3.26523 12.8018 3.84256 13.2625C4.50723 13.7918 5.1479 14.1438 5.07856 14.7918C5.0099 15.4398 4.96056 15.8932 4.71056 18.2485C4.4599 20.6032 3.02056 20.6778 2.29123 20.7458C0.906563 20.8745 0.829896 22.0005 1.49923 22.0712C2.1699 22.1432 4.98923 22.4732 4.98923 22.4732C4.98923 22.4732 7.8099 22.7958 8.47856 22.8785C9.14656 22.9632 9.32856 21.8492 8.0099 21.4078Z" fill="#E1E8ED"/>
<path d="M9.77857 2.40239C9.52323 2.56439 8.2059 3.27439 6.61657 3.40773C5.51457 3.50106 4.14923 3.36106 3.92523 4.10173C3.47323 5.59573 3.1139 6.91573 2.96923 8.27639C2.69457 10.8531 3.5879 12.0957 4.12257 12.5964L4.13723 12.6091C4.20257 12.6617 4.83857 13.1477 6.03723 13.2864C7.2279 13.4244 7.9819 13.1044 8.06857 13.0651C8.0779 13.0611 8.08057 13.0591 8.08923 13.0544C8.72457 12.6884 9.8759 11.6824 10.1966 9.11239C10.4326 7.21773 10.2426 4.48973 10.0672 2.71439C10.0539 2.57839 10.0339 2.24039 9.77857 2.40239Z" fill="#FFCC4D"/>
<path d="M8.82453 4.84437C9.06201 4.84437 9.25453 4.65186 9.25453 4.41437C9.25453 4.17689 9.06201 3.98438 8.82453 3.98438C8.58705 3.98438 8.39453 4.17689 8.39453 4.41437C8.39453 4.65186 8.58705 4.84437 8.82453 4.84437Z" fill="#FFD983"/>
<path d="M7.41828 6.27797C7.65576 6.27797 7.84828 6.08545 7.84828 5.84797C7.84828 5.61049 7.65576 5.41797 7.41828 5.41797C7.1808 5.41797 6.98828 5.61049 6.98828 5.84797C6.98828 6.08545 7.1808 6.27797 7.41828 6.27797Z" fill="#FFD983"/>
<path d="M9.03156 7.92641C9.26905 7.92641 9.46156 7.73389 9.46156 7.49641C9.46156 7.25892 9.26905 7.06641 9.03156 7.06641C8.79408 7.06641 8.60156 7.25892 8.60156 7.49641C8.60156 7.73389 8.79408 7.92641 9.03156 7.92641Z" fill="#FFD983"/>
<path d="M6.70344 9.00062C6.94092 9.00062 7.13344 8.80811 7.13344 8.57063C7.13344 8.33314 6.94092 8.14062 6.70344 8.14062C6.46596 8.14062 6.27344 8.33314 6.27344 8.57063C6.27344 8.80811 6.46596 9.00062 6.70344 9.00062Z" fill="#FFD983"/>
<path d="M5.33234 7.21937C5.56983 7.21937 5.76234 7.02686 5.76234 6.78938C5.76234 6.55189 5.56983 6.35938 5.33234 6.35938C5.09486 6.35938 4.90234 6.55189 4.90234 6.78938C4.90234 7.02686 5.09486 7.21937 5.33234 7.21937Z" fill="#FFD983"/>
<path d="M5.10187 5.18422C5.33936 5.18422 5.53187 4.9917 5.53187 4.75422C5.53187 4.51674 5.33936 4.32422 5.10187 4.32422C4.86439 4.32422 4.67188 4.51674 4.67188 4.75422C4.67188 4.9917 4.86439 5.18422 5.10187 5.18422Z" fill="#FFD983"/>
<path d="M14.4516 22.3759C15.1463 22.1432 16.5303 21.7419 16.2369 19.3919L15.8063 15.9426C15.7256 15.2959 15.0216 15.0992 14.2536 14.7352C13.5863 14.4186 11.9769 13.3332 11.5809 10.1639C11.2356 7.39324 11.7576 3.01591 11.8943 1.95924L14.9463 1.60657L17.9983 1.25391C18.3729 2.25191 19.8803 6.39391 20.1763 9.17057C20.5143 12.3466 19.1949 13.7706 18.6176 14.2312C17.9529 14.7606 17.3123 15.1126 17.3816 15.7606C17.4503 16.4086 17.4996 16.8619 17.7496 19.2172C18.0003 21.5719 19.4396 21.6466 20.1689 21.7146C21.5536 21.8432 21.6303 22.9692 20.9609 23.0399C20.2903 23.1119 17.4709 23.4419 17.4709 23.4419C17.4709 23.4419 14.6503 23.7646 13.9816 23.8472C13.3149 23.9312 13.1329 22.8179 14.4516 22.3759Z" fill="#E1E8ED"/>
<path d="M12.6839 3.37114C12.9392 3.53314 14.2572 4.24314 15.8459 4.37648C16.9479 4.46914 18.3139 4.32914 18.5379 5.07048C18.9899 6.56448 19.3492 7.88448 19.4939 9.24514C19.7686 11.8218 18.8752 13.0645 18.3406 13.5651L18.3259 13.5778C18.2606 13.6305 17.6246 14.1165 16.4259 14.2551C15.2352 14.3931 14.4812 14.0731 14.3946 14.0338C14.3852 14.0298 14.3826 14.0278 14.3739 14.0231C13.7386 13.6571 12.5872 12.6511 12.2666 10.0811C12.0306 8.18648 12.2206 5.45848 12.3959 3.68314C12.4086 3.54714 12.4286 3.20914 12.6839 3.37114Z" fill="#FFCC4D"/>
<path d="M13.637 5.81312C13.8745 5.81312 14.067 5.62061 14.067 5.38312C14.067 5.14564 13.8745 4.95312 13.637 4.95312C13.3995 4.95312 13.207 5.14564 13.207 5.38312C13.207 5.62061 13.3995 5.81312 13.637 5.81312Z" fill="#FFD983"/>
<path d="M15.0433 7.24281C15.2808 7.24281 15.4733 7.0503 15.4733 6.81281C15.4733 6.57533 15.2808 6.38281 15.0433 6.38281C14.8058 6.38281 14.6133 6.57533 14.6133 6.81281C14.6133 7.0503 14.8058 7.24281 15.0433 7.24281Z" fill="#FFD983"/>
<path d="M13.43 8.89516C13.6675 8.89516 13.86 8.70264 13.86 8.46516C13.86 8.22767 13.6675 8.03516 13.43 8.03516C13.1925 8.03516 13 8.22767 13 8.46516C13 8.70264 13.1925 8.89516 13.43 8.89516Z" fill="#FFD983"/>
<path d="M15.7581 9.96937C15.9956 9.96937 16.1881 9.77686 16.1881 9.53937C16.1881 9.30189 15.9956 9.10938 15.7581 9.10938C15.5206 9.10938 15.3281 9.30189 15.3281 9.53937C15.3281 9.77686 15.5206 9.96937 15.7581 9.96937Z" fill="#FFD983"/>
<path d="M17.1292 8.18422C17.3667 8.18422 17.5592 7.9917 17.5592 7.75422C17.5592 7.51674 17.3667 7.32422 17.1292 7.32422C16.8917 7.32422 16.6992 7.51674 16.6992 7.75422C16.6992 7.9917 16.8917 8.18422 17.1292 8.18422Z" fill="#FFD983"/>
<path d="M17.3597 6.15297C17.5972 6.15297 17.7897 5.96045 17.7897 5.72297C17.7897 5.48549 17.5972 5.29297 17.3597 5.29297C17.1222 5.29297 16.9297 5.48549 16.9297 5.72297C16.9297 5.96045 17.1222 6.15297 17.3597 6.15297Z" fill="#FFD983"/>
</g>
</g>
</g>
<defs>
<clipPath id="clip0_396_17718">
<rect width="24" height="24" fill="white" transform="translate(0.589844 0.0585938)"/>
</clipPath>
<clipPath id="clip1_396_17718">
<rect width="24" height="24" fill="white" transform="translate(0.589844 0.0585938)"/>
</clipPath>
<clipPath id="clip2_396_17718">
<rect width="24" height="24" fill="white" transform="translate(0.589844 0.0585938)"/>
</clipPath>
</defs>
</svg>
