<svg width="17" height="17" viewBox="0 0 17 17" fill="none" xmlns="http://www.w3.org/2000/svg">
<g clip-path="url(#clip0_396_18083)">
<g clip-path="url(#clip1_396_18083)">
<g clip-path="url(#clip2_396_18083)">
<path d="M16.4701 10.1081C16.4701 13.789 13.4843 16.7747 9.80339 16.7747C6.12161 16.7747 3.13672 13.789 3.13672 10.1081C3.13672 6.4263 6.12161 3.44141 9.80339 3.44141C13.4843 3.44141 16.4701 6.4263 16.4701 10.1081Z" fill="#FFCC4D"/>
<path d="M10.6318 1.27577C10.5978 1.14223 10.5236 1.02239 10.4191 0.932535C10.3146 0.842683 10.185 0.787173 10.0478 0.773547C9.9269 0.760672 9.80468 0.778876 9.69273 0.826436L7.12607 1.91355C5.65318 2.39088 5.74118 2.34688 5.51451 2.48288C5.10785 2.72599 4.62251 3.15532 3.75407 3.98377C3.01585 4.68777 0.496291 5.12466 0.488291 7.57044C0.48518 8.52199 1.22474 9.30155 2.24785 9.29844C3.32474 9.29488 3.94385 8.7251 4.23985 8.33888C4.41852 8.10591 4.65009 7.91882 4.9154 7.7931C6.66207 6.95977 5.91807 6.22777 7.21985 4.5571C7.24863 4.52068 7.26905 4.47836 7.27965 4.43316C7.29026 4.38796 7.29078 4.34098 7.2812 4.29556C7.27161 4.25013 7.25215 4.20737 7.22419 4.17031C7.19623 4.13325 7.16045 4.10279 7.1194 4.0811L10.1674 2.29266C10.4376 2.13399 10.5576 1.84644 10.4776 1.54866L10.5198 1.52599C10.5635 1.50252 10.5982 1.46524 10.6185 1.41997C10.6388 1.3747 10.6434 1.32399 10.6318 1.27577Z" fill="#F4900C"/>
<path d="M10.6119 1.3236C10.6031 1.3051 10.5908 1.28853 10.5756 1.27483C10.5604 1.26114 10.5426 1.2506 10.5233 1.24382C10.504 1.23704 10.4836 1.23416 10.4631 1.23534C10.4427 1.23652 10.4227 1.24175 10.4043 1.25071L9.20521 1.82582C9.25221 1.65387 9.23839 1.47098 9.1661 1.30804C9.13166 1.23389 9.08408 1.16658 9.02566 1.10938L8.6861 1.25293C8.77311 1.28727 8.84371 1.35358 8.88344 1.43826C8.97633 1.64004 8.91099 1.93604 8.60655 2.11293L7.45766 2.66404C7.57721 2.42404 7.60788 2.17826 7.55099 1.97871C7.52977 1.90591 7.49609 1.83734 7.45144 1.77604L7.14433 1.90626C7.19545 1.94645 7.233 2.00137 7.25188 2.0636C7.33899 2.36982 7.10388 2.84004 6.55855 3.09604C6.0381 3.34049 5.87677 3.73204 5.68966 4.18582C5.60388 4.39337 5.50699 4.62849 5.36344 4.87604C4.98166 5.53382 4.03766 6.60271 3.61677 7.01649C3.60221 7.03082 3.59061 7.04787 3.58264 7.06668C3.57467 7.08549 3.57048 7.10569 3.57032 7.12612C3.57015 7.14655 3.57401 7.16681 3.58168 7.18575C3.58934 7.20468 3.60066 7.22192 3.61499 7.23649C3.62932 7.25105 3.64638 7.26265 3.66519 7.27062C3.684 7.27859 3.7042 7.28277 3.72462 7.28294C3.74505 7.2831 3.76531 7.27924 3.78425 7.27158C3.80319 7.26391 3.82043 7.25259 3.83499 7.23826C4.24166 6.83915 5.21766 5.7476 5.63277 5.03249L5.63455 5.02937L5.63499 5.02893C6.03633 4.29115 6.47633 4.01204 6.73633 4.06449C6.92255 4.10182 6.97144 4.30671 6.98388 4.42582C6.9892 4.46596 7.00995 4.50244 7.04173 4.52752C7.07352 4.5526 7.11383 4.56429 7.1541 4.56013C7.19437 4.55596 7.23143 4.53626 7.25741 4.50521C7.28338 4.47415 7.29623 4.43419 7.29321 4.39382C7.25766 4.0516 7.07233 3.81471 6.79721 3.7596C6.61899 3.72315 6.38877 3.76893 6.14033 3.93871C6.2621 3.69782 6.40966 3.51071 6.69144 3.37871C6.71366 3.36849 6.73144 3.35515 6.75233 3.34449C6.75677 3.34271 6.76166 3.3436 6.76655 3.34137L10.4768 1.56182C10.4759 1.55782 10.4768 1.55426 10.4754 1.55026L10.5172 1.5276C10.5446 1.51255 10.5684 1.49191 10.5873 1.46702C10.6061 1.44213 10.6195 1.41356 10.6265 1.38315C10.6258 1.3625 10.6209 1.34222 10.6119 1.3236Z" fill="#B55005"/>
<path d="M9.80165 13.7739C7.99009 13.7739 7.06565 13.5481 7.02698 13.5383C6.91263 13.5097 6.81432 13.4368 6.75366 13.3357C6.69299 13.2346 6.67492 13.1136 6.70343 12.9992C6.73251 12.8853 6.80532 12.7874 6.90608 12.7269C7.00684 12.6663 7.12741 12.6479 7.24165 12.6756C7.25898 12.6801 8.12254 12.885 9.80121 12.885C11.4883 12.885 12.3523 12.6779 12.3612 12.6756C12.4178 12.6616 12.4767 12.6587 12.5344 12.6674C12.5921 12.676 12.6475 12.696 12.6975 12.726C12.7475 12.7561 12.7911 12.7957 12.8258 12.8426C12.8604 12.8895 12.8856 12.9428 12.8996 12.9994C12.9137 13.056 12.9166 13.1149 12.9079 13.1726C12.8993 13.2303 12.8793 13.2857 12.8493 13.3357C12.8192 13.3857 12.7796 13.4293 12.7327 13.464C12.6858 13.4987 12.6325 13.5238 12.5759 13.5379C12.5376 13.5481 11.6132 13.7739 9.80165 13.7739ZM8.46832 6.99609H6.69054C6.57266 6.99609 6.45962 7.04292 6.37627 7.12627C6.29292 7.20962 6.24609 7.32266 6.24609 7.44054C6.24609 7.55841 6.29292 7.67146 6.37627 7.75481C6.45962 7.83816 6.57266 7.88498 6.69054 7.88498H6.9212C6.77943 8.12143 6.69054 8.43076 6.69054 8.77387C6.69054 9.51076 7.08876 10.1072 7.57943 10.1072C8.07009 10.1072 8.46832 9.51032 8.46832 8.77387C8.46832 8.43076 8.37943 8.12143 8.23765 7.88498H8.46832C8.58619 7.88498 8.69924 7.83816 8.78259 7.75481C8.86594 7.67146 8.91276 7.55841 8.91276 7.44054C8.91276 7.32266 8.86594 7.20962 8.78259 7.12627C8.69924 7.04292 8.58619 6.99609 8.46832 6.99609ZM12.9128 6.99609H11.135C11.0171 6.99609 10.9041 7.04292 10.8207 7.12627C10.7374 7.20962 10.6905 7.32266 10.6905 7.44054C10.6905 7.55841 10.7374 7.67146 10.8207 7.75481C10.9041 7.83816 11.0171 7.88498 11.135 7.88498H11.3656C11.2239 8.12143 11.135 8.43076 11.135 8.77387C11.135 9.51032 11.5332 10.1072 12.0239 10.1072C12.5145 10.1072 12.9128 9.51076 12.9128 8.77387C12.9128 8.43076 12.8239 8.12143 12.6821 7.88498H12.9128C13.0306 7.88498 13.1437 7.83816 13.227 7.75481C13.3104 7.67146 13.3572 7.55841 13.3572 7.44054C13.3572 7.32266 13.3104 7.20962 13.227 7.12627C13.1437 7.04292 13.0306 6.99609 12.9128 6.99609Z" fill="#65471B"/>
</g>
</g>
</g>
<defs>
<clipPath id="clip0_396_18083">
<rect width="16" height="16" fill="white" transform="translate(0.46875 0.773438)"/>
</clipPath>
<clipPath id="clip1_396_18083">
<rect width="16" height="16" fill="white" transform="translate(0.46875 0.773438)"/>
</clipPath>
<clipPath id="clip2_396_18083">
<rect width="16" height="16" fill="white" transform="translate(0.46875 0.773438)"/>
</clipPath>
</defs>
</svg>
