<svg width="17" height="17" viewBox="0 0 17 17" fill="none" xmlns="http://www.w3.org/2000/svg">
<g clip-path="url(#clip0_396_18076)">
<g clip-path="url(#clip1_396_18076)">
<g clip-path="url(#clip2_396_18076)">
<path d="M16.2513 10.1081C16.2513 13.789 13.2655 16.7747 9.58464 16.7747C5.90286 16.7747 2.91797 13.789 2.91797 10.1081C2.91797 6.4263 5.90286 3.44141 9.58464 3.44141C13.2655 3.44141 16.2513 6.4263 16.2513 10.1081Z" fill="#FFCC4D"/>
<path d="M10.4131 1.27577C10.3791 1.14223 10.3048 1.02239 10.2003 0.932535C10.0958 0.842683 9.96623 0.787173 9.8291 0.773547C9.70815 0.760672 9.58593 0.778876 9.47398 0.826436L6.90732 1.91355C5.43443 2.39088 5.52243 2.34688 5.29576 2.48288C4.8891 2.72599 4.40376 3.15532 3.53532 3.98377C2.7971 4.68777 0.277541 5.12466 0.269541 7.57044C0.26643 8.52199 1.00599 9.30155 2.0291 9.29844C3.10599 9.29488 3.7251 8.7251 4.0211 8.33888C4.19977 8.10591 4.43134 7.91882 4.69665 7.7931C6.44332 6.95977 5.69932 6.22777 7.0011 4.5571C7.02988 4.52068 7.0503 4.47836 7.0609 4.43316C7.07151 4.38796 7.07203 4.34098 7.06245 4.29556C7.05286 4.25013 7.0334 4.20737 7.00544 4.17031C6.97748 4.13325 6.9417 4.10279 6.90065 4.0811L9.94865 2.29266C10.2189 2.13399 10.3389 1.84644 10.2589 1.54866L10.3011 1.52599C10.3448 1.50252 10.3795 1.46524 10.3997 1.41997C10.42 1.3747 10.4247 1.32399 10.4131 1.27577Z" fill="#F4900C"/>
<path d="M10.3931 1.3236C10.3844 1.3051 10.372 1.28853 10.3568 1.27483C10.3416 1.26114 10.3239 1.2506 10.3046 1.24382C10.2853 1.23704 10.2648 1.23416 10.2444 1.23534C10.224 1.23652 10.204 1.24175 10.1856 1.25071L8.98646 1.82582C9.03346 1.65387 9.01964 1.47098 8.94735 1.30804C8.91291 1.23389 8.86533 1.16658 8.80691 1.10938L8.46735 1.25293C8.55436 1.28727 8.62496 1.35358 8.66469 1.43826C8.75758 1.64004 8.69224 1.93604 8.3878 2.11293L7.23891 2.66404C7.35846 2.42404 7.38913 2.17826 7.33224 1.97871C7.31102 1.90591 7.27734 1.83734 7.23269 1.77604L6.92558 1.90626C6.9767 1.94645 7.01425 2.00137 7.03313 2.0636C7.12024 2.36982 6.88513 2.84004 6.3398 3.09604C5.81935 3.34049 5.65802 3.73204 5.47091 4.18582C5.38513 4.39337 5.28824 4.62849 5.14469 4.87604C4.76291 5.53382 3.81891 6.60271 3.39802 7.01649C3.38346 7.03082 3.37186 7.04787 3.36389 7.06668C3.35592 7.08549 3.35173 7.10569 3.35157 7.12612C3.3514 7.14655 3.35526 7.16681 3.36293 7.18575C3.37059 7.20468 3.38191 7.22192 3.39624 7.23649C3.41057 7.25105 3.42763 7.26265 3.44644 7.27062C3.46525 7.27859 3.48545 7.28277 3.50587 7.28294C3.5263 7.2831 3.54656 7.27924 3.5655 7.27158C3.58444 7.26391 3.60168 7.25259 3.61624 7.23826C4.02291 6.83915 4.99891 5.7476 5.41402 5.03249L5.4158 5.02937L5.41624 5.02893C5.81758 4.29115 6.25758 4.01204 6.51758 4.06449C6.7038 4.10182 6.75269 4.30671 6.76513 4.42582C6.77045 4.46596 6.7912 4.50244 6.82298 4.52752C6.85477 4.5526 6.89508 4.56429 6.93535 4.56013C6.97562 4.55596 7.01268 4.53626 7.03866 4.50521C7.06463 4.47415 7.07748 4.43419 7.07446 4.39382C7.03891 4.0516 6.85358 3.81471 6.57846 3.7596C6.40024 3.72315 6.17002 3.76893 5.92158 3.93871C6.04335 3.69782 6.19091 3.51071 6.47269 3.37871C6.49491 3.36849 6.51269 3.35515 6.53358 3.34449C6.53802 3.34271 6.54291 3.3436 6.5478 3.34137L10.258 1.56182C10.2571 1.55782 10.258 1.55426 10.2567 1.55026L10.2985 1.5276C10.3258 1.51255 10.3497 1.49191 10.3685 1.46702C10.3874 1.44213 10.4007 1.41356 10.4078 1.38315C10.4071 1.3625 10.4021 1.34222 10.3931 1.3236Z" fill="#B55005"/>
<path d="M9.5829 13.7739C7.77134 13.7739 6.8469 13.5481 6.80823 13.5383C6.69388 13.5097 6.59557 13.4368 6.53491 13.3357C6.47424 13.2346 6.45617 13.1136 6.48468 12.9992C6.51376 12.8853 6.58657 12.7874 6.68733 12.7269C6.78809 12.6663 6.90866 12.6479 7.0229 12.6756C7.04023 12.6801 7.90379 12.885 9.58246 12.885C11.2696 12.885 12.1336 12.6779 12.1425 12.6756C12.1991 12.6616 12.2579 12.6587 12.3156 12.6674C12.3733 12.676 12.4287 12.696 12.4787 12.726C12.5287 12.7561 12.5723 12.7957 12.607 12.8426C12.6417 12.8895 12.6668 12.9428 12.6809 12.9994C12.695 13.056 12.6978 13.1149 12.6892 13.1726C12.6805 13.2303 12.6606 13.2857 12.6305 13.3357C12.6005 13.3857 12.5608 13.4293 12.5139 13.464C12.467 13.4987 12.4137 13.5238 12.3571 13.5379C12.3189 13.5481 11.3945 13.7739 9.5829 13.7739ZM8.24957 6.99609H6.47179C6.35391 6.99609 6.24087 7.04292 6.15752 7.12627C6.07417 7.20962 6.02734 7.32266 6.02734 7.44054C6.02734 7.55841 6.07417 7.67146 6.15752 7.75481C6.24087 7.83816 6.35391 7.88498 6.47179 7.88498H6.70245C6.56068 8.12143 6.47179 8.43076 6.47179 8.77387C6.47179 9.51076 6.87001 10.1072 7.36068 10.1072C7.85134 10.1072 8.24957 9.51032 8.24957 8.77387C8.24957 8.43076 8.16068 8.12143 8.0189 7.88498H8.24957C8.36744 7.88498 8.48049 7.83816 8.56384 7.75481C8.64719 7.67146 8.69401 7.55841 8.69401 7.44054C8.69401 7.32266 8.64719 7.20962 8.56384 7.12627C8.48049 7.04292 8.36744 6.99609 8.24957 6.99609ZM12.694 6.99609H10.9162C10.7984 6.99609 10.6853 7.04292 10.602 7.12627C10.5186 7.20962 10.4718 7.32266 10.4718 7.44054C10.4718 7.55841 10.5186 7.67146 10.602 7.75481C10.6853 7.83816 10.7984 7.88498 10.9162 7.88498H11.1469C11.0051 8.12143 10.9162 8.43076 10.9162 8.77387C10.9162 9.51032 11.3145 10.1072 11.8051 10.1072C12.2958 10.1072 12.694 9.51076 12.694 8.77387C12.694 8.43076 12.6051 8.12143 12.4633 7.88498H12.694C12.8119 7.88498 12.9249 7.83816 13.0083 7.75481C13.0916 7.67146 13.1385 7.55841 13.1385 7.44054C13.1385 7.32266 13.0916 7.20962 13.0083 7.12627C12.9249 7.04292 12.8119 6.99609 12.694 6.99609Z" fill="#65471B"/>
</g>
</g>
</g>
<defs>
<clipPath id="clip0_396_18076">
<rect width="16" height="16" fill="white" transform="translate(0.25 0.773438)"/>
</clipPath>
<clipPath id="clip1_396_18076">
<rect width="16" height="16" fill="white" transform="translate(0.25 0.773438)"/>
</clipPath>
<clipPath id="clip2_396_18076">
<rect width="16" height="16" fill="white" transform="translate(0.25 0.773438)"/>
</clipPath>
</defs>
</svg>
