<svg width="17" height="17" viewBox="0 0 17 17" fill="none" xmlns="http://www.w3.org/2000/svg">
<g clip-path="url(#clip0_396_18069)">
<g clip-path="url(#clip1_396_18069)">
<g clip-path="url(#clip2_396_18069)">
<path d="M16.0326 10.1081C16.0326 13.789 13.0468 16.7747 9.36589 16.7747C5.68411 16.7747 2.69922 13.789 2.69922 10.1081C2.69922 6.4263 5.68411 3.44141 9.36589 3.44141C13.0468 3.44141 16.0326 6.4263 16.0326 10.1081Z" fill="#FFCC4D"/>
<path d="M10.1943 1.27577C10.1603 1.14223 10.0861 1.02239 9.98157 0.932535C9.87709 0.842683 9.74748 0.787173 9.61035 0.773547C9.4894 0.760672 9.36718 0.778876 9.25523 0.826436L6.68857 1.91355C5.21568 2.39088 5.30368 2.34688 5.07701 2.48288C4.67035 2.72599 4.18501 3.15532 3.31657 3.98377C2.57835 4.68777 0.058791 5.12466 0.050791 7.57044C0.0476799 8.52199 0.787235 9.30155 1.81035 9.29844C2.88724 9.29488 3.50635 8.7251 3.80235 8.33888C3.98102 8.10591 4.21259 7.91882 4.4779 7.7931C6.22457 6.95977 5.48057 6.22777 6.78235 4.5571C6.81113 4.52068 6.83155 4.47836 6.84215 4.43316C6.85276 4.38796 6.85328 4.34098 6.8437 4.29556C6.83411 4.25013 6.81465 4.20737 6.78669 4.17031C6.75873 4.13325 6.72295 4.10279 6.6819 4.0811L9.7299 2.29266C10.0001 2.13399 10.1201 1.84644 10.0401 1.54866L10.0823 1.52599C10.126 1.50252 10.1607 1.46524 10.181 1.41997C10.2013 1.3747 10.2059 1.32399 10.1943 1.27577Z" fill="#F4900C"/>
<path d="M10.1744 1.3236C10.1656 1.3051 10.1533 1.28853 10.1381 1.27483C10.1229 1.26114 10.1051 1.2506 10.0858 1.24382C10.0665 1.23704 10.0461 1.23416 10.0256 1.23534C10.0052 1.23652 9.98522 1.24175 9.96683 1.25071L8.76771 1.82582C8.81471 1.65387 8.80089 1.47098 8.7286 1.30804C8.69416 1.23389 8.64658 1.16658 8.58816 1.10938L8.2486 1.25293C8.33561 1.28727 8.40621 1.35358 8.44594 1.43826C8.53883 1.64004 8.47349 1.93604 8.16905 2.11293L7.02016 2.66404C7.13971 2.42404 7.17038 2.17826 7.11349 1.97871C7.09227 1.90591 7.05859 1.83734 7.01394 1.77604L6.70683 1.90626C6.75795 1.94645 6.7955 2.00137 6.81438 2.0636C6.90149 2.36982 6.66638 2.84004 6.12105 3.09604C5.6006 3.34049 5.43927 3.73204 5.25216 4.18582C5.16638 4.39337 5.06949 4.62849 4.92594 4.87604C4.54416 5.53382 3.60016 6.60271 3.17927 7.01649C3.16471 7.03082 3.15311 7.04787 3.14514 7.06668C3.13717 7.08549 3.13298 7.10569 3.13282 7.12612C3.13265 7.14655 3.13651 7.16681 3.14418 7.18575C3.15184 7.20468 3.16316 7.22192 3.17749 7.23649C3.19182 7.25105 3.20888 7.26265 3.22769 7.27062C3.2465 7.27859 3.2667 7.28277 3.28712 7.28294C3.30755 7.2831 3.32781 7.27924 3.34675 7.27158C3.36569 7.26391 3.38293 7.25259 3.39749 7.23826C3.80416 6.83915 4.78016 5.7476 5.19527 5.03249L5.19705 5.02937L5.19749 5.02893C5.59883 4.29115 6.03883 4.01204 6.29883 4.06449C6.48505 4.10182 6.53394 4.30671 6.54638 4.42582C6.5517 4.46596 6.57245 4.50244 6.60423 4.52752C6.63602 4.5526 6.67633 4.56429 6.7166 4.56013C6.75687 4.55596 6.79393 4.53626 6.81991 4.50521C6.84588 4.47415 6.85873 4.43419 6.85571 4.39382C6.82016 4.0516 6.63483 3.81471 6.35971 3.7596C6.18149 3.72315 5.95127 3.76893 5.70283 3.93871C5.8246 3.69782 5.97216 3.51071 6.25394 3.37871C6.27616 3.36849 6.29394 3.35515 6.31483 3.34449C6.31927 3.34271 6.32416 3.3436 6.32905 3.34137L10.0393 1.56182C10.0384 1.55782 10.0393 1.55426 10.0379 1.55026L10.0797 1.5276C10.1071 1.51255 10.1309 1.49191 10.1498 1.46702C10.1686 1.44213 10.182 1.41356 10.189 1.38315C10.1883 1.3625 10.1834 1.34222 10.1744 1.3236Z" fill="#B55005"/>
<path d="M9.36415 13.7739C7.55259 13.7739 6.62815 13.5481 6.58948 13.5383C6.47513 13.5097 6.37682 13.4368 6.31616 13.3357C6.25549 13.2346 6.23742 13.1136 6.26593 12.9992C6.29501 12.8853 6.36782 12.7874 6.46858 12.7269C6.56934 12.6663 6.68991 12.6479 6.80415 12.6756C6.82148 12.6801 7.68504 12.885 9.36371 12.885C11.0508 12.885 11.9148 12.6779 11.9237 12.6756C11.9803 12.6616 12.0392 12.6587 12.0969 12.6674C12.1546 12.676 12.21 12.696 12.26 12.726C12.31 12.7561 12.3536 12.7957 12.3883 12.8426C12.4229 12.8895 12.4481 12.9428 12.4621 12.9994C12.4762 13.056 12.4791 13.1149 12.4704 13.1726C12.4618 13.2303 12.4418 13.2857 12.4118 13.3357C12.3817 13.3857 12.3421 13.4293 12.2952 13.464C12.2483 13.4987 12.195 13.5238 12.1384 13.5379C12.1001 13.5481 11.1757 13.7739 9.36415 13.7739ZM8.03082 6.99609H6.25304C6.13516 6.99609 6.02212 7.04292 5.93877 7.12627C5.85542 7.20962 5.80859 7.32266 5.80859 7.44054C5.80859 7.55841 5.85542 7.67146 5.93877 7.75481C6.02212 7.83816 6.13516 7.88498 6.25304 7.88498H6.4837C6.34193 8.12143 6.25304 8.43076 6.25304 8.77387C6.25304 9.51076 6.65126 10.1072 7.14193 10.1072C7.63259 10.1072 8.03082 9.51032 8.03082 8.77387C8.03082 8.43076 7.94193 8.12143 7.80015 7.88498H8.03082C8.14869 7.88498 8.26174 7.83816 8.34509 7.75481C8.42844 7.67146 8.47526 7.55841 8.47526 7.44054C8.47526 7.32266 8.42844 7.20962 8.34509 7.12627C8.26174 7.04292 8.14869 6.99609 8.03082 6.99609ZM12.4753 6.99609H10.6975C10.5796 6.99609 10.4666 7.04292 10.3832 7.12627C10.2999 7.20962 10.253 7.32266 10.253 7.44054C10.253 7.55841 10.2999 7.67146 10.3832 7.75481C10.4666 7.83816 10.5796 7.88498 10.6975 7.88498H10.9281C10.7864 8.12143 10.6975 8.43076 10.6975 8.77387C10.6975 9.51032 11.0957 10.1072 11.5864 10.1072C12.077 10.1072 12.4753 9.51076 12.4753 8.77387C12.4753 8.43076 12.3864 8.12143 12.2446 7.88498H12.4753C12.5931 7.88498 12.7062 7.83816 12.7895 7.75481C12.8729 7.67146 12.9197 7.55841 12.9197 7.44054C12.9197 7.32266 12.8729 7.20962 12.7895 7.12627C12.7062 7.04292 12.5931 6.99609 12.4753 6.99609Z" fill="#65471B"/>
</g>
</g>
</g>
<defs>
<clipPath id="clip0_396_18069">
<rect width="16" height="16" fill="white" transform="translate(0.03125 0.773438)"/>
</clipPath>
<clipPath id="clip1_396_18069">
<rect width="16" height="16" fill="white" transform="translate(0.03125 0.773438)"/>
</clipPath>
<clipPath id="clip2_396_18069">
<rect width="16" height="16" fill="white" transform="translate(0.03125 0.773438)"/>
</clipPath>
</defs>
</svg>
