<svg width="24" height="25" viewBox="0 0 24 25" fill="none" xmlns="http://www.w3.org/2000/svg">
<g clip-path="url(#clip0_396_19750)">
<g clip-path="url(#clip1_396_19750)">
<path fill-rule="evenodd" clip-rule="evenodd" d="M19.9982 12.5635C20.0117 12.2564 19.7641 11.9781 19.4082 11.9818L19.3909 11.9816C19.0811 11.974 18.7897 12.2446 18.786 12.6141L18.7716 14.0568C18.7688 14.3357 18.5457 14.5603 18.2713 14.5604C17.9969 14.5605 17.7735 14.3362 17.7705 14.0573L17.7486 12.0634C17.7485 12.0539 17.7487 12.0445 17.7491 12.0351C17.7626 11.728 17.515 11.4497 17.159 11.4534L17.1418 11.4532C16.8321 11.4456 16.5409 11.7159 16.5368 12.085L16.5233 13.4435C16.5205 13.7245 16.2941 13.9499 16.0177 13.9471C15.7412 13.9443 15.5194 13.7142 15.5222 13.4332L15.5425 11.3964L15.543 11.3789C15.5564 11.0719 15.3088 10.7936 14.9529 10.7972L14.9356 10.7971C14.6258 10.7894 14.3344 11.06 14.3307 11.4295L14.3172 12.7874C14.3144 13.0684 14.088 13.2938 13.8115 13.291C13.5351 13.2881 13.3132 13.058 13.316 12.7771L13.3664 7.72757C13.3679 7.57797 13.2856 7.38987 13.187 7.28968C13.0806 7.18158 12.9352 7.10552 12.7561 7.10737C12.4023 7.11101 12.0954 7.42298 12.0918 7.78254L12.0321 13.7656C12.032 13.7755 12.0316 13.7855 12.031 13.7954C12.0027 14.2125 11.7147 14.5044 11.3867 14.594C11.0517 14.6855 10.65 14.5712 10.4313 14.1967C10.4153 14.1692 10.4018 14.1403 10.3911 14.1102L9.73791 12.2764C9.66601 12.1673 9.55651 12.1072 9.41746 12.106C9.14937 12.124 8.96561 12.3642 9.00784 12.6188L9.75632 16.617C9.83737 16.9147 9.90543 17.1556 10.0013 17.3535L10.0019 17.3547L11.5006 20.4701C11.9452 21.4601 12.9408 22.0836 14.0478 22.0722L16.1772 22.0502C17.3455 22.0382 18.4112 21.2877 18.8727 20.1681L19.7281 18.04C19.7305 18.0341 19.7329 18.0283 19.7355 18.0226C19.8734 17.7127 19.9505 17.3165 19.9542 16.9516L19.9978 12.581L19.9982 12.5635ZM14.3461 9.89157C14.5327 9.81577 14.7369 9.77563 14.9513 9.77976C15.5655 9.77666 16.1071 10.1202 16.3722 10.6347C16.6042 10.5034 16.8717 10.4304 17.1575 10.4359C17.7409 10.4329 18.2587 10.7428 18.5364 11.2148C18.7871 11.0513 19.0853 10.9581 19.4066 10.9643C20.2963 10.9598 21.0337 11.6828 20.9988 12.5992L20.9553 16.9619C20.9505 17.4425 20.8526 17.9776 20.6516 18.433L19.7972 20.5589C19.1887 22.0375 17.7741 23.0513 16.1873 23.0677L14.058 23.0896C12.5786 23.1048 11.2113 22.2702 10.5925 20.8989L9.10308 17.8029C8.95945 17.5063 8.86807 17.1705 8.79171 16.8895L8.78588 16.8681C8.78225 16.8547 8.77916 16.8412 8.77661 16.8276L8.02216 12.7975C7.86945 11.9125 8.52587 11.13 9.37951 11.0891C9.38567 11.0888 9.39184 11.0886 9.39801 11.0885C9.91037 11.0833 10.372 11.3455 10.6276 11.8057C10.6413 11.8304 10.653 11.8561 10.6624 11.8827L11.0391 12.9402L11.0907 7.77223C11.0998 6.85879 11.8472 6.09918 12.746 6.08993C13.235 6.08489 13.6294 6.30028 13.895 6.5702C14.1683 6.84804 14.372 7.29343 14.3675 7.73789L14.3461 9.89157Z" fill="#292B2E"/>
<path d="M4.14286 8.9262C4.90476 9.70196 5.83333 10.0898 6.92857 10.0898H9V8.99893H6.92857C6.14286 8.99893 5.47024 8.71408 4.91071 8.14438C4.35119 7.57469 4.07143 6.88984 4.07143 6.08984C4.07143 5.28984 4.35119 4.60499 4.91071 4.03529C5.47024 3.4656 6.14286 3.18075 6.92857 3.18075H14.0714C14.8571 3.18075 15.5298 3.4656 16.0893 4.03529C16.6488 4.60499 16.9286 5.28984 16.9286 6.08984C16.9286 6.88984 16.6488 7.57469 16.0893 8.14438C16.0593 8.17493 16.029 8.20465 15.9983 8.23355C15.9967 8.13219 15.9994 8.26721 15.9983 8.23355L16.8571 8.9262C17.619 8.15045 18 7.20499 18 6.08984C18 4.97469 17.619 4.02923 16.8571 3.25348C16.0952 2.47772 15.1667 2.08984 14.0714 2.08984H6.92857C5.83333 2.08984 4.90476 2.47772 4.14286 3.25348C3.38095 4.02923 3 4.97469 3 6.08984C3 7.20499 3.38095 8.15045 4.14286 8.9262Z" fill="#292B2E"/>
<path d="M8.32198 7.50802C7.94103 7.8959 7.47674 8.08984 6.92912 8.08984C6.3815 8.08984 5.91722 7.8959 5.53626 7.50802C5.15531 7.12014 4.96484 6.64742 4.96484 6.08984C4.96484 5.53226 5.15531 5.05954 5.53626 4.67166C5.91722 4.28378 6.3815 4.08984 6.92912 4.08984C7.47674 4.08984 7.94103 4.28378 8.32198 4.67166C8.70293 5.05954 8.89341 5.53226 8.89341 6.08984C8.89341 6.64742 8.70293 7.12014 8.32198 7.50802Z" fill="#292B2E"/>
</g>
</g>
<defs>
<clipPath id="clip0_396_19750">
<rect width="24" height="24" fill="white" transform="translate(0 0.0898438)"/>
</clipPath>
<clipPath id="clip1_396_19750">
<rect width="24" height="24" fill="white" transform="translate(0 0.0898438)"/>
</clipPath>
</defs>
</svg>
