<svg width="160" height="161" viewBox="0 0 160 161" fill="none" xmlns="http://www.w3.org/2000/svg">
<g clip-path="url(#clip0_396_19940)">
<g clip-path="url(#clip1_396_19940)">
<path d="M61.9729 131.492L58.5117 139.798" stroke="#A2A2A2" stroke-width="1.2" stroke-miterlimit="10" stroke-linecap="round" stroke-linejoin="round"/>
<path d="M58.512 144.829C61.1117 144.829 63.2192 142.721 63.2192 140.121C63.2192 137.522 61.1117 135.414 58.512 135.414C55.9122 135.414 53.8047 137.522 53.8047 140.121C53.8047 142.721 55.9122 144.829 58.512 144.829Z" fill="white" stroke="#A2A2A2" stroke-width="1.2" stroke-miterlimit="10" stroke-linecap="round" stroke-linejoin="round"/>
<path d="M98.9141 118.155L117.35 66.375H136.964L124.019 118.155H98.9141Z" fill="#A2A2A2" stroke="#A2A2A2" stroke-width="1.2" stroke-linejoin="round"/>
<path d="M110.292 118.156H41.2529L34.9766 131.493H129.121" stroke="#A2A2A2" stroke-width="1.2" stroke-miterlimit="10" stroke-linecap="round" stroke-linejoin="round"/>
<path d="M60.8661 118.156L54.5898 131.493" stroke="#A2A2A2" stroke-width="1.2" stroke-miterlimit="10" stroke-linecap="round" stroke-linejoin="round"/>
<path d="M41.2535 118.155L28.3086 66.375H123.238L110.293 118.155H41.2535Z" fill="white"/>
<path d="M28.3053 66.3755L41.2502 118.155H110.29L123.235 66.3755H104.798M28.3053 66.3755L23.5981 49.5078H14.1836M28.3053 66.3755H56.941" stroke="#A2A2A2" stroke-width="1.2" stroke-miterlimit="10" stroke-linecap="round" stroke-linejoin="round"/>
<path d="M51.0592 66.3755L46.352 49.5078H36.9375" stroke="#A2A2A2" stroke-width="1.2" stroke-miterlimit="10" stroke-linecap="round" stroke-linejoin="round"/>
<path d="M43.1447 131.492L39.6836 139.798" stroke="#A2A2A2" stroke-width="1.2" stroke-miterlimit="10" stroke-linecap="round" stroke-linejoin="round"/>
<path d="M103.555 131.492L100.094 139.798" stroke="#A2A2A2" stroke-width="1.2" stroke-miterlimit="10" stroke-linecap="round" stroke-linejoin="round"/>
<path d="M123.168 131.492L119.707 139.798" stroke="#A2A2A2" stroke-width="1.2" stroke-miterlimit="10" stroke-linecap="round" stroke-linejoin="round"/>
<path d="M39.6838 144.829C42.2835 144.829 44.3911 142.721 44.3911 140.121C44.3911 137.522 42.2835 135.414 39.6838 135.414C37.0841 135.414 34.9766 137.522 34.9766 140.121C34.9766 142.721 37.0841 144.829 39.6838 144.829Z" fill="white" stroke="#A2A2A2" stroke-width="1.2" stroke-miterlimit="10" stroke-linecap="round" stroke-linejoin="round"/>
<path d="M100.094 144.829C102.693 144.829 104.801 142.721 104.801 140.121C104.801 137.522 102.693 135.414 100.094 135.414C97.4942 135.414 95.3867 137.522 95.3867 140.121C95.3867 142.721 97.4942 144.829 100.094 144.829Z" fill="white" stroke="#A2A2A2" stroke-width="1.2" stroke-miterlimit="10" stroke-linecap="round" stroke-linejoin="round"/>
<path d="M119.707 144.829C122.307 144.829 124.415 142.721 124.415 140.121C124.415 137.522 122.307 135.414 119.707 135.414C117.108 135.414 115 137.522 115 140.121C115 142.721 117.108 144.829 119.707 144.829Z" fill="white" stroke="#A2A2A2" stroke-width="1.2" stroke-miterlimit="10" stroke-linecap="round" stroke-linejoin="round"/>
<path d="M21.4531 145.016H139.504" stroke="#A2A2A2" stroke-width="1.2" stroke-miterlimit="10" stroke-linecap="round" stroke-linejoin="round"/>
<path d="M59.1681 16.2212C59.684 15.6831 60.3972 15.3789 61.1426 15.3789H106.771C108.282 15.3789 109.506 16.6036 109.506 18.1144V42.8574C109.506 44.3681 108.282 45.5929 106.771 45.5929H55.755C54.2442 45.5929 53.0195 44.3681 53.0195 42.8574V23.7335C53.0195 23.0279 53.2921 22.3496 53.7804 21.8403L59.1681 16.2212Z" stroke="#292B2E" stroke-width="1.2" stroke-linecap="round" stroke-linejoin="round" stroke-dasharray="6.84 6.84"/>
<path d="M65.5582 32.7531C65.5902 33.1806 65.7078 33.576 65.9108 33.9394C66.1246 34.3028 66.4132 34.5967 66.7765 34.8211C67.1399 35.0348 67.5514 35.1417 68.0109 35.1417C68.5667 35.1417 69.0316 35.0081 69.4057 34.7409C69.7904 34.4631 70.0469 34.1371 70.1752 33.763L71.5218 34.1959C71.2867 34.8585 70.8699 35.4036 70.2714 35.8311C69.6729 36.2479 68.9194 36.4563 68.0109 36.4563C67.2414 36.4563 66.5521 36.2746 65.9429 35.9112C65.3444 35.5372 64.8741 35.0295 64.5321 34.3883C64.2008 33.747 64.0352 33.0363 64.0352 32.2561C64.0352 31.4866 64.2061 30.7865 64.5481 30.156C64.9008 29.5147 65.3765 29.0124 65.975 28.649C66.5842 28.275 67.2575 28.0879 67.9949 28.0879C68.7429 28.0879 69.395 28.2589 69.9507 28.6009C70.5172 28.9323 70.9554 29.4025 71.2653 30.0117C71.5752 30.6209 71.7302 31.3263 71.7302 32.1278V32.7531H65.5582ZM70.3195 31.5186C70.2767 30.9522 70.0469 30.4606 69.6301 30.0438C69.224 29.6163 68.6843 29.4025 68.0109 29.4025C67.3376 29.4025 66.7871 29.6056 66.3596 30.0117C65.9321 30.4178 65.6704 30.9201 65.5742 31.5186H70.3195ZM77.3324 36.4403C76.2209 36.4403 75.3018 36.1731 74.575 35.6387C73.8483 35.0936 73.3513 34.2921 73.0841 33.234L74.591 32.8012C74.7833 33.5493 75.0986 34.105 75.5368 34.4684C75.975 34.8211 76.5736 34.9974 77.3324 34.9974C78.0592 34.9974 78.647 34.8371 79.0958 34.5165C79.5554 34.1959 79.7852 33.7363 79.7852 33.1378C79.7852 32.6889 79.6195 32.3149 79.2882 32.0156C78.9676 31.7057 78.3263 31.4599 77.3645 31.2782C76.082 31.0537 75.1094 30.685 74.4468 30.172C73.7841 29.6483 73.4528 28.9269 73.4528 28.0078C73.4528 27.3665 73.6185 26.8001 73.9498 26.3085C74.2918 25.8168 74.7567 25.4374 75.3445 25.1702C75.9323 24.9031 76.595 24.7695 77.3324 24.7695C78.3584 24.7695 79.192 25.0366 79.8333 25.571C80.4852 26.1054 80.9341 26.8589 81.1799 27.8314L79.6889 28.2643C79.5286 27.591 79.2615 27.0833 78.8874 26.7413C78.5134 26.3886 77.995 26.2123 77.3324 26.2123C76.6484 26.2123 76.098 26.3726 75.6812 26.6932C75.2644 27.0032 75.056 27.4413 75.056 28.0078C75.056 28.5101 75.259 28.8842 75.6651 29.13C76.0713 29.3758 76.7286 29.5842 77.637 29.7552C78.9195 30.0224 79.8653 30.4232 80.4744 30.9575C81.0836 31.4812 81.3883 32.208 81.3883 33.1378C81.3883 33.8004 81.2066 34.3829 80.8433 34.8852C80.4906 35.3768 80.0043 35.7616 79.3844 36.0395C78.7752 36.3067 78.0912 36.4403 77.3324 36.4403ZM83.289 25.0099H84.8922V36.2319H83.289V25.0099ZM98.8059 36.2319H97.2188V27.9757L93.6919 36.2319H92.5055L89.0107 28.0078L88.9947 36.2319H87.4076V25.0099H89.2352L93.1147 34.0837L96.9783 25.0099H98.8219L98.8059 36.2319Z" fill="#292B2E"/>
<path d="M82.0479 54.6094V78.9301M82.0479 78.9301L73.418 70.104M82.0479 78.9301L90.6779 70.104" stroke="#292B2E" stroke-width="1.2" stroke-linecap="round" stroke-linejoin="round"/>
</g>
</g>
<defs>
<clipPath id="clip0_396_19940">
<rect width="160" height="160" fill="white" transform="translate(0 0.667969)"/>
</clipPath>
<clipPath id="clip1_396_19940">
<rect width="160" height="160" fill="white" transform="translate(0 0.667969)"/>
</clipPath>
</defs>
</svg>
