<svg width="52" height="41" viewBox="0 0 52 41" fill="none" xmlns="http://www.w3.org/2000/svg">
<g clip-path="url(#clip0_396_16112)">
<g clip-path="url(#clip1_396_16112)">
<path d="M16.4716 15.642C16.2868 15.8025 16.1005 15.9614 15.9181 16.1248C15.2729 16.7032 14.7885 17.3758 14.6177 18.2147C14.4947 18.7657 14.4989 19.3353 14.6298 19.8847C14.7607 20.434 15.0153 20.9501 15.3762 21.3974C15.748 21.875 16.1913 22.2717 16.7813 22.5013C16.8504 22.5278 16.9203 22.5513 17.0049 22.5822C16.9273 22.7802 16.8605 22.9752 16.7775 23.1651C16.2969 24.2689 15.672 25.2903 14.8188 26.1764C14.6575 26.3402 14.4833 26.4923 14.2978 26.6312C13.6768 27.1096 12.9781 27.2935 12.1901 27.0727C11.7973 26.9638 11.4091 26.8416 11.0178 26.7275C10.6192 26.5998 10.2038 26.5256 9.78347 26.5069C9.25712 26.4951 8.77424 26.6444 8.28515 26.8136C7.91906 26.9506 7.54473 27.0668 7.16412 27.1617C6.56401 27.2979 6.02058 27.1227 5.52373 26.8033C5.03477 26.4756 4.6137 26.0652 4.28159 25.5928C3.41625 24.4378 2.76635 23.1507 2.36017 21.7875C1.99567 20.5778 1.90806 19.3082 2.1032 18.0639C2.27865 16.9549 2.71495 15.9541 3.53631 15.1269C4.39028 14.2703 5.44221 13.9178 6.67348 14.0341C7.28678 14.0915 7.87214 14.26 8.45905 14.4219C8.70359 14.4896 8.95357 14.5404 9.20122 14.6C9.54803 14.6741 9.9096 14.657 10.2469 14.5507C10.7306 14.4168 11.208 14.2644 11.6878 14.1298C12.3939 13.9202 13.1434 13.8778 13.8709 14.0061C14.8273 14.1813 15.5835 14.6684 16.2162 15.3514C16.2938 15.4367 16.3714 15.5236 16.4491 15.6104C16.4576 15.6203 16.4651 15.6309 16.4716 15.642Z" fill="#292B2E"/>
<path d="M12.875 10.0586C12.8955 10.2485 12.9043 10.4395 12.9014 10.6304C12.8356 11.6109 12.4 12.5364 11.674 13.2377C11.3425 13.5674 10.9753 13.8566 10.5235 14.0266C10.1353 14.1737 9.72932 14.2017 9.32019 14.2304C9.31398 14.2304 9.30699 14.2238 9.30078 14.2208C9.35901 11.9682 10.5569 10.5112 12.875 10.0586Z" fill="#292B2E"/>
<path d="M21.5801 12.7363C22.8271 12.5441 24.0889 12.4508 25.3523 12.4574C27.2931 12.4574 28.7169 12.8856 29.6221 13.6561C30.4574 14.3413 30.9543 15.3906 30.9543 16.6733C30.9543 17.9788 30.5475 19.0068 29.7797 19.756C28.7386 20.8061 27.0455 21.3426 25.1256 21.3426C24.5387 21.3426 23.9968 21.3212 23.545 21.2145V26.9943H21.5801V12.7363ZM23.545 19.6927C23.9735 19.8001 24.5162 19.8399 25.1706 19.8399C27.5415 19.8399 28.9871 18.7485 28.9871 16.7572C28.9871 14.852 27.5648 13.9321 25.3965 13.9321C24.5387 13.9321 23.8835 13.9961 23.545 14.0793V19.6927Z" fill="#292B2E"/>
<path d="M38.0406 26.9946L37.8854 25.6884H37.8178C37.2076 26.5023 36.0323 27.2301 34.4749 27.2301C32.2624 27.2301 31.1328 25.7532 31.1328 24.2542C31.1328 21.7521 33.482 20.3797 37.7045 20.401V20.1869C37.7045 19.331 37.456 17.7893 35.2202 17.7893C34.204 17.7893 33.1427 18.0895 32.3749 18.5605L31.9231 17.319C32.8268 16.762 34.1364 16.3984 35.5137 16.3984C38.8566 16.3984 39.6694 18.5605 39.6694 20.6365V24.5088C39.6694 25.4081 39.7144 26.286 39.8495 26.9924L38.0406 26.9946ZM37.7472 21.7072C35.5796 21.6645 33.1179 22.0281 33.1179 24.04C33.1179 25.2601 33.9757 25.8386 34.9927 25.8386C36.415 25.8386 37.3217 24.982 37.6323 24.1048C37.7023 23.9116 37.7403 23.7093 37.7448 23.505L37.7472 21.7072Z" fill="#292B2E"/>
<path d="M42.3062 16.6328L44.6996 22.7547C44.948 23.4398 45.219 24.253 45.3983 24.8741H45.4434C45.6467 24.253 45.8727 23.4612 46.142 22.712L48.3135 16.6328H50.4134L47.4323 24.0175C46.0093 27.5712 45.0389 29.3896 43.6834 30.5037C42.713 31.3176 41.7426 31.6385 41.2449 31.7238L40.7481 30.1402C41.3845 29.9401 41.9747 29.6266 42.4871 29.2166C43.2083 28.6498 43.7803 27.9315 44.1577 27.1186C44.2486 26.9258 44.313 26.7764 44.313 26.669C44.313 26.5615 44.268 26.4121 44.1772 26.1766L40.1387 16.6328H42.3062Z" fill="#292B2E"/>
</g>
</g>
<defs>
<clipPath id="clip0_396_16112">
<rect width="51" height="40" fill="white" transform="translate(0.5 0.890625)"/>
</clipPath>
<clipPath id="clip1_396_16112">
<rect width="51" height="40" fill="white" transform="translate(0.5 0.890625)"/>
</clipPath>
</defs>
</svg>
