<svg width="24" height="25" viewBox="0 0 24 25" fill="none" xmlns="http://www.w3.org/2000/svg">
<g clip-path="url(#clip0_396_19737)">
<g clip-path="url(#clip1_396_19737)">
<path d="M10.4164 17.6274L15.1207 11.9913H11.4845L12.1436 6.8325L7.93922 12.9003H11.0982L10.4164 17.6274ZM9.53185 14.2639H6.76624C6.4609 14.2639 6.23714 14.1287 6.09495 13.8583C5.95278 13.5879 5.97026 13.3275 6.14741 13.0769L12.1033 4.48478C12.2257 4.31347 12.3819 4.19634 12.5718 4.13341C12.7618 4.07047 12.9593 4.07572 13.1645 4.14916C13.3696 4.22258 13.5196 4.34815 13.6146 4.52587C13.7096 4.7036 13.7448 4.89502 13.7204 5.10013L13.0368 10.6277H16.4283C16.7522 10.6277 16.9807 10.7728 17.1135 11.063C17.2464 11.3532 17.2073 11.6236 16.9964 11.8742L10.4111 19.7618C10.2795 19.918 10.1186 20.0191 9.92865 20.0651C9.73869 20.1112 9.55339 20.0928 9.37274 20.01C9.1921 19.9273 9.05196 19.8009 8.95233 19.6307C8.85269 19.4606 8.8151 19.2729 8.83957 19.0678L9.53185 14.2639Z" fill="#292B2E"/>
</g>
</g>
<defs>
<clipPath id="clip0_396_19737">
<rect width="24" height="24" fill="white" transform="translate(0 0.0898438)"/>
</clipPath>
<clipPath id="clip1_396_19737">
<rect width="24" height="24" fill="white" transform="translate(0 0.0898438)"/>
</clipPath>
</defs>
</svg>
