<svg width="6" height="9" viewBox="0 0 6 9" fill="none" xmlns="http://www.w3.org/2000/svg">
<g clip-path="url(#clip0_396_19341)">
<g clip-path="url(#clip1_396_19341)">
<g clip-path="url(#clip2_396_19341)">
<path d="M0.437756 7.88256C0.325606 7.77041 0.269531 7.63957 0.269531 7.49003C0.269531 7.3405 0.325606 7.20966 0.437756 7.09751L3.48448 4.05078L0.437756 1.00405C0.325606 0.891902 0.269531 0.761061 0.269531 0.611529C0.269531 0.461996 0.325606 0.331155 0.437756 0.219005C0.549905 0.106856 0.680746 0.0507812 0.830279 0.0507812C0.979811 0.0507812 1.11065 0.106856 1.2228 0.219005L4.58729 3.58349C4.64959 3.6458 4.69645 3.71732 4.72785 3.79807C4.75875 3.87932 4.7742 3.96355 4.7742 4.05078C4.7742 4.13801 4.75875 4.22199 4.72785 4.30274C4.69645 4.38399 4.64959 4.45576 4.58729 4.51807L1.2228 7.88256C1.11065 7.9947 0.979811 8.05078 0.830279 8.05078C0.680746 8.05078 0.549905 7.9947 0.437756 7.88256Z" fill="#292B2E"/>
</g>
</g>
</g>
<defs>
<clipPath id="clip0_396_19341">
<rect width="5" height="8" fill="white" transform="translate(0.269531 0.0507812)"/>
</clipPath>
<clipPath id="clip1_396_19341">
<rect width="5" height="8" fill="white" transform="translate(0.269531 0.0507812)"/>
</clipPath>
<clipPath id="clip2_396_19341">
<rect width="5" height="8" fill="white" transform="translate(0.269531 0.0507812)"/>
</clipPath>
</defs>
</svg>
