<svg width="5" height="9" viewBox="0 0 5 9" fill="none" xmlns="http://www.w3.org/2000/svg">
<g clip-path="url(#clip0_396_19336)">
<g clip-path="url(#clip1_396_19336)">
<g clip-path="url(#clip2_396_19336)">
<path d="M0.168225 7.88256C0.056075 7.77041 0 7.63957 0 7.49003C0 7.3405 0.056075 7.20966 0.168225 7.09751L3.21495 4.05078L0.168225 1.00405C0.056075 0.891902 0 0.761061 0 0.611529C0 0.461996 0.056075 0.331155 0.168225 0.219005C0.280374 0.106856 0.411215 0.0507812 0.560748 0.0507812C0.71028 0.0507812 0.841122 0.106856 0.953271 0.219005L4.31776 3.58349C4.38006 3.6458 4.42692 3.71732 4.45832 3.79807C4.48922 3.87932 4.50467 3.96355 4.50467 4.05078C4.50467 4.13801 4.48922 4.22199 4.45832 4.30274C4.42692 4.38399 4.38006 4.45576 4.31776 4.51807L0.953271 7.88256C0.841122 7.9947 0.71028 8.05078 0.560748 8.05078C0.411215 8.05078 0.280374 7.9947 0.168225 7.88256Z" fill="#292B2E"/>
</g>
</g>
</g>
<defs>
<clipPath id="clip0_396_19336">
<rect width="5" height="8" fill="white" transform="translate(0 0.0507812)"/>
</clipPath>
<clipPath id="clip1_396_19336">
<rect width="5" height="8" fill="white" transform="translate(0 0.0507812)"/>
</clipPath>
<clipPath id="clip2_396_19336">
<rect width="5" height="8" fill="white" transform="translate(0 0.0507812)"/>
</clipPath>
</defs>
</svg>
