<svg width="52" height="55" viewBox="0 0 52 55" fill="none" xmlns="http://www.w3.org/2000/svg">
<rect y="0.800781" width="52" height="54" rx="14" fill="#FFA51F"/>
<path d="M35.9224 38.289L30.0509 32.6035C29.2361 33.2824 28.2992 33.8121 27.2401 34.1922C26.1807 34.5724 25.0944 34.7626 23.9809 34.7626C21.1835 34.7626 18.8207 33.7984 16.8924 31.8702C14.9641 29.9419 14 27.579 14 24.7816C14 22.0115 14.9641 19.6552 16.8924 17.7128C18.8207 15.7714 21.1835 14.8008 23.9809 14.8008C26.751 14.8008 29.1003 15.7649 31.0286 17.6932C32.957 19.6215 33.9211 21.9843 33.9211 24.7816C33.9211 25.9495 33.731 27.063 33.3507 28.1223C32.9705 29.1814 32.4545 30.1048 31.8026 30.8925L37.674 36.6187C37.8914 36.8361 38 37.1076 38 37.4335C38 37.7595 37.8778 38.0446 37.6334 38.289C37.3889 38.5335 37.0973 38.6556 36.7583 38.6556C36.4182 38.6556 36.1396 38.5335 35.9224 38.289ZM23.9809 32.3182C26.0722 32.3182 27.8446 31.585 29.298 30.1185C30.7505 28.6518 31.4768 26.8729 31.4768 24.7816C31.4768 22.6905 30.7505 20.9115 29.298 19.445C27.8446 17.9784 26.0722 17.2451 23.9809 17.2451C21.8625 17.2451 20.0771 17.9784 18.6246 19.445C17.1711 20.9115 16.4443 22.6905 16.4443 24.7816C16.4443 26.8729 17.1711 28.6518 18.6246 30.1185C20.0771 31.585 21.8625 32.3182 23.9809 32.3182Z" fill="#292B2E"/>
</svg>
