<svg width="40" height="40" viewBox="0 0 40 40" fill="none" xmlns="http://www.w3.org/2000/svg">
<rect width="40" height="40" rx="12" fill="white"/>
<g clip-path="url(#clip0_396_15534)">
<g clip-path="url(#clip1_396_15534)">
<path d="M26.6149 27.6588L22.7006 23.8685C22.1574 24.3211 21.5328 24.6742 20.8267 24.9276C20.1205 25.1811 19.3963 25.3079 18.6539 25.3079C16.789 25.3079 15.2138 24.6651 13.9283 23.3796C12.6428 22.0941 12 20.5188 12 18.6539C12 16.8071 12.6428 15.2363 13.9283 13.9413C15.2138 12.6471 16.789 12 18.6539 12C20.5007 12 22.0669 12.6428 23.3524 13.9283C24.638 15.2138 25.2807 16.789 25.2807 18.6539C25.2807 19.4325 25.154 20.1748 24.9005 20.881C24.647 21.5871 24.303 22.2027 23.8684 22.7278L27.7827 26.5453C27.9276 26.6902 28 26.8712 28 27.0885C28 27.3058 27.9185 27.4959 27.7556 27.6588C27.5926 27.8218 27.3982 27.9032 27.1722 27.9032C26.9455 27.9032 26.7597 27.8218 26.6149 27.6588ZM18.6539 23.6783C20.0481 23.6783 21.2297 23.1895 22.1987 22.2118C23.167 21.234 23.6512 20.0481 23.6512 18.6539C23.6512 17.2598 23.167 16.0738 22.1987 15.0961C21.2297 14.1184 20.0481 13.6295 18.6539 13.6295C17.2417 13.6295 16.0514 14.1184 15.0831 15.0961C14.114 16.0738 13.6295 17.2598 13.6295 18.6539C13.6295 20.0481 14.114 21.234 15.0831 22.2118C16.0514 23.1895 17.2417 23.6783 18.6539 23.6783Z" fill="#292B2E"/>
</g>
</g>
<defs>
<clipPath id="clip0_396_15534">
<rect width="24" height="24" fill="white" transform="translate(8 8)"/>
</clipPath>
<clipPath id="clip1_396_15534">
<rect width="24" height="24" fill="white" transform="translate(8 8)"/>
</clipPath>
</defs>
</svg>
