<svg width="96" height="97" viewBox="0 0 96 97" fill="none" xmlns="http://www.w3.org/2000/svg">
<g filter="url(#filter0_d_396_16833)">
<rect x="24" y="18.1406" width="48" height="48" rx="24" fill="white" shape-rendering="crispEdges"/>
<rect x="24.5" y="18.6406" width="47" height="47" rx="23.5" stroke="#E4E6EA" shape-rendering="crispEdges"/>
<path d="M49.5514 45.9724L46.1869 42.6079C46.1246 42.5456 46.0778 42.4738 46.0464 42.3926C46.0155 42.3118 46 42.2278 46 42.1406C46 42.0534 46.0155 41.9691 46.0464 41.8879C46.0778 41.8071 46.1246 41.7356 46.1869 41.6733L49.5514 38.3088C49.6636 38.1967 49.7944 38.1406 49.9439 38.1406C50.0935 38.1406 50.2243 38.1967 50.3364 38.3088C50.4486 38.421 50.5047 38.5518 50.5047 38.7014C50.5047 38.8509 50.4486 38.9817 50.3364 39.0939L47.2897 42.1406L50.3364 45.1873C50.4486 45.2995 50.5047 45.4303 50.5047 45.5799C50.5047 45.7294 50.4486 45.8602 50.3364 45.9724C50.2243 46.0845 50.0935 46.1406 49.9439 46.1406C49.7944 46.1406 49.6636 46.0845 49.5514 45.9724Z" fill="#292B2E"/>
</g>
<defs>
<filter id="filter0_d_396_16833" x="0" y="0.140625" width="96" height="96" filterUnits="userSpaceOnUse" color-interpolation-filters="sRGB">
<feFlood flood-opacity="0" result="BackgroundImageFix"/>
<feColorMatrix in="SourceAlpha" type="matrix" values="0 0 0 0 0 0 0 0 0 0 0 0 0 0 0 0 0 0 127 0" result="hardAlpha"/>
<feOffset dy="6"/>
<feGaussianBlur stdDeviation="12"/>
<feComposite in2="hardAlpha" operator="out"/>
<feColorMatrix type="matrix" values="0 0 0 0 0 0 0 0 0 0 0 0 0 0 0 0 0 0 0.16 0"/>
<feBlend mode="normal" in2="BackgroundImageFix" result="effect1_dropShadow_396_16833"/>
<feBlend mode="normal" in="SourceGraphic" in2="effect1_dropShadow_396_16833" result="shape"/>
</filter>
</defs>
</svg>
