<svg width="24" height="25" viewBox="0 0 24 25" fill="none" xmlns="http://www.w3.org/2000/svg">
<g clip-path="url(#clip0_396_20100)">
<g clip-path="url(#clip1_396_20100)">
<path d="M18.581 11.07L18.3714 10.5938L17.8952 10.3843C17.7937 10.3335 17.7429 10.2573 17.7429 10.1557C17.7429 10.0541 17.7937 9.97792 17.8952 9.92712L18.3714 9.7176L18.581 9.24141C18.6317 9.13982 18.7079 9.08903 18.8095 9.08903C18.9111 9.08903 18.9873 9.13982 19.0381 9.24141L19.2476 9.7176L19.7238 9.92712C19.8254 9.97792 19.8762 10.0541 19.8762 10.1557C19.8762 10.2573 19.8254 10.3335 19.7238 10.3843L19.2476 10.5938L19.0381 11.07C18.9873 11.1716 18.9111 11.2224 18.8095 11.2224C18.7079 11.2224 18.6317 11.1716 18.581 11.07ZM14.6762 14.4985L14.1429 13.2985L12.9429 12.7652C12.7905 12.7017 12.7143 12.5938 12.7143 12.4414C12.7143 12.289 12.7905 12.1811 12.9429 12.1176L14.1429 11.5843L14.6762 10.3843C14.7397 10.2319 14.8476 10.1557 15 10.1557C15.1524 10.1557 15.2603 10.2319 15.3238 10.3843L15.8571 11.5843L17.0571 12.1176C17.2095 12.1811 17.2857 12.289 17.2857 12.4414C17.2857 12.5938 17.2095 12.7017 17.0571 12.7652L15.8571 13.2985L15.3238 14.4985C15.2603 14.6509 15.1524 14.7271 15 14.7271C14.8476 14.7271 14.7397 14.6509 14.6762 14.4985ZM18.581 15.6414L18.3714 15.1652L17.8952 14.9557C17.7937 14.9049 17.7429 14.8287 17.7429 14.7271C17.7429 14.6255 17.7937 14.5493 17.8952 14.4985L18.3714 14.289L18.581 13.8128C18.6317 13.7112 18.7079 13.6604 18.8095 13.6604C18.9111 13.6604 18.9873 13.7112 19.0381 13.8128L19.2476 14.289L19.7238 14.4985C19.8254 14.5493 19.8762 14.6255 19.8762 14.7271C19.8762 14.8287 19.8254 14.9049 19.7238 14.9557L19.2476 15.1652L19.0381 15.6414C18.9873 15.743 18.9111 15.7938 18.8095 15.7938C18.7079 15.7938 18.6317 15.743 18.581 15.6414ZM15.7619 18.3462H8.14286V19.07C8.14286 19.1335 8.16521 19.1876 8.2099 19.2323C8.2541 19.2764 8.30794 19.2985 8.37143 19.2985H15.5333C15.5968 19.2985 15.6509 19.2764 15.6956 19.2323C15.7398 19.1876 15.7619 19.1335 15.7619 19.07V18.3462ZM15.7619 6.53665V5.81284C15.7619 5.74935 15.7398 5.69525 15.6956 5.65055C15.6509 5.60636 15.5968 5.58427 15.5333 5.58427H8.37143C8.30794 5.58427 8.2541 5.60636 8.2099 5.65055C8.16521 5.69525 8.14286 5.74935 8.14286 5.81284V6.53665H15.7619ZM8.37143 20.4414C7.99048 20.4414 7.66667 20.3081 7.4 20.0414C7.13333 19.7747 7 19.4509 7 19.07V5.81284C7 5.43189 7.13333 5.10808 7.4 4.84141C7.66667 4.57474 7.99048 4.44141 8.37143 4.44141H15.5333C15.9143 4.44141 16.2381 4.57474 16.5048 4.84141C16.7714 5.10808 16.9048 5.43189 16.9048 5.81284V8.59379H15.7619V7.67951H8.14286V17.2033H15.7619V16.289H16.9048V19.07C16.9048 19.4509 16.7714 19.7747 16.5048 20.0414C16.2381 20.3081 15.9143 20.4414 15.5333 20.4414H8.37143Z" fill="#292B2E"/>
</g>
</g>
<defs>
<clipPath id="clip0_396_20100">
<rect width="24" height="24" fill="white" transform="translate(0 0.441406)"/>
</clipPath>
<clipPath id="clip1_396_20100">
<rect width="24" height="24" fill="white" transform="translate(0 0.441406)"/>
</clipPath>
</defs>
</svg>
