<svg width="24" height="24" viewBox="0 0 24 24" fill="none" xmlns="http://www.w3.org/2000/svg">
<g clip-path="url(#clip0_396_37743)">
<g clip-path="url(#clip1_396_37743)">
<path d="M12 12.9921L7.20472 17.7874C7.07874 17.9134 6.91748 17.9802 6.72094 17.9877C6.52378 17.9959 6.35433 17.9291 6.2126 17.7874C6.07087 17.6457 6 17.4803 6 17.2913C6 17.1024 6.07087 16.937 6.2126 16.7953L11.0079 12L6.2126 7.20472C6.08661 7.07874 6.01984 6.91717 6.01228 6.72C6.00409 6.52346 6.07087 6.35433 6.2126 6.2126C6.35433 6.07087 6.51969 6 6.70866 6C6.89764 6 7.06299 6.07087 7.20472 6.2126L12 11.0079L16.7953 6.2126C16.9213 6.08661 17.0828 6.01953 17.28 6.01134C17.4765 6.00378 17.6457 6.07087 17.7874 6.2126C17.9291 6.35433 18 6.51969 18 6.70866C18 6.89764 17.9291 7.06299 17.7874 7.20472L12.9921 12L17.7874 16.7953C17.9134 16.9213 17.9802 17.0825 17.9877 17.2791C17.9959 17.4762 17.9291 17.6457 17.7874 17.7874C17.6457 17.9291 17.4803 18 17.2913 18C17.1024 18 16.937 17.9291 16.7953 17.7874L12 12.9921Z" fill="white"/>
</g>
</g>
<defs>
<clipPath id="clip0_396_37743">
<rect width="24" height="24" fill="white"/>
</clipPath>
<clipPath id="clip1_396_37743">
<rect width="24" height="24" fill="white"/>
</clipPath>
</defs>
</svg>
