<svg width="162" height="161" viewBox="0 0 162 161" fill="none" xmlns="http://www.w3.org/2000/svg">
<g clip-path="url(#clip0_396_19918)">
<g clip-path="url(#clip1_396_19918)">
<path d="M77.632 28.668H30.6988C27.4586 28.668 24.832 31.597 24.832 35.2097V126.793C24.832 130.406 27.4586 133.335 30.6988 133.335H77.632C80.8721 133.335 83.4987 130.406 83.4987 126.793V35.2097C83.4987 31.597 80.8721 28.668 77.632 28.668Z" fill="#292B2E" stroke="#292B2E" stroke-width="1.2" stroke-linecap="round" stroke-linejoin="round"/>
<path d="M72.2999 28.668H25.3667C22.1266 28.668 19.5 31.597 19.5 35.2097V126.793C19.5 130.406 22.1266 133.335 25.3667 133.335H72.2999C75.5401 133.335 78.1667 130.406 78.1667 126.793V35.2097C78.1667 31.597 75.5401 28.668 72.2999 28.668Z" fill="white" stroke="#292B2E" stroke-width="1.2" stroke-linecap="round" stroke-linejoin="round"/>
<path d="M42.168 34.0039H55.5013" stroke="#292B2E" stroke-width="1.2" stroke-linecap="round" stroke-linejoin="round"/>
<path d="M106.623 68.1531C107.126 67.6286 107.821 67.332 108.548 67.332H146.833C148.306 67.332 149.5 68.5259 149.5 69.9987V90.3398C149.5 91.8125 148.306 93.0064 146.833 93.0064H104.166C102.693 93.0064 101.5 91.8125 101.5 90.3398V74.5689C101.5 73.8811 101.765 73.2198 102.241 72.7234L106.623 68.1531Z" fill="white"/>
<path d="M106.623 68.1531C107.126 67.6286 107.821 67.332 108.548 67.332H146.833C148.306 67.332 149.5 68.5259 149.5 69.9987V90.3398C149.5 91.8125 148.306 93.0064 146.833 93.0064H104.166C102.693 93.0064 101.5 91.8125 101.5 90.3398V74.5689C101.5 73.8811 101.765 73.2198 102.241 72.7234L106.623 68.1531Z" stroke="#292B2E" stroke-width="1.2" stroke-linecap="round" stroke-linejoin="round" stroke-dasharray="6.67 6.67"/>
<path d="M109.872 82.3139C109.903 82.7307 110.018 83.1163 110.216 83.4705C110.424 83.8247 110.705 84.1112 111.059 84.33C111.414 84.5384 111.815 84.6426 112.263 84.6426C112.805 84.6426 113.258 84.5124 113.622 84.2519C113.997 83.981 114.248 83.6632 114.373 83.2986L115.685 83.7205C115.456 84.3665 115.05 84.8978 114.466 85.3146C113.883 85.7209 113.148 85.924 112.263 85.924C111.513 85.924 110.841 85.747 110.247 85.3927C109.663 85.0281 109.205 84.5332 108.872 83.9081C108.549 83.283 108.387 82.5901 108.387 81.8296C108.387 81.0794 108.554 80.3969 108.887 79.7822C109.231 79.1571 109.695 78.6675 110.278 78.3133C110.872 77.9486 111.528 77.7663 112.247 77.7663C112.976 77.7663 113.612 77.9329 114.154 78.2663C114.706 78.5893 115.133 79.0478 115.435 79.6417C115.737 80.2355 115.888 80.9231 115.888 81.7045V82.3139H109.872ZM114.513 81.1106C114.472 80.5584 114.248 80.0792 113.841 79.6729C113.445 79.2562 112.919 79.0478 112.263 79.0478C111.606 79.0478 111.07 79.2458 110.653 79.6417C110.236 80.0376 109.981 80.5271 109.887 81.1106H114.513ZM121.35 85.9084C120.266 85.9084 119.37 85.648 118.662 85.1271C117.953 84.5957 117.469 83.8143 117.208 82.7829L118.677 82.3609C118.865 83.0902 119.172 83.632 119.599 83.9862C120.027 84.33 120.61 84.5019 121.35 84.5019C122.058 84.5019 122.631 84.3457 123.069 84.0331C123.517 83.7205 123.741 83.2724 123.741 82.689C123.741 82.2514 123.579 81.8869 123.256 81.5951C122.944 81.293 122.319 81.0534 121.381 80.8763C120.131 80.6575 119.183 80.298 118.537 79.7979C117.891 79.2874 117.568 78.5842 117.568 77.6882C117.568 77.0631 117.729 76.5109 118.052 76.0316C118.386 75.5524 118.839 75.1825 119.412 74.922C119.985 74.6616 120.631 74.5312 121.35 74.5312C122.35 74.5312 123.163 74.7918 123.788 75.3127C124.423 75.8337 124.861 76.5682 125.1 77.5163L123.647 77.9382C123.491 77.2818 123.23 76.787 122.866 76.4536C122.501 76.1098 121.996 75.9378 121.35 75.9378C120.683 75.9378 120.146 76.0941 119.74 76.4067C119.334 76.7088 119.131 77.136 119.131 77.6882C119.131 78.1778 119.328 78.5425 119.724 78.7821C120.12 79.0218 120.761 79.2249 121.647 79.3916C122.897 79.6521 123.819 80.0428 124.413 80.5637C125.007 81.0742 125.304 81.7826 125.304 82.689C125.304 83.335 125.126 83.9029 124.772 84.3925C124.428 84.8718 123.954 85.2469 123.35 85.5178C122.756 85.7782 122.089 85.9084 121.35 85.9084ZM127.156 74.7658H128.719V85.7053H127.156V74.7658ZM142.283 85.7053H140.736V77.6569L137.297 85.7053H136.141L132.734 77.6882L132.719 85.7053H131.171V74.7658H132.953L136.735 83.6111L140.501 74.7658H142.298L142.283 85.7053Z" fill="#292B2E"/>
<path d="M86.374 67.8635C85.7783 66.6886 84.9325 65.6675 83.8978 64.874C82.8631 64.0805 81.6653 63.5344 80.391 63.2753C79.1167 63.0161 77.7977 63.0504 76.5295 63.3755C75.2612 63.7007 74.0754 64.3086 73.0576 65.1554C72.7252 63.9509 72.1481 62.8348 71.3637 61.8791C70.5793 60.9235 69.605 60.1494 68.5037 59.607C67.4024 59.0646 66.1986 58.7659 64.9699 58.7302C63.7412 58.6944 62.5151 58.9224 61.3705 59.3995C60.226 59.8765 59.1885 60.592 58.3252 61.4997C57.4618 62.4075 56.7916 63.4873 56.358 64.6695C55.9243 65.8516 55.7368 67.1099 55.8076 68.363C55.8784 69.6162 56.2058 70.8363 56.7688 71.9447L65.5249 89.2229L82.5693 80.0197C83.5968 79.465 84.5103 78.7104 85.2576 77.7993C86.0049 76.8881 86.5714 75.8382 86.9247 74.7093C87.2779 73.5805 87.4112 72.3949 87.3167 71.2203C87.2222 70.0457 86.9019 68.905 86.374 67.8635Z" fill="#FFCCB0"/>
<path d="M100.058 74.2602C98.9262 73.587 97.6651 73.1776 96.3663 73.0615C95.0675 72.9455 93.7636 73.1258 92.5486 73.5894C91.3337 74.0529 90.2381 74.7882 89.3412 75.7419C88.4442 76.6957 87.7683 77.8441 87.3622 79.1043C86.4365 78.2651 85.3514 77.6316 84.1772 77.2445C83.003 76.8575 81.7657 76.7256 80.5451 76.8573C79.3246 76.989 78.1479 77.3814 77.0912 78.0092C76.0344 78.6369 75.1209 79.4861 74.4098 80.5019C73.6987 81.5177 73.2057 82.6776 72.9627 83.9065C72.7196 85.1355 72.7319 86.4063 72.9988 87.6369C73.2656 88.8675 73.7811 90.0305 74.5119 91.0509C75.2428 92.0713 76.1727 92.9264 77.2417 93.561L93.8894 103.463L103.355 86.5639C103.926 85.5451 104.293 84.4187 104.436 83.2491C104.58 82.0794 104.496 80.8893 104.19 79.7468C103.883 78.6043 103.361 77.5317 102.652 76.5903C101.943 75.6489 101.062 74.8571 100.058 74.2602Z" fill="#FFCCB0"/>
<path d="M74.2317 90.5862C74.9474 91.6231 75.8658 92.4977 76.9277 93.1533L93.4638 103.384L103.26 86.5867C103.851 85.5742 104.239 84.45 104.403 83.2785C104.568 82.107 104.504 80.9111 104.217 79.759C103.93 78.6069 103.424 77.5212 102.729 76.5639C102.034 75.6067 101.163 74.7966 100.166 74.1799C99.0415 73.4844 97.7829 73.0514 96.4814 72.9123C95.1798 72.7731 93.8678 72.9313 92.6403 73.3753C91.4128 73.8194 90.3003 74.5382 89.3834 75.4798C88.4665 76.4214 87.7679 77.5623 87.3384 78.82C86.4238 77.9615 85.3459 77.3067 84.1741 76.8977C83.0023 76.4887 81.7627 76.3346 80.5353 76.4455C79.308 76.5564 78.1201 76.9297 77.0484 77.5413C75.9768 78.1529 75.0451 78.9893 74.3136 79.9964C73.5821 81.0035 73.067 82.159 72.8016 83.3883C72.6798 83.9523 72.6118 84.5262 72.5977 85.1018" stroke="#292B2E" stroke-width="1.2" stroke-miterlimit="10" stroke-linecap="round" stroke-linejoin="round"/>
<path d="M73.1459 65.1903L72.5676 65.35C72.6218 65.5464 72.772 65.7019 72.9665 65.7629C73.1609 65.8238 73.373 65.7819 73.5297 65.6516L73.1459 65.1903ZM65.5843 89.3506L65.0491 89.6218C65.1222 89.7662 65.2506 89.8748 65.405 89.9232C65.5595 89.9715 65.7269 89.9554 65.8693 89.8785L65.5843 89.3506ZM80.3979 82.0337C80.6894 81.8763 80.7982 81.5123 80.6407 81.2207C80.4833 80.9291 80.1193 80.8204 79.8277 80.9778L80.3979 82.0337ZM85.2596 77.0723L84.9091 77.5593L85.8832 78.2602L86.2336 77.7732L85.2596 77.0723ZM87.0488 67.6376C86.4106 66.3789 85.5037 65.2835 84.393 64.4317L83.6627 65.384C84.6294 66.1253 85.4206 67.08 85.9784 68.1802L87.0488 67.6376ZM84.393 64.4317C83.2822 63.5799 81.9958 62.9934 80.6271 62.715L80.388 63.891C81.5776 64.1329 82.6961 64.6427 83.6627 65.384L84.393 64.4317ZM80.6271 62.715C79.2584 62.4367 77.8425 62.4737 76.4822 62.8224L76.7802 63.9848C77.9661 63.6808 79.1983 63.649 80.388 63.891L80.6271 62.715ZM76.4822 62.8224C75.1219 63.1712 73.8515 63.8228 72.7622 64.7291L73.5297 65.6516C74.4838 64.8578 75.5942 64.2889 76.7802 63.9848L76.4822 62.8224ZM73.7243 65.0307C73.3685 63.7416 72.7505 62.5457 71.9093 61.5208L70.9817 62.2821C71.7153 63.1759 72.2559 64.2208 72.5676 65.35L73.7243 65.0307ZM71.9093 61.5208C71.0681 60.4958 70.0224 59.6649 68.8396 59.0823L68.3094 60.1589C69.3377 60.6653 70.2482 61.3884 70.9817 62.2821L71.9093 61.5208ZM68.8396 59.0823C67.6568 58.4998 66.3638 58.179 65.0445 58.1406L65.0096 59.3401C66.1571 59.3735 67.2812 59.6524 68.3094 60.1589L68.8396 59.0823ZM65.0445 58.1406C63.7253 58.1022 62.4098 58.3471 61.183 58.8584L61.6447 59.9661C62.7158 59.5196 63.8621 59.3067 65.0096 59.3401L65.0445 58.1406ZM61.183 58.8584C59.9563 59.3697 58.8456 60.1361 57.922 61.1071L58.7915 61.9341C59.6013 61.0827 60.5735 60.4125 61.6447 59.9661L61.183 58.8584ZM57.922 61.1071C56.9984 62.0781 56.2821 63.2326 55.8187 64.4959L56.9453 64.9092C57.3525 63.799 57.9816 62.7856 58.7915 61.9341L57.922 61.1071ZM55.8187 64.4959C55.3553 65.7592 55.1548 67.1042 55.2304 68.4441L56.4285 68.3765C56.3621 67.2006 56.5381 66.0193 56.9453 64.9092L55.8187 64.4959ZM55.2304 68.4441C55.3061 69.7841 55.6563 71.0901 56.2594 72.2775L57.3296 71.7345C56.8024 70.6966 56.4949 69.5524 56.4285 68.3765L55.2304 68.4441ZM56.2594 72.2775L65.0491 89.6218L66.1195 89.0793L57.3296 71.7345L56.2594 72.2775ZM87.639 74.9603C88.0165 73.754 88.159 72.4867 88.058 71.2305L86.8618 71.3267C86.9505 72.4289 86.8255 73.5418 86.4938 74.6019L87.639 74.9603ZM88.058 71.2305C87.9569 69.9743 87.6143 68.7534 87.0488 67.6376L85.9784 68.1802C86.4727 69.1555 86.7732 70.2246 86.8618 71.3267L88.058 71.2305ZM65.8693 89.8785L80.3979 82.0337L79.8277 80.9778L65.2992 88.8226L65.8693 89.8785ZM86.2336 77.7732C86.8481 76.9192 87.3232 75.9691 87.639 74.9603L86.4938 74.6019C86.2163 75.4883 85.7989 76.3227 85.2596 77.0723L86.2336 77.7732Z" fill="#292B2E"/>
</g>
</g>
<defs>
<clipPath id="clip0_396_19918">
<rect width="161" height="160" fill="white" transform="translate(0.5 0.667969)"/>
</clipPath>
<clipPath id="clip1_396_19918">
<rect width="161" height="160" fill="white" transform="translate(0.5 0.667969)"/>
</clipPath>
</defs>
</svg>
