<svg width="16" height="16" viewBox="0 0 16 16" fill="none" xmlns="http://www.w3.org/2000/svg">
<g clip-path="url(#clip0_396_26175)">
<g clip-path="url(#clip1_396_26175)">
<g clip-path="url(#clip2_396_26175)">
<path d="M8.00141 16C6.89494 16 5.85491 15.79 4.88132 15.3701C3.90772 14.9501 3.06082 14.3802 2.34064 13.6604C1.62044 12.9405 1.05028 12.094 0.63017 11.1208C0.210057 10.1477 0 9.10786 0 8.00139C0 6.89492 0.209966 5.85489 0.629896 4.88131C1.04983 3.90771 1.61972 3.06081 2.33958 2.34063C3.05946 1.62044 3.90598 1.05028 4.87915 0.630169C5.8523 0.210056 6.89212 0 7.99859 0C9.10506 0 10.1451 0.209965 11.1187 0.629895C12.0923 1.04982 12.9392 1.61972 13.6594 2.33958C14.3796 3.05945 14.9497 3.90597 15.3698 4.87914C15.7899 5.85229 16 6.8921 16 7.99857C16 9.10504 15.79 10.1451 15.3701 11.1187C14.9502 12.0923 14.3803 12.9391 13.6604 13.6593C12.9405 14.3795 12.094 14.9497 11.1208 15.3698C10.1477 15.7899 9.10788 16 8.00141 16ZM8 14.7368C9.88071 14.7368 11.4737 14.0842 12.779 12.7789C14.0842 11.4737 14.7369 9.88068 14.7369 7.99998C14.7369 6.11928 14.0842 4.5263 12.779 3.22103C11.4737 1.91577 9.88071 1.26314 8 1.26314C6.11929 1.26314 4.52631 1.91577 3.22104 3.22103C1.91577 4.5263 1.26314 6.11928 1.26314 7.99998C1.26314 9.88068 1.91577 11.4737 3.22104 12.7789C4.52631 14.0842 6.11929 14.7368 8 14.7368ZM7.97895 13.7328C8.13225 13.7328 8.26639 13.6753 8.38137 13.5603C8.49634 13.4453 8.55383 13.3112 8.55383 13.1579V12.7125C9.207 12.624 9.79836 12.3786 10.3279 11.9765C10.8575 11.5743 11.1223 10.9646 11.1223 10.1474C11.1223 9.55788 10.9484 9.03642 10.6008 8.58299C10.2532 8.12955 9.57409 7.72037 8.56356 7.35545C7.67825 7.05315 7.09039 6.79134 6.79997 6.57002C6.50956 6.3487 6.36435 6.03939 6.36435 5.64209C6.36435 5.24478 6.51308 4.92197 6.81052 4.67366C7.10795 4.42534 7.51848 4.30118 8.0421 4.30118C8.3552 4.30118 8.62916 4.35975 8.86398 4.47689C9.0988 4.59404 9.29718 4.75032 9.45912 4.94573C9.56169 5.07096 9.68045 5.15841 9.81539 5.20806C9.95034 5.25772 10.0782 5.25556 10.1988 5.20158C10.3634 5.13681 10.4759 5.02615 10.5362 4.8696C10.5965 4.71307 10.5814 4.56948 10.4907 4.43884C10.2661 4.12144 9.98758 3.85721 9.65506 3.64615C9.32252 3.43507 8.96948 3.3155 8.59594 3.28743V2.84208C8.59594 2.68878 8.53845 2.55464 8.42347 2.43966C8.3085 2.32469 8.17436 2.2672 8.02105 2.2672C7.86775 2.2672 7.73361 2.32469 7.61863 2.43966C7.50365 2.55464 7.44617 2.68878 7.44617 2.84208V3.28743C6.72821 3.42562 6.17679 3.71685 5.79191 4.16112C5.40702 4.60538 5.21458 5.09904 5.21458 5.64209C5.21458 6.27475 5.40622 6.78378 5.78949 7.1692C6.17275 7.55463 6.79731 7.90282 7.66318 8.21375C8.55818 8.54195 9.16952 8.83641 9.49718 9.09714C9.82485 9.35787 9.98868 9.70794 9.98868 10.1474C9.98868 10.6753 9.79812 11.0588 9.41701 11.298C9.0359 11.5371 8.60567 11.6567 8.12632 11.6567C7.72631 11.6567 7.36477 11.5568 7.04168 11.3571C6.71861 11.1573 6.44802 10.8685 6.22993 10.4907C6.14465 10.3428 6.02968 10.2432 5.885 10.1919C5.74034 10.1406 5.59872 10.1422 5.46012 10.1968C5.31087 10.2513 5.20159 10.355 5.13229 10.5077C5.063 10.6605 5.06236 10.8065 5.13037 10.9457C5.36573 11.4175 5.67288 11.7948 6.05183 12.0777C6.43077 12.3606 6.88152 12.5581 7.40406 12.6704V13.1579C7.40406 13.3112 7.46155 13.4453 7.57652 13.5603C7.6915 13.6753 7.82564 13.7328 7.97895 13.7328Z" fill="#292B2E"/>
</g>
</g>
</g>
<defs>
<clipPath id="clip0_396_26175">
<rect width="16" height="16" fill="white"/>
</clipPath>
<clipPath id="clip1_396_26175">
<rect width="16" height="16" fill="white"/>
</clipPath>
<clipPath id="clip2_396_26175">
<rect width="16" height="16" fill="white"/>
</clipPath>
</defs>
</svg>
