<svg width="24" height="25" viewBox="0 0 24 25" fill="none" xmlns="http://www.w3.org/2000/svg">
<g clip-path="url(#clip0_396_20094)">
<g clip-path="url(#clip1_396_20094)">
<path d="M5.68421 17.094V7.97825C5.68421 7.54316 5.83158 7.17825 6.12632 6.88352C6.42105 6.58878 6.77895 6.44141 7.2 6.44141H18.7368C18.9053 6.44141 19.0526 6.50092 19.1789 6.61994C19.3053 6.73952 19.3684 6.89053 19.3684 7.07299C19.3684 7.25545 19.3053 7.40618 19.1789 7.5252C19.0526 7.64478 18.9053 7.70457 18.7368 7.70457H7.2C7.12982 7.70457 7.07032 7.72899 7.02147 7.77783C6.97207 7.82723 6.94737 7.89404 6.94737 7.97825V17.094H10.8421C11.0947 17.094 11.3159 17.1886 11.5057 17.3778C11.6949 17.5676 11.7895 17.7888 11.7895 18.0414C11.7895 18.3081 11.6949 18.5326 11.5057 18.7151C11.3159 18.8975 11.0947 18.9888 10.8421 18.9888H4.94737C4.6807 18.9888 4.45614 18.8975 4.27368 18.7151C4.09123 18.5326 4 18.3081 4 18.0414C4 17.7888 4.09123 17.5676 4.27368 17.3778C4.45614 17.1886 4.6807 17.094 4.94737 17.094H5.68421ZM14.8632 18.9888C14.6526 18.9888 14.4735 18.9186 14.3259 18.7782C14.1788 18.6379 14.1053 18.4625 14.1053 18.2519V10.4625C14.1053 10.2519 14.1788 10.0765 14.3259 9.93615C14.4735 9.7958 14.6526 9.72562 14.8632 9.72562H19.2632C19.4737 9.72562 19.6491 9.7958 19.7895 9.93615C19.9298 10.0765 20 10.2519 20 10.4625V18.2519C20 18.4625 19.9298 18.6379 19.7895 18.7782C19.6491 18.9186 19.4737 18.9888 19.2632 18.9888H14.8632ZM15.3684 17.094H18.7368V10.9888H15.3684V17.094Z" fill="#292B2E"/>
</g>
</g>
<defs>
<clipPath id="clip0_396_20094">
<rect width="24" height="24" fill="white" transform="translate(0 0.441406)"/>
</clipPath>
<clipPath id="clip1_396_20094">
<rect width="24" height="24" fill="white" transform="translate(0 0.441406)"/>
</clipPath>
</defs>
</svg>
