<svg width="37" height="36" viewBox="0 0 37 36" fill="none" xmlns="http://www.w3.org/2000/svg">
<g clip-path="url(#clip0_396_15590)">
<g clip-path="url(#clip1_396_15590)">
<path d="M11.6973 26.3651V26.9635C11.6973 27.1343 11.758 27.276 11.8796 27.3886C12.0012 27.5011 12.1446 27.5574 12.3098 27.5574C12.475 27.5574 12.6136 27.4996 12.7258 27.3841C12.8379 27.2685 12.894 27.1254 12.894 26.9546V26.3562C12.894 26.1855 12.8361 26.0438 12.7204 25.9312C12.6046 25.8186 12.4613 25.7624 12.2902 25.7624C12.1192 25.7624 11.9775 25.8202 11.8654 25.9356C11.7533 26.0512 11.6973 26.1944 11.6973 26.3651ZM23.4068 26.3651V26.9635C23.4068 27.1343 23.4647 27.276 23.5804 27.3886C23.6962 27.5011 23.8395 27.5574 24.0106 27.5574C24.1817 27.5574 24.3233 27.4996 24.4354 27.3841C24.5475 27.2685 24.6035 27.1254 24.6035 26.9546V26.3562C24.6035 26.1855 24.5457 26.0438 24.43 25.9312C24.3143 25.8186 24.1708 25.7624 23.9998 25.7624C23.8287 25.7624 23.6872 25.8202 23.575 25.9356C23.4629 26.0512 23.4068 26.1944 23.4068 26.3651ZM11.6973 17.9003V21.6138C11.6973 21.7833 11.7551 21.9254 11.8709 22.0401C11.9866 22.1548 12.13 22.2121 12.301 22.2121C12.4721 22.2121 12.6136 22.1548 12.7258 22.0401C12.8379 21.9254 12.894 21.7833 12.894 21.6138V17.9003C12.894 17.7426 12.8361 17.6034 12.7204 17.4828C12.6046 17.3623 12.4613 17.302 12.2902 17.302C12.1192 17.302 11.9775 17.3623 11.8654 17.4828C11.7533 17.6034 11.6973 17.7426 11.6973 17.9003ZM17.5031 23.2057V26.959C17.5031 27.1286 17.5609 27.2707 17.6767 27.3853C17.7924 27.5001 17.9358 27.5574 18.1069 27.5574C18.2779 27.5574 18.4195 27.5001 18.5316 27.3853C18.6437 27.2707 18.6998 27.1286 18.6998 26.959V23.2057C18.6998 23.0362 18.6419 22.8941 18.5262 22.7794C18.4105 22.6648 18.2671 22.6074 18.0961 22.6074C17.925 22.6074 17.7834 22.6648 17.6713 22.7794C17.5591 22.8941 17.5031 23.0362 17.5031 23.2057ZM17.5031 17.9136V18.5119C17.5031 18.6769 17.5638 18.8156 17.6854 18.9282C17.807 19.0408 17.9504 19.0971 18.1156 19.0971C18.2809 19.0971 18.4195 19.0393 18.5316 18.9238C18.6437 18.8083 18.6998 18.6652 18.6998 18.4946V17.8962C18.6998 17.7373 18.6419 17.5986 18.5262 17.4799C18.4105 17.3613 18.2671 17.302 18.0961 17.302C17.925 17.302 17.7834 17.3627 17.6713 17.4841C17.5591 17.6054 17.5031 17.7486 17.5031 17.9136ZM23.4068 17.9003V21.6138C23.4068 21.7833 23.4647 21.9254 23.5804 22.0401C23.6962 22.1548 23.8395 22.2121 24.0106 22.2121C24.1817 22.2121 24.3233 22.1548 24.4354 22.0401C24.5475 21.9254 24.6035 21.7833 24.6035 21.6138V17.9003C24.6035 17.7426 24.5457 17.6034 24.43 17.4828C24.3143 17.3623 24.1708 17.302 23.9998 17.302C23.8287 17.302 23.6872 17.3623 23.575 17.4828C23.4629 17.6034 23.4068 17.7426 23.4068 17.9003ZM10.2975 30.8556C9.71817 30.8556 9.22884 30.6559 8.82949 30.2565C8.43014 29.8572 8.23047 29.3679 8.23047 28.7885V13.9539C8.23047 13.6714 8.28728 13.402 8.40089 13.1459C8.51453 12.8899 8.66835 12.6648 8.86237 12.4708L15.3028 6.0122C15.4968 5.83028 15.7222 5.6825 15.9792 5.56886C16.2361 5.45525 16.511 5.39844 16.8041 5.39844H25.9634C26.5428 5.39844 27.0321 5.59811 27.4314 5.99746C27.8308 6.39681 28.0305 6.88614 28.0305 7.46545V28.7885C28.0305 29.3679 27.8308 29.8572 27.4314 30.2565C27.0321 30.6559 26.5428 30.8556 25.9634 30.8556H10.2975ZM10.2975 29.6588H25.9634C26.1811 29.6588 26.3805 29.5682 26.5618 29.3869C26.7431 29.2056 26.8337 29.0062 26.8337 28.7885V7.46545C26.8337 7.24787 26.7431 7.04842 26.5618 6.8671C26.3805 6.68579 26.1811 6.59513 25.9634 6.59513H16.4641L9.4272 13.6321V28.7885C9.4272 29.0062 9.51783 29.2056 9.69909 29.3869C9.88044 29.5682 10.0799 29.6588 10.2975 29.6588ZM10.2975 29.6588H9.4272H26.8337H10.2975Z" fill="#1C1B1F"/>
</g>
</g>
<defs>
<clipPath id="clip0_396_15590">
<rect width="36" height="36" fill="white" transform="translate(0.130859)"/>
</clipPath>
<clipPath id="clip1_396_15590">
<rect width="36" height="36" fill="white" transform="translate(0.130859)"/>
</clipPath>
</defs>
</svg>
