<svg width="37" height="41" viewBox="0 0 37 41" fill="none" xmlns="http://www.w3.org/2000/svg">
<g clip-path="url(#clip0_396_16021)">
<g clip-path="url(#clip1_396_16021)">
<path d="M11.877 28.7557V29.3541C11.877 29.525 11.9377 29.6666 12.0593 29.7792C12.1809 29.8917 12.3243 29.9481 12.4895 29.9481C12.6547 29.9481 12.7933 29.8903 12.9055 29.7747C13.0176 29.6592 13.0737 29.5161 13.0737 29.3452V28.7468C13.0737 28.5761 13.0158 28.4344 12.9001 28.3218C12.7843 28.2093 12.641 28.153 12.4699 28.153C12.2989 28.153 12.1572 28.2108 12.0451 28.3263C11.933 28.4418 11.877 28.585 11.877 28.7557ZM23.5865 28.7557V29.3541C23.5865 29.525 23.6444 29.6666 23.7601 29.7792C23.8758 29.8917 24.0192 29.9481 24.1903 29.9481C24.3614 29.9481 24.503 29.8903 24.6151 29.7747C24.7272 29.6592 24.7832 29.5161 24.7832 29.3452V28.7468C24.7832 28.5761 24.7254 28.4344 24.6097 28.3218C24.494 28.2093 24.3505 28.153 24.1795 28.153C24.0084 28.153 23.8668 28.2108 23.7547 28.3263C23.6426 28.4418 23.5865 28.585 23.5865 28.7557ZM11.877 20.291V24.0045C11.877 24.1739 11.9348 24.316 12.0506 24.4307C12.1663 24.5454 12.3097 24.6028 12.4807 24.6028C12.6518 24.6028 12.7933 24.5454 12.9055 24.4307C13.0176 24.316 13.0737 24.1739 13.0737 24.0045V20.291C13.0737 20.1332 13.0158 19.9941 12.9001 19.8735C12.7843 19.7529 12.641 19.6926 12.4699 19.6926C12.2989 19.6926 12.1572 19.7529 12.0451 19.8735C11.933 19.9941 11.877 20.1332 11.877 20.291ZM17.6828 25.5964V29.3496C17.6828 29.5192 17.7406 29.6613 17.8564 29.776C17.9721 29.8907 18.1155 29.9481 18.2866 29.9481C18.4576 29.9481 18.5992 29.8907 18.7113 29.776C18.8234 29.6613 18.8795 29.5192 18.8795 29.3496V25.5964C18.8795 25.4268 18.8216 25.2847 18.7059 25.17C18.5902 25.0554 18.4468 24.9981 18.2758 24.9981C18.1047 24.9981 17.9631 25.0554 17.851 25.17C17.7388 25.2847 17.6828 25.4268 17.6828 25.5964ZM17.6828 20.3042V20.9025C17.6828 21.0675 17.7435 21.2063 17.8651 21.3189C17.9867 21.4314 18.1301 21.4877 18.2953 21.4877C18.4605 21.4877 18.5992 21.4299 18.7113 21.3144C18.8234 21.199 18.8795 21.0559 18.8795 20.8852V20.2868C18.8795 20.128 18.8216 19.9892 18.7059 19.8706C18.5902 19.752 18.4468 19.6926 18.2758 19.6926C18.1047 19.6926 17.9631 19.7533 17.851 19.8747C17.7388 19.996 17.6828 20.1392 17.6828 20.3042ZM23.5865 20.291V24.0045C23.5865 24.1739 23.6444 24.316 23.7601 24.4307C23.8758 24.5454 24.0192 24.6028 24.1903 24.6028C24.3614 24.6028 24.503 24.5454 24.6151 24.4307C24.7272 24.316 24.7832 24.1739 24.7832 24.0045V20.291C24.7832 20.1332 24.7254 19.9941 24.6097 19.8735C24.494 19.7529 24.3505 19.6926 24.1795 19.6926C24.0084 19.6926 23.8668 19.7529 23.7547 19.8735C23.6426 19.9941 23.5865 20.1332 23.5865 20.291ZM10.4772 33.2462C9.89786 33.2462 9.40853 33.0466 9.00918 32.6472C8.60983 32.2478 8.41016 31.7585 8.41016 31.1792V16.3446C8.41016 16.062 8.46696 15.7927 8.58058 15.5365C8.69421 15.2805 8.84804 15.0554 9.04206 14.8614L15.4825 8.40283C15.6765 8.2209 15.9019 8.07312 16.1589 7.95949C16.4157 7.84587 16.6907 7.78906 16.9838 7.78906H26.1431C26.7225 7.78906 27.2118 7.98874 27.6111 8.38808C28.0104 8.78743 28.2102 9.27676 28.2102 9.85607V31.1792C28.2102 31.7585 28.0104 32.2478 27.6111 32.6472C27.2118 33.0466 26.7225 33.2462 26.1431 33.2462H10.4772ZM10.4772 32.0495H26.1431C26.3607 32.0495 26.5602 31.9588 26.7414 31.7776C26.9228 31.5962 27.0134 31.3968 27.0134 31.1792V9.85607C27.0134 9.63849 26.9228 9.43904 26.7414 9.25773C26.5602 9.07641 26.3607 8.98576 26.1431 8.98576H16.6438L9.60689 16.0227V31.1792C9.60689 31.3968 9.69752 31.5962 9.87878 31.7776C10.0601 31.9588 10.2596 32.0495 10.4772 32.0495ZM10.4772 32.0495H9.60689H27.0134H10.4772Z" fill="#1C1B1F"/>
</g>
</g>
<defs>
<clipPath id="clip0_396_16021">
<rect width="36" height="40" fill="white" transform="translate(0.310547 0.390625)"/>
</clipPath>
<clipPath id="clip1_396_16021">
<rect width="36" height="40" fill="white" transform="translate(0.310547 0.390625)"/>
</clipPath>
</defs>
</svg>
