<svg width="48" height="49" viewBox="0 0 48 49" fill="none" xmlns="http://www.w3.org/2000/svg">
<g clip-path="url(#clip0_396_16889)">
<g clip-path="url(#clip1_396_16889)">
<path d="M13.1116 35.6905C11.8379 34.3571 10.8342 32.8325 10.1006 31.1166C9.36685 29.4006 9 27.6432 9 25.8443C9 23.8469 9.3673 21.936 10.1019 20.1116C10.8365 18.2873 11.9641 16.6148 13.4846 15.0943C14.7538 13.8145 16.3705 12.8157 18.3346 12.0979C20.2987 11.3801 22.4237 10.8539 24.7096 10.5193C26.9955 10.1847 29.3526 9.99751 31.7808 9.95778C34.209 9.91801 36.5346 9.9507 38.7577 10.0558C38.8962 12.2969 38.9494 14.6398 38.9173 17.0847C38.8853 19.5296 38.6955 21.8947 38.3481 24.1799C38.0007 26.4652 37.4571 28.5861 36.7173 30.5427C35.9776 32.4992 34.9769 34.1114 33.7152 35.3793C32.2307 36.9047 30.6013 38.0366 28.827 38.7751C27.0526 39.5135 25.224 39.8828 23.3412 39.8828C21.4086 39.8828 19.5545 39.5296 17.7788 38.8232C16.0032 38.1168 14.4475 37.0725 13.1116 35.6905ZM16.2615 36.2097C17.2487 36.9046 18.3692 37.4341 19.6231 37.7982C20.8769 38.1623 22.1156 38.3443 23.3391 38.3443C25.0047 38.3443 26.6345 38.0097 28.2284 37.3405C29.8223 36.6712 31.2898 35.6494 32.6308 34.2751C33.3721 33.5289 34.0506 32.527 34.6662 31.2693C35.2817 30.0116 35.8005 28.4552 36.2225 26.6001C36.6446 24.7449 36.9534 22.5738 37.149 20.0866C37.3445 17.5994 37.3885 14.7404 37.2808 11.5097C34.968 11.443 32.666 11.459 30.375 11.5578C28.084 11.6565 25.9372 11.8866 23.9346 12.2482C21.932 12.6097 20.132 13.0988 18.5346 13.7155C16.9372 14.3321 15.6538 15.1289 14.6846 16.1058C13.259 17.5392 12.2115 19.0815 11.5423 20.7328C10.8731 22.384 10.5384 23.9533 10.5384 25.4405C10.5384 27.0917 10.8865 28.7667 11.5827 30.4655C12.2788 32.1642 13.2423 33.5597 14.4731 34.652C15.4448 32.0007 16.85 29.5546 18.6885 27.3135C20.5269 25.0725 22.9449 23.0353 25.9423 21.202C23.4269 23.3943 21.3846 25.6796 19.8154 28.0578C18.2462 30.436 17.0615 33.1533 16.2615 36.2097Z" fill="#1C1B1F"/>
</g>
</g>
<defs>
<clipPath id="clip0_396_16889">
<rect width="48" height="48" fill="white" transform="translate(0 0.941406)"/>
</clipPath>
<clipPath id="clip1_396_16889">
<rect width="48" height="48" fill="white" transform="translate(0 0.941406)"/>
</clipPath>
</defs>
</svg>
