<svg width="51" height="29" viewBox="0 0 51 29" fill="none" xmlns="http://www.w3.org/2000/svg">
<g clip-path="url(#clip0_396_19871)">
<g clip-path="url(#clip1_396_19871)">
<g clip-path="url(#clip2_396_19871)">
<path d="M25.4092 14.6904C23.9651 17.4935 22.029 20.0142 19.6934 22.1325C18.2213 23.605 16.3457 24.6077 14.3038 25.0142C12.2617 25.4206 10.1451 25.2123 8.22146 24.4158C6.29784 23.6191 4.65367 22.27 3.49688 20.5388C2.34009 18.8077 1.72266 16.7725 1.72266 14.6904C1.72266 12.6083 2.34009 10.5731 3.49688 8.84194C4.65367 7.11084 6.29784 5.76165 8.22146 4.96503C10.1451 4.16842 12.2617 3.96014 14.3038 4.36656C16.3457 4.77298 18.2213 5.77582 19.6934 7.24827C22.029 9.36651 23.9651 11.8873 25.4092 14.6904ZM25.4092 14.6904C26.8531 11.8873 28.7892 9.36651 31.1249 7.24827C32.5969 5.77582 34.4726 4.77298 36.5145 4.36656C38.5565 3.96014 40.6731 4.16842 42.5968 4.96503C44.5203 5.76165 46.1646 7.11084 47.3214 8.84194C48.4781 10.5731 49.0956 12.6083 49.0956 14.6904C49.0956 16.7725 48.4781 18.8077 47.3214 20.5388C46.1646 22.27 44.5203 23.6191 42.5968 24.4158C40.6731 25.2123 38.5565 25.4206 36.5145 25.0142C34.4726 24.6077 32.5969 23.605 31.1249 22.1325C28.7892 20.0142 26.8531 17.4935 25.4092 14.6904Z" stroke="#292B2E" stroke-width="1.97368" stroke-linecap="round" stroke-linejoin="round"/>
</g>
</g>
</g>
<defs>
<clipPath id="clip0_396_19871">
<rect width="50" height="28.06" fill="white" transform="translate(0.410156 0.660156)"/>
</clipPath>
<clipPath id="clip1_396_19871">
<rect width="50" height="28.06" fill="white" transform="translate(0.410156 0.660156)"/>
</clipPath>
<clipPath id="clip2_396_19871">
<rect width="50" height="23.6842" fill="white" transform="translate(0.410156 2.84766)"/>
</clipPath>
</defs>
</svg>
