<svg width="13" height="13" viewBox="0 0 13 13" fill="none" xmlns="http://www.w3.org/2000/svg">
<g clip-path="url(#clip0_396_17097)">
<g clip-path="url(#clip1_396_17097)">
<g clip-path="url(#clip2_396_17097)">
<path d="M4.54813 8.29217L10.8666 1.97364C11.0054 1.83496 11.1874 1.76562 11.4127 1.76562C11.638 1.76562 11.8201 1.83496 11.9587 1.97364C12.0974 2.11232 12.1668 2.29433 12.1668 2.51969C12.1668 2.74504 12.0974 2.92706 11.9587 3.06573L5.19818 9.80029C5.0075 9.99098 4.79082 10.0863 4.54813 10.0863C4.30545 10.0863 4.08876 9.99098 3.89807 9.80029L1.29786 7.22608C1.15918 7.0874 1.08984 6.90538 1.08984 6.68003C1.08984 6.45468 1.15918 6.27267 1.29786 6.13398C1.43654 5.99531 1.61855 5.92597 1.84391 5.92597C2.06926 5.92597 2.25128 5.99531 2.38995 6.13398L4.54813 8.29217Z" fill="white"/>
</g>
</g>
</g>
<defs>
<clipPath id="clip0_396_17097">
<rect width="12" height="12" fill="white" transform="translate(0.628906 0.382812)"/>
</clipPath>
<clipPath id="clip1_396_17097">
<rect width="12" height="12" fill="white" transform="translate(0.628906 0.382812)"/>
</clipPath>
<clipPath id="clip2_396_17097">
<rect width="12" height="9.23077" fill="white" transform="translate(0.628906 1.76562)"/>
</clipPath>
</defs>
</svg>
