<svg width="18" height="13" viewBox="0 0 18 13" fill="none" xmlns="http://www.w3.org/2000/svg">
<g clip-path="url(#clip0_396_20047)">
<g clip-path="url(#clip1_396_20047)">
<g clip-path="url(#clip2_396_20047)">
<path d="M16.9766 6.51948C16.9766 6.6197 16.9622 6.71621 16.9336 6.80898C16.905 6.90234 16.8477 6.98481 16.7618 7.05639L12.0155 11.8027C11.9009 11.9316 11.754 11.996 11.5748 11.996C11.3961 11.996 11.2423 11.9316 11.1135 11.8027C10.9989 11.6739 10.9417 11.5198 10.9417 11.3405C10.9417 11.1619 10.9989 11.0081 11.1135 10.8792L14.8504 7.16378H1.62086C1.43473 7.16378 1.28067 7.10278 1.15868 6.9808C1.03727 6.85938 0.976562 6.70561 0.976562 6.51948C0.976562 6.33335 1.03727 6.17929 1.15868 6.05731C1.28067 5.93589 1.43473 5.87519 1.62086 5.87519H14.8504L11.1135 2.13827C10.9989 2.02373 10.9379 1.87683 10.9305 1.69757C10.9236 1.51889 10.9846 1.36512 11.1135 1.23626C11.2423 1.1074 11.3961 1.04297 11.5748 1.04297C11.754 1.04297 11.9009 1.1074 12.0155 1.23626L16.7618 5.98257C16.8477 6.05416 16.905 6.13634 16.9336 6.22912C16.9622 6.32247 16.9766 6.41926 16.9766 6.51948Z" fill="#292B2E"/>
</g>
</g>
</g>
<defs>
<clipPath id="clip0_396_20047">
<rect width="17" height="12" fill="white" transform="translate(0.949219 0.519531)"/>
</clipPath>
<clipPath id="clip1_396_20047">
<rect width="17" height="12" fill="white" transform="translate(0.949219 0.519531)"/>
</clipPath>
<clipPath id="clip2_396_20047">
<rect width="17" height="12" fill="white" transform="translate(0.949219 0.519531)"/>
</clipPath>
</defs>
</svg>
