<svg width="54" height="41" viewBox="0 0 54 41" fill="none" xmlns="http://www.w3.org/2000/svg">
<g clip-path="url(#clip0_396_16086)">
<g clip-path="url(#clip1_396_16086)">
<g clip-path="url(#clip2_396_16086)">
<path fill-rule="evenodd" clip-rule="evenodd" d="M25.0351 26.7689V20.6566H28.194C29.4885 20.6566 30.5811 20.2234 31.4718 19.3691L31.6855 19.1526C33.3125 17.3838 33.2056 14.6284 31.4718 12.9921C30.6048 12.1258 29.4172 11.6565 28.194 11.6806H23.123V26.7689H25.0351ZM25.0354 18.8038V13.5337H28.2423C28.9312 13.5337 29.5845 13.7984 30.0715 14.2797C31.1049 15.2904 31.1286 16.9749 30.1309 18.0217C29.6439 18.5391 28.955 18.8278 28.2423 18.8038H25.0354ZM40.605 17.2519C39.7855 16.4939 38.6692 16.1089 37.256 16.1089C35.439 16.1089 34.0733 16.7827 33.1707 18.1183L34.8571 19.1891C35.4746 18.2747 36.3178 17.8175 37.3866 17.8175C38.0636 17.8175 38.7167 18.0701 39.2274 18.5273C39.7262 18.9605 40.0112 19.5862 40.0112 20.2479V20.6931C39.2749 20.284 38.3486 20.0675 37.2085 20.0675C35.8784 20.0675 34.8096 20.3803 34.0139 21.018C33.2182 21.6557 32.8144 22.498 32.8144 23.5688C32.7907 24.5434 33.2063 25.4699 33.9426 26.0956C34.6908 26.7694 35.6409 27.1063 36.7572 27.1063C38.0754 27.1063 39.1205 26.5167 39.9162 25.3376H39.9993V26.7694H41.8282V20.4044C41.8282 19.0688 41.4244 18.01 40.605 17.2519ZM35.4156 24.8682C35.0236 24.5794 34.7861 24.1101 34.7861 23.6048C34.7861 23.0393 35.0474 22.57 35.5581 22.197C36.0808 21.824 36.734 21.6315 37.5061 21.6315C38.5751 21.6195 39.4065 21.8601 40.0004 22.3414C40.0004 23.1596 39.6797 23.8695 39.0502 24.4711C38.48 25.0486 37.708 25.3735 36.9003 25.3735C36.3658 25.3855 35.8432 25.2051 35.4156 24.8682ZM45.9368 31.3055L52.326 16.4458H50.2477L47.2907 23.8576H47.255L44.2267 16.4458H42.1484L46.3406 26.1076L43.9654 31.3055H45.9368Z" fill="#3C4043"/>
<path d="M18.4347 19.3348C18.4347 18.7452 18.3872 18.1557 18.2922 17.5781H10.2285V20.9111H14.8482C14.6582 21.9819 14.0407 22.9445 13.1381 23.5461V25.7119H15.8933C17.5084 24.2079 18.4347 21.9819 18.4347 19.3348Z" fill="#4285F4"/>
<path d="M10.2279 27.8035C12.5319 27.8035 14.4795 27.0334 15.8927 25.7099L13.1375 23.5441C12.3656 24.0735 11.3799 24.3743 10.2279 24.3743C7.9953 24.3743 6.10704 22.8462 5.43012 20.8008H2.5918V23.0387C4.04065 25.9626 6.99773 27.8035 10.2279 27.8035Z" fill="#34A853"/>
<path d="M5.43016 20.8007C5.07382 19.7299 5.07382 18.5628 5.43016 17.4799V15.2539H2.59138C1.36798 17.6964 1.36798 20.5841 2.59138 23.0267L5.43016 20.8007Z" fill="#FBBC04"/>
<path d="M10.2279 13.9063C11.4512 13.8822 12.6269 14.3515 13.5057 15.2057L15.9521 12.7271C14.3964 11.2592 12.3537 10.453 10.2279 10.4771C6.99773 10.4771 4.04065 12.33 2.5918 15.2539L5.43012 17.4919C6.10704 15.4344 7.9953 13.9063 10.2279 13.9063Z" fill="#EA4335"/>
</g>
</g>
</g>
<defs>
<clipPath id="clip0_396_16086">
<rect width="53" height="40" fill="white" transform="translate(0.5 0.890625)"/>
</clipPath>
<clipPath id="clip1_396_16086">
<rect width="53" height="40" fill="white" transform="translate(0.5 0.890625)"/>
</clipPath>
<clipPath id="clip2_396_16086">
<rect width="53" height="22" fill="white" transform="translate(0.5 9.89062)"/>
</clipPath>
</defs>
</svg>
