<svg width="54" height="55" viewBox="0 0 54 55" fill="none" xmlns="http://www.w3.org/2000/svg">
<g clip-path="url(#clip0_396_19357)">
<g clip-path="url(#clip1_396_19357)">
<path d="M46.5013 21.8581C42.4526 25.1611 36.1517 25.9808 27.3354 24.269V5.24609H19.8607V22.3644L18.8066 22.0268C12.6467 20.2831 6.11855 20.3585 0 22.2439L1.50932 28.7294C6.47093 27.0839 11.8049 26.9496 16.8421 28.3436C17.8723 28.6813 18.8784 28.9705 19.8607 29.2358V48.7892H27.4072V30.9717C30.0804 31.4531 32.7894 31.7032 35.5048 31.7191C39.2809 31.8052 43.031 31.0733 46.5013 29.5733V48.8614H54V5.24609H46.5013V21.8581Z" fill="white"/>
</g>
</g>
<defs>
<clipPath id="clip0_396_19357">
<rect width="54" height="54" fill="white" transform="translate(0 0.480469)"/>
</clipPath>
<clipPath id="clip1_396_19357">
<rect width="54" height="44.4706" fill="white" transform="translate(0 5.24609)"/>
</clipPath>
</defs>
</svg>
