<svg width="42" height="42" viewBox="0 0 42 42" fill="none" xmlns="http://www.w3.org/2000/svg">
<path d="M12.1726 10.4129C12.1726 9.56334 12.1941 6.9493 12.2156 4.57488L12.2801 0.261719L17.9558 0.392421V18.0372L12.2586 18.1461L12.2371 17.5362C12.2156 17.2094 12.2156 16.0113 12.2156 14.8786C12.2156 13.7458 12.1726 12.7438 12.1296 12.6348C12.0866 12.5477 11.0116 13.5062 9.7432 14.7479C8.45326 15.9895 6.99134 17.2312 6.45387 17.5144C5.61541 17.95 5.16394 18.0154 0.541681 18.0372V12.1556L12.1511 11.9378L12.1726 10.4129Z" fill="#4B48E6"/>
<path d="M23.8035 2.44008C23.8035 1.41625 23.868 0.501339 23.9754 0.435988C24.0614 0.348853 25.4159 0.305286 29.7586 0.392421L29.8446 11.9378L41.583 12.1556V18.0372L33.1985 18.1025C28.5977 18.1461 24.5989 18.1025 24.3409 18.0372C23.868 17.9283 23.8465 17.8629 23.8465 15.0964C23.8465 12.3516 23.868 12.2645 24.3409 12.1556C24.5989 12.0902 25.8673 12.0249 29.5007 11.9378L27.2003 9.54156C25.9533 8.23454 24.7709 6.86217 24.6204 6.49184C24.4484 6.14331 24.2119 5.4898 24.0829 5.07591C23.9539 4.66202 23.825 3.4857 23.8035 2.44008Z" fill="#4B48E6"/>
<path d="M0.477184 27.2081C0.455685 25.7704 0.477184 24.4634 0.520182 24.3109C0.606177 24.0713 2.26159 24.0277 17.9343 24.1366V29.8004L15.3114 29.8657C13.3765 29.9093 12.667 29.9964 12.667 30.1925C12.667 30.3449 13.5915 31.3906 14.7309 32.5233C15.8704 33.6561 17.0528 35.0284 17.3538 35.573C17.9128 36.4879 17.9343 36.7276 17.9343 41.7814L12.2371 41.8903L12.1296 30.0182L0.520182 29.8004L0.477184 27.2081Z" fill="#4B48E6"/>
<path d="M23.9324 33.1768C23.9109 28.4498 23.9324 24.4634 23.9754 24.3109C24.0399 24.1148 24.7924 24.0277 26.8563 24.0277C29.1567 24.0277 29.6726 24.093 29.7586 24.3544C29.8231 24.5287 29.8661 25.6832 29.8661 26.9249C29.8661 28.1448 29.9306 29.234 30.0381 29.3211C30.1241 29.4083 31.2206 28.4716 32.446 27.2299C34.2734 25.4218 34.9614 24.899 35.9503 24.5069C36.9178 24.1366 37.6272 24.0277 41.4755 24.0277L41.368 29.8004L35.7783 29.8657C31.672 29.9093 30.1456 29.9964 30.0381 30.1925C29.9521 30.3449 29.8661 32.9154 29.8661 35.8998C29.8661 38.9059 29.8016 41.4764 29.7156 41.6289C29.5867 41.8249 28.8127 41.8903 23.9539 41.7814L23.9324 33.1768Z" fill="#4B48E6"/>
</svg>
