<svg width="31" height="25" viewBox="0 0 31 25" fill="none" xmlns="http://www.w3.org/2000/svg">
<g clip-path="url(#clip0_396_16126)">
<path d="M7.48242 18.3574C6.78182 17.6402 6.23134 16.8228 5.83099 15.9053C5.43064 14.9879 5.23047 14.037 5.23047 13.0528C5.23047 12.0687 5.41797 11.0885 5.79296 10.1123C6.16862 9.13674 6.78182 8.23196 7.63256 7.3979C8.23308 6.7807 8.99207 6.27593 9.90953 5.88359C10.827 5.49191 11.8656 5.19165 13.0253 4.98281C14.1843 4.77462 15.4477 4.65385 16.8156 4.62049C18.1834 4.58713 19.6263 4.62884 21.1443 4.74561C21.2444 6.18018 21.2778 7.5774 21.2444 8.93725C21.211 10.2964 21.0943 11.5599 20.8941 12.7276C20.6939 13.8952 20.398 14.9462 20.0063 15.8803C19.614 16.8144 19.1092 17.5901 18.492 18.2073C17.6746 19.0414 16.7949 19.6502 15.8527 20.0339C14.9099 20.4176 13.9547 20.6094 12.9872 20.6094C11.9697 20.6094 10.9732 20.4092 9.99761 20.0089C9.02143 19.6085 8.18303 19.0581 7.48242 18.3574ZM9.73438 18.1823C10.2348 18.4992 10.7646 18.7328 11.3238 18.8829C11.8823 19.033 12.4368 19.1081 12.9872 19.1081C13.7546 19.1081 14.5179 18.954 15.2772 18.6457C16.0359 18.3368 16.7488 17.8403 17.4161 17.1564C17.7163 16.8561 18.0206 16.4351 18.3289 15.8933C18.6378 15.3508 18.905 14.6416 19.1306 13.7655C19.3554 12.89 19.5262 11.8311 19.643 10.5887C19.7598 9.34559 19.7848 7.86497 19.7181 6.14682C18.9007 6.11345 17.9749 6.10512 16.9407 6.1218C15.9064 6.13849 14.8765 6.22188 13.851 6.37201C12.8248 6.52215 11.8529 6.75968 10.9355 7.08463C10.018 7.41025 9.27565 7.85664 8.70849 8.4238C7.97452 9.17445 7.46174 9.9291 7.17015 10.6878C6.8779 11.4471 6.73177 12.1687 6.73177 12.8527C6.73177 13.8035 6.91527 14.6626 7.28225 15.4299C7.64924 16.1972 8.0329 16.7644 8.43325 17.1314C9.00041 15.8803 9.78843 14.6749 10.7973 13.5152C11.8069 12.3562 13.0873 11.343 14.6387 10.4756C13.471 11.5098 12.4658 12.6398 11.623 13.8655C10.781 15.0919 10.1514 16.5309 9.73438 18.1823Z" fill="#292B2E"/>
</g>
<defs>
<clipPath id="clip0_396_16126">
<rect width="30" height="24" fill="white" transform="translate(0.730469 0.609375)"/>
</clipPath>
</defs>
</svg>
