<svg width="31" height="25" viewBox="0 0 31 25" fill="none" xmlns="http://www.w3.org/2000/svg">
<g clip-path="url(#clip0_396_16132)">
<path d="M16.7382 12.5492C16.658 12.5492 16.5812 12.5391 16.508 12.5188C16.4342 12.499 16.3639 12.4624 16.2971 12.4089C15.1743 11.4064 14.2119 10.4472 13.4099 9.53129C12.6078 8.61593 12.2068 7.77062 12.2068 6.99534C12.2068 6.32701 12.4376 5.76212 12.899 5.3007C13.3599 4.83981 13.9245 4.60938 14.5928 4.60938C14.9938 4.60938 15.3814 4.70295 15.7557 4.89008C16.13 5.07722 16.4575 5.35122 16.7382 5.71213C17.0322 5.35122 17.3629 5.07722 17.7303 4.89008C18.0981 4.70295 18.4825 4.60938 18.8835 4.60938C19.5652 4.60938 20.1333 4.83981 20.5878 5.3007C21.0423 5.76212 21.2695 6.32701 21.2695 6.99534C21.2695 7.77062 20.8685 8.61593 20.0665 9.53129C19.2645 10.4472 18.3021 11.4064 17.1793 12.4089C17.1258 12.4624 17.059 12.499 16.9788 12.5188C16.8986 12.5391 16.8184 12.5492 16.7382 12.5492ZM16.7382 11.1457C17.5936 10.3838 18.3622 9.62512 19.0439 8.86963C19.7256 8.11468 20.0665 7.48991 20.0665 6.99534C20.0665 6.64781 19.9561 6.36363 19.7353 6.14281C19.515 5.92253 19.2311 5.81239 18.8835 5.81239C18.683 5.81239 18.4758 5.86238 18.262 5.96236C18.0481 6.06288 17.8409 6.2468 17.6404 6.51413L16.7382 7.59685L15.8359 6.51413C15.6354 6.2468 15.4282 6.06288 15.2144 5.96236C15.0005 5.86238 14.7933 5.81239 14.5928 5.81239C14.2453 5.81239 13.9614 5.92253 13.7411 6.14281C13.5203 6.36363 13.4099 6.64781 13.4099 6.99534C13.4099 7.48991 13.7507 8.11468 14.4324 8.86963C15.1141 9.62512 15.8827 10.3838 16.7382 11.1457ZM15.0339 19.0655C15.0606 19.0789 15.0842 19.0856 15.1045 19.0856C15.1243 19.0856 15.1475 19.0789 15.1743 19.0655L19.886 17.6019C19.8459 17.4147 19.7591 17.2744 19.6254 17.1808C19.4917 17.0873 19.3447 17.0405 19.1843 17.0405H15.2745C14.9136 17.0405 14.6129 17.0239 14.3723 16.9908C14.1317 16.9571 13.8777 16.9001 13.6104 16.8199L12.3672 16.4189C12.1935 16.3655 12.0732 16.262 12.0063 16.1085C11.9395 15.9546 11.9328 15.7907 11.9863 15.6169C12.0398 15.4699 12.14 15.3595 12.287 15.2857C12.4341 15.2124 12.5878 15.1959 12.7482 15.236L13.7908 15.6169C14.0314 15.6838 14.3022 15.7337 14.6032 15.7669C14.9037 15.8006 15.2946 15.8241 15.7758 15.8375H15.9763C15.9763 15.637 15.933 15.4632 15.8463 15.3162C15.7592 15.1691 15.6421 15.0756 15.4951 15.0355L10.8434 13.3112H9.27956V17.4415L15.0339 19.0655ZM14.7131 20.2485L9.27956 18.6846C9.18599 19.0188 8.99885 19.2861 8.71815 19.4866C8.43745 19.6871 8.1367 19.7873 7.8159 19.7873H6.71314C6.31214 19.7873 5.97128 19.6435 5.69058 19.3559C5.40988 19.0687 5.26953 18.7247 5.26953 18.3237V13.5518C5.26953 13.1508 5.40988 12.8099 5.69058 12.5292C5.97128 12.2485 6.31214 12.1081 6.71314 12.1081H10.7432C10.8368 12.1081 10.9236 12.1148 11.0038 12.1282C11.084 12.1416 11.1642 12.1616 11.2444 12.1883L15.9161 13.9127C16.277 14.0463 16.5778 14.2835 16.8184 14.624C17.059 14.9652 17.1793 15.3696 17.1793 15.8375H19.1843C19.7591 15.8375 20.2304 16.0214 20.5982 16.3892C20.9655 16.7566 21.1492 17.241 21.1492 17.8425C21.1492 18.0697 21.089 18.2536 20.9687 18.3943C20.8484 18.5343 20.6613 18.6445 20.4073 18.7247L15.5552 20.2284C15.4215 20.2685 15.2812 20.2921 15.1342 20.299C14.9871 20.3054 14.8468 20.2886 14.7131 20.2485ZM6.47254 18.3237C6.47254 18.4039 6.49606 18.4675 6.54311 18.5146C6.58963 18.5611 6.64631 18.5843 6.71314 18.5843H7.8159C7.8961 18.5843 7.95972 18.5643 8.00677 18.5242C8.05329 18.4841 8.07655 18.4173 8.07655 18.3237V13.3112H6.71314C6.64631 13.3112 6.58963 13.3344 6.54311 13.3809C6.49606 13.428 6.47254 13.4849 6.47254 13.5518V18.3237Z" fill="#292B2E"/>
</g>
<defs>
<clipPath id="clip0_396_16132">
<rect width="30" height="24" fill="white" transform="translate(0.769531 0.609375)"/>
</clipPath>
</defs>
</svg>
