<svg width="31" height="25" viewBox="0 0 31 25" fill="none" xmlns="http://www.w3.org/2000/svg">
<g clip-path="url(#clip0_396_16138)">
<path d="M8.22274 19.3277C7.56077 19.3277 7.00077 19.099 6.54274 18.6415C6.08527 18.1835 5.85654 17.6235 5.85654 16.9615C5.46217 16.9333 5.12415 16.7714 4.84246 16.4756C4.56077 16.1798 4.41992 15.8348 4.41992 15.4404V8.13051C4.41992 7.70797 4.56781 7.34881 4.86358 7.05303C5.15936 6.75726 5.51851 6.60938 5.94105 6.60938H15.9129C16.3354 6.60938 16.6982 6.75726 17.0013 7.05303C17.3038 7.34881 17.4551 7.70797 17.4551 8.13051V9.82065H19.3143C19.441 9.82065 19.5537 9.84881 19.6523 9.90514C19.7509 9.96148 19.8424 10.039 19.9269 10.1375L22.272 13.2855C22.3284 13.3418 22.3672 13.4086 22.3886 13.4857C22.4095 13.5635 22.4199 13.6446 22.4199 13.7291V16.2009C22.4199 16.4122 22.3461 16.5919 22.1985 16.7401C22.0503 16.8877 21.8706 16.9615 21.6593 16.9615H20.8988C20.8988 17.6235 20.6664 18.1835 20.2016 18.6415C19.7368 19.099 19.1734 19.3277 18.5114 19.3277C17.8636 19.3277 17.3072 19.099 16.8424 18.6415C16.3776 18.1835 16.1453 17.6235 16.1453 16.9615H10.5889C10.5889 17.6235 10.3602 18.1835 9.90274 18.6415C9.44471 19.099 8.88471 19.3277 8.22274 19.3277ZM8.22274 18.0601C8.5326 18.0601 8.79316 17.9545 9.00443 17.7432C9.21569 17.5319 9.32133 17.2714 9.32133 16.9615C9.32133 16.6517 9.21569 16.3911 9.00443 16.1798C8.79316 15.9686 8.5326 15.8629 8.22274 15.8629C7.91288 15.8629 7.65231 15.9686 7.44105 16.1798C7.22978 16.3911 7.12415 16.6517 7.12415 16.9615C7.12415 17.2714 7.22978 17.5319 7.44105 17.7432C7.65231 17.9545 7.91288 18.0601 8.22274 18.0601ZM5.68753 8.13051V15.4404C5.68753 15.4686 5.69091 15.4967 5.69767 15.5249C5.70499 15.5531 5.71936 15.5776 5.74077 15.5984L5.80415 15.6618C5.82499 15.6832 5.8495 15.6939 5.87767 15.6939H6.3002C6.4833 15.384 6.74386 15.1235 7.08189 14.9122C7.41992 14.7009 7.8002 14.5953 8.22274 14.5953C8.63119 14.5953 9.00809 14.6973 9.35344 14.9012C9.69823 15.1057 9.96217 15.37 10.1453 15.6939H16.1875V8.13051C16.1875 8.06008 16.163 8.00036 16.114 7.95134C16.0644 7.90176 15.9974 7.87699 15.9129 7.87699H5.94105C5.87062 7.87699 5.81091 7.90176 5.76189 7.95134C5.71231 8.00036 5.68753 8.06008 5.68753 8.13051ZM18.5326 18.0601C18.8424 18.0601 19.103 17.9545 19.3143 17.7432C19.5255 17.5319 19.6312 17.2714 19.6312 16.9615C19.6312 16.6517 19.5255 16.3911 19.3143 16.1798C19.103 15.9686 18.8424 15.8629 18.5326 15.8629C18.2227 15.8629 17.9588 15.9686 17.7407 16.1798C17.5222 16.3911 17.4129 16.6517 17.4129 16.9615C17.4129 17.2714 17.5222 17.5319 17.7407 17.7432C17.9588 17.9545 18.2227 18.0601 18.5326 18.0601ZM17.4551 14.0038H21.2368L19.0396 11.0883H17.4551V14.0038Z" fill="#292B2E"/>
</g>
<defs>
<clipPath id="clip0_396_16138">
<rect width="30" height="24" fill="white" transform="translate(0.919922 0.609375)"/>
</clipPath>
</defs>
</svg>
