<svg width="180" height="41" viewBox="0 0 180 41" fill="none" xmlns="http://www.w3.org/2000/svg">
<g clip-path="url(#clip0_396_15609)">
<g clip-path="url(#clip1_396_15609)">
<path d="M0 40.3906C104.688 40.3906 131.753 -17.3867 180 5.93751V40.3906H0Z" fill="#F8F8FB"/>
<path d="M160.027 20.3906C160.027 20.4908 160.012 20.5873 159.984 20.6801C159.955 20.7734 159.898 20.8559 159.812 20.9275L155.066 25.6738C154.951 25.8027 154.804 25.8671 154.625 25.8671C154.446 25.8671 154.292 25.8027 154.164 25.6738C154.049 25.545 153.992 25.3909 153.992 25.2116C153.992 25.033 154.049 24.8792 154.164 24.7503L157.9 21.0349H144.671C144.485 21.0349 144.331 20.9739 144.209 20.8519C144.087 20.7305 144.027 20.5767 144.027 20.3906C144.027 20.2045 144.087 20.0504 144.209 19.9284C144.331 19.807 144.485 19.7463 144.671 19.7463H157.9L154.164 16.0094C154.049 15.8948 153.988 15.7479 153.981 15.5687C153.974 15.39 154.035 15.2362 154.164 15.1074C154.292 14.9785 154.446 14.9141 154.625 14.9141C154.804 14.9141 154.951 14.9785 155.066 15.1074L159.812 19.8537C159.898 19.9253 159.955 20.0074 159.984 20.1002C160.012 20.1936 160.027 20.2904 160.027 20.3906Z" fill="#292B2E"/>
</g>
</g>
<defs>
<clipPath id="clip0_396_15609">
<rect width="180" height="40" fill="white" transform="translate(0 0.390625)"/>
</clipPath>
<clipPath id="clip1_396_15609">
<rect width="180" height="40" fill="white" transform="translate(0 0.390625)"/>
</clipPath>
</defs>
</svg>
