<svg width="32" height="31" viewBox="0 0 32 31" fill="none" xmlns="http://www.w3.org/2000/svg">
<path d="M9.46583 7.55939C9.46583 6.92674 9.48205 4.98011 9.49827 3.21193L9.54694 0L13.8295 0.0973312V13.237L9.53072 13.3182L9.51449 12.8639C9.49827 12.6206 9.49827 11.7284 9.49827 10.8849C9.49827 10.0413 9.46583 9.29513 9.43338 9.21402C9.40094 9.14914 8.58985 9.8629 7.63276 10.7875C6.65944 11.7122 5.55636 12.6368 5.15081 12.8477C4.51816 13.1722 4.1775 13.2208 0.689795 13.237V8.85714L9.44961 8.69492L9.46583 7.55939Z" fill="#4B48E6"/>
<path d="M18.2419 1.62219C18.2419 0.859759 18.2905 0.178441 18.3716 0.129775C18.4365 0.0648875 19.4585 0.0324438 22.7353 0.0973312L22.8002 8.69492L31.6574 8.85714V13.237L25.3308 13.2857C21.8593 13.3182 18.8421 13.2857 18.6474 13.237C18.2905 13.1559 18.2743 13.1073 18.2743 11.0471C18.2743 9.00314 18.2905 8.93825 18.6474 8.85714C18.8421 8.80848 19.7992 8.75981 22.5407 8.69492L20.8049 6.91052C19.864 5.93721 18.9718 4.91523 18.8583 4.63946C18.7285 4.37991 18.5501 3.89325 18.4527 3.58503C18.3554 3.27682 18.2581 2.40084 18.2419 1.62219Z" fill="#4B48E6"/>
<path d="M0.64113 20.0665C0.624908 18.9958 0.64113 18.0225 0.673573 17.9089C0.738461 17.7305 1.98754 17.6981 13.8133 17.7792V21.9969L11.8342 22.0455C10.3743 22.078 9.83893 22.1429 9.83893 22.2889C9.83893 22.4024 10.5365 23.1811 11.3962 24.0246C12.256 24.8681 13.1482 25.8901 13.3753 26.2957C13.7971 26.977 13.8133 27.1554 13.8133 30.9189L9.51449 31L9.43338 22.1591L0.673573 21.9969L0.64113 20.0665Z" fill="#4B48E6"/>
<path d="M18.3392 24.5113C18.323 20.9911 18.3392 18.0225 18.3716 17.9089C18.4203 17.763 18.9881 17.6981 20.5454 17.6981C22.2811 17.6981 22.6704 17.7467 22.7353 17.9414C22.784 18.0712 22.8164 18.9309 22.8164 19.8556C22.8164 20.764 22.8651 21.5751 22.9462 21.64C23.0111 21.7049 23.8384 21.0073 24.7631 20.0827C26.1419 18.7363 26.661 18.3469 27.4072 18.0549C28.1372 17.7792 28.6725 17.6981 31.5762 17.6981L31.4951 21.9969L27.2774 22.0455C24.1791 22.078 23.0273 22.1429 22.9462 22.2889C22.8813 22.4024 22.8164 24.3166 22.8164 26.539C22.8164 28.7776 22.7678 30.6918 22.7029 30.8053C22.6055 30.9513 22.0216 31 18.3554 30.9189L18.3392 24.5113Z" fill="#4B48E6"/>
</svg>
