<svg width="141" height="35" viewBox="0 0 141 35" fill="none" xmlns="http://www.w3.org/2000/svg">
<path d="M37.321 12.5117H51.503V15.1428H45.9266V29.9337H42.8602V15.1428H37.3086V12.5117H37.321ZM50.8971 17.319H53.5184V19.7534H53.5679C53.6544 19.4092 53.8152 19.0772 54.0501 18.7576C54.285 18.4379 54.5694 18.1305 54.9032 17.8723C55.2371 17.6018 55.608 17.3928 56.016 17.2207C56.4241 17.0609 56.8445 16.9748 57.2648 16.9748C57.5863 16.9748 57.8212 16.9871 57.9449 16.9994C58.0685 17.0117 58.1922 17.0363 58.3282 17.0486V19.7289C58.1304 19.692 57.9325 19.6674 57.7223 19.6428C57.5121 19.6182 57.3143 19.6059 57.1165 19.6059C56.6466 19.6059 56.2015 19.7043 55.7811 19.8887C55.3607 20.0731 55.0021 20.3559 54.693 20.7125C54.3839 21.0813 54.1366 21.5239 53.9512 22.0649C53.7657 22.6059 53.6791 23.2206 53.6791 23.9214V29.9214H50.8848V17.319L50.8971 17.319ZM71.1749 29.9337H68.43V28.1755H68.3805C68.0343 28.8148 67.5274 29.3189 66.8473 29.7001C66.1673 30.0812 65.4749 30.2779 64.7701 30.2779C63.1009 30.2779 61.8892 29.8722 61.1473 29.0484C60.4054 28.2247 60.0345 26.9829 60.0345 25.3231V17.319H62.8289V25.0526C62.8289 26.1591 63.0391 26.946 63.4718 27.4009C63.8922 27.8558 64.4981 28.0894 65.2647 28.0894C65.8582 28.0894 66.3404 28.0034 66.736 27.8189C67.1317 27.6345 67.4532 27.4009 67.6881 27.0935C67.9354 26.7985 68.1085 26.4296 68.2198 26.0116C68.331 25.5936 68.3805 25.1386 68.3805 24.6468V17.3313H71.1749V29.9337ZM75.9352 25.8886C76.0217 26.7001 76.3309 27.2657 76.8625 27.5976C77.4066 27.9173 78.0495 28.0894 78.8038 28.0894C79.0634 28.0894 79.3602 28.0648 79.694 28.028C80.0278 27.9911 80.3493 27.905 80.6337 27.7944C80.9304 27.6837 81.1654 27.5116 81.3632 27.2903C81.5487 27.069 81.6352 26.7862 81.6229 26.4296C81.6105 26.0731 81.4745 25.778 81.2272 25.5567C80.9799 25.3231 80.6708 25.1509 80.2875 25.0034C79.9042 24.8682 79.4714 24.7452 78.9769 24.6468C78.4823 24.5485 77.9877 24.4378 77.4808 24.3272C76.9614 24.2165 76.4545 24.069 75.9723 23.9091C75.4901 23.7493 75.0573 23.528 74.674 23.2452C74.2907 22.9747 73.9816 22.6182 73.759 22.1879C73.5241 21.7575 73.4128 21.2288 73.4128 20.5895C73.4128 19.901 73.5859 19.3354 73.9198 18.8682C74.2536 18.401 74.6864 18.0322 75.1933 17.7494C75.7126 17.4666 76.2814 17.2699 76.912 17.1469C77.5426 17.0363 78.1484 16.9748 78.7172 16.9748C79.3725 16.9748 80.0031 17.0486 80.5966 17.1838C81.1901 17.319 81.7341 17.5404 82.2163 17.86C82.6986 18.1674 83.0942 18.5731 83.4157 19.0649C83.7372 19.5567 83.935 20.1592 84.0216 20.86H81.1035C80.9675 20.1961 80.6708 19.7412 80.1886 19.5198C79.7064 19.2862 79.15 19.1756 78.5317 19.1756C78.3339 19.1756 78.099 19.1879 77.827 19.2248C77.5549 19.2617 77.3076 19.3231 77.0604 19.4092C76.8254 19.4953 76.6276 19.6305 76.4545 19.8026C76.2938 19.9748 76.2072 20.1961 76.2072 20.4789C76.2072 20.8231 76.3309 21.0936 76.5658 21.3026C76.8007 21.5116 77.1098 21.6838 77.4931 21.8313C77.8764 21.9665 78.3092 22.0895 78.8038 22.1879C79.2983 22.2862 79.8053 22.3969 80.3246 22.5075C80.8315 22.6182 81.3261 22.7657 81.8207 22.9255C82.3153 23.0854 82.748 23.3067 83.1313 23.5895C83.5146 23.8723 83.8237 24.2165 84.0587 24.6346C84.2936 25.0526 84.4172 25.5813 84.4172 26.196C84.4172 26.946 84.2441 27.573 83.8979 28.1017C83.5517 28.6181 83.1066 29.0484 82.5625 29.3681C82.0185 29.6878 81.4003 29.9337 80.7326 30.0812C80.0649 30.2288 79.3972 30.3025 78.7419 30.3025C77.9382 30.3025 77.1964 30.2165 76.5163 30.032C75.8363 29.8476 75.2428 29.5771 74.7482 29.2206C74.2536 28.8517 73.858 28.3968 73.5736 27.8558C73.2892 27.3148 73.1408 26.6632 73.1161 25.9132H75.9352V25.8886ZM85.1591 17.319H87.2734V13.5322H90.0678V17.319H92.5901V19.3969H90.0678V26.1345C90.0678 26.4296 90.0801 26.6755 90.1049 26.8968C90.1296 27.1058 90.1914 27.2903 90.278 27.4378C90.3645 27.5853 90.5005 27.696 90.686 27.7698C90.8715 27.8435 91.1064 27.8804 91.4279 27.8804C91.6257 27.8804 91.8235 27.8804 92.0214 27.8681C92.2192 27.8558 92.417 27.8312 92.6149 27.7821V29.9337C92.3057 29.9706 91.9966 29.9952 91.7123 30.032C91.4155 30.0689 91.1188 30.0812 90.8097 30.0812C90.0678 30.0812 89.4743 30.0074 89.0292 29.8722C88.584 29.737 88.2255 29.5279 87.9782 29.2575C87.7185 28.987 87.5578 28.655 87.4589 28.2493C87.3723 27.8435 87.3105 27.3763 87.2981 26.8599V19.4215H85.1838V17.319H85.1591ZM94.5685 17.319H97.2144V19.028H97.2639C97.6596 18.2903 98.2036 17.774 98.9084 17.4543C99.6132 17.1346 100.367 16.9748 101.196 16.9748C102.197 16.9748 103.063 17.1469 103.805 17.5035C104.547 17.8477 105.165 18.3272 105.659 18.942C106.154 19.5567 106.513 20.2698 106.76 21.0813C107.007 21.8928 107.131 22.7657 107.131 23.6878C107.131 24.5362 107.019 25.3599 106.797 26.1468C106.574 26.946 106.241 27.6468 105.795 28.2616C105.35 28.8763 104.782 29.3558 104.089 29.7247C103.397 30.0935 102.593 30.2779 101.653 30.2779C101.245 30.2779 100.837 30.241 100.429 30.1673C100.021 30.0935 99.6255 29.9706 99.2546 29.8107C98.8836 29.6509 98.5251 29.4419 98.216 29.1837C97.8945 28.9255 97.6348 28.6304 97.4123 28.2984H97.3628V34.5935H94.5685V17.319ZM104.336 23.6387C104.336 23.0731 104.262 22.5198 104.114 21.9788C103.965 21.4379 103.743 20.9707 103.446 20.5526C103.149 20.1346 102.778 19.8026 102.346 19.5567C101.901 19.3108 101.394 19.1756 100.825 19.1756C99.6502 19.1756 98.76 19.5813 98.1665 20.3928C97.573 21.2043 97.2763 22.2862 97.2763 23.6387C97.2763 24.278 97.3505 24.8682 97.5112 25.4091C97.6719 25.9501 97.8945 26.4173 98.216 26.8108C98.5251 27.2042 98.896 27.5116 99.3288 27.7329C99.7615 27.9665 100.268 28.0771 100.837 28.0771C101.48 28.0771 102.012 27.9419 102.457 27.6837C102.902 27.4255 103.261 27.0812 103.545 26.6755C103.829 26.2575 104.04 25.7903 104.163 25.2616C104.275 24.7329 104.336 24.1919 104.336 23.6387ZM109.27 12.5117H112.064V15.1428H109.27V12.5117ZM109.27 17.319H112.064V29.9337H109.27V17.319ZM114.562 12.5117H117.356V29.9337H114.562V12.5117ZM125.925 30.2779C124.911 30.2779 124.008 30.1058 123.217 29.7738C122.426 29.4419 121.758 28.9747 121.202 28.3968C120.657 27.8066 120.237 27.1058 119.953 26.2944C119.668 25.4829 119.52 24.5854 119.52 23.6141C119.52 22.6551 119.668 21.7698 119.953 20.9584C120.237 20.1469 120.657 19.4461 121.202 18.8559C121.746 18.2658 122.426 17.8108 123.217 17.4789C124.008 17.1469 124.911 16.9748 125.925 16.9748C126.939 16.9748 127.841 17.1469 128.633 17.4789C129.424 17.8108 130.092 18.2781 130.648 18.8559C131.192 19.4461 131.612 20.1469 131.897 20.9584C132.181 21.7698 132.33 22.6551 132.33 23.6141C132.33 24.5854 132.181 25.4829 131.897 26.2944C131.612 27.1058 131.192 27.8066 130.648 28.3968C130.104 28.987 129.424 29.4419 128.633 29.7738C127.841 30.1058 126.939 30.2779 125.925 30.2779ZM125.925 28.0771C126.543 28.0771 127.087 27.9419 127.544 27.6837C128.002 27.4255 128.373 27.0812 128.67 26.6632C128.966 26.2452 129.177 25.7657 129.325 25.237C129.461 24.7083 129.535 24.1673 129.535 23.6141C129.535 23.0731 129.461 22.5444 129.325 22.0034C129.189 21.4624 128.966 20.9952 128.67 20.5772C128.373 20.1592 128.002 19.8272 127.544 19.569C127.087 19.3108 126.543 19.1756 125.925 19.1756C125.307 19.1756 124.762 19.3108 124.305 19.569C123.848 19.8272 123.477 20.1715 123.18 20.5772C122.883 20.9952 122.673 21.4625 122.525 22.0034C122.388 22.5444 122.314 23.0731 122.314 23.6141C122.314 24.1673 122.388 24.7083 122.525 25.237C122.661 25.7657 122.883 26.2452 123.18 26.6632C123.477 27.0812 123.848 27.4255 124.305 27.6837C124.762 27.9542 125.307 28.0771 125.925 28.0771ZM133.146 17.319H135.26V13.5322H138.054V17.319H140.577V19.3969H138.054V26.1345C138.054 26.4296 138.067 26.6755 138.091 26.8968C138.116 27.1058 138.178 27.2903 138.264 27.4378C138.351 27.5853 138.487 27.696 138.673 27.7698C138.858 27.8435 139.093 27.8804 139.414 27.8804C139.612 27.8804 139.81 27.8804 140.008 27.8681C140.206 27.8558 140.404 27.8312 140.601 27.7821V29.9337C140.292 29.9706 139.983 29.9952 139.699 30.032C139.402 30.0689 139.105 30.0812 138.796 30.0812C138.054 30.0812 137.461 30.0074 137.016 29.8722C136.571 29.737 136.212 29.5279 135.965 29.2575C135.705 28.987 135.544 28.655 135.445 28.2493C135.359 27.8435 135.297 27.3763 135.285 26.8599V19.4215H133.17V17.319L133.146 17.319Z" fill="#191919"/>
<path d="M34.0565 12.5096H21.2469L17.2903 0.386719L13.3213 12.5095L0.511719 12.4973L10.8855 19.9972L6.91651 32.1077L17.2903 24.6201L27.6517 32.1077L23.6951 19.9972L34.0565 12.5096Z" fill="#00B67A"/>
<path d="M24.5841 22.7418L23.6939 20L17.2891 24.6229L24.5841 22.7418Z" fill="#005128"/>
</svg>
