<svg width="101" height="19" viewBox="0 0 101 19" fill="none" xmlns="http://www.w3.org/2000/svg">
<path d="M0.0585938 18.5312H18.5206V0.0898438H0.0585938V18.5312Z" fill="#00B67A"/>
<path d="M15.7987 7.93465L5.32729 15.533L6.85528 10.8369L2.85547 7.93465H7.79944L9.3271 3.23828L10.8548 7.93465H15.7987ZM9.32748 12.631L12.1873 12.0301L13.3267 15.533L9.32748 12.631Z" fill="white"/>
<path d="M20.4609 18.5312H38.923V0.0898438H20.4609V18.5312Z" fill="#00B67A"/>
<path d="M20.4609 18.5312H29.6919V0.0898438H20.4609V18.5312Z" fill="#00B67A"/>
<path d="M29.9125 12.5598L32.3648 12.0304L33.499 15.6128L29.6533 12.7458L25.6576 15.6128L27.2084 10.8997L23.1484 7.98686H28.1667L29.7169 3.27344L31.2677 7.98686H36.2857L29.9125 12.5598Z" fill="white"/>
<path d="M40.875 18.5312H59.337V0.0898438H40.875V18.5312Z" fill="#00B67A"/>
<path d="M40.875 18.5312H50.106V0.0898438H40.875V18.5312Z" fill="#00B67A"/>
<path d="M56.6151 7.93465L46.1437 15.533L47.6717 10.8369L43.6719 7.93465H48.6158L50.1435 3.23828L51.6712 7.93465L56.6151 7.93465ZM50.1439 12.631L53.0037 12.0301L54.1431 15.533L50.1439 12.631Z" fill="white"/>
<path d="M61.293 18.5312H79.755V0.0898438H61.293V18.5312Z" fill="#00B67A"/>
<path d="M61.293 18.5312H70.524V0.0898438H61.293V18.5312Z" fill="#00B67A"/>
<path d="M77.0292 7.93465L66.5581 15.533L68.0857 10.8369L64.0859 7.93465H69.0299L70.5576 3.23828L72.0852 7.93465L77.0292 7.93465ZM70.558 12.631L73.4177 12.0301L74.5571 15.533L70.558 12.631Z" fill="white"/>
<path d="M81.6953 18.5312H100.157V0.0898438H81.6953V18.5312Z" fill="#DCDCE6"/>
<path d="M81.6953 18.5312H90.9263V0.0898438H81.6953V18.5312Z" fill="#00B67A"/>
<path d="M97.4315 7.93465L86.9604 15.533L88.4881 10.8369L84.4883 7.93465H89.4322L90.9599 3.23828L92.4876 7.93465H97.4315ZM90.9603 12.631L93.8201 12.0301L94.9595 15.533L90.9603 12.631Z" fill="white"/>
</svg>
