<svg width="51" height="55" viewBox="0 0 51 55" fill="none" xmlns="http://www.w3.org/2000/svg">
<g clip-path="url(#clip0_396_19892)">
<g clip-path="url(#clip1_396_19892)">
<path d="M43.1185 14.1758L26.2988 25.5538C25.7634 25.916 25.0603 25.9111 24.5299 25.5414L8.22266 14.1758" stroke="#292B2E" stroke-width="1.5625" stroke-linejoin="round"/>
<path d="M35.2677 48.5557C35.0775 48.5557 34.9242 48.487 34.808 48.3496C34.6917 48.2123 34.6548 48.0591 34.6971 47.8899L35.7432 40.6299H32.1608C31.9283 40.6299 31.7751 40.5401 31.701 40.3604C31.6271 40.1807 31.6535 39.9958 31.7803 39.8056L37.8039 28.646C37.8674 28.5403 37.9625 28.4505 38.0892 28.3766C38.2161 28.3026 38.3429 28.2656 38.4698 28.2656C38.66 28.2656 38.8132 28.3343 38.9295 28.4717C39.0457 28.6091 39.0827 28.7623 39.0404 28.9314L38.0259 36.1597H41.545C41.7775 36.1597 41.9359 36.2496 42.0205 36.4292C42.1051 36.6089 42.0945 36.8044 41.9888 37.0157L35.9652 48.1753C35.9017 48.2809 35.8013 48.3707 35.6639 48.4448C35.5266 48.5187 35.3945 48.5557 35.2677 48.5557Z" fill="#292B2E"/>
<path d="M43.6406 32.6628V15.7357C43.6406 14.5851 42.7079 13.6523 41.5573 13.6523H9.78646C8.63586 13.6523 7.70312 14.5851 7.70312 15.7357V39.1732C7.70312 40.3238 8.63586 41.2565 9.78646 41.2565H27.7552" stroke="#292B2E" stroke-width="1.5625" stroke-linejoin="round"/>
</g>
</g>
<defs>
<clipPath id="clip0_396_19892">
<rect width="50" height="54.39" fill="white" transform="translate(0.410156)"/>
</clipPath>
<clipPath id="clip1_396_19892">
<rect width="50" height="54.39" fill="white" transform="translate(0.410156)"/>
</clipPath>
</defs>
</svg>
