<svg width="31" height="37" viewBox="0 0 31 37" fill="none" xmlns="http://www.w3.org/2000/svg">
<g clip-path="url(#clip0_396_15998)">
<g clip-path="url(#clip1_396_15998)">
<g clip-path="url(#clip2_396_15998)">
<path d="M8.39388 17.5156C8.72721 17.5156 9.01888 17.3906 9.26888 17.1406C9.51888 16.8906 9.64388 16.599 9.64388 16.2656C9.64388 15.9045 9.51888 15.599 9.26888 15.349C9.01888 15.099 8.72721 14.974 8.39388 14.974C8.03277 14.974 7.72721 15.099 7.47721 15.349C7.22721 15.599 7.10221 15.9045 7.10221 16.2656C7.10221 16.599 7.22721 16.8906 7.47721 17.1406C7.72721 17.3906 8.03277 17.5156 8.39388 17.5156ZM15.3522 17.5156C15.7133 17.5156 16.0189 17.3906 16.2689 17.1406C16.5189 16.8906 16.6439 16.599 16.6439 16.2656C16.6439 15.9045 16.5189 15.599 16.2689 15.349C16.0189 15.099 15.7133 14.974 15.3522 14.974C15.0189 14.974 14.7272 15.099 14.4772 15.349C14.2272 15.599 14.1022 15.9045 14.1022 16.2656C14.1022 16.599 14.2272 16.8906 14.4772 17.1406C14.7272 17.3906 15.0189 17.5156 15.3522 17.5156ZM22.2272 17.5156C22.5605 17.5156 22.8591 17.3906 23.123 17.1406C23.387 16.8906 23.5189 16.599 23.5189 16.2656C23.5189 15.9045 23.387 15.599 23.123 15.349C22.8591 15.099 22.5605 14.974 22.2272 14.974C21.8939 14.974 21.5953 15.099 21.3314 15.349C21.0675 15.599 20.9355 15.9045 20.9355 16.2656C20.9355 16.599 21.0675 16.8906 21.3314 17.1406C21.5953 17.3906 21.8939 17.5156 22.2272 17.5156ZM0.310547 30.3073V6.93229C0.310547 6.2934 0.532769 5.75173 0.977214 5.30729C1.42166 4.86285 1.96332 4.64062 2.60221 4.64062H28.0189C28.6578 4.64062 29.1995 4.86285 29.6439 5.30729C30.0883 5.75173 30.3105 6.2934 30.3105 6.93229V25.6823C30.3105 26.3212 30.0883 26.8629 29.6439 27.3073C29.1995 27.7517 28.6578 27.974 28.0189 27.974H5.43555L2.26888 31.1406C1.90777 31.5017 1.49111 31.585 1.01888 31.3906C0.546658 31.1962 0.310547 30.835 0.310547 30.3073ZM1.60221 29.974L4.89388 26.6823H28.0189C28.2966 26.6823 28.5328 26.585 28.7272 26.3906C28.9216 26.1962 29.0189 25.96 29.0189 25.6823V6.93229C29.0189 6.65452 28.9216 6.4184 28.7272 6.22396C28.5328 6.02952 28.2966 5.93229 28.0189 5.93229H2.60221C2.32444 5.93229 2.08832 6.02952 1.89388 6.22396C1.69944 6.4184 1.60221 6.65452 1.60221 6.93229V29.974ZM1.60221 6.93229V5.93229V29.974V6.93229Z" fill="#292B2E"/>
</g>
</g>
</g>
<defs>
<clipPath id="clip0_396_15998">
<rect width="30" height="36" fill="white" transform="translate(0.310547 0.390625)"/>
</clipPath>
<clipPath id="clip1_396_15998">
<rect width="30" height="36" fill="white" transform="translate(0.310547 0.390625)"/>
</clipPath>
<clipPath id="clip2_396_15998">
<rect width="30" height="27.5" fill="white" transform="translate(0.310547 4.64062)"/>
</clipPath>
</defs>
</svg>
