<svg width="51" height="44" viewBox="0 0 51 44" fill="none" xmlns="http://www.w3.org/2000/svg">
<g clip-path="url(#clip0_396_19901)">
<g clip-path="url(#clip1_396_19901)">
<g clip-path="url(#clip2_396_19901)">
<path d="M0.589845 6.56163C0.589845 5.49681 0.960215 4.59404 1.70096 3.8533C2.44169 3.11256 3.34447 2.74219 4.40929 2.74219L33.8537 2.74219C34.363 2.74219 34.8607 2.84636 35.3468 3.05469C35.8329 3.26302 36.2611 3.55237 36.6315 3.92275L49.4787 16.7005C49.8028 17.0709 50.069 17.4991 50.2773 17.9852C50.4857 18.4714 50.5898 18.9922 50.5898 19.5477V37.8116C50.5898 38.8765 50.2194 39.7793 49.4787 40.52C48.738 41.2607 47.8353 41.6311 46.7704 41.6311H4.40929C3.34447 41.6311 2.44169 41.2607 1.70095 40.52C0.960213 39.7793 0.589844 38.8765 0.589844 37.8116L0.589845 6.56163ZM2.74262 6.56163V37.8116C2.74262 38.2283 2.91623 38.6102 3.26346 38.9575C3.61068 39.3047 3.99262 39.4783 4.40929 39.4783H46.7704C47.1871 39.4783 47.569 39.3047 47.9162 38.9575C48.2635 38.6102 48.4371 38.2283 48.4371 37.8116V18.8533L34.4787 4.89497H4.40929C3.99262 4.89497 3.61068 5.06858 3.26346 5.4158C2.91623 5.76302 2.74262 6.14497 2.74262 6.56163ZM2.74262 6.56163V4.89497V39.4783V37.8116V6.56163Z" fill="#292B2E"/>
<path fill-rule="evenodd" clip-rule="evenodd" d="M22.8628 12.3177H16.5136V24.0241C16.5136 25.3664 15.4254 26.4546 14.083 26.4546H9.6849V31.1014C9.6849 31.4663 9.98069 31.7621 10.3455 31.7621H22.8628V12.3177ZM10.3455 33.8455C8.83009 33.8455 7.60156 32.617 7.60156 31.1014V12.9784C7.60156 11.4629 8.83009 10.2344 10.3455 10.2344H28.4686C29.984 10.2344 31.2126 11.4629 31.2126 12.9784V31.1014C31.2126 32.617 29.984 33.8455 28.4686 33.8455H10.3455ZM24.9461 12.3177H28.4686C28.8335 12.3177 29.1293 12.6135 29.1293 12.9784V31.1014C29.1293 31.4663 28.8335 31.7621 28.4686 31.7621H24.9461V12.3177ZM9.6849 24.3713V12.9784C9.6849 12.6135 9.98069 12.3177 10.3455 12.3177H14.4302V24.0241C14.4302 24.2159 14.2748 24.3713 14.083 24.3713H9.6849Z" fill="#292B2E"/>
</g>
</g>
</g>
<defs>
<clipPath id="clip0_396_19901">
<rect width="50" height="43.27" fill="white" transform="translate(0.589844 0.550781)"/>
</clipPath>
<clipPath id="clip1_396_19901">
<rect width="50" height="43.27" fill="white" transform="translate(0.589844 0.550781)"/>
</clipPath>
<clipPath id="clip2_396_19901">
<rect width="50" height="38.8889" fill="white" transform="translate(0.589844 2.74219)"/>
</clipPath>
</defs>
</svg>
