<svg width="48" height="49" viewBox="0 0 48 49" fill="none" xmlns="http://www.w3.org/2000/svg">
<rect y="0.980469" width="48" height="48" rx="12" fill="#FFA51F"/>
<path d="M27.3688 26.9959C27.3405 27.0176 27.313 27.0417 27.2863 27.0684C27.2596 27.0951 27.2363 27.1217 27.2138 27.1509C26.1655 28.1617 24.7396 28.7826 23.168 28.7826C21.5571 28.7826 20.0996 28.1309 19.043 27.0742C17.9863 26.0176 17.3346 24.5601 17.3346 22.9492C17.3346 21.3384 17.9863 19.8809 19.043 18.8242C20.0996 17.7676 21.5571 17.1159 23.168 17.1159C24.7788 17.1159 26.2363 17.7676 27.293 18.8242C28.3496 19.8809 29.0013 21.3384 29.0013 22.9492C29.0013 24.5209 28.3805 25.9467 27.3688 26.9959ZM32.0905 30.6934L29.028 27.6309C30.0538 26.3476 30.668 24.7201 30.668 22.9492C30.668 20.8784 29.828 19.0026 28.4713 17.6459C27.1146 16.2892 25.2388 15.4492 23.168 15.4492C21.0971 15.4492 19.2213 16.2892 17.8646 17.6459C16.508 19.0026 15.668 20.8784 15.668 22.9492C15.668 25.0201 16.508 26.8959 17.8646 28.2526C19.2213 29.6092 21.0971 30.4492 23.168 30.4492C24.9388 30.4492 26.5663 29.8351 27.8496 28.8092L30.9121 31.8717C31.238 32.1976 31.7655 32.1976 32.0905 31.8717C32.4155 31.5459 32.4163 31.0184 32.0905 30.6934Z" fill="black"/>
</svg>
