<svg width="17" height="16" viewBox="0 0 17 16" fill="none" xmlns="http://www.w3.org/2000/svg">
<g clip-path="url(#clip0_396_15528)">
<g clip-path="url(#clip1_396_15528)">
<g clip-path="url(#clip2_396_15528)">
<path d="M8.26953 16C7.17479 16 6.13957 15.7895 5.16385 15.3684C4.18869 14.9474 3.33957 14.3753 2.61648 13.6522C1.89395 12.9297 1.32216 12.0808 0.90111 11.1057C0.480057 10.13 0.269531 9.09474 0.269531 8C0.269531 6.89123 0.480057 5.85263 0.90111 4.88421C1.32216 3.91579 1.89395 3.07004 2.61648 2.34695C3.33957 1.62442 4.18869 1.05263 5.16385 0.631579C6.13957 0.210526 7.17479 0 8.26953 0C9.3783 0 10.4169 0.210526 11.3853 0.631579C12.3537 1.05263 13.1992 1.62442 13.9217 2.34695C14.6448 3.07004 15.2169 3.91579 15.6379 4.88421C16.059 5.85263 16.2695 6.89123 16.2695 8C16.2695 9.09474 16.059 10.13 15.6379 11.1057C15.2169 12.0808 14.6448 12.9297 13.9217 13.6522C13.1992 14.3753 12.3537 14.9474 11.3853 15.3684C10.4169 15.7895 9.3783 16 8.26953 16ZM8.26953 14.7158C8.70462 14.1544 9.06616 13.5826 9.35416 13.0004C9.6416 12.4177 9.88356 11.7825 10.0801 11.0947H6.459C6.6555 11.7965 6.89774 12.4385 7.18574 13.0206C7.47318 13.6034 7.83444 14.1684 8.26953 14.7158ZM6.64848 14.4842C6.32567 14.0211 6.03458 13.4947 5.77521 12.9053C5.51528 12.3158 5.31514 11.7123 5.17479 11.0947H2.31164C2.76076 11.9649 3.35725 12.6984 4.10111 13.2952C4.84497 13.8914 5.69409 14.2877 6.64848 14.4842ZM9.89058 14.4842C10.8449 14.2877 11.6941 13.8914 12.4379 13.2952C13.1818 12.6984 13.7783 11.9649 14.2274 11.0947H11.3642C11.1958 11.7123 10.9853 12.3192 10.7327 12.9154C10.48 13.5121 10.1994 14.0351 9.89058 14.4842ZM1.78532 9.83158H4.92216C4.86602 9.52281 4.82392 9.2174 4.79585 8.91537C4.76778 8.61389 4.75374 8.30877 4.75374 8C4.75374 7.69123 4.76778 7.38582 4.79585 7.08379C4.82392 6.78232 4.86602 6.47719 4.92216 6.16842H1.78532C1.70111 6.44912 1.63795 6.74386 1.59585 7.05263C1.55374 7.3614 1.53269 7.67719 1.53269 8C1.53269 8.32281 1.55374 8.6386 1.59585 8.94737C1.63795 9.25614 1.70111 9.55088 1.78532 9.83158ZM6.18532 9.83158H10.3537C10.4099 9.52281 10.452 9.22105 10.48 8.92632C10.5081 8.63158 10.5221 8.32281 10.5221 8C10.5221 7.67719 10.5081 7.36842 10.48 7.07368C10.452 6.77895 10.4099 6.47719 10.3537 6.16842H6.18532C6.12918 6.47719 6.08707 6.77895 6.059 7.07368C6.03093 7.36842 6.0169 7.67719 6.0169 8C6.0169 8.32281 6.03093 8.63158 6.059 8.92632C6.08707 9.22105 6.12918 9.52281 6.18532 9.83158ZM11.6169 9.83158H14.7537C14.8379 9.55088 14.9011 9.25614 14.9432 8.94737C14.9853 8.6386 15.0063 8.32281 15.0063 8C15.0063 7.67719 14.9853 7.3614 14.9432 7.05263C14.9011 6.74386 14.8379 6.44912 14.7537 6.16842H11.6169C11.673 6.47719 11.7151 6.78232 11.7432 7.08379C11.7713 7.38582 11.7853 7.69123 11.7853 8C11.7853 8.30877 11.7713 8.61389 11.7432 8.91537C11.7151 9.2174 11.673 9.52281 11.6169 9.83158ZM11.3642 4.90526H14.2274C13.7783 4.02105 13.1854 3.28758 12.4489 2.70484C11.7117 2.12267 10.859 1.7193 9.89058 1.49474C10.2134 1.98597 10.5011 2.52267 10.7537 3.10484C11.0063 3.68758 11.2099 4.28772 11.3642 4.90526ZM6.459 4.90526H10.0801C9.88356 4.20351 9.63458 3.55425 9.33311 2.95747C9.03107 2.36126 8.67655 1.80351 8.26953 1.28421C7.86251 1.80351 7.50827 2.36126 7.20679 2.95747C6.90476 3.55425 6.6555 4.20351 6.459 4.90526ZM2.31164 4.90526H5.17479C5.32918 4.28772 5.53269 3.68758 5.78532 3.10484C6.03795 2.52267 6.32567 1.98597 6.64848 1.49474C5.66602 1.7193 4.80988 2.12267 4.08006 2.70484C3.35023 3.28758 2.76076 4.02105 2.31164 4.90526Z" fill="#292B2E"/>
</g>
</g>
</g>
<defs>
<clipPath id="clip0_396_15528">
<rect width="16" height="16" fill="white" transform="translate(0.269531)"/>
</clipPath>
<clipPath id="clip1_396_15528">
<rect width="16" height="16" fill="white" transform="translate(0.269531)"/>
</clipPath>
<clipPath id="clip2_396_15528">
<rect width="16" height="16" fill="white" transform="translate(0.269531)"/>
</clipPath>
</defs>
</svg>
