<svg width="19" height="19" viewBox="0 0 19 19" fill="none" xmlns="http://www.w3.org/2000/svg">
<g clip-path="url(#clip0_396_20329)">
<g clip-path="url(#clip1_396_20329)">
<g clip-path="url(#clip2_396_20329)">
<path d="M9.22267 17.3638C9.04434 17.3638 8.8883 17.3008 8.75456 17.1748C8.62081 17.0482 8.55393 16.8883 8.55393 16.6951C8.55393 16.5019 8.62081 16.342 8.75456 16.2154C8.8883 16.0893 9.04434 16.0263 9.22267 16.0263H15.0852C15.1595 16.0263 15.2228 16.0005 15.2752 15.9488C15.3268 15.8965 15.3527 15.8332 15.3527 15.7589V9.31676C15.3527 8.45484 15.1893 7.64494 14.8623 6.88704C14.5354 6.12915 14.0896 5.46785 13.5248 4.90314C12.9601 4.33843 12.2988 3.89262 11.5409 3.56568C10.783 3.23874 9.97314 3.07528 9.11121 3.07528C8.2493 3.07528 7.43938 3.23874 6.68149 3.56568C5.92359 3.89262 5.26229 4.33843 4.69759 4.90314C4.13289 5.46785 3.68706 6.12915 3.36013 6.88704C3.0332 7.64494 2.86972 8.45484 2.86972 9.31676V14.0647C2.86972 14.2431 2.80642 14.3991 2.6798 14.5329C2.55379 14.6666 2.39419 14.7335 2.20099 14.7335C1.77004 14.7335 1.40238 14.5813 1.09804 14.2769C0.793096 13.972 0.640625 13.6041 0.640625 13.1731V11.3898C0.640625 11.0926 0.722359 10.8213 0.885826 10.5758C1.04929 10.3309 1.26477 10.1267 1.53227 9.9632L1.57685 8.80406C1.65116 7.77868 1.90765 6.83502 2.34634 5.97311C2.78443 5.11118 3.34527 4.37172 4.02886 3.7547C4.71245 3.13829 5.48878 2.65918 6.35783 2.31738C7.22747 1.97558 8.14527 1.80469 9.11121 1.80469C10.0772 1.80469 10.9986 1.97558 11.8753 2.31738C12.7521 2.65918 13.5284 3.13829 14.2043 3.7547C14.8807 4.37172 15.4383 5.10733 15.877 5.96151C16.315 6.8163 16.5713 7.75639 16.6456 8.78178L16.6902 9.94091C16.9576 10.0747 17.1731 10.2565 17.3366 10.4866C17.5001 10.7172 17.5818 10.9737 17.5818 11.2561V13.3068C17.5818 13.5743 17.5001 13.8234 17.3366 14.0541C17.1731 14.2841 16.9576 14.466 16.6902 14.5998V15.7589C16.6902 16.2047 16.5341 16.5837 16.2221 16.8957C15.91 17.2078 15.5311 17.3638 15.0852 17.3638H9.22267ZM6.61462 11.1892C6.39171 11.1892 6.20209 11.111 6.04575 10.9547C5.89001 10.799 5.81214 10.6171 5.81214 10.409C5.81214 10.1861 5.89001 9.99649 6.04575 9.84015C6.20209 9.68441 6.39171 9.60655 6.61462 9.60655C6.82267 9.60655 7.00457 9.68441 7.1603 9.84015C7.31664 9.99649 7.39481 10.1861 7.39481 10.409C7.39481 10.6171 7.31664 10.799 7.1603 10.9547C7.00457 11.111 6.82267 11.1892 6.61462 11.1892ZM11.6078 11.1892C11.3998 11.1892 11.2178 11.111 11.0621 10.9547C10.9058 10.799 10.8277 10.6171 10.8277 10.409C10.8277 10.1861 10.9058 9.99649 11.0621 9.84015C11.2178 9.68441 11.3998 9.60655 11.6078 9.60655C11.8307 9.60655 12.0203 9.68441 12.1767 9.84015C12.3324 9.99649 12.4103 10.1861 12.4103 10.409C12.4103 10.6171 12.3324 10.799 12.1767 10.9547C12.0203 11.111 11.8307 11.1892 11.6078 11.1892ZM4.09574 9.74029C4.03629 8.92295 4.15161 8.17635 4.44169 7.50049C4.73118 6.82403 5.11726 6.2516 5.59993 5.78319C6.0832 5.31538 6.63691 4.95516 7.26106 4.70252C7.88521 4.44988 8.51679 4.32358 9.1558 4.32358C10.4338 4.32358 11.5371 4.72481 12.4656 5.52729C13.3947 6.32976 13.9558 7.33286 14.149 8.53657C12.8412 8.52172 11.6524 8.16862 10.5824 7.47731C9.51245 6.78658 8.70997 5.89138 8.17499 4.79168C7.93722 5.9211 7.45811 6.92419 6.73767 7.80097C6.01662 8.67775 5.13598 9.32419 4.09574 9.74029Z" fill="#D6D4D1"/>
</g>
</g>
</g>
<defs>
<clipPath id="clip0_396_20329">
<rect width="18" height="18" fill="white" transform="translate(0.109375 0.359375)"/>
</clipPath>
<clipPath id="clip1_396_20329">
<rect width="18" height="18" fill="white" transform="translate(0.109375 0.359375)"/>
</clipPath>
<clipPath id="clip2_396_20329">
<rect width="18" height="16.9412" fill="white" transform="translate(0.109375 0.890625)"/>
</clipPath>
</defs>
</svg>
