<svg width="133" height="72" viewBox="0 0 133 72" fill="none" xmlns="http://www.w3.org/2000/svg">
<g clip-path="url(#clip0_396_27714)">
<path d="M54.2638 29.1254C52.8661 28.2967 51.2903 27.8824 49.5363 27.8824C47.8829 27.8623 46.2551 28.292 44.8269 29.1254C43.4399 29.9319 42.2972 31.0988 41.52 32.5024C40.7197 33.9487 40.3092 35.5783 40.3291 37.2311C40.3107 38.8892 40.721 40.5239 41.52 41.9768C42.2886 43.3861 43.4252 44.5603 44.8088 45.3743C46.2065 46.2038 47.7823 46.6185 49.5363 46.6185C51.2903 46.6185 52.8661 46.2038 54.2638 45.3743C55.6494 44.5586 56.7913 43.3867 57.5707 41.9804C58.3805 40.531 58.7973 38.895 58.7798 37.2347C58.7987 35.5797 58.3817 33.9488 57.5707 32.506C56.7868 31.1065 55.6457 29.9399 54.2638 29.1254ZM53.091 41.1232C52.6456 41.6227 52.0971 42.0196 51.4834 42.2866C50.8697 42.5536 50.2054 42.6843 49.5363 42.6696C48.0902 42.6696 46.9053 42.1602 45.9816 41.1413C45.0578 40.1225 44.5959 38.8191 44.5959 37.2311C44.5959 35.6666 45.0578 34.3748 45.9816 33.356C46.9053 32.3371 48.0902 31.8293 49.5363 31.8325C50.9582 31.8325 52.1431 32.342 53.091 33.3608C54.0389 34.3797 54.5129 35.6714 54.5129 37.236C54.5129 38.7925 54.0389 40.0882 53.091 41.1232ZM61.8763 21.2348H66.142V46.1179H61.8763V21.2348ZM101.973 21.2348H106.239V46.1179H101.973V21.2348ZM122.448 28.3794V37.4475C122.448 38.8936 122.075 40.0076 121.328 40.7895C120.582 41.5714 119.604 41.9623 118.395 41.9623C117.259 41.9623 116.382 41.6423 115.765 41.0023C115.149 40.3623 114.84 39.2842 114.84 37.768V28.3794H110.575V38.4753C110.575 40.987 111.15 42.859 112.299 44.0915C113.448 45.324 115.029 45.9402 117.041 45.9402C118.298 45.9402 119.34 45.7326 120.169 45.3175C121.037 44.8724 121.8 44.2485 122.409 43.487L122.444 43.5934V45.4771C122.444 46.9474 122.071 48.0791 121.325 48.8722C120.578 49.6654 119.554 50.0624 118.25 50.0632C116.463 50.0632 115.294 49.4055 114.744 48.09L111.218 49.9036C111.689 50.7839 112.336 51.5583 113.118 52.1791C114.407 53.2109 116.12 53.7263 118.255 53.7255C120.909 53.7255 122.983 52.9731 124.476 51.4682C125.969 49.9632 126.715 47.9545 126.714 45.4421V28.3794H122.448ZM96.073 24.578C96.5906 24.5715 97.0975 24.7257 97.5239 25.0193L99.3375 22.0099C98.9183 21.6765 98.4579 21.3986 97.9676 21.1829C97.268 20.8604 96.3378 20.6992 95.1771 20.6992C93.7552 20.6992 92.5642 21.1671 91.6042 22.103C90.6442 23.0388 90.1642 24.3245 90.1642 25.96V28.3782H87.2865V32.1106H90.1714V46.1179H94.4371V32.1118H98.6846V28.3794H94.4371V26.4593C94.4371 25.2051 94.9824 24.578 96.073 24.578ZM82.5288 29.5353C81.1311 28.4326 79.3658 27.8816 77.2329 27.8824C75.1477 27.8824 73.5126 28.3258 72.3277 29.2124C71.1427 30.0991 70.3057 31.4291 69.8164 33.2024L73.6226 33.8928C73.787 33.0827 74.1195 32.4564 74.6201 32.0199C75.1763 31.5363 75.9997 31.2945 77.0903 31.2945C79.2666 31.2945 80.3548 32.3726 80.3548 34.5288V34.7428L76.551 35.276C73.9442 35.6315 72.1253 36.3247 71.0944 37.3557C70.0634 38.3866 69.55 39.6489 69.554 41.1425C69.5337 42.1616 69.8178 43.1635 70.3701 44.0202C70.9146 44.85 71.6767 45.5142 72.5731 45.9402C73.5271 46.3967 74.5734 46.6276 75.6309 46.6149C77.929 46.6149 79.5758 45.916 80.5712 44.5183L81.0343 46.1179H84.6241V34.4587C84.6257 32.2775 83.9273 30.6363 82.5288 29.5353ZM80.3609 39.8972C80.3609 40.9168 80.0171 41.7164 79.3295 42.296C78.6419 42.8756 77.7891 43.1657 76.7711 43.1665C75.799 43.1665 75.0332 42.9594 74.4738 42.5451C74.2092 42.3598 73.9945 42.1119 73.8489 41.8235C73.7033 41.5351 73.6314 41.2152 73.6395 40.8922C73.6395 40.1587 73.8942 39.5945 74.4037 39.1995C74.9131 38.8045 75.7248 38.5261 76.8388 38.364L80.3572 37.8308L80.3609 39.8972ZM32.5171 30.7443C30.1908 32.6378 26.5757 33.0972 21.5495 32.1239V21.2723H17.2197V31.0369C17.0166 30.9765 16.8123 30.916 16.6043 30.8495C12.7207 29.6404 8.29179 30.1386 5.80469 30.9704L6.67281 34.6703C8.39093 33.9557 12.3749 33.4817 15.4798 34.4514C16.0711 34.6364 16.6502 34.8057 17.2197 34.9641V46.1155H21.5495V35.9471C23.0855 36.221 24.6419 36.3646 26.202 36.3763C28.6311 36.3763 30.7289 35.9652 32.5171 35.1479V46.1155H36.8481V21.2723H32.5171V30.7443Z" fill="#4B48E6"/>
</g>
<defs>
<clipPath id="clip0_396_27714">
<rect width="133" height="72" fill="white" transform="translate(0 0.00390625)"/>
</clipPath>
</defs>
</svg>
