<svg width="36" height="33" viewBox="0 0 36 33" fill="none" xmlns="http://www.w3.org/2000/svg">
<rect x="0.5" y="1" width="34" height="31" rx="4.5" stroke="#999191"/>
<path d="M4.97427 12.5234H3.64844V13.849H4.97427V12.5234ZM14.2551 12.5234H6.3001V13.849H14.2551V12.5234ZM3.64844 15.8372H4.97427V17.1627H3.64844V15.8372ZM14.2551 15.8372H6.3001V17.1627H14.2551V15.8372ZM3.64844 19.151H4.97427V20.4765H3.64844V19.151ZM14.2551 19.151H6.3001V20.4765H14.2551V19.151Z" fill="#999999"/>
<path d="M26.4551 18.4872C26.3857 18.4872 26.3189 18.4772 26.2547 18.4574C26.1901 18.4375 26.133 18.3979 26.0834 18.3384L23.3924 15.6618C23.3131 15.5725 23.2734 15.4685 23.2734 15.3494C23.2734 15.2305 23.318 15.1264 23.4072 15.0372C23.4964 14.9579 23.6005 14.9182 23.7195 14.9182C23.8384 14.9182 23.9425 14.9579 24.0317 15.0372L26.4551 17.4611L28.8934 15.0372C28.9727 14.948 29.0718 14.9057 29.1908 14.9105C29.3097 14.9156 29.4137 14.9579 29.503 15.0372C29.5921 15.1264 29.6368 15.2329 29.6368 15.3566C29.6368 15.4807 29.5921 15.5825 29.503 15.6618L26.8268 18.3384C26.7772 18.3979 26.7204 18.4375 26.6561 18.4574C26.5915 18.4772 26.5245 18.4872 26.4551 18.4872Z" fill="#999999"/>
</svg>
