<svg width="32" height="21" viewBox="0 0 32 21" fill="none" xmlns="http://www.w3.org/2000/svg">
<path d="M17.2487 7.49219C17.2487 8.18385 16.6904 8.74219 15.9987 8.74219C15.307 8.74219 14.7487 8.18385 14.7487 7.49219C14.7487 6.80052 15.307 6.24219 15.9987 6.24219C16.6904 6.24219 17.2487 6.80052 17.2487 7.49219ZM16.832 14.5755V10.4089H15.1654V14.5755H16.832ZM15.9987 18.9505C20.7154 18.9505 24.5404 15.1255 24.5404 10.4089C24.5404 5.69219 20.7154 1.86719 15.9987 1.86719C11.282 1.86719 7.45703 5.69219 7.45703 10.4089C7.45703 15.1255 11.282 18.9505 15.9987 18.9505ZM22.8737 10.4089C22.8737 14.2089 19.7987 17.2839 15.9987 17.2839C12.1987 17.2839 9.1237 14.2089 9.1237 10.4089C9.1237 6.60885 12.1987 3.53385 15.9987 3.53385C19.7987 3.53385 22.8737 6.60885 22.8737 10.4089Z" fill="#536471"/>
</svg>
