<svg width="18" height="19" viewBox="0 0 18 19" fill="none" xmlns="http://www.w3.org/2000/svg">
<g clip-path="url(#clip0_396_16293)">
<g clip-path="url(#clip1_396_16293)">
<g clip-path="url(#clip2_396_16293)">
<path d="M2 0.0625H16C16.5304 0.0625 17.0391 0.273213 17.4142 0.648286C17.7893 1.02336 18 1.53206 18 2.0625V16.0625C18 16.5929 17.7893 17.1016 17.4142 17.4767C17.0391 17.8518 16.5304 18.0625 16 18.0625H2C1.46957 18.0625 0.960859 17.8518 0.585786 17.4767C0.210714 17.1016 0 16.5929 0 16.0625V2.0625C0 1.53206 0.210714 1.02336 0.585786 0.648286C0.960859 0.273213 1.46957 0.0625 2 0.0625ZM15 2.0625H12.5C11.5717 2.0625 10.6815 2.43125 10.0251 3.08762C9.36875 3.744 9 4.63424 9 5.5625V8.0625H7V11.0625H9V18.0625H12V11.0625H15V8.0625H12V6.0625C12 5.79728 12.1054 5.54293 12.2929 5.35539C12.4804 5.16785 12.7348 5.0625 13 5.0625H15V2.0625Z" fill="#292B2E"/>
</g>
</g>
</g>
<defs>
<clipPath id="clip0_396_16293">
<rect width="18" height="18" fill="white" transform="translate(0 0.0625)"/>
</clipPath>
<clipPath id="clip1_396_16293">
<rect width="18" height="18" fill="white" transform="translate(0 0.0625)"/>
</clipPath>
<clipPath id="clip2_396_16293">
<rect width="18" height="18" fill="white" transform="translate(0 0.0625)"/>
</clipPath>
</defs>
</svg>
