<svg width="32" height="21" viewBox="0 0 32 21" fill="none" xmlns="http://www.w3.org/2000/svg">
<path d="M17.2487 7.35156C17.2487 8.04323 16.6904 8.60156 15.9987 8.60156C15.307 8.60156 14.7487 8.04323 14.7487 7.35156C14.7487 6.6599 15.307 6.10156 15.9987 6.10156C16.6904 6.10156 17.2487 6.6599 17.2487 7.35156ZM16.832 14.4349V10.2682H15.1654V14.4349H16.832ZM15.9987 18.8099C20.7154 18.8099 24.5404 14.9849 24.5404 10.2682C24.5404 5.55156 20.7154 1.72656 15.9987 1.72656C11.282 1.72656 7.45703 5.55156 7.45703 10.2682C7.45703 14.9849 11.282 18.8099 15.9987 18.8099ZM22.8737 10.2682C22.8737 14.0682 19.7987 17.1432 15.9987 17.1432C12.1987 17.1432 9.1237 14.0682 9.1237 10.2682C9.1237 6.46823 12.1987 3.39323 15.9987 3.39323C19.7987 3.39323 22.8737 6.46823 22.8737 10.2682Z" fill="#536471"/>
</svg>
