<svg width="35" height="32" viewBox="0 0 35 32" fill="none" xmlns="http://www.w3.org/2000/svg">
<rect x="0.5" y="0.5" width="34" height="31" rx="4.5" stroke="#999191"/>
<path d="M8.4987 11H6.83203V12.6667H8.4987V11ZM20.1654 11H10.1654V12.6667H20.1654V11ZM6.83203 15.1667H8.4987V16.8333H6.83203V15.1667ZM20.1654 15.1667H10.1654V16.8333H20.1654V15.1667ZM6.83203 19.3333H8.4987V21H6.83203V19.3333ZM20.1654 19.3333H10.1654V21H20.1654V19.3333Z" fill="#999999"/>
<path d="M31.0846 14.875L28.5013 12.25L25.918 14.875C25.8346 14.9583 25.793 15.0417 25.793 15.1667C25.793 15.2917 25.8346 15.375 25.918 15.4583C26.0013 15.5417 26.0846 15.5833 26.2096 15.5833H30.793C30.918 15.5833 31.0013 15.5417 31.0846 15.4583C31.168 15.375 31.2096 15.25 31.2096 15.1667C31.2096 15.0833 31.168 14.9583 31.0846 14.875ZM25.918 17.125L28.5013 19.75L31.0846 17.125C31.168 17.0417 31.2096 16.9167 31.2096 16.8333C31.2096 16.75 31.168 16.625 31.0846 16.5417C31.0013 16.4583 30.918 16.4167 30.793 16.4167H26.2096C26.0846 16.4167 26.0013 16.4583 25.918 16.5417C25.8346 16.625 25.793 16.75 25.793 16.8333C25.793 16.9167 25.8346 17.0417 25.918 17.125Z" fill="#999999"/>
</svg>
