<svg width="32" height="21" viewBox="0 0 32 21" fill="none" xmlns="http://www.w3.org/2000/svg">
<path d="M17.2487 7.14062C17.2487 7.83229 16.6904 8.39062 15.9987 8.39062C15.307 8.39062 14.7487 7.83229 14.7487 7.14062C14.7487 6.44896 15.307 5.89062 15.9987 5.89062C16.6904 5.89062 17.2487 6.44896 17.2487 7.14062ZM16.832 14.224V10.0573H15.1654V14.224H16.832ZM15.9987 18.599C20.7154 18.599 24.5404 14.774 24.5404 10.0573C24.5404 5.34062 20.7154 1.51562 15.9987 1.51562C11.282 1.51562 7.45703 5.34062 7.45703 10.0573C7.45703 14.774 11.282 18.599 15.9987 18.599ZM22.8737 10.0573C22.8737 13.8573 19.7987 16.9323 15.9987 16.9323C12.1987 16.9323 9.1237 13.8573 9.1237 10.0573C9.1237 6.25729 12.1987 3.18229 15.9987 3.18229C19.7987 3.18229 22.8737 6.25729 22.8737 10.0573Z" fill="#536471"/>
</svg>
