<svg width="22" height="18" viewBox="0 0 22 18" fill="none" xmlns="http://www.w3.org/2000/svg">
<g clip-path="url(#clip0_396_16309)">
<g clip-path="url(#clip1_396_16309)">
<g clip-path="url(#clip2_396_16309)">
<path d="M21.459 2.5625C20.689 2.9125 19.859 3.1425 18.999 3.2525C19.879 2.7225 20.559 1.8825 20.879 0.8725C20.049 1.3725 19.129 1.7225 18.159 1.9225C17.369 1.0625 16.259 0.5625 14.999 0.5625C12.649 0.5625 10.729 2.4825 10.729 4.8525C10.729 5.1925 10.769 5.5225 10.839 5.8325C7.27906 5.6525 4.10906 3.9425 1.99906 1.3525C1.62906 1.9825 1.41906 2.7225 1.41906 3.5025C1.41906 4.9925 2.16906 6.3125 3.32906 7.0625C2.61906 7.0625 1.95906 6.8625 1.37906 6.5625C1.37906 6.5625 1.37906 6.5625 1.37906 6.5925C1.37906 8.6725 2.85906 10.4125 4.81906 10.8025C4.45906 10.9025 4.07906 10.9525 3.68906 10.9525C3.41906 10.9525 3.14906 10.9225 2.88906 10.8725C3.42906 12.5625 4.99906 13.8225 6.88906 13.8525C5.42906 15.0125 3.57906 15.6925 1.55906 15.6925C1.21906 15.6925 0.879063 15.6725 0.539062 15.6325C2.43906 16.8525 4.69906 17.5625 7.11906 17.5625C14.999 17.5625 19.329 11.0225 19.329 5.3525C19.329 5.1625 19.329 4.9825 19.319 4.7925C20.159 4.1925 20.879 3.4325 21.459 2.5625Z" fill="#292B2E"/>
</g>
</g>
</g>
<defs>
<clipPath id="clip0_396_16309">
<rect width="22" height="17" fill="white" transform="translate(0 0.5625)"/>
</clipPath>
<clipPath id="clip1_396_16309">
<rect width="22" height="17" fill="white" transform="translate(0 0.5625)"/>
</clipPath>
<clipPath id="clip2_396_16309">
<rect width="22" height="17" fill="white" transform="translate(0 0.5625)"/>
</clipPath>
</defs>
</svg>
