<svg width="18" height="19" viewBox="0 0 18 19" fill="none" xmlns="http://www.w3.org/2000/svg">
<g clip-path="url(#clip0_396_16305)">
<g clip-path="url(#clip1_396_16305)">
<g clip-path="url(#clip2_396_16305)">
<path d="M18 18.0625H14V11.3125C14 10.2525 12.81 9.3725 11.75 9.3725C10.69 9.3725 10 10.2525 10 11.3125V18.0625H6V6.0625H10V8.0625C10.66 6.9925 12.36 6.3025 13.5 6.3025C16 6.3025 18 8.3425 18 10.8125V18.0625ZM4 18.0625H0V6.0625H4V18.0625ZM2 0.0625C2.53043 0.0625 3.03914 0.273213 3.41421 0.648286C3.78929 1.02336 4 1.53206 4 2.0625C4 2.59293 3.78929 3.10164 3.41421 3.47671C3.03914 3.85178 2.53043 4.0625 2 4.0625C1.46957 4.0625 0.960859 3.85178 0.585786 3.47671C0.210714 3.10164 0 2.59293 0 2.0625C0 1.53206 0.210714 1.02336 0.585786 0.648286C0.960859 0.273213 1.46957 0.0625 2 0.0625Z" fill="#292B2E"/>
</g>
</g>
</g>
<defs>
<clipPath id="clip0_396_16305">
<rect width="18" height="18" fill="white" transform="translate(0 0.0625)"/>
</clipPath>
<clipPath id="clip1_396_16305">
<rect width="18" height="18" fill="white" transform="translate(0 0.0625)"/>
</clipPath>
<clipPath id="clip2_396_16305">
<rect width="18" height="18" fill="white" transform="translate(0 0.0625)"/>
</clipPath>
</defs>
</svg>
