<svg width="30" height="16" viewBox="0 0 30 16" fill="none" xmlns="http://www.w3.org/2000/svg">
<path d="M15.9375 5.37109C15.9375 5.88984 15.5188 6.30859 15 6.30859C14.4812 6.30859 14.0625 5.88984 14.0625 5.37109C14.0625 4.85234 14.4812 4.43359 15 4.43359C15.5188 4.43359 15.9375 4.85234 15.9375 5.37109ZM15.625 10.6836V7.55859H14.375V10.6836H15.625ZM15 13.9648C18.5375 13.9648 21.4062 11.0961 21.4062 7.55859C21.4062 4.02109 18.5375 1.15234 15 1.15234C11.4625 1.15234 8.59375 4.02109 8.59375 7.55859C8.59375 11.0961 11.4625 13.9648 15 13.9648ZM20.1562 7.55859C20.1562 10.4086 17.85 12.7148 15 12.7148C12.15 12.7148 9.84375 10.4086 9.84375 7.55859C9.84375 4.70859 12.15 2.40234 15 2.40234C17.85 2.40234 20.1562 4.70859 20.1562 7.55859Z" fill="#536471"/>
</svg>
