<svg width="20" height="21" viewBox="0 0 20 21" fill="none" xmlns="http://www.w3.org/2000/svg">
<g clip-path="url(#clip0_396_16297)">
<g clip-path="url(#clip1_396_16297)">
<g clip-path="url(#clip2_396_16297)">
<path d="M5.8 0.0625H14.2C17.4 0.0625 20 2.6625 20 5.8625V14.2625C20 15.8007 19.3889 17.276 18.3012 18.3637C17.2135 19.4514 15.7383 20.0625 14.2 20.0625H5.8C2.6 20.0625 0 17.4625 0 14.2625V5.8625C0 4.32424 0.61107 2.84899 1.69878 1.76128C2.78649 0.673569 4.26174 0.0625 5.8 0.0625ZM5.6 2.0625C4.64522 2.0625 3.72955 2.44178 3.05442 3.11691C2.37928 3.79204 2 4.70772 2 5.6625V14.4625C2 16.4525 3.61 18.0625 5.6 18.0625H14.4C15.3548 18.0625 16.2705 17.6832 16.9456 17.0081C17.6207 16.3329 18 15.4173 18 14.4625V5.6625C18 3.6725 16.39 2.0625 14.4 2.0625H5.6ZM15.25 3.5625C15.5815 3.5625 15.8995 3.69419 16.1339 3.92861C16.3683 4.16303 16.5 4.48098 16.5 4.8125C16.5 5.14402 16.3683 5.46196 16.1339 5.69638C15.8995 5.9308 15.5815 6.0625 15.25 6.0625C14.9185 6.0625 14.6005 5.9308 14.3661 5.69638C14.1317 5.46196 14 5.14402 14 4.8125C14 4.48098 14.1317 4.16303 14.3661 3.92861C14.6005 3.69419 14.9185 3.5625 15.25 3.5625ZM10 5.0625C11.3261 5.0625 12.5979 5.58928 13.5355 6.52696C14.4732 7.46464 15 8.73641 15 10.0625C15 11.3886 14.4732 12.6603 13.5355 13.598C12.5979 14.5357 11.3261 15.0625 10 15.0625C8.67392 15.0625 7.40215 14.5357 6.46447 13.598C5.52678 12.6603 5 11.3886 5 10.0625C5 8.73641 5.52678 7.46464 6.46447 6.52696C7.40215 5.58928 8.67392 5.0625 10 5.0625ZM10 7.0625C9.20435 7.0625 8.44129 7.37857 7.87868 7.94118C7.31607 8.50378 7 9.26685 7 10.0625C7 10.8581 7.31607 11.6212 7.87868 12.1838C8.44129 12.7464 9.20435 13.0625 10 13.0625C10.7956 13.0625 11.5587 12.7464 12.1213 12.1838C12.6839 11.6212 13 10.8581 13 10.0625C13 9.26685 12.6839 8.50378 12.1213 7.94118C11.5587 7.37857 10.7956 7.0625 10 7.0625Z" fill="#292B2E"/>
</g>
</g>
</g>
<defs>
<clipPath id="clip0_396_16297">
<rect width="20" height="20" fill="white" transform="translate(0 0.0625)"/>
</clipPath>
<clipPath id="clip1_396_16297">
<rect width="20" height="20" fill="white" transform="translate(0 0.0625)"/>
</clipPath>
<clipPath id="clip2_396_16297">
<rect width="20" height="20" fill="white" transform="translate(0 0.0625)"/>
</clipPath>
</defs>
</svg>
