<svg width="16" height="15" viewBox="0 0 16 15" fill="none" xmlns="http://www.w3.org/2000/svg">
<g clip-path="url(#clip0_396_16301)">
<g clip-path="url(#clip1_396_16301)">
<path d="M14.0848 3.42334C14.024 3.18494 13.8512 3.00494 13.6536 2.94974C13.304 2.85134 11.6 2.62734 8 2.62734C4.4 2.62734 2.6976 2.85134 2.3448 2.94974C2.1496 3.00414 1.9768 3.18414 1.9152 3.42334C1.828 3.76254 1.6 5.18414 1.6 7.42734C1.6 9.67054 1.828 11.0913 1.9152 11.4321C1.976 11.6697 2.1488 11.8497 2.3456 11.9041C2.6976 12.0033 4.4 12.2273 8 12.2273C11.6 12.2273 13.3032 12.0033 13.6552 11.9049C13.8504 11.8505 14.0232 11.6705 14.0848 11.4313C14.172 11.0921 14.4 9.66734 14.4 7.42734C14.4 5.18734 14.172 3.76334 14.0848 3.42334ZM15.6344 3.02574C16 4.45134 16 7.42734 16 7.42734C16 7.42734 16 10.4033 15.6344 11.8289C15.4312 12.6169 14.8368 13.2369 14.084 13.4465C12.7168 13.8273 8 13.8273 8 13.8273C8 13.8273 3.2856 13.8273 1.916 13.4465C1.16 13.2337 0.5664 12.6145 0.3656 11.8289C0 10.4033 0 7.42734 0 7.42734C0 7.42734 0 4.45134 0.3656 3.02574C0.5688 2.23774 1.1632 1.61774 1.916 1.40814C3.2856 1.02734 8 1.02734 8 1.02734C8 1.02734 12.7168 1.02734 14.084 1.40814C14.84 1.62094 15.4336 2.24014 15.6344 3.02574ZM6.4 10.2273V4.62734L11.2 7.42734L6.4 10.2273Z" fill="#292B2E"/>
</g>
</g>
<defs>
<clipPath id="clip0_396_16301">
<rect width="16" height="14" fill="white" transform="translate(0 0.0625)"/>
</clipPath>
<clipPath id="clip1_396_16301">
<rect width="16" height="14" fill="white" transform="translate(0 0.0625)"/>
</clipPath>
</defs>
</svg>
