<svg width="36" height="33" viewBox="0 0 36 33" fill="none" xmlns="http://www.w3.org/2000/svg">
<rect x="0.5" y="1.03125" width="34" height="31" rx="4.5" stroke="#999191"/>
<path d="M4.97818 12.5547H3.65234V13.8802H4.97818V12.5547ZM14.259 12.5547H6.30401V13.8802H14.259V12.5547ZM3.65234 15.8685H4.97818V17.194H3.65234V15.8685ZM14.259 15.8685H6.30401V17.194H14.259V15.8685ZM3.65234 19.1823H4.97818V20.5078H3.65234V19.1823ZM14.259 19.1823H6.30401V20.5078H14.259V19.1823Z" fill="#999999"/>
<path d="M26.4551 18.5184C26.3857 18.5184 26.3189 18.5085 26.2547 18.4887C26.1901 18.4688 26.133 18.4292 26.0834 18.3697L23.3924 15.693C23.3131 15.6038 23.2734 15.4997 23.2734 15.3807C23.2734 15.2618 23.318 15.1577 23.4072 15.0684C23.4964 14.9891 23.6005 14.9495 23.7195 14.9495C23.8384 14.9495 23.9425 14.9891 24.0317 15.0684L26.4551 17.4923L28.8934 15.0684C28.9727 14.9792 29.0718 14.937 29.1908 14.9418C29.3097 14.9469 29.4137 14.9891 29.503 15.0684C29.5921 15.1577 29.6368 15.2641 29.6368 15.3879C29.6368 15.512 29.5921 15.6137 29.503 15.693L26.8268 18.3697C26.7772 18.4292 26.7204 18.4688 26.6561 18.4887C26.5915 18.5085 26.5245 18.5184 26.4551 18.5184Z" fill="#999999"/>
</svg>
