<svg width="26" height="27" viewBox="0 0 26 27" fill="none" xmlns="http://www.w3.org/2000/svg">
<g clip-path="url(#clip0_396_15556)">
<g clip-path="url(#clip1_396_15556)">
<path d="M12.5 17.6638C14.0408 16.4342 15.2037 15.2526 15.9889 14.119C16.7741 12.9859 17.1667 11.9008 17.1667 10.8638C17.1667 9.98973 17.0072 9.24513 16.6884 8.63002C16.3702 8.0155 15.978 7.51921 15.5116 7.14113C15.0446 6.76366 14.537 6.48959 13.9889 6.31892C13.4407 6.14884 12.9444 6.0638 12.5 6.0638C12.0555 6.0638 11.5593 6.14884 11.0111 6.31892C10.463 6.48959 9.9557 6.76366 9.48933 7.14113C9.02237 7.51921 8.62949 8.0155 8.31066 8.63002C7.99244 9.24513 7.83333 9.98973 7.83333 10.8638C7.83333 11.9008 8.22592 12.9859 9.01111 14.119C9.79629 15.2526 10.9592 16.4342 12.5 17.6638ZM12.5 19.0638C12.3815 19.0638 12.2704 19.049 12.1667 19.0193C12.0629 18.9897 11.9667 18.9378 11.8778 18.8639C10.0704 17.4564 8.72222 16.0895 7.83333 14.7633C6.94445 13.4378 6.5 12.1379 6.5 10.8638C6.5 9.85639 6.68163 8.97106 7.04488 8.20781C7.40755 7.44514 7.87422 6.80454 8.44489 6.28603C9.01496 5.7675 9.65941 5.37877 10.3782 5.1198C11.0965 4.86024 11.8037 4.73047 12.5 4.73047C13.1963 4.73047 13.9038 4.86024 14.6226 5.1198C15.3409 5.37877 15.985 5.7675 16.5551 6.28603C17.1258 6.80454 17.5928 7.44514 17.956 8.20781C18.3186 8.97106 18.5 9.85639 18.5 10.8638C18.5 12.1379 18.0556 13.4378 17.1667 14.7633C16.2777 16.0895 14.9296 17.4564 13.1222 18.8639C13.0481 18.9378 12.9557 18.9897 12.8449 19.0193C12.7335 19.049 12.6186 19.0638 12.5 19.0638ZM12.5 12.2861C12.9296 12.2861 13.2964 12.1343 13.6005 11.831C13.9038 11.5269 14.0556 11.1601 14.0556 10.7305C14.0556 10.3008 13.9038 9.93402 13.6005 9.63003C13.2964 9.32662 12.9296 9.17491 12.5 9.17491C12.0704 9.17491 11.7036 9.32662 11.3996 9.63003C11.0962 9.93402 10.9445 10.3008 10.9445 10.7305C10.9445 11.1601 11.0962 11.5269 11.3996 11.831C11.7036 12.1343 12.0704 12.2861 12.5 12.2861ZM7.16666 22.0638C6.97408 22.0638 6.81496 22.001 6.68933 21.8754C6.56311 21.7491 6.5 21.5897 6.5 21.3971C6.5 21.2045 6.56311 21.0451 6.68933 20.9189C6.81496 20.7933 6.97408 20.7304 7.16666 20.7304H17.8333C18.0259 20.7304 18.1854 20.7933 18.3116 20.9189C18.4371 21.0451 18.5 21.2045 18.5 21.3971C18.5 21.5897 18.4371 21.7491 18.3116 21.8754C18.1854 22.001 18.0259 22.0638 17.8333 22.0638H7.16666Z" fill="#292B2E"/>
</g>
</g>
<defs>
<clipPath id="clip0_396_15556">
<rect width="26" height="26" fill="white" transform="translate(0 0.398438)"/>
</clipPath>
<clipPath id="clip1_396_15556">
<rect width="26" height="26" fill="white" transform="translate(0 0.398438)"/>
</clipPath>
</defs>
</svg>
