<svg width="40" height="41" viewBox="0 0 40 41" fill="none" xmlns="http://www.w3.org/2000/svg">
<mask id="mask0_396_16066" style="mask-type:alpha" maskUnits="userSpaceOnUse" x="0" y="0" width="40" height="41">
<path d="M40 0.890625H0V40.8906H40V0.890625Z" fill="#D9D9D9"/>
</mask>
<g mask="url(#mask0_396_16066)">
<path d="M18.257 23.4034L14.9889 20.132C14.8322 19.9753 14.6621 19.897 14.4787 19.897C14.2953 19.897 14.1253 19.9753 13.9686 20.132C13.8119 20.2887 13.7383 20.4641 13.748 20.6582C13.7576 20.8522 13.83 21.017 13.9654 21.1523L17.3831 24.5487C17.6253 24.8051 17.9077 24.9333 18.2303 24.9333C18.553 24.9333 18.8425 24.8051 19.0989 24.5487L26.0113 17.6362C26.1495 17.4981 26.2186 17.3337 26.2186 17.1432C26.2186 16.9527 26.1495 16.7812 26.0113 16.6288C25.8731 16.4906 25.7081 16.4268 25.5161 16.4375C25.3242 16.4482 25.1627 16.512 25.0316 16.6288L18.257 23.4034ZM20.0006 35.7015C19.8803 35.7015 19.7699 35.6968 19.6694 35.6875C19.569 35.6783 19.4832 35.6551 19.412 35.6181C16.2161 34.5049 13.5708 32.4395 11.476 29.4221C9.38134 26.4046 8.33398 23.0316 8.33398 19.3029V12.0775C8.33398 11.5654 8.48337 11.0964 8.78215 10.6705C9.08095 10.2445 9.45862 9.93932 9.91513 9.75485L19.1459 6.33393C19.4436 6.22068 19.7285 6.16406 20.0006 6.16406C20.2727 6.16406 20.5576 6.22068 20.8553 6.33393L30.0861 9.75485C30.5426 9.93932 30.9203 10.2445 31.2191 10.6705C31.5179 11.0964 31.6673 11.5654 31.6673 12.0775V19.3029C31.6673 23.0316 30.6199 26.4046 28.5252 29.4221C26.4305 32.4395 23.7923 34.5049 20.6107 35.6181C20.5287 35.6509 20.3254 35.6786 20.0006 35.7015Z" fill="#1C1B1F"/>
</g>
</svg>
