<svg width="49" height="41" viewBox="0 0 49 41" fill="none" xmlns="http://www.w3.org/2000/svg">
<g clip-path="url(#clip0_396_16080)">
<g clip-path="url(#clip1_396_16080)">
<g clip-path="url(#clip2_396_16080)">
<path d="M30.855 9.47266H18.1465V32.3073H30.855V9.47266Z" fill="#FF5F00"/>
<path d="M18.9525 20.891C18.9525 16.2515 21.1313 12.1365 24.48 9.47321C22.0194 7.53706 18.9125 6.36719 15.5238 6.36719C7.49561 6.36719 1 12.8628 1 20.891C1 28.9191 7.49561 35.4147 15.5238 35.4147C18.9125 35.4147 22.0194 34.2449 24.48 32.3078C21.1313 29.6854 18.9525 25.5304 18.9525 20.891Z" fill="#EB001B"/>
<path d="M47.9995 20.891C47.9995 28.9191 41.5048 35.4147 33.4758 35.4147C30.0871 35.4147 26.981 34.2449 24.5195 32.3078C27.9091 29.6454 30.047 25.5304 30.047 20.891C30.047 16.2515 27.8682 12.1365 24.5195 9.47321C26.981 7.53706 30.0871 6.36719 33.4758 6.36719C41.5048 6.36719 47.9995 12.9028 47.9995 20.891Z" fill="#F79E1B"/>
</g>
</g>
</g>
<defs>
<clipPath id="clip0_396_16080">
<rect width="48" height="40" fill="white" transform="translate(0.5 0.890625)"/>
</clipPath>
<clipPath id="clip1_396_16080">
<rect width="48" height="40" fill="white" transform="translate(0.5 0.890625)"/>
</clipPath>
<clipPath id="clip2_396_16080">
<rect width="48" height="30" fill="white" transform="translate(0.5 5.89062)"/>
</clipPath>
</defs>
</svg>
