<svg width="24" height="25" viewBox="0 0 24 25" fill="none" xmlns="http://www.w3.org/2000/svg">
<g clip-path="url(#clip0_396_19744)">
<g clip-path="url(#clip1_396_19744)">
<path d="M14.2629 8.91106C14.0574 8.64167 13.8118 8.43063 13.5262 8.27795C13.2406 8.12525 12.9067 8.04891 12.5247 8.04891C12.253 8.04891 11.9773 8.09245 11.6974 8.17955C11.4176 8.26663 11.172 8.42454 10.9607 8.65329L9.9784 7.67099C10.1955 7.44225 10.478 7.24689 10.8257 7.08493C11.1735 6.92295 11.4983 6.82222 11.8002 6.78275V5.76907C11.8002 5.57633 11.8652 5.41494 11.9953 5.2849C12.1253 5.15486 12.2867 5.08984 12.4794 5.08984C12.6722 5.08984 12.8336 5.15486 12.9636 5.2849C13.0937 5.41494 13.1587 5.57633 13.1587 5.76907V6.75488C13.6347 6.83151 14.0818 6.99842 14.4998 7.2556C14.9178 7.51278 15.2719 7.87012 15.5622 8.3276C15.6667 8.48669 15.683 8.65795 15.611 8.84139C15.539 9.02485 15.4095 9.15954 15.2226 9.24546C15.0635 9.30351 14.8983 9.30206 14.7271 9.24109C14.5558 9.18014 14.4011 9.07013 14.2629 8.91106ZM18.8575 20.9181L15.3602 17.4208C15.1222 17.7111 14.7924 17.9526 14.3709 18.1454C13.9494 18.3381 13.5453 18.4438 13.1587 18.4624V19.476C13.1587 19.6688 13.0937 19.8301 12.9636 19.9602C12.8336 20.0902 12.6722 20.1553 12.4794 20.1553C12.2867 20.1553 12.1253 20.0902 11.9953 19.9602C11.8652 19.8301 11.8002 19.6688 11.8002 19.476V18.4171C11.121 18.2685 10.5488 17.9941 10.0838 17.5941C9.61875 17.1941 9.24401 16.6806 8.95953 16.0536C8.87361 15.8853 8.87042 15.7062 8.94996 15.5163C9.02949 15.3265 9.16736 15.1933 9.36358 15.1166C9.53194 15.0493 9.70495 15.0507 9.8826 15.121C10.0602 15.1912 10.1967 15.3198 10.2919 15.5067C10.5125 15.9875 10.8187 16.3831 11.2106 16.6937C11.6025 17.0043 12.0858 17.1596 12.6606 17.1596C13.0136 17.1596 13.3338 17.0952 13.6211 16.9663C13.9085 16.8374 14.1608 16.6615 14.3779 16.4385L4.19255 6.25325C4.06716 6.12784 4.00301 5.97022 4.00009 5.78039C3.9972 5.59055 4.06135 5.43003 4.19255 5.29882C4.32375 5.16762 4.48283 5.10202 4.66977 5.10202C4.85671 5.10202 5.01577 5.16762 5.14697 5.29882L19.8119 19.9637C19.8792 20.031 19.9274 20.1045 19.9565 20.184C19.9855 20.2636 20 20.3477 20 20.4366C20 20.5254 19.9855 20.611 19.9565 20.6934C19.9274 20.7759 19.8792 20.8508 19.8119 20.9181C19.6807 21.0493 19.5216 21.1149 19.3347 21.1149C19.1478 21.1149 18.9887 21.0493 18.8575 20.9181Z" fill="#292B2E"/>
</g>
</g>
<defs>
<clipPath id="clip0_396_19744">
<rect width="24" height="24" fill="white" transform="translate(0 0.0898438)"/>
</clipPath>
<clipPath id="clip1_396_19744">
<rect width="24" height="24" fill="white" transform="translate(0 0.0898438)"/>
</clipPath>
</defs>
</svg>
