<svg width="37" height="36" viewBox="0 0 37 36" fill="none" xmlns="http://www.w3.org/2000/svg">
<g clip-path="url(#clip0_396_15584)">
<g clip-path="url(#clip1_396_15584)">
<path d="M22.7626 11.48C22.408 10.8729 21.9484 10.3998 21.3838 10.061C20.8191 9.72204 20.1616 9.55257 19.4112 9.55257C18.8485 9.55257 18.2842 9.65994 17.7183 9.8745C17.1524 10.0891 16.6783 10.4228 16.2963 10.8756L15.3875 9.96675C15.818 9.47211 16.3283 9.08628 16.9184 8.80922C17.5086 8.53214 18.1001 8.36318 18.6928 8.30236V6.39846C18.6928 6.20938 18.7535 6.05416 18.8749 5.93278C18.9963 5.81143 19.1514 5.75075 19.3405 5.75075C19.5296 5.75075 19.6848 5.81143 19.8062 5.93278C19.9276 6.05416 19.9883 6.20938 19.9883 6.39846V8.29057C20.7177 8.34616 21.4474 8.58334 22.1772 9.00204C22.907 9.42081 23.5094 10.0731 23.9844 10.9589C24.0708 11.1147 24.0824 11.2808 24.0193 11.4575C23.9562 11.6342 23.8399 11.7617 23.6704 11.8403C23.5016 11.9089 23.3305 11.9082 23.1572 11.8383C22.9837 11.7683 22.8522 11.6488 22.7626 11.48ZM30.3497 30.403L24.3299 24.3892C23.8542 25.0245 23.2242 25.551 22.4398 25.9687C21.6553 26.3864 20.8381 26.6012 19.9883 26.613V28.4796C19.9883 28.6687 19.9276 28.8239 19.8062 28.9452C19.6848 29.0666 19.5296 29.1273 19.3405 29.1273C19.1514 29.1273 18.9963 29.0666 18.8749 28.9452C18.7535 28.8239 18.6928 28.6687 18.6928 28.4796V26.5423C17.5289 26.3624 16.5788 25.9229 15.8424 25.2238C15.106 24.5248 14.5141 23.6152 14.0665 22.4951C14.0051 22.3374 14.0132 22.1732 14.0911 22.0024C14.1689 21.8317 14.2936 21.7165 14.465 21.657C14.6266 21.5902 14.7849 21.5991 14.94 21.6835C15.095 21.7679 15.2063 21.8928 15.2737 22.0583C15.6577 23.0266 16.2066 23.8126 16.9204 24.4162C17.6342 25.0197 18.5391 25.3215 19.6349 25.3215C20.4266 25.3215 21.1519 25.1539 21.8107 24.8185C22.4695 24.4832 22.9959 24.0267 23.3897 23.449L6.48046 6.53976C6.35811 6.41742 6.29203 6.2676 6.2822 6.09031C6.27241 5.913 6.33849 5.75336 6.48046 5.6114C6.62243 5.46942 6.77716 5.39844 6.94465 5.39844C7.11213 5.39844 7.26686 5.46942 7.40884 5.6114L31.2781 29.4806C31.3488 29.5473 31.4003 29.6164 31.4327 29.6876C31.4651 29.759 31.4813 29.8388 31.4813 29.9271C31.4813 30.0154 31.4651 30.0992 31.4327 30.1783C31.4003 30.2575 31.3488 30.3324 31.2781 30.403C31.1492 30.5451 30.9978 30.6161 30.8237 30.6161C30.6497 30.6161 30.4917 30.5451 30.3497 30.403Z" fill="#1C1B1F"/>
</g>
</g>
<defs>
<clipPath id="clip0_396_15584">
<rect width="36" height="36" fill="white" transform="translate(0.880859)"/>
</clipPath>
<clipPath id="clip1_396_15584">
<rect width="36" height="36" fill="white" transform="translate(0.880859)"/>
</clipPath>
</defs>
</svg>
