<svg width="49" height="49" viewBox="0 0 49 49" fill="none" xmlns="http://www.w3.org/2000/svg">
<g clip-path="url(#clip0_396_20028)">
<g clip-path="url(#clip1_396_20028)">
<g clip-path="url(#clip2_396_20028)">
<path d="M41.1433 17.9219C42.2404 15.4077 43.0862 13.0648 43.6804 10.8934C44.2748 8.72198 44.549 6.74485 44.5033 4.96199C44.5033 4.73342 44.4347 4.55056 44.2976 4.41342C44.1604 4.27628 43.9776 4.20771 43.749 4.20771H37.5776C37.3033 4.20771 37.0633 4.27628 36.8576 4.41342C36.6519 4.55056 36.549 4.75628 36.549 5.03056L35.109 11.2706C35.0634 11.5448 35.0747 11.7963 35.1433 12.0248C35.2119 12.2534 35.3147 12.4363 35.4519 12.5734L41.1433 17.9219ZM5.82904 43.5677C7.42905 43.5677 9.36047 43.3392 11.6233 42.8819C13.8862 42.4248 15.9776 41.6935 17.8976 40.6877L12.3433 34.9277C12.1605 34.7448 11.989 34.6306 11.829 34.5848C11.669 34.5391 11.4748 34.5391 11.2462 34.5848L5.89761 35.6819C5.62333 35.7277 5.41761 35.842 5.28047 36.0248C5.14333 36.2077 5.07476 36.4362 5.07476 36.7105V42.8819C5.07476 43.0649 5.14333 43.2248 5.28047 43.3619C5.41761 43.4991 5.60047 43.5677 5.82904 43.5677ZM36.3433 28.8934L34.8347 27.3162C35.7491 26.2191 36.5947 25.1219 37.3719 24.0248C38.1491 22.9277 39.0633 21.5335 40.1147 19.8419L34.0804 14.2191C33.5777 13.762 33.2576 13.2248 33.1204 12.6077C32.9833 11.9906 32.9833 11.3391 33.1204 10.6534L34.4233 4.68771C34.6063 3.86485 34.9719 3.22484 35.5204 2.76771C36.069 2.31056 36.732 2.08199 37.509 2.08199H43.5433C44.412 2.08199 45.1433 2.3677 45.7376 2.93914C46.332 3.51055 46.629 4.20771 46.629 5.03056C46.629 8.96198 45.6805 13.0534 43.7833 17.3048C41.8862 21.5562 39.4061 25.4191 36.3433 28.8934ZM6.1719 45.6934C5.34904 45.6934 4.60618 45.3963 3.94333 44.8019C3.28048 44.2077 2.94904 43.4763 2.94904 42.6077V36.8477C2.94904 36.0248 3.18904 35.3163 3.66904 34.7219C4.14904 34.1277 4.77761 33.7619 5.55476 33.6248L10.5605 32.5277C11.2462 32.3448 11.8748 32.3562 12.4462 32.5619C13.0176 32.7677 13.5548 33.122 14.0576 33.6248L19.749 39.7277C21.3491 38.9506 22.9834 37.9563 24.6519 36.7448C26.3205 35.5334 28.1147 34.1277 30.0347 32.5277L0.823326 3.24771C0.594754 3.06484 0.480469 2.83628 0.480469 2.56199C0.480469 2.2877 0.594754 2.03627 0.823326 1.8077C1.0519 1.57913 1.31476 1.46484 1.6119 1.46484C1.90903 1.46484 2.1719 1.57913 2.40047 1.8077L47.5204 46.9962C47.7491 47.1792 47.8633 47.4076 47.8633 47.6819C47.8633 47.9562 47.7262 48.2077 47.4519 48.4362C47.2234 48.6648 46.9834 48.7791 46.7319 48.7791C46.4805 48.7791 46.2176 48.6877 45.9433 48.5048L31.4747 34.0362C27.0405 37.922 22.7091 40.8363 18.4804 42.7791C14.2519 44.722 10.149 45.6934 6.1719 45.6934Z" fill="#1C1B1F"/>
</g>
</g>
</g>
<defs>
<clipPath id="clip0_396_20028">
<rect width="48" height="48" fill="white" transform="translate(0.21875 0.941406)"/>
</clipPath>
<clipPath id="clip1_396_20028">
<rect width="48" height="48" fill="white" transform="translate(0.21875 0.941406)"/>
</clipPath>
<clipPath id="clip2_396_20028">
<rect width="48" height="48" fill="white" transform="translate(0.21875 0.941406)"/>
</clipPath>
</defs>
</svg>
