<svg width="48" height="49" viewBox="0 0 48 49" fill="none" xmlns="http://www.w3.org/2000/svg">
<g clip-path="url(#clip0_396_16882)">
<g clip-path="url(#clip1_396_16882)">
<path d="M19.9192 39.756V31.6716C18.0525 31.5381 16.209 31.3547 14.3885 31.1213C12.568 30.888 10.7539 30.5752 8.94615 30.1829C8.71795 30.1342 8.5173 30.0182 8.3442 29.8349C8.17113 29.6515 8.10897 29.4522 8.1577 29.2367C8.2064 28.9957 8.34935 28.8265 8.58655 28.729C8.82372 28.6316 9.07307 28.6073 9.3346 28.656C11.7474 29.1893 14.1792 29.5707 16.6298 29.8002C19.0804 30.0297 21.5371 30.1445 24 30.1445C26.4629 30.1445 28.9196 30.0297 31.3703 29.8002C33.8209 29.5707 36.2526 29.1893 38.6654 28.656C38.9269 28.6073 39.1744 28.6304 39.4077 28.7255C39.641 28.8206 39.7821 28.9846 39.8308 29.2175C39.8795 29.4457 39.8154 29.6534 39.6384 29.8406C39.4615 30.0278 39.2423 30.1457 38.9808 30.1945C37.1808 30.5868 35.3706 30.8977 33.5503 31.1272C31.73 31.3566 29.9068 31.5419 28.0808 31.6829V39.756C28.0808 40.1573 27.9504 40.4884 27.6895 40.7493C27.4286 41.0101 27.0975 41.1406 26.6961 41.1406H21.3039C20.9025 41.1406 20.5714 41.0101 20.3105 40.7493C20.0497 40.4884 19.9192 40.1573 19.9192 39.756ZM24.0054 26.4406C23.1044 26.4406 22.3404 26.1295 21.7135 25.5072C21.0865 24.8849 20.7731 24.1241 20.7731 23.2246C20.7731 22.3199 21.0842 21.554 21.7065 20.9271C22.3288 20.3002 23.0896 19.9868 23.9891 19.9868C24.8938 19.9868 25.6596 20.2971 26.2866 20.9179C26.9135 21.5386 27.2269 22.3021 27.2269 23.2083C27.2269 24.1093 26.9166 24.8733 26.2958 25.5002C25.6751 26.1271 24.9116 26.4406 24.0054 26.4406ZM9.7692 20.9099C9.27433 20.9099 8.85575 20.7387 8.51345 20.3963C8.17115 20.054 8 19.632 8 19.1301C8 18.6756 8.17115 18.2688 8.51345 17.9098C8.85575 17.5508 9.27787 17.3714 9.7798 17.3714C10.2343 17.3714 10.641 17.5498 11 17.9066C11.359 18.2634 11.5385 18.6748 11.5385 19.1406C11.5385 19.6355 11.36 20.054 11.0032 20.3963C10.6464 20.7387 10.235 20.9099 9.7692 20.9099ZM38.2308 20.9099C37.7359 20.9099 37.3173 20.7387 36.975 20.3963C36.6327 20.054 36.4616 19.632 36.4616 19.1301C36.4616 18.6756 36.6327 18.2688 36.975 17.9098C37.3173 17.5508 37.7394 17.3714 38.2414 17.3714C38.6959 17.3714 39.1026 17.5498 39.4616 17.9066C39.8205 18.2634 40 18.6748 40 19.1406C40 19.6355 39.8216 20.054 39.4648 20.3963C39.1079 20.7387 38.6966 20.9099 38.2308 20.9099ZM14.8846 13.6021C14.3897 13.6021 13.9711 13.431 13.6288 13.0887C13.2866 12.7464 13.1154 12.3243 13.1154 11.8224C13.1154 11.3679 13.2866 10.9611 13.6288 10.6021C13.9711 10.2431 14.3933 10.0637 14.8952 10.0637C15.3497 10.0637 15.7564 10.2421 16.1154 10.5989C16.4744 10.9558 16.6538 11.3671 16.6538 11.8329C16.6538 12.3278 16.4754 12.7464 16.1186 13.0887C15.7618 13.431 15.3504 13.6021 14.8846 13.6021ZM33.1154 13.6021C32.6205 13.6021 32.2019 13.431 31.8596 13.0887C31.5173 12.7464 31.3461 12.3243 31.3461 11.8224C31.3461 11.3679 31.5173 10.9611 31.8596 10.6021C32.2019 10.2431 32.6241 10.0637 33.1259 10.0637C33.5805 10.0637 33.9872 10.2421 34.3461 10.5989C34.7051 10.9558 34.8846 11.3671 34.8846 11.8329C34.8846 12.3278 34.7062 12.7464 34.3493 13.0887C33.9925 13.431 33.5812 13.6021 33.1154 13.6021ZM24 10.6791C23.5051 10.6791 23.0866 10.5079 22.7443 10.1656C22.4019 9.82332 22.2308 9.4012 22.2308 8.89927C22.2308 8.44477 22.4019 8.03804 22.7443 7.67907C23.0866 7.3201 23.5086 7.14062 24.0105 7.14062C24.465 7.14062 24.8718 7.31905 25.2307 7.67588C25.5897 8.03271 25.7693 8.44403 25.7693 8.90983C25.7693 9.40473 25.5908 9.82332 25.234 10.1656C24.8771 10.5079 24.4658 10.6791 24 10.6791Z" fill="#1C1B1F"/>
</g>
</g>
<defs>
<clipPath id="clip0_396_16882">
<rect width="48" height="48" fill="white" transform="translate(0 0.140625)"/>
</clipPath>
<clipPath id="clip1_396_16882">
<rect width="48" height="48" fill="white" transform="translate(0 0.140625)"/>
</clipPath>
</defs>
</svg>
