<svg width="361" height="361" viewBox="0 0 361 361" fill="none" xmlns="http://www.w3.org/2000/svg">
<g clip-path="url(#clip0_396_15736)">
<g clip-path="url(#clip1_396_15736)">
<path d="M147.499 87.7305H75.4992C67.4635 87.7305 60.9492 94.2447 60.9492 102.28V267.28C60.9492 275.316 67.4635 281.83 75.4992 281.83H147.499C155.535 281.83 162.049 275.316 162.049 267.28V102.28C162.049 94.2447 155.535 87.7305 147.499 87.7305Z" fill="#292B2E" stroke="#292B2E" stroke-width="0.9"/>
<path d="M141.499 87.7305H69.4992C61.4635 87.7305 54.9492 94.2447 54.9492 102.28V267.28C54.9492 275.316 61.4635 281.83 69.4992 281.83H141.499C149.535 281.83 156.049 275.316 156.049 267.28V102.28C156.049 94.2447 149.535 87.7305 141.499 87.7305Z" fill="white" stroke="#292B2E" stroke-width="0.9"/>
<path d="M115.999 93.7305H96.4992C94.2625 93.7305 92.4492 95.5437 92.4492 97.7805C92.4492 100.017 94.2625 101.83 96.4992 101.83H115.999C118.236 101.83 120.049 100.017 120.049 97.7805C120.049 95.5437 118.236 93.7305 115.999 93.7305Z" fill="#292B2E" stroke="#292B2E" stroke-width="0.9"/>
<path fill-rule="evenodd" clip-rule="evenodd" d="M255.705 227.711C252.411 225.25 247.725 226.08 245.476 229.522L215.661 275.157C215.208 275.851 214.278 276.046 213.585 275.593L212.957 275.182C212.263 274.729 212.068 273.8 212.522 273.106L242.337 227.471C245.769 222.218 252.922 220.951 257.949 224.707L311.306 264.567C311.97 265.063 312.106 266.003 311.61 266.667L311.161 267.268C310.665 267.931 309.725 268.067 309.062 267.572L255.705 227.711Z" fill="white" stroke="#292B2E" stroke-width="0.9" stroke-linecap="round" stroke-linejoin="round"/>
<path d="M214.772 282.712C219.018 282.712 222.46 279.27 222.46 275.024C222.46 270.778 219.018 267.336 214.772 267.336C210.526 267.336 207.084 270.778 207.084 275.024C207.084 279.27 210.526 282.712 214.772 282.712Z" fill="#4B48E6"/>
<path d="M214.771 278.316C216.591 278.316 218.066 276.841 218.066 275.021C218.066 273.202 216.591 271.727 214.771 271.727C212.952 271.727 211.477 273.202 211.477 275.021C211.477 276.841 212.952 278.316 214.771 278.316Z" fill="#292B2E"/>
<path d="M214.771 265.906V271.639C214.771 272.94 216.315 273.624 217.279 272.75L223.605 267.017C224.622 266.096 223.97 264.406 222.598 264.406H216.271C215.443 264.406 214.771 265.077 214.771 265.906Z" fill="white" stroke="#292B2E" stroke-width="0.9" stroke-linecap="round" stroke-linejoin="round"/>
<path d="M304.797 282.712C309.044 282.712 312.486 279.27 312.486 275.024C312.486 270.778 309.044 267.336 304.797 267.336C300.551 267.336 297.109 270.778 297.109 275.024C297.109 279.27 300.551 282.712 304.797 282.712Z" fill="#4B48E6"/>
<path d="M304.797 278.316C306.617 278.316 308.092 276.841 308.092 275.021C308.092 273.202 306.617 271.727 304.797 271.727C302.977 271.727 301.502 273.202 301.502 275.021C301.502 276.841 302.977 278.316 304.797 278.316Z" fill="#292B2E"/>
<path d="M304.797 265.906V271.639C304.797 272.94 306.341 273.624 307.305 272.75L313.631 267.017C314.648 266.096 313.996 264.406 312.624 264.406H306.297C305.469 264.406 304.797 265.077 304.797 265.906Z" fill="white" stroke="#292B2E" stroke-width="0.9" stroke-linecap="round" stroke-linejoin="round"/>
<path fill-rule="evenodd" clip-rule="evenodd" d="M224.221 227.711C220.927 225.25 216.24 226.08 213.992 229.522L184.177 275.157C183.723 275.851 182.794 276.046 182.1 275.593L181.473 275.182C180.779 274.729 180.584 273.8 181.037 273.106L210.852 227.471C214.284 222.218 221.438 220.951 226.465 224.707L279.822 264.567C280.485 265.063 280.622 266.003 280.126 266.667L279.677 267.268C279.181 267.931 278.241 268.067 277.577 267.572L224.221 227.711Z" fill="white" stroke="#292B2E" stroke-width="0.9" stroke-linecap="round" stroke-linejoin="round"/>
<path d="M183.288 282.712C187.534 282.712 190.976 279.27 190.976 275.024C190.976 270.778 187.534 267.336 183.288 267.336C179.042 267.336 175.6 270.778 175.6 275.024C175.6 279.27 179.042 282.712 183.288 282.712Z" fill="#4B48E6"/>
<path d="M183.287 278.316C185.107 278.316 186.582 276.841 186.582 275.021C186.582 273.202 185.107 271.727 183.287 271.727C181.467 271.727 179.992 273.202 179.992 275.021C179.992 276.841 181.467 278.316 183.287 278.316Z" fill="#292B2E"/>
<path d="M183.287 265.906V271.639C183.287 272.94 184.83 273.624 185.794 272.75L192.12 267.017C193.137 266.096 192.485 264.406 191.113 264.406H184.787C183.958 264.406 183.287 265.077 183.287 265.906Z" fill="white" stroke="#292B2E" stroke-width="0.9" stroke-linecap="round" stroke-linejoin="round"/>
<path d="M273.311 282.712C277.557 282.712 280.999 279.27 280.999 275.024C280.999 270.778 277.557 267.336 273.311 267.336C269.065 267.336 265.623 270.778 265.623 275.024C265.623 279.27 269.065 282.712 273.311 282.712Z" fill="#4B48E6"/>
<path d="M273.312 278.316C275.132 278.316 276.607 276.841 276.607 275.021C276.607 273.202 275.132 271.727 273.312 271.727C271.493 271.727 270.018 273.202 270.018 275.021C270.018 276.841 271.493 278.316 273.312 278.316Z" fill="#292B2E"/>
<path d="M273.312 265.906V271.639C273.312 272.94 274.856 273.624 275.82 272.75L282.146 267.017C283.163 266.096 282.511 264.406 281.139 264.406H274.812C273.984 264.406 273.312 265.077 273.312 265.906Z" fill="white" stroke="#292B2E" stroke-width="0.9" stroke-linecap="round" stroke-linejoin="round"/>
<path fill-rule="evenodd" clip-rule="evenodd" d="M211.151 162.472C211.114 162.264 211.035 162.067 210.917 161.892L198.574 143.574C198.112 142.887 198.293 141.954 198.98 141.492L199.602 141.072C200.289 140.61 201.222 140.791 201.684 141.478L214.25 160.128C214.515 160.521 214.694 160.965 214.776 161.432L225.108 220.481C225.25 221.297 224.705 222.075 223.889 222.217L223.15 222.347C222.334 222.489 221.556 221.944 221.414 221.128L211.151 162.472Z" fill="#292B2E" stroke="#292B2E" stroke-width="0.9" stroke-linecap="round" stroke-linejoin="round"/>
<path fill-rule="evenodd" clip-rule="evenodd" d="M160.872 162.471C160.834 162.273 160.756 162.085 160.643 161.917L148.283 143.574C147.821 142.887 148.002 141.954 148.689 141.492L149.311 141.072C149.998 140.61 150.931 140.791 151.393 141.478L163.134 158.904C163.413 159.317 163.879 159.565 164.378 159.565H320.946C323.232 159.565 324.857 161.791 324.16 163.968L305.664 221.81C305.217 223.208 303.917 224.157 302.449 224.157H175.567C173.95 224.157 172.56 223.01 172.254 221.422L160.872 162.471ZM166.672 163.315C165.729 163.315 165.02 164.174 165.199 165.1L167.646 177.775C167.782 178.481 168.4 178.991 169.119 178.991H277.57C278.21 178.991 278.78 178.584 278.988 177.979L283.347 165.303C283.682 164.329 282.959 163.315 281.929 163.315H166.672ZM289.067 163.315C288.426 163.315 287.857 163.722 287.648 164.328L283.289 177.003C282.954 177.977 283.678 178.991 284.708 178.991H314.324C314.977 178.991 315.554 178.569 315.753 177.948L319.806 165.272C320.116 164.304 319.394 163.315 318.378 163.315H289.067ZM313.595 184.698C313.904 183.73 313.182 182.741 312.166 182.741H282.386C281.746 182.741 281.176 183.147 280.968 183.753L276.167 197.711C275.833 198.685 276.556 199.699 277.586 199.699H307.702C308.355 199.699 308.932 199.277 309.131 198.656L313.595 184.698ZM306.973 205.406C307.282 204.438 306.56 203.449 305.544 203.449H275.265C274.624 203.449 274.054 203.855 273.846 204.461L269.046 218.419C268.711 219.393 269.434 220.407 270.464 220.407H301.08C301.733 220.407 302.31 219.985 302.509 219.364L306.973 205.406ZM263.326 220.407C263.967 220.407 264.536 220 264.745 219.395L269.545 205.437C269.88 204.463 269.156 203.449 268.126 203.449H174.42C173.478 203.449 172.769 204.308 172.947 205.233L175.642 219.191C175.779 219.897 176.396 220.407 177.115 220.407H263.326ZM171.644 198.483C171.78 199.189 172.398 199.699 173.117 199.699H270.448C271.088 199.699 271.658 199.292 271.866 198.687L276.667 184.729C277.002 183.755 276.278 182.741 275.248 182.741H170.422C169.48 182.741 168.771 183.6 168.949 184.525L171.644 198.483Z" fill="white" stroke="#292B2E" stroke-width="0.9" stroke-linecap="round" stroke-linejoin="round"/>
<path d="M138.5 139.781C138.5 138.124 139.843 136.781 141.5 136.781H207.5C209.157 136.781 210.5 138.124 210.5 139.781C210.5 141.438 209.157 142.781 207.5 142.781H141.5C139.843 142.781 138.5 141.438 138.5 139.781Z" fill="white" stroke="#292B2E" stroke-width="0.9" stroke-linecap="round"/>
<path d="M141.5 142.781C143.157 142.781 144.5 141.438 144.5 139.781C144.5 138.124 143.157 136.781 141.5 136.781C139.843 136.781 138.5 138.124 138.5 139.781C138.5 141.438 139.843 142.781 141.5 142.781Z" fill="white" stroke="#292B2E" stroke-width="0.9" stroke-linecap="round"/>
<path d="M105.5 214.781C122.897 214.781 137 200.678 137 183.281C137 165.884 122.897 151.781 105.5 151.781C88.103 151.781 74 165.884 74 183.281C74 200.678 88.103 214.781 105.5 214.781Z" fill="#4B48E6"/>
<path d="M92 186.04L100.298 195.281L120.5 172.781" stroke="#292B2E" stroke-width="1.5" stroke-linecap="round" stroke-linejoin="round"/>
</g>
</g>
<defs>
<clipPath id="clip0_396_15736">
<rect width="360" height="360" fill="white" transform="translate(0.5 0.28125)"/>
</clipPath>
<clipPath id="clip1_396_15736">
<rect width="360" height="360" fill="white" transform="translate(0.5 0.28125)"/>
</clipPath>
</defs>
</svg>
