<svg width="49" height="49" viewBox="0 0 49 49" fill="none" xmlns="http://www.w3.org/2000/svg">
<g clip-path="url(#clip0_396_20035)">
<g clip-path="url(#clip1_396_20035)">
<path d="M15.5725 41.5352C14.9367 41.5352 14.3854 41.3018 13.9187 40.8352C13.452 40.3685 13.2188 39.8172 13.2188 39.1813V9.88894C13.2188 9.25308 13.452 8.70181 13.9187 8.23513C14.3854 7.76848 14.9367 7.53516 15.5725 7.53516H31.2649C31.9009 7.53516 32.4521 7.7685 32.9188 8.23518C33.3855 8.70186 33.6188 9.25312 33.6188 9.88898V14.5902C33.6188 14.9513 33.326 15.244 32.965 15.244C32.6039 15.244 32.3111 14.9513 32.3111 14.5902V12.5044H14.5265V36.5659H32.3111V34.4802C32.3111 34.119 32.6039 33.8263 32.965 33.8263C33.326 33.8263 33.6188 34.119 33.6188 34.4801V39.1814C33.6188 39.8172 33.3855 40.3685 32.9188 40.8352C32.4521 41.3018 31.9009 41.5352 31.2649 41.5352H15.5725ZM14.5265 37.8736V39.1814C14.5265 39.4429 14.6353 39.6826 14.8533 39.9006C15.0712 40.1185 15.311 40.2275 15.5725 40.2275H31.2649C31.5264 40.2275 31.7663 40.1185 31.9841 39.9006C32.2022 39.6826 32.3111 39.4429 32.3111 39.1814V37.8736H14.5265ZM14.5265 11.1967H32.3111V9.88898C32.3111 9.62746 32.2022 9.38772 31.9841 9.16975C31.7663 8.95181 31.5264 8.84284 31.2649 8.84284H15.5725C15.311 8.84284 15.0712 8.95181 14.8533 9.16975C14.6353 9.38772 14.5265 9.62746 14.5265 9.88898V11.1967Z" fill="#292B2E"/>
<path d="M37.0899 19.5143L37.5688 20.4996C37.6645 20.6872 37.8082 20.7811 37.9997 20.7811C38.1913 20.7811 38.335 20.6872 38.4307 20.4996L38.9096 19.5143L39.9152 19.0452C40.1068 18.9514 40.2026 18.8106 40.2026 18.6229C40.2026 18.4353 40.1068 18.2945 39.9152 18.2007L38.9096 17.7315L38.4307 16.7463C38.335 16.5587 38.1913 16.4648 37.9997 16.4648C37.8082 16.4648 37.6645 16.5587 37.5688 16.7463L37.0899 17.7315L36.0843 18.2007C35.8927 18.2945 35.7969 18.4353 35.7969 18.6229C35.7969 18.8106 35.8927 18.9514 36.0843 19.0452L37.0899 19.5143Z" fill="#292B2E"/>
<path d="M26.4594 26.178L27.7524 28.946C27.8801 29.2275 28.1035 29.3682 28.4228 29.3682C28.742 29.3682 28.9655 29.2275 29.0932 28.946L30.3862 26.178L33.2115 24.9112C33.4988 24.7861 33.6425 24.5672 33.6425 24.2544C33.6425 23.9416 33.4988 23.7227 33.2115 23.5976L30.3862 22.3309L29.0932 19.5629C28.9655 19.2814 28.742 19.1406 28.4228 19.1406C28.1035 19.1406 27.8801 19.2814 27.7524 19.5629L26.4594 22.3309L23.634 23.5976C23.3467 23.7227 23.2031 23.9416 23.2031 24.2544C23.2031 24.5672 23.3467 24.7861 23.634 24.9112L26.4594 26.178Z" fill="#292B2E"/>
<path d="M37.0899 30.7761L37.5688 31.7613C37.6645 31.949 37.8082 32.0428 37.9997 32.0428C38.1913 32.0428 38.335 31.949 38.4307 31.7613L38.9096 30.7761L39.9152 30.3069C40.1068 30.2131 40.2026 30.0723 40.2026 29.8847C40.2026 29.697 40.1068 29.5563 39.9152 29.4624L38.9096 28.9933L38.4307 28.0081C38.335 27.8204 38.1913 27.7266 37.9997 27.7266C37.8082 27.7266 37.6645 27.8204 37.5688 28.0081L37.0899 28.9933L36.0843 29.4624C35.8927 29.5563 35.7969 29.697 35.7969 29.8847C35.7969 30.0723 35.8927 30.2131 36.0843 30.3069L37.0899 30.7761Z" fill="#292B2E"/>
<path d="M14.5265 37.8736V39.1814C14.5265 39.4429 14.6353 39.6826 14.8533 39.9006C15.0712 40.1185 15.311 40.2275 15.5725 40.2275H31.2649C31.5264 40.2275 31.7662 40.1185 31.9841 39.9006C32.2021 39.6826 32.3111 39.4429 32.3111 39.1814V37.8736H14.5265ZM14.5265 37.8736V40.2275M14.5265 11.1967H32.3111V9.88898C32.3111 9.62746 32.2021 9.38772 31.9841 9.16975C31.7662 8.95181 31.5264 8.84284 31.2649 8.84284H15.5725C15.311 8.84284 15.0712 8.95181 14.8533 9.16975C14.6353 9.38772 14.5265 9.62746 14.5265 9.88898V11.1967ZM14.5265 11.1967V8.84284M15.5725 41.5352C14.9367 41.5352 14.3854 41.3018 13.9187 40.8352C13.452 40.3685 13.2188 39.8172 13.2188 39.1813V9.88894C13.2188 9.25308 13.452 8.70181 13.9187 8.23513C14.3854 7.76848 14.9367 7.53516 15.5725 7.53516H31.2649C31.9008 7.53516 32.4521 7.7685 32.9188 8.23518C33.3855 8.70186 33.6188 9.25312 33.6188 9.88898V14.5902C33.6188 14.9513 33.3261 15.244 32.965 15.244C32.6039 15.244 32.3111 14.9513 32.3111 14.5902V12.5044H14.5265V36.5659H32.3111V34.4802C32.3111 34.119 32.6039 33.8263 32.965 33.8263C33.3261 33.8263 33.6188 34.119 33.6188 34.4802V39.1814C33.6188 39.8172 33.3855 40.3685 32.9188 40.8352C32.4521 41.3018 31.9008 41.5352 31.2649 41.5352H15.5725ZM37.5718 20.5003L37.0929 19.515L36.0873 19.0459C35.8957 18.9521 35.7999 18.8113 35.7999 18.6236C35.7999 18.436 35.8957 18.2952 36.0873 18.2014L37.0929 17.7322L37.5718 16.747C37.6675 16.5594 37.8113 16.4655 38.0028 16.4655C38.1944 16.4655 38.3381 16.5594 38.4338 16.747L38.9127 17.7322L39.9183 18.2014C40.1099 18.2952 40.2057 18.436 40.2057 18.6236C40.2057 18.8113 40.1099 18.9521 39.9183 19.0459L38.9127 19.515L38.4338 20.5003C38.3381 20.6879 38.1944 20.7818 38.0028 20.7818C37.8113 20.7818 37.6675 20.6879 37.5718 20.5003ZM27.7549 28.9451L26.462 26.1771L23.6366 24.9103C23.3493 24.7852 23.2057 24.5663 23.2057 24.2535C23.2057 23.9407 23.3493 23.7218 23.6366 23.5967L26.462 22.33L27.7549 19.562C27.8826 19.2805 28.1061 19.1397 28.4254 19.1397C28.7446 19.1397 28.9681 19.2805 29.0958 19.562L30.3888 22.33L33.2141 23.5967C33.5014 23.7218 33.6451 23.9407 33.6451 24.2535C33.6451 24.5663 33.5014 24.7852 33.2141 24.9103L30.3888 26.1771L29.0958 28.9451C28.9681 29.2266 28.7446 29.3673 28.4254 29.3673C28.1061 29.3673 27.8826 29.2266 27.7549 28.9451ZM37.5718 31.76L37.0929 30.7748L36.0873 30.3056C35.8957 30.2118 35.7999 30.071 35.7999 29.8834C35.7999 29.6957 35.8957 29.555 36.0873 29.4611L37.0929 28.992L37.5718 28.0068C37.6675 27.8191 37.8113 27.7253 38.0028 27.7253C38.1944 27.7253 38.3381 27.8191 38.4338 28.0068L38.9127 28.992L39.9183 29.4611C40.1099 29.555 40.2057 29.6957 40.2057 29.8834C40.2057 30.071 40.1099 30.2118 39.9183 30.3056L38.9127 30.7748L38.4338 31.76C38.3381 31.9477 38.1944 32.0415 38.0028 32.0415C37.8113 32.0415 37.6675 31.9477 37.5718 31.76Z" stroke="#292B2E" stroke-width="0.31875"/>
</g>
</g>
<defs>
<clipPath id="clip0_396_20035">
<rect width="48" height="48" fill="white" transform="translate(0.410156 0.941406)"/>
</clipPath>
<clipPath id="clip1_396_20035">
<rect width="48" height="48" fill="white" transform="translate(0.410156 0.941406)"/>
</clipPath>
</defs>
</svg>
