<svg width="111" height="23" viewBox="0 0 111 23" fill="none" xmlns="http://www.w3.org/2000/svg">
<path d="M0.974609 0.742188H11.5913C12.2275 0.742188 12.8737 0.841595 13.5297 1.04041C14.1858 1.23922 14.7823 1.57721 15.3191 2.05436C15.8559 2.53152 16.2933 3.16772 16.6312 3.96298C16.9692 4.73836 17.1382 5.70261 17.1382 6.85573C17.1382 7.88956 16.9593 8.79417 16.6014 9.56954C16.2634 10.325 15.8161 10.9513 15.2594 11.4483C14.7226 11.9454 14.1063 12.3132 13.4104 12.5518C12.7146 12.7903 12.0287 12.9096 11.3527 12.9096H3.77789V21.9756H0.974609V0.742188ZM3.77789 10.4642H10.2791C11.4919 10.4642 12.4661 10.1859 13.2017 9.62919C13.9572 9.05263 14.3349 8.1182 14.3349 6.82591C14.3349 5.63302 14.0467 4.72841 13.4701 4.11209C12.9134 3.49577 11.979 3.1876 10.6668 3.1876H3.77789V10.4642Z" fill="#656565"/>
<path d="M31.2406 21.9756H28.7952V20.0669H28.7355C28.2783 20.7827 27.7017 21.3394 27.0059 21.737C26.31 22.1346 25.4949 22.3334 24.5604 22.3334C23.8447 22.3334 23.1787 22.244 22.5624 22.065C21.946 21.906 21.4092 21.6276 20.952 21.23C20.5146 20.8125 20.1666 20.2757 19.9082 19.6196C19.6497 18.9436 19.5205 18.1086 19.5205 17.1145V7.72057H21.9659V17.1145C21.9659 18.1285 22.2443 18.8741 22.8009 19.3512C23.3576 19.8284 24.0833 20.0669 24.978 20.0669C26.1112 20.0669 27.0257 19.729 27.7216 19.053C28.4373 18.377 28.7952 17.4625 28.7952 16.3094V7.72057H31.2406V21.9756Z" fill="#656565"/>
<path d="M34.9253 0.742188H37.3707V21.9756H34.9253V0.742188Z" fill="#656565"/>
<path d="M42.7417 16.9654C42.7417 17.6215 42.861 18.1782 43.0996 18.6355C43.3381 19.0729 43.6463 19.4307 44.0241 19.7091C44.4217 19.9675 44.8591 20.1564 45.3362 20.2757C45.8134 20.3751 46.3005 20.4248 46.7975 20.4248C47.0759 20.4248 47.394 20.395 47.7518 20.3353C48.1296 20.2757 48.4775 20.1564 48.7956 19.9775C49.1336 19.7985 49.4119 19.55 49.6306 19.2319C49.8692 18.9138 49.9885 18.4963 49.9885 17.9794C49.9885 17.3829 49.7599 16.9456 49.3026 16.6672C48.8453 16.369 48.2687 16.1404 47.5729 15.9813C46.877 15.8024 46.1315 15.6433 45.3362 15.5042C44.541 15.365 43.7954 15.1562 43.0996 14.8779C42.4037 14.5995 41.8272 14.2019 41.3699 13.685C40.9126 13.1681 40.684 12.4424 40.684 11.508C40.684 10.7923 40.843 10.1759 41.1611 9.65901C41.4792 9.12221 41.8967 8.68482 42.4137 8.34684C42.9306 8.00885 43.5071 7.76033 44.1433 7.60128C44.7796 7.44223 45.4158 7.36271 46.052 7.36271C46.5291 7.36271 47.1156 7.43229 47.8115 7.57146C48.5272 7.71063 49.2032 7.95915 49.8394 8.31701C50.4756 8.67488 51.0223 9.15203 51.4796 9.74848C51.9369 10.3449 52.1655 11.1004 52.1655 12.015L49.7201 12.343C49.7201 11.8261 49.6207 11.3788 49.4219 11.001C49.2231 10.6034 48.9547 10.2853 48.6167 10.0467C48.2986 9.78824 47.9208 9.59937 47.4834 9.48008C47.0659 9.34091 46.6285 9.27132 46.1713 9.27132C45.8333 9.27132 45.4853 9.30114 45.1275 9.36079C44.7696 9.42043 44.4416 9.52978 44.1433 9.68883C43.8451 9.84788 43.5966 10.0666 43.3978 10.3449C43.2189 10.6034 43.1294 10.9513 43.1294 11.3887C43.1294 11.9255 43.358 12.3331 43.8153 12.6114C44.2925 12.8699 44.879 13.0886 45.5748 13.2675C46.2905 13.4464 47.056 13.6154 47.8711 13.7745C48.6863 13.9335 49.4417 14.1622 50.1376 14.4604C50.8533 14.7586 51.4398 15.186 51.8971 15.7427C52.3743 16.2795 52.6128 17.0151 52.6128 17.9496C52.6128 18.7051 52.4339 19.3612 52.076 19.9178C51.7381 20.4546 51.2708 20.902 50.6744 21.2598C50.0978 21.6177 49.4418 21.8861 48.7061 22.065C47.9705 22.244 47.215 22.3334 46.4397 22.3334C45.6643 22.3334 44.9088 22.234 44.1732 22.0352C43.4574 21.8563 42.8113 21.568 42.2347 21.1704C41.6582 20.7727 41.181 20.2558 40.8033 19.6196C40.4255 18.9635 40.1969 18.1881 40.1174 17.2935L42.7417 16.9654Z" fill="#656565"/>
<path d="M57.1889 15.3849C57.1889 16.1006 57.2784 16.7666 57.4573 17.3829C57.6561 17.9794 57.9345 18.5062 58.2923 18.9635C58.6502 19.4208 59.0975 19.7787 59.6343 20.0371C60.1711 20.2956 60.7875 20.4248 61.4833 20.4248C63.6106 20.4248 64.9427 19.3612 65.4795 17.2338L67.8951 17.5321C67.4378 19.1425 66.6326 20.3453 65.4795 21.1405C64.3462 21.9358 62.9844 22.3334 61.3938 22.3334C60.3004 22.3533 59.3262 22.1744 58.4713 21.7966C57.6362 21.399 56.9205 20.8721 56.3241 20.2161C55.7475 19.5401 55.3101 18.7548 55.0119 17.8601C54.7137 16.9456 54.5646 15.9813 54.5646 14.9674C54.5646 13.8142 54.7037 12.7705 54.9821 11.836C55.2604 10.9016 55.6779 10.1063 56.2346 9.45026C56.7913 8.77429 57.4971 8.25737 58.352 7.8995C59.2069 7.54164 60.2109 7.36271 61.364 7.36271C62.4774 7.36271 63.4516 7.55158 64.2866 7.92933C65.1216 8.30707 65.8075 8.83393 66.3443 9.5099C66.901 10.1859 67.3185 10.9811 67.5968 11.8957C67.8752 12.7903 68.0144 13.7645 68.0144 14.8182V15.3849H57.1889ZM65.39 13.4762C65.3105 12.8997 65.1713 12.3529 64.9725 11.836C64.7737 11.3191 64.4953 10.8718 64.1375 10.494C63.7796 10.1163 63.3522 9.81806 62.8551 9.59937C62.3581 9.38067 61.7716 9.27132 61.0956 9.27132C60.4992 9.27132 59.9624 9.39061 59.4852 9.62919C59.0279 9.86777 58.6303 10.1859 58.2923 10.5835C57.9742 10.9612 57.7158 11.4086 57.517 11.9255C57.338 12.4225 57.2287 12.9394 57.1889 13.4762H65.39Z" fill="#656565"/>
<path d="M70.8342 0.742188H73.2796V21.9756H70.8342V0.742188Z" fill="#656565"/>
<path d="M76.9209 7.72057H79.3663V21.9756H76.9209V7.72057ZM76.9209 0.742188H79.3663V3.54547H76.9209V0.742188Z" fill="#656565"/>
<path d="M83.0673 7.72057H85.5127V9.62919H85.5724C86.0297 8.91346 86.6062 8.35678 87.3021 7.95915C87.9979 7.56152 88.8131 7.36271 89.7475 7.36271C90.4632 7.36271 91.1292 7.45217 91.7456 7.6311C92.3619 7.79016 92.8887 8.07844 93.3261 8.49595C93.7834 8.89358 94.1413 9.43037 94.3997 10.1063C94.6582 10.7624 94.7874 11.5875 94.7874 12.5816V21.9756H92.342V12.8202C92.342 12.2038 92.2625 11.6969 92.1034 11.2992C91.9643 10.8817 91.7555 10.5537 91.4772 10.3151C91.2187 10.0566 90.9006 9.87771 90.5229 9.7783C90.165 9.67889 89.7674 9.62919 89.33 9.62919C88.1967 9.62919 87.2722 9.96717 86.5565 10.6431C85.8607 11.3191 85.5127 12.2337 85.5127 13.3868V21.9756H83.0673V7.72057Z" fill="#656565"/>
<path d="M98.5317 0.742188H100.977V13.8341L106.584 7.78022H109.536L104.347 13.4166L110.759 21.9756H107.687L102.677 15.1761L100.977 16.9953V21.9756H98.5317V0.742188Z" fill="#656565"/>
</svg>
