<svg width="147" height="30" viewBox="0 0 147 30" fill="none" xmlns="http://www.w3.org/2000/svg">
<path d="M0.580078 0.628906H14.6504C15.4936 0.628906 16.3499 0.762396 17.2194 1.02937C18.0889 1.29635 18.8794 1.75022 19.5908 2.39097C20.3022 3.03172 20.8819 3.88605 21.3298 4.95397C21.7778 5.99519 22.0017 7.29004 22.0017 8.83852C22.0017 10.2268 21.7646 11.4416 21.2903 12.4828C20.8424 13.4973 20.2495 14.3383 19.5118 15.0057C18.8003 15.6732 17.9835 16.1671 17.0613 16.4875C16.1391 16.8079 15.2301 16.968 14.3342 16.968H4.29527V29.1423H0.580078V0.628906ZM4.29527 13.6842H12.9114C14.5186 13.6842 15.8097 13.3104 16.7846 12.5629C17.7859 11.7886 18.2865 10.5338 18.2865 8.79847C18.2865 7.1966 17.9045 5.98184 17.1404 5.1542C16.4026 4.32657 15.1642 3.91275 13.4252 3.91275H4.29527V13.6842Z" fill="#656565"/>
<path d="M40.6916 29.1423H37.4507V26.5793H37.3717C36.7657 27.5404 36.0015 28.288 35.0793 28.8219C34.1571 29.3559 33.0768 29.6229 31.8384 29.6229C30.8898 29.6229 30.0072 29.5027 29.1903 29.2624C28.3735 29.0489 27.6621 28.6751 27.0561 28.1411C26.4764 27.5805 26.0153 26.8596 25.6728 25.9786C25.3302 25.0709 25.159 23.9495 25.159 22.6147V9.99988H28.3999V22.6147C28.3999 23.9762 28.7688 24.9774 29.5065 25.6182C30.2443 26.2589 31.206 26.5793 32.3917 26.5793C33.8936 26.5793 35.1057 26.1254 36.0279 25.2177C36.9764 24.31 37.4507 23.0819 37.4507 21.5334V9.99988H40.6916V29.1423Z" fill="#656565"/>
<path d="M45.5749 0.628906H48.8158V29.1423H45.5749V0.628906Z" fill="#656565"/>
<path d="M55.9341 22.4144C55.9341 23.2954 56.0922 24.043 56.4083 24.657C56.7245 25.2444 57.1329 25.725 57.6336 26.0987C58.1605 26.4458 58.7402 26.6994 59.3726 26.8596C60.005 26.9931 60.6505 27.0599 61.3092 27.0599C61.6781 27.0599 62.0997 27.0198 62.574 26.9397C63.0746 26.8596 63.5357 26.6994 63.9573 26.4592C64.4052 26.2189 64.7741 25.8851 65.0639 25.458C65.3801 25.0308 65.5382 24.4702 65.5382 23.776C65.5382 22.9751 65.2352 22.3877 64.6292 22.0139C64.0232 21.6135 63.2591 21.3065 62.3368 21.0929C61.4146 20.8526 60.4265 20.639 59.3726 20.4521C58.3186 20.2652 57.3306 19.9849 56.4083 19.6111C55.4861 19.2374 54.722 18.7034 54.116 18.0093C53.51 17.3151 53.2069 16.3406 53.2069 15.0858C53.2069 14.1247 53.4177 13.2971 53.8393 12.6029C54.2609 11.8821 54.8142 11.2947 55.4993 10.8409C56.1844 10.387 56.9485 10.0533 57.7917 9.83969C58.6348 9.62611 59.478 9.51932 60.3212 9.51932C60.9535 9.51932 61.7308 9.61276 62.653 9.79964C63.6016 9.98653 64.4975 10.3203 65.3406 10.8008C66.1838 11.2814 66.9084 11.9221 67.5144 12.7231C68.1204 13.524 68.4234 14.5385 68.4234 15.7666L65.1825 16.2071C65.1825 15.513 65.0508 14.9123 64.7873 14.405C64.5238 13.8711 64.1681 13.4439 63.7202 13.1235C63.2986 12.7765 62.7979 12.5228 62.2183 12.3626C61.6649 12.1758 61.0853 12.0823 60.4792 12.0823C60.0313 12.0823 59.5702 12.1224 59.0959 12.2025C58.6216 12.2826 58.1869 12.4294 57.7917 12.643C57.3964 12.8566 57.0671 13.1502 56.8036 13.524C56.5664 13.8711 56.4479 14.3383 56.4479 14.9256C56.4479 15.6465 56.7509 16.1938 57.3569 16.5676C57.9893 16.9146 58.7666 17.2083 59.6888 17.4486C60.6373 17.6889 61.6518 17.9158 62.7321 18.1294C63.8124 18.343 64.8136 18.65 65.7358 19.0505C66.6844 19.4509 67.4617 20.025 68.0677 20.7725C68.7001 21.4933 69.0163 22.4812 69.0163 23.736C69.0163 24.7505 68.7791 25.6315 68.3049 26.3791C67.8569 27.0999 67.2377 27.7006 66.4473 28.1812C65.6832 28.6617 64.8136 29.0222 63.8387 29.2624C62.8638 29.5027 61.8626 29.6229 60.835 29.6229C59.8073 29.6229 58.8061 29.4894 57.8312 29.2224C56.8826 28.9821 56.0263 28.595 55.2622 28.061C54.498 27.5271 53.8657 26.8329 53.365 25.9786C52.8644 25.0976 52.5614 24.0563 52.456 22.8549L55.9341 22.4144Z" fill="#656565"/>
<path d="M75.081 20.2919C75.081 21.2531 75.1995 22.1474 75.4367 22.9751C75.7002 23.776 76.069 24.4835 76.5433 25.0976C77.0176 25.7116 77.6105 26.1922 78.3219 26.5392C79.0333 26.8863 79.8501 27.0599 80.7723 27.0599C83.5917 27.0599 85.357 25.6315 86.0685 22.7748L89.2698 23.1753C88.6638 25.3378 87.5967 26.9531 86.0685 28.021C84.5666 29.0889 82.7617 29.6229 80.6537 29.6229C79.2046 29.6496 77.9135 29.4093 76.7805 28.902C75.6738 28.3681 74.7252 27.6606 73.9348 26.7795C73.1707 25.8718 72.591 24.8172 72.1958 23.6158C71.8005 22.3877 71.6029 21.0929 71.6029 19.7313C71.6029 18.1828 71.7873 16.7812 72.1562 15.5264C72.5251 14.2715 73.0784 13.2036 73.8162 12.3226C74.554 11.4149 75.4894 10.7207 76.6224 10.2402C77.7554 9.7596 79.086 9.51932 80.6142 9.51932C82.0898 9.51932 83.3809 9.77295 84.4875 10.2802C85.5942 10.7875 86.5032 11.495 87.2146 12.4027C87.9524 13.3104 88.5057 14.3783 88.8746 15.6064C89.2435 16.8079 89.4279 18.116 89.4279 19.531V20.2919H75.081ZM85.9499 17.7289C85.8445 16.9547 85.66 16.2205 85.3966 15.5264C85.1331 14.8322 84.7642 14.2315 84.2899 13.7242C83.8156 13.217 83.2491 12.8165 82.5904 12.5228C81.9317 12.2292 81.1544 12.0823 80.2585 12.0823C79.468 12.0823 78.7566 12.2425 78.1243 12.5629C77.5182 12.8833 76.9913 13.3104 76.5433 13.8444C76.1217 14.3516 75.7792 14.9523 75.5157 15.6465C75.2786 16.3139 75.1337 17.0081 75.081 17.7289H85.9499Z" fill="#656565"/>
<path d="M93.165 0.628906H96.4059V29.1423H93.165V0.628906Z" fill="#656565"/>
<path d="M101.232 9.99988H104.473V29.1423H101.232V9.99988ZM101.232 0.628906H104.473V4.39331H101.232V0.628906Z" fill="#656565"/>
<path d="M109.378 9.99988H112.619V12.5629H112.698C113.304 11.6018 114.068 10.8542 114.99 10.3203C115.912 9.7863 116.992 9.51932 118.231 9.51932C119.179 9.51932 120.062 9.63946 120.879 9.87974C121.696 10.0933 122.394 10.4804 122.974 11.0411C123.58 11.5751 124.054 12.2959 124.397 13.2036C124.739 14.0847 124.91 15.1926 124.91 16.5275V29.1423H121.669V16.8479C121.669 16.0203 121.564 15.3395 121.353 14.8055C121.169 14.2448 120.892 13.8043 120.523 13.484C120.181 13.1369 119.759 12.8966 119.258 12.7631C118.784 12.6296 118.257 12.5629 117.678 12.5629C116.176 12.5629 114.95 13.0167 114.002 13.9245C113.08 14.8322 112.619 16.0603 112.619 17.6088V29.1423H109.378V9.99988Z" fill="#656565"/>
<path d="M129.873 0.628906H133.114V18.2095L140.544 10.08H144.457L137.58 17.6488L146.077 29.1423H142.006L135.366 20.0116L133.114 22.4545V29.1423H129.873V0.628906Z" fill="#656565"/>
</svg>
