<svg width="360" height="204" viewBox="0 0 360 204" fill="none" xmlns="http://www.w3.org/2000/svg">
<g clip-path="url(#clip0_396_20060)">
<path d="M305.066 101.477C319.11 109.585 337.067 104.773 345.174 90.7301C353.282 76.6869 348.471 58.7299 334.428 50.622C320.384 42.5141 302.427 47.3257 294.319 61.369C286.212 75.4122 291.023 93.3692 305.066 101.477Z" fill="white" stroke="#292B2E" stroke-width="1.42253" stroke-linecap="round" stroke-linejoin="round"/>
<path d="M317.987 80.3691C317.594 80.3691 317.26 80.2319 316.984 79.9575C316.71 79.682 316.573 79.3479 316.573 78.9552V73.9279C316.573 73.5352 316.71 73.2011 316.984 72.9256C317.26 72.6512 317.594 72.514 317.987 72.514H323.014C323.407 72.514 323.741 72.6512 324.016 72.9256C324.291 73.2011 324.428 73.5352 324.428 73.9279V78.9552C324.428 79.3479 324.291 79.682 324.016 79.9575C323.741 80.2319 323.407 80.3691 323.014 80.3691H317.987ZM317.358 89.4417C317.018 89.4417 316.737 89.3301 316.515 89.107C316.291 88.885 316.18 88.6038 316.18 88.2634V86.6531H313.116C312.331 86.6531 311.663 86.3782 311.113 85.8283C310.564 85.2785 310.289 84.6108 310.289 83.8253V80.7618H308.678C308.338 80.7618 308.057 80.6503 307.835 80.4272C307.612 80.2052 307.5 79.924 307.5 79.5836C307.5 79.2432 307.612 78.9614 307.835 78.7384C308.057 78.5163 308.338 78.4053 308.678 78.4053H310.289V74.4778H308.678C308.338 74.4778 308.057 74.3662 307.835 74.1432C307.612 73.9211 307.5 73.6399 307.5 73.2995C307.5 72.9591 307.612 72.6774 307.835 72.4543C308.057 72.2323 308.338 72.1213 308.678 72.1213H310.289V69.0578C310.289 68.2723 310.564 67.6046 311.113 67.0547C311.663 66.5049 312.331 66.23 313.116 66.23H316.18V64.6197C316.18 64.2793 316.291 63.9976 316.515 63.7745C316.737 63.5524 317.018 63.4414 317.358 63.4414C317.699 63.4414 317.98 63.5524 318.203 63.7745C318.425 63.9976 318.536 64.2793 318.536 64.6197V66.23H322.464V64.6197C322.464 64.2793 322.576 63.9976 322.799 63.7745C323.021 63.5524 323.302 63.4414 323.642 63.4414C323.983 63.4414 324.264 63.5524 324.487 63.7745C324.709 63.9976 324.82 64.2793 324.82 64.6197V66.23H327.884C328.669 66.23 329.337 66.5049 329.887 67.0547C330.437 67.6046 330.712 68.2723 330.712 69.0578V72.1213H332.322C332.662 72.1213 332.944 72.2323 333.166 72.4543C333.389 72.6774 333.5 72.9591 333.5 73.2995C333.5 73.6399 333.389 73.9211 333.166 74.1432C332.944 74.3662 332.662 74.4778 332.322 74.4778H330.712V78.4053H332.322C332.662 78.4053 332.944 78.5163 333.166 78.7384C333.389 78.9614 333.5 79.2432 333.5 79.5836C333.5 79.924 333.389 80.2052 333.166 80.4272C332.944 80.6503 332.662 80.7618 332.322 80.7618H330.712V83.8253C330.712 84.6108 330.437 85.2785 329.887 85.8283C329.337 86.3782 328.669 86.6531 327.884 86.6531H324.82V88.2634C324.82 88.6038 324.709 88.885 324.487 89.107C324.264 89.3301 323.983 89.4417 323.642 89.4417C323.302 89.4417 323.021 89.3301 322.799 89.107C322.576 88.885 322.464 88.6038 322.464 88.2634V86.6531H318.536V88.2634C318.536 88.6038 318.425 88.885 318.203 89.107C317.98 89.3301 317.699 89.4417 317.358 89.4417ZM313.116 84.2966H327.884C327.989 84.2966 328.093 84.2442 328.198 84.1395C328.303 84.0348 328.355 83.93 328.355 83.8253V69.0578C328.355 68.9531 328.303 68.8483 328.198 68.7436C328.093 68.6388 327.989 68.5865 327.884 68.5865H313.116C313.012 68.5865 312.907 68.6388 312.802 68.7436C312.697 68.8483 312.645 68.9531 312.645 69.0578V83.8253C312.645 83.93 312.697 84.0348 312.802 84.1395C312.907 84.2442 313.012 84.2966 313.116 84.2966ZM318.929 78.0126H322.071V74.8705H318.929V78.0126Z" fill="#292B2E"/>
<path d="M299.753 199.093V77.6053C299.753 76.8412 299.407 76.1182 298.813 75.638L207.92 2.21402C206.999 1.46973 205.684 1.46464 204.757 2.20178L112.396 75.6378C111.792 76.1176 111.441 76.8464 111.441 77.6173V199.093C111.441 200.665 112.714 201.938 114.286 201.938H296.908C298.479 201.938 299.753 200.665 299.753 199.093Z" fill="#292B2E" stroke="#292B2E" stroke-width="1.42253" stroke-miterlimit="10" stroke-linecap="round" stroke-linejoin="round"/>
<path d="M111.441 77.5664H298.455V158.087H111.441V77.5664Z" fill="#292B2E" stroke="#292B2E" stroke-width="1.42253"/>
<path d="M262.352 27.1678V125.625C262.352 127.651 260.71 129.293 258.685 129.293H154.004C151.978 129.293 150.336 127.651 150.336 125.625V108.489V27.1678C150.336 25.1422 151.978 23.5 154.004 23.5H258.685C260.71 23.5 262.352 25.1422 262.352 27.1678Z" fill="white" stroke="#292B2E" stroke-width="1.42253" stroke-linecap="round" stroke-linejoin="round"/>
<path d="M200.47 71.7812H187.013C185.834 71.7812 184.879 72.7366 184.879 73.915V87.3725C184.879 88.5509 185.834 89.5062 187.013 89.5062H200.47C201.649 89.5062 202.604 88.5509 202.604 87.3725V73.915C202.604 72.7366 201.649 71.7812 200.47 71.7812Z" stroke="#292B2E" stroke-width="1.42253"/>
<path d="M224.814 71.7812H211.356C210.178 71.7812 209.223 72.7366 209.223 73.915V87.3725C209.223 88.5509 210.178 89.5062 211.356 89.5062H224.814C225.992 89.5062 226.948 88.5509 226.948 87.3725V73.915C226.948 72.7366 225.992 71.7812 224.814 71.7812Z" stroke="#292B2E" stroke-width="1.42253"/>
<path d="M200.47 93.5273H187.013C185.834 93.5273 184.879 94.4827 184.879 95.6611V109.119C184.879 110.297 185.834 111.252 187.013 111.252H200.47C201.649 111.252 202.604 110.297 202.604 109.119V95.6611C202.604 94.4827 201.649 93.5273 200.47 93.5273Z" stroke="#292B2E" stroke-width="1.42253"/>
<path fill-rule="evenodd" clip-rule="evenodd" d="M213.298 92.8164H208.512V97.6033H213.298V92.8164ZM218.086 97.6031H213.299V102.39H218.086V97.6031ZM208.512 102.39H213.299V107.177H208.512V102.39ZM222.873 92.8164H218.086V97.6031L222.873 97.6033V102.39H227.66V97.6031L222.873 97.6033V92.8164ZM218.086 107.177H213.299V111.964H218.086V107.177ZM218.086 102.39H222.873V107.177H227.66V111.964H222.873V107.177H218.086V102.39Z" fill="#292B2E"/>
<path d="M216.523 148.676H172.828" stroke="#292B2E" stroke-width="1.42253" stroke-linecap="round" stroke-linejoin="round"/>
<path d="M216.523 133.117H172.828" stroke="#292B2E" stroke-width="1.42253" stroke-linecap="round" stroke-linejoin="round"/>
<path d="M197.719 42.8672L242.97 42.8672" stroke="#292B2E" stroke-width="1.42253" stroke-linecap="round" stroke-linejoin="round"/>
<path d="M242.364 56L172.289 56.5115" stroke="#292B2E" stroke-width="1.42253" stroke-linecap="round" stroke-linejoin="round"/>
<path d="M242.971 148.676H230.391" stroke="#292B2E" stroke-width="1.42253" stroke-linecap="round" stroke-linejoin="round"/>
<path d="M242.971 133.117H230.391" stroke="#292B2E" stroke-width="1.42253" stroke-linecap="round" stroke-linejoin="round"/>
<path d="M172.828 42.8672L185.408 42.8672" stroke="#292B2E" stroke-width="1.42253" stroke-linecap="round" stroke-linejoin="round"/>
<path d="M111.441 76.3984C124.977 76.3984 138.051 81.328 148.218 90.2658L203.232 138.63L111.441 200.861" fill="#DCF4FF"/>
<path d="M111.441 76.3984V200.861L203.232 138.63L148.218 90.2658C138.051 81.328 124.977 76.3984 111.441 76.3984Z" stroke="#292B2E" stroke-width="1.42253" stroke-miterlimit="10" stroke-linecap="round" stroke-linejoin="round"/>
<path d="M299.689 76.3984C286.153 76.3984 273.079 81.328 262.912 90.2658L207.898 138.63L299.689 200.861" fill="#DCF4FF"/>
<path d="M299.689 76.3984V200.861L207.898 138.63L262.912 90.2658C273.079 81.328 286.153 76.3984 299.689 76.3984Z" stroke="#292B2E" stroke-width="1.42253" stroke-miterlimit="10" stroke-linecap="round" stroke-linejoin="round"/>
<path d="M120.419 165.443L197.534 124.032C202.569 121.328 208.624 121.328 213.659 124.032L290.774 165.443C296.303 168.413 299.753 174.181 299.753 180.457V200.096C299.753 201.667 298.479 202.941 296.908 202.941H114.286C112.714 202.941 111.441 201.667 111.441 200.096V180.457C111.441 174.181 114.89 168.413 120.419 165.443Z" fill="#DCF4FF" stroke="#292B2E" stroke-width="1.42253" stroke-miterlimit="10" stroke-linecap="round" stroke-linejoin="round"/>
<path d="M19.7461 108.344H75.2248" stroke="#292B2E" stroke-width="1.42253" stroke-linecap="round"/>
<path d="M1.25391 142.484H92.2959" stroke="#292B2E" stroke-width="1.42253" stroke-linecap="round"/>
<path d="M41.0859 178.047H75.2266" stroke="#292B2E" stroke-width="1.42253" stroke-linecap="round"/>
<path d="M89.1637 62.7375C100.457 58.9943 106.554 46.7342 102.781 35.3539C99.0088 23.9735 86.7961 17.7823 75.5033 21.5255C64.2104 25.2687 58.1138 37.5288 61.886 48.9092C65.6582 60.2896 77.8708 66.4807 89.1637 62.7375Z" fill="white" stroke="#292B2E" stroke-width="1.42253" stroke-linecap="round" stroke-linejoin="round"/>
<path d="M73.1133 51.6555C76.0765 55.0625 81.4652 56.7415 86.6122 55.0354C91.7593 53.3294 95.0782 48.7641 95.4197 44.2617" fill="white"/>
<path d="M73.1133 51.6555L95.4197 44.2617C95.0782 48.7641 91.7593 53.3294 86.6122 55.0354C81.4652 56.7415 76.0765 55.0625 73.1133 51.6555Z" stroke="#292B2E" stroke-width="1.42253" stroke-linecap="round" stroke-linejoin="round"/>
<path d="M76.5497 39.888C75.9173 39.5125 75.2322 39.2748 74.5345 39.1887C73.8368 39.1026 73.1406 39.1699 72.4866 39.3867C71.8326 39.6035 71.234 39.9653 70.7259 40.4511C70.2177 40.9369 69.8103 41.5368 69.5273 42.2157" stroke="#292B2E" stroke-width="1.42253" stroke-linecap="round" stroke-linejoin="round"/>
<path d="M92.6591 34.552C92.0267 34.1765 91.3415 33.9387 90.6438 33.8527C89.9462 33.7666 89.2499 33.8339 88.596 34.0507C87.942 34.2675 87.3434 34.6293 86.8353 35.1151C86.3271 35.6009 85.9197 36.2008 85.6367 36.8797" stroke="#292B2E" stroke-width="1.42253" stroke-linecap="round" stroke-linejoin="round"/>
</g>
<defs>
<clipPath id="clip0_396_20060">
<rect width="360" height="203" fill="white" transform="translate(0 0.941406)"/>
</clipPath>
</defs>
</svg>
