<svg width="24" height="18" viewBox="0 0 24 18" fill="none" xmlns="http://www.w3.org/2000/svg">
<g clip-path="url(#clip0_396_16035)">
<g clip-path="url(#clip1_396_16035)">
<g clip-path="url(#clip2_396_16035)">
<path d="M23.605 1.61056C23.605 2.0194 23.3497 2.32452 22.9927 2.42826C19.2652 3.34767 17.4287 5.59328 17.4287 9.2191C17.4287 10.5474 17.8376 11.2613 18.6034 11.2613C18.7569 11.2613 19.0122 11.2095 19.2675 11.1596C19.778 11.0061 20.1869 10.9562 20.5439 10.9562C21.565 10.9562 22.4325 11.2633 23.0448 11.9254C23.657 12.5895 23.9642 13.3554 23.9642 14.171C23.9642 14.9887 23.657 15.7546 23.0448 16.4167C22.4325 17.0808 21.6148 17.3859 20.5937 17.3859C19.2156 17.3859 18.041 16.7218 17.0198 15.4453C15.9987 14.169 15.4882 12.4339 15.4882 10.2877C15.4882 7.83671 16.2022 5.6928 17.6321 3.95794C18.8566 2.47816 20.5419 1.40519 22.6359 0.842765C23.0448 0.693189 23.605 1.05016 23.605 1.61056ZM9.05424 1.61056C9.05424 2.0194 8.79897 2.32452 8.44199 2.42826C4.71455 3.34766 2.878 5.59328 2.878 9.2191C2.878 10.5474 3.28684 11.2613 4.1025 11.2613C4.25607 11.2613 4.45949 11.2095 4.76663 11.1596C5.27718 11.0061 5.68603 10.9562 6.04301 10.9562C7.06411 10.9562 7.8818 11.2633 8.54389 11.9254C9.15615 12.5895 9.46329 13.3554 9.46329 14.171C9.46329 14.9368 9.15617 15.7027 8.54389 16.3668C7.93164 17.0309 7.11394 17.3879 6.04301 17.3879C4.66493 17.3879 3.49025 16.7238 2.46916 15.4474C1.44805 14.171 0.9375 12.4359 0.9375 10.2899C0.9375 7.83875 1.65145 5.69484 3.08141 3.95998C4.30591 2.4802 5.94131 1.40723 8.03334 0.844807C8.54389 0.693235 9.05424 1.05015 9.05424 1.61056Z" fill="#292B2E"/>
</g>
</g>
</g>
<defs>
<clipPath id="clip0_396_16035">
<rect width="24" height="17.27" fill="white" transform="translate(0 0.5)"/>
</clipPath>
<clipPath id="clip1_396_16035">
<rect width="24" height="17.27" fill="white" transform="translate(0 0.5)"/>
</clipPath>
<clipPath id="clip2_396_16035">
<rect width="23.9861" height="17.27" fill="white" transform="translate(0.0078125 0.5)"/>
</clipPath>
</defs>
</svg>
