<svg width="18" height="13" viewBox="0 0 18 13" fill="none" xmlns="http://www.w3.org/2000/svg">
<g clip-path="url(#clip0_396_16906)">
<g clip-path="url(#clip1_396_16906)">
<g clip-path="url(#clip2_396_16906)">
<path d="M16.6171 6.14058C16.6171 6.2408 16.6028 6.3373 16.5742 6.43008C16.5456 6.52343 16.4883 6.6059 16.4024 6.67749L11.6561 11.4238C11.5415 11.5527 11.3946 11.6171 11.2154 11.6171C11.0367 11.6171 10.8829 11.5527 10.7541 11.4238C10.6395 11.295 10.5823 11.1409 10.5823 10.9616C10.5823 10.783 10.6395 10.6292 10.7541 10.5003L14.491 6.78487H1.26148C1.07535 6.78487 0.921295 6.72388 0.799308 6.60189C0.677894 6.48048 0.617188 6.32671 0.617188 6.14058C0.617188 5.95445 0.677894 5.80039 0.799308 5.6784C0.921295 5.55699 1.07535 5.49628 1.26148 5.49628H14.491L10.7541 1.75937C10.6395 1.64483 10.5786 1.49793 10.5711 1.31867C10.5642 1.13998 10.6252 0.98621 10.7541 0.857351C10.8829 0.728491 11.0367 0.664062 11.2154 0.664062C11.3946 0.664062 11.5415 0.728491 11.6561 0.857351L16.4024 5.60366C16.4883 5.67525 16.5456 5.75743 16.5742 5.85021C16.6028 5.94356 16.6171 6.04035 16.6171 6.14058Z" fill="#292B2E"/>
</g>
</g>
</g>
<defs>
<clipPath id="clip0_396_16906">
<rect width="17" height="12" fill="white" transform="translate(0.589844 0.140625)"/>
</clipPath>
<clipPath id="clip1_396_16906">
<rect width="17" height="12" fill="white" transform="translate(0.589844 0.140625)"/>
</clipPath>
<clipPath id="clip2_396_16906">
<rect width="17" height="12" fill="white" transform="translate(0.589844 0.140625)"/>
</clipPath>
</defs>
</svg>
