<svg width="18" height="13" viewBox="0 0 18 13" fill="none" xmlns="http://www.w3.org/2000/svg">
<g clip-path="url(#clip0_396_15732)">
<g clip-path="url(#clip1_396_15732)">
<g clip-path="url(#clip2_396_15732)">
<path d="M16.7265 6.7812C16.7265 6.88142 16.7122 6.97792 16.6836 7.0707C16.655 7.16405 16.5977 7.24652 16.5118 7.31811L11.7655 12.0644C11.6509 12.1933 11.504 12.2577 11.3248 12.2577C11.1461 12.2577 10.9923 12.1933 10.8635 12.0644C10.7489 11.9356 10.6917 11.7815 10.6917 11.6022C10.6917 11.4236 10.7489 11.2698 10.8635 11.1409L14.6004 7.42549H1.37086C1.18473 7.42549 1.03067 7.3645 0.908683 7.24251C0.787269 7.1211 0.726562 6.96733 0.726562 6.7812C0.726562 6.59507 0.787269 6.44101 0.908683 6.31902C1.03067 6.19761 1.18473 6.1369 1.37086 6.1369H14.6004L10.8635 2.39999C10.7489 2.28545 10.6879 2.13855 10.6805 1.95929C10.6736 1.78061 10.7346 1.62684 10.8635 1.49798C10.9923 1.36912 11.1461 1.30469 11.3248 1.30469C11.504 1.30469 11.6509 1.36912 11.7655 1.49798L16.5118 6.24428C16.5977 6.31587 16.655 6.39805 16.6836 6.49083C16.7122 6.58418 16.7265 6.68097 16.7265 6.7812Z" fill="#292B2E"/>
</g>
</g>
</g>
<defs>
<clipPath id="clip0_396_15732">
<rect width="17" height="12" fill="white" transform="translate(0.699219 0.78125)"/>
</clipPath>
<clipPath id="clip1_396_15732">
<rect width="17" height="12" fill="white" transform="translate(0.699219 0.78125)"/>
</clipPath>
<clipPath id="clip2_396_15732">
<rect width="17" height="12" fill="white" transform="translate(0.699219 0.78125)"/>
</clipPath>
</defs>
</svg>
