<svg width="37" height="36" viewBox="0 0 37 36" fill="none" xmlns="http://www.w3.org/2000/svg">
<g clip-path="url(#clip0_396_15596)">
<g clip-path="url(#clip1_396_15596)">
<path d="M11.6547 18.3956C12.1644 17.4018 12.7155 16.4346 13.3079 15.4937C13.9002 14.5529 14.5455 13.6437 15.2437 12.7661L12.6768 12.2444C12.5219 12.2057 12.3719 12.2105 12.2267 12.2589C12.0815 12.3073 11.9508 12.3896 11.8347 12.5057L7.87006 16.451C7.81197 16.5091 7.79261 16.5801 7.81196 16.6639C7.83131 16.7478 7.87971 16.8027 7.95714 16.8285L11.6547 18.3956ZM29.3348 6.68657C26.7718 6.87758 24.5947 7.3967 22.8038 8.24394C21.0128 9.09123 19.2871 10.345 17.6268 12.0053C16.593 13.0391 15.6609 14.1671 14.8304 15.3893C14 16.6114 13.2834 17.88 12.6807 19.1951L17.1622 23.693C18.4773 23.0775 19.7507 22.3544 20.9825 21.5239C22.2144 20.6935 23.3472 19.7614 24.3809 18.7276C26.0412 17.0673 27.295 15.3479 28.1423 13.5695C28.9896 11.7911 29.5088 9.62034 29.6997 7.0573C29.6997 7.01213 29.6963 6.96534 29.6896 6.91695C29.6828 6.86853 29.6597 6.8182 29.6204 6.76595C29.581 6.72657 29.5381 6.70349 29.4917 6.69672C29.4451 6.68995 29.3928 6.68657 29.3348 6.68657ZM21.0668 15.3224C20.648 14.9165 20.4386 14.4175 20.4386 13.8255C20.4386 13.2335 20.648 12.728 21.0668 12.3093C21.4855 11.8905 21.9915 11.6811 22.5845 11.6811C23.1775 11.6811 23.6834 11.8905 24.1022 12.3093C24.521 12.728 24.7304 13.2335 24.7304 13.8255C24.7304 14.4175 24.521 14.9165 24.1022 15.3224C23.6834 15.7412 23.1775 15.9506 22.5845 15.9506C21.9915 15.9506 21.4855 15.7412 21.0668 15.3224ZM17.9617 24.7346L19.5288 28.4291C19.5546 28.5066 19.6094 28.5501 19.6933 28.5598C19.7772 28.5695 19.8482 28.5453 19.9062 28.4872L23.8515 24.571C23.9676 24.4548 24.0499 24.3209 24.0983 24.1693C24.1467 24.0176 24.1516 23.8709 24.1128 23.7288L23.5969 21.1426C22.7193 21.8408 21.8124 22.4898 20.8761 23.0896C19.9398 23.6893 18.9683 24.2377 17.9617 24.7346ZM30.9813 6.50265C30.9245 9.12894 30.4257 11.5105 29.4848 13.6474C28.544 15.7843 27.148 17.7848 25.2966 19.649C25.196 19.7368 25.0969 19.8268 24.9994 19.9191C24.902 20.0114 24.803 20.1014 24.7023 20.1891L25.3527 23.4578C25.4301 23.8322 25.4118 24.1905 25.2976 24.5333C25.1834 24.8759 24.9979 25.1756 24.741 25.4324L20.3718 29.821C20.0872 30.0926 19.7527 30.1903 19.3681 30.1138C18.9834 30.0374 18.7202 29.812 18.5783 29.4377L16.6898 25.0133L11.3497 19.6578L6.91953 17.7752C6.54527 17.6203 6.32845 17.3495 6.26909 16.9631C6.20971 16.5765 6.31587 16.2474 6.58753 15.9758L10.9509 11.593C11.2078 11.3362 11.5112 11.1545 11.8613 11.0481C12.2114 10.9416 12.5671 10.9271 12.9284 11.0045L16.1971 11.6549C16.2849 11.5671 16.371 11.4771 16.4556 11.3849C16.5401 11.2926 16.6327 11.2026 16.7334 11.1149C18.5847 9.25062 20.5778 7.84324 22.7127 6.89272C24.8477 5.94222 27.2283 5.44503 29.8546 5.40117C30.0094 5.3902 30.1553 5.41229 30.2921 5.46746C30.4289 5.52262 30.5547 5.60764 30.6696 5.72249C30.7844 5.85026 30.8646 5.97351 30.9102 6.09224C30.9556 6.21098 30.9793 6.34778 30.9813 6.50265ZM7.88071 24.117C8.47113 23.5136 9.18562 23.2186 10.0242 23.2318C10.8627 23.2451 11.5836 23.5468 12.187 24.1373C12.7774 24.7277 13.0712 25.4423 13.0683 26.2808C13.0654 27.1193 12.7688 27.8403 12.1783 28.4437C11.6485 28.9605 10.8343 29.4 9.73576 29.762C8.63714 30.124 7.31897 30.3766 5.78125 30.5199C5.92449 28.9821 6.17776 27.6598 6.54107 26.5528C6.90436 25.4459 7.35091 24.6339 7.88071 24.117ZM8.77407 25.0617C8.45529 25.3973 8.16492 25.9139 7.90294 26.6118C7.64097 27.3098 7.45512 28.0978 7.34542 28.976C8.22367 28.8534 9.01172 28.66 9.70957 28.3958C10.4074 28.1315 10.9242 27.8336 11.2597 27.5019C11.6146 27.1676 11.7941 26.7588 11.7979 26.2755C11.8018 25.7922 11.6282 25.373 11.2772 25.0182C10.9222 24.6671 10.5031 24.4979 10.0198 24.5105C9.5365 24.5231 9.12124 24.7068 8.77407 25.0617Z" fill="#1C1B1F"/>
</g>
</g>
<defs>
<clipPath id="clip0_396_15596">
<rect width="36" height="36" fill="white" transform="translate(0.380859)"/>
</clipPath>
<clipPath id="clip1_396_15596">
<rect width="36" height="36" fill="white" transform="translate(0.380859)"/>
</clipPath>
</defs>
</svg>
