<svg width="37" height="41" viewBox="0 0 37 41" fill="none" xmlns="http://www.w3.org/2000/svg">
<g clip-path="url(#clip0_396_16014)">
<g clip-path="url(#clip1_396_16014)">
<path d="M12.2543 20.7862C12.764 19.7925 13.3151 18.8252 13.9075 17.8844C14.4998 16.9435 15.1451 16.0343 15.8433 15.1567L13.2764 14.635C13.1215 14.5963 12.9715 14.6012 12.8263 14.6495C12.6811 14.6979 12.5504 14.7803 12.4343 14.8964L8.46967 18.8416C8.41158 18.8997 8.39222 18.9708 8.41157 19.0545C8.43092 19.1384 8.47932 19.1933 8.55675 19.2192L12.2543 20.7862ZM29.9344 9.07719C27.3714 9.26821 25.1943 9.78733 23.4034 10.6346C21.6124 11.4819 19.8867 12.7356 18.2264 14.396C17.1926 15.4297 16.2605 16.5577 15.43 17.7799C14.5996 19.002 13.883 20.2706 13.2803 21.5857L17.7618 26.0836C19.0769 25.4681 20.3503 24.7451 21.5821 23.9145C22.8141 23.0841 23.9468 22.152 24.9805 21.1182C26.6409 19.4579 27.8946 17.7386 28.7419 15.9602C29.5892 14.1818 30.1084 12.011 30.2993 9.44793C30.2993 9.40276 30.2959 9.35597 30.2892 9.30757C30.2824 9.25915 30.2593 9.20882 30.22 9.15658C30.1806 9.1172 30.1377 9.09412 30.0913 9.08734C30.0447 9.08057 29.9925 9.07719 29.9344 9.07719ZM21.6664 17.713C21.2476 17.3071 21.0382 16.8081 21.0382 16.2161C21.0382 15.6241 21.2476 15.1187 21.6664 14.6999C22.0851 14.2811 22.5911 14.0717 23.1841 14.0717C23.7771 14.0717 24.283 14.2811 24.7018 14.6999C25.1206 15.1187 25.33 15.6241 25.33 16.2161C25.33 16.8081 25.1206 17.3071 24.7018 17.713C24.283 18.1318 23.7771 18.3412 23.1841 18.3412C22.5911 18.3412 22.0851 18.1318 21.6664 17.713ZM18.5613 27.1252L20.1284 30.8197C20.1542 30.8972 20.209 30.9408 20.2929 30.9505C20.3768 30.9601 20.4478 30.9359 20.5058 30.8778L24.4512 26.9616C24.5673 26.8454 24.6495 26.7116 24.6979 26.5599C24.7464 26.4083 24.7512 26.2615 24.7124 26.1195L24.1965 23.5332C23.319 24.2314 22.412 24.8804 21.4758 25.4802C20.5394 26.0799 19.5679 26.6283 18.5613 27.1252ZM31.5809 8.89328C31.5241 11.5196 31.0253 13.9011 30.0844 16.038C29.1436 18.1749 27.7476 20.1754 25.8962 22.0397C25.7956 22.1274 25.6965 22.2174 25.599 22.3098C25.5016 22.402 25.4026 22.492 25.3019 22.5798L25.9523 25.8485C26.0297 26.2228 26.0114 26.5812 25.8972 26.9239C25.783 27.2665 25.5975 27.5662 25.3406 27.8231L20.9714 32.2116C20.6868 32.4833 20.3523 32.5809 19.9677 32.5044C19.5831 32.428 19.3198 32.2026 19.1779 31.8283L17.2894 27.4039L11.9493 22.0484L7.51914 20.1658C7.14488 20.0109 6.92806 19.7402 6.8687 19.3537C6.80932 18.9672 6.91548 18.638 7.18714 18.3664L11.5505 13.9836C11.8074 13.7268 12.1108 13.5451 12.4609 13.4387C12.811 13.3323 13.1667 13.3177 13.528 13.3952L16.7967 14.0455C16.8845 13.9578 16.9706 13.8678 17.0552 13.7755C17.1397 13.6833 17.2323 13.5933 17.333 13.5055C19.1843 11.6412 21.1774 10.2339 23.3123 9.28334C25.4473 8.33285 27.8279 7.83566 30.4542 7.79179C30.609 7.78082 30.7549 7.80292 30.8917 7.85809C31.0285 7.91325 31.1544 7.99826 31.2692 8.11312C31.384 8.24088 31.4642 8.36414 31.5098 8.48287C31.5552 8.6016 31.5789 8.7384 31.5809 8.89328ZM8.48032 26.5076C9.07073 25.9043 9.78523 25.6092 10.6238 25.6225C11.4623 25.6357 12.1832 25.9375 12.7866 26.528C13.377 27.1184 13.6708 27.8329 13.6679 28.6714C13.665 29.5099 13.3684 30.2309 12.7779 30.8343C12.2481 31.3512 11.4339 31.7906 10.3354 32.1526C9.23675 32.5146 7.91858 32.7672 6.38086 32.9105C6.5241 31.3728 6.77737 30.0504 7.14068 28.9434C7.50397 27.8365 7.95052 27.0245 8.48032 26.5076ZM9.37368 27.4524C9.0549 27.7879 8.76453 28.3046 8.50255 29.0024C8.24057 29.7004 8.05473 30.4884 7.94503 31.3666C8.82328 31.2441 9.61133 31.0506 10.3092 30.7864C11.007 30.5222 11.5238 30.2242 11.8593 29.8925C12.2142 29.5583 12.3937 29.1494 12.3975 28.6661C12.4014 28.1828 12.2278 27.7637 11.8768 27.4088C11.5218 27.0577 11.1027 26.8885 10.6194 26.9011C10.1361 26.9137 9.72085 27.0974 9.37368 27.4524Z" fill="#1C1B1F"/>
</g>
</g>
<defs>
<clipPath id="clip0_396_16014">
<rect width="36" height="40" fill="white" transform="translate(0.980469 0.390625)"/>
</clipPath>
<clipPath id="clip1_396_16014">
<rect width="36" height="40" fill="white" transform="translate(0.980469 0.390625)"/>
</clipPath>
</defs>
</svg>
