<svg width="42" height="41" viewBox="0 0 42 41" fill="none" xmlns="http://www.w3.org/2000/svg">
<g clip-path="url(#clip0_396_19932)">
<g clip-path="url(#clip1_396_19932)">
<g clip-path="url(#clip2_396_19932)">
<path d="M32.7823 2.11998C23.1382 -0.00543702 13.145 0.229308 6.77006 2.64811C6.50431 2.74894 6.37143 2.79936 5.66298 3.28807C5.39373 3.47381 4.38581 4.39955 4.17417 4.65549C3.61731 5.3289 3.60626 5.35107 3.58417 5.3954C0.577089 11.4285 0.0976279 24.5583 1.83614 32.6375C2.0206 33.4947 2.11283 33.9233 2.74123 35.0009C3.06264 35.5521 4.12637 36.77 4.62041 37.1524C5.58632 37.9001 6.0945 38.0681 7.11086 38.404C15.9207 41.3155 25.6754 41.006 32.3759 39.7691C33.6284 39.5379 34.2547 39.4222 35.3488 38.7616C35.9444 38.402 37.1204 37.3069 37.5331 36.7276C38.2914 35.6633 38.4569 35.0975 38.7878 33.9659C40.6508 27.5942 41.7886 17.8571 39.7473 8.95645C39.4068 7.47143 39.2365 6.72892 38.513 5.59365C38.0828 4.91845 37.0189 3.82918 36.367 3.39629C35.2708 2.66842 34.4413 2.48561 32.7823 2.11998Z" fill="#DCF4FF"/>
</g>
</g>
</g>
<defs>
<clipPath id="clip0_396_19932">
<rect width="41" height="40" fill="white" transform="translate(0.5 0.667969)"/>
</clipPath>
<clipPath id="clip1_396_19932">
<rect width="41" height="40" fill="white" transform="translate(0.5 0.667969)"/>
</clipPath>
<clipPath id="clip2_396_19932">
<rect width="41" height="40" fill="white" transform="translate(0.5 0.667969)"/>
</clipPath>
</defs>
</svg>
