<svg width="196" height="207" viewBox="0 0 196 207" fill="none" xmlns="http://www.w3.org/2000/svg">
<g clip-path="url(#clip0_396_16894)">
<g clip-path="url(#clip1_396_16894)">
<g clip-path="url(#clip2_396_16894)">
<path d="M190.348 97.2303C190.102 103.188 187.11 106.922 181.389 108.78C182.187 109.489 182.739 109.981 183.23 110.417C191.019 117.349 198.535 124.588 205.557 132.382C210.155 137.466 214.473 142.742 217.894 148.654C219.18 150.791 220.24 153.058 221.129 155.393C221.74 156.929 222.016 158.719 222.053 160.406C222.092 164.191 219.689 167.016 216.013 167.935C214.004 168.464 211.907 168.473 209.962 168.066C206.542 167.339 203.177 166.55 199.854 165.468C190.894 162.569 182.292 158.774 173.799 154.856C163.334 150.065 152.979 145.152 142.569 140.301C141.969 139.987 141.253 139.681 140.298 139.272C140.576 140.071 140.78 140.583 140.983 141.095C141.743 143.205 141.8 145.241 140.328 147.019C138.746 148.92 136.676 149.394 134.43 148.83C132.656 148.354 130.752 147.652 129.074 146.821C122.246 143.502 115.898 139.397 109.549 135.292C97.4526 127.395 85.7331 118.952 74.5548 109.776C65.0259 101.959 55.887 93.8261 48.0079 84.278C45.0661 80.6676 42.2886 76.8725 40.3042 72.6801C39.2441 70.4133 38.3549 68.0779 38.0944 65.53C37.418 59.7443 40.1875 55.15 45.6623 53.0734C48.4577 52.0316 51.4086 51.6796 54.3792 51.676C60.2043 51.6759 65.9176 52.7894 71.4731 54.2037C72.3603 54.4417 73.3636 54.6728 74.4699 54.6646C74.1019 54.3372 73.7339 54.0097 73.4272 53.7368C66.8972 48.4774 60.525 42.9172 55.0356 36.4883C52.5429 33.6083 50.3305 30.5366 48.6177 27.0272C47.4284 24.535 46.4647 21.9128 46.3072 19.1256C46.0185 14.0158 48.008 10.051 52.2758 7.23116C54.6901 5.62962 57.3147 4.65635 60.2108 4.36593C63.6261 3.98607 67.0415 3.60621 70.4283 3.75242C76.0343 3.99845 81.5504 4.71597 87.1696 5.19426C87.9889 5.26159 88.6921 5.33589 90.0372 5.42991C89.3559 4.7134 89.0427 4.32436 88.6134 3.9423C84.9333 0.667492 81.1984 -2.54576 77.6826 -6.00522C75.7134 -7.86792 73.9566 -10.0929 72.316 -12.3249C71.3084 -13.6627 70.5199 -15.2468 69.9636 -16.8447C67.9618 -22.376 70.0083 -27.393 75.2728 -30.0979C78.1034 -31.5496 81.2186 -32.0863 84.4083 -32.336C85.508 -32.4603 86.6144 -32.4685 88.0076 -32.5522C87.5717 -33.0504 87.3198 -33.3848 87.0132 -33.6577C85.6572 -34.9746 84.2465 -36.2299 83.0002 -37.6699C82.1283 -38.6663 81.3595 -39.902 80.8229 -41.1515C79.3357 -44.791 80.8192 -48.4342 84.4011 -49.9893C85.823 -50.599 87.4901 -50.9904 88.9448 -51.0195C91.6831 -51.0092 94.4829 -50.9442 97.1927 -50.4078C102.674 -49.2803 108.1 -48.0913 113.492 -46.4923C121.503 -43.8854 129.35 -41.0938 137.245 -38.48C138.61 -38.0375 140.036 -37.5405 141.449 -37.2758C154.275 -35.0163 166.516 -30.7407 178.291 -25.4466C197.652 -16.8209 215.847 -6.14434 232.876 6.5832C239.748 11.7056 246.236 17.2588 251.787 23.7423C253.966 26.2333 255.92 28.8543 257.258 31.9202C257.931 33.5111 258.61 35.2183 258.824 36.9533C259.47 41.1677 257.29 44.8526 253.237 46.3195C251.583 46.9432 249.8 47.3416 248.052 47.33C244.384 47.3754 240.704 47.1886 237.065 46.7079C229.849 45.8011 222.819 44.0675 215.844 42.2723C215.135 42.0819 214.486 41.946 213.503 42.0634C214.061 42.6707 214.558 43.2235 215.062 43.8924C216.008 45.1756 217.009 46.3973 217.785 47.7491C220.648 53.0539 217.775 57.8874 211.779 57.9561C209.915 57.9515 207.921 57.7216 206.092 57.3071C202.079 56.3828 198.052 55.2263 194.142 54.0627C190.703 52.9875 187.318 51.8506 183.653 50.9054C183.967 51.2945 184.341 51.7381 184.709 52.0656C191.121 58.3226 197.307 64.7096 202.829 71.7192C205.716 75.3912 208.548 79.1248 210.594 83.3716C211.457 85.2425 212.326 87.2295 212.731 89.2444C213.785 94.4831 210.75 98.5106 205.429 99.1797C203.749 99.3389 202 99.3273 200.301 99.1381C197.542 98.7793 194.881 98.0652 192.171 97.5287C191.645 97.502 191.058 97.4208 190.348 97.2303Z" fill="#EDFFF4"/>
<path d="M76.2564 9.76612C69.423 4.69801 66.5188 -2.42012 64.8104 -10.1647C63.8424 -14.4925 63.3868 -18.8773 63.9563 -23.319C64.184 -25.1982 64.5257 -27.0204 65.323 -28.7288C65.8355 -29.7538 66.4049 -30.7218 67.2021 -31.576C68.6827 -33.1705 70.7327 -33.4552 72.7258 -32.5441C73.9786 -31.9746 75.0036 -31.0066 75.8578 -29.9816C77.3384 -28.1593 78.4203 -26.1093 79.2745 -23.9454C81.5523 -18.2509 82.2926 -12.2716 82.1787 -6.12156C82.0648 -2.02151 81.6093 2.07854 80.7551 6.0647C80.6981 6.34942 80.6981 6.57719 80.6412 6.91887C82.2357 7.71611 83.944 7.88694 85.7093 7.94389C93.0552 8.28556 100.23 7.20359 107.178 4.8119C109.455 4.01468 111.676 3.10355 113.84 2.0216C118.054 0.028511 121.642 -2.87568 124.489 -6.52017C125.001 -7.14657 125.514 -7.77296 126.083 -8.39936C126.14 -8.4563 126.254 -8.4563 126.539 -8.4563C126.425 -8.0577 126.368 -7.77296 126.254 -7.48823C124.033 -2.76179 120.788 1.05353 116.46 4.01467C111.05 7.65916 105.071 9.93695 98.7498 11.1897C93.5678 12.2148 88.3857 12.6703 83.1468 12.0439C82.0079 11.93 80.812 11.6453 79.5592 11.4175C79.4454 11.7023 79.3315 12.0439 79.2176 12.3856C77.68 17.5676 75.8578 22.5788 73.2383 27.3052C71.1314 31.1205 68.6827 34.6511 65.5507 37.7262C63.8424 39.3776 61.9632 40.8581 59.8562 41.9401C54.4464 44.6735 49.4922 43.8193 45.3921 39.3776C45.1644 39.1498 44.9366 38.922 44.5949 38.5803C44.3671 39.2067 44.1963 39.6623 43.9685 40.1748C42.4879 44.2749 40.8365 48.318 38.7296 52.1902C36.9073 55.493 34.8003 58.625 32.067 61.3014C30.7572 62.6112 29.3336 63.6931 27.6822 64.5473C23.696 66.5404 19.8807 66.2557 16.2362 63.6362C15.5529 63.1806 14.9834 62.6112 14.2431 62.0417C14.0154 62.6681 13.8445 63.1237 13.6737 63.6362C12.1362 68.1918 10.257 72.6905 7.92219 76.9044C7.35274 77.9864 6.6694 79.0114 5.92911 79.9794C5.58744 80.4919 5.01799 80.8336 4.50548 81.2322C4.04992 81.517 3.53741 81.517 3.1388 81.0614C2.74018 80.6058 2.91102 80.1503 3.25269 79.6947C3.93603 78.7266 4.56243 77.7016 5.13188 76.6766C7.97914 71.4946 10.1431 66.0279 11.9084 60.4473C12.0792 59.9348 12.1931 59.4223 11.7945 58.9097C8.09303 53.6708 6.15689 47.7485 4.96104 41.4845C3.25269 32.7719 2.91102 23.9455 3.93603 15.119C4.2777 12.1009 4.84715 9.19667 6.09995 6.40636C6.55551 5.38136 7.12496 4.35634 7.8083 3.50217C9.51666 1.3952 11.8514 1.28131 13.9015 3.10355C15.1543 4.24245 16.0084 5.60913 16.6918 7.14664C18.1154 10.1078 18.9126 13.2967 19.4251 16.5426C20.4502 22.7496 20.4502 28.9566 19.8238 35.2206C19.0835 42.8512 17.6029 50.368 15.5529 57.7139C15.3251 58.5681 15.3251 59.1945 16.0654 59.7639C16.9765 60.5042 17.8307 61.3584 18.7987 61.9848C20.9627 63.3515 23.2405 63.4654 25.5752 62.4403C27.1697 61.757 28.4794 60.732 29.6753 59.5361C31.7822 57.5431 33.4337 55.2083 34.9712 52.7597C38.1601 47.5207 40.4949 41.8832 42.431 36.0748C42.6018 35.5623 42.6588 35.1636 42.3741 34.6511C39.8115 29.4691 38.6726 23.8885 38.1032 18.194C37.4768 12.0439 37.5337 5.89386 38.5587 -0.199265C38.9573 -2.53401 39.4698 -4.86876 40.4379 -7.03267C40.8365 -7.94381 41.349 -8.85492 41.9754 -9.59519C43.513 -11.4175 45.6769 -11.3605 47.1005 -9.48129C47.7838 -8.57019 48.2963 -7.54519 48.695 -6.46322C49.7769 -3.44514 50.1186 -0.256214 50.3464 2.93272C50.9158 13.1259 49.2075 23.0913 46.3602 32.8289C46.2463 33.1706 46.1894 33.5122 46.0185 33.8539C45.7908 34.4234 45.9046 34.9359 46.2463 35.3914C47.0436 36.4164 47.7838 37.5553 48.7519 38.4095C50.9728 40.5165 53.6492 41.029 56.4964 39.8901C57.977 39.3206 59.4007 38.4095 60.7104 37.4414C62.9882 35.7331 64.8104 33.5692 66.4619 31.2914C69.9355 26.508 72.3842 21.1551 74.3203 15.5745C75.0036 13.8092 75.5731 11.8161 76.2564 9.76612ZM13.1612 55.9486C13.332 55.6069 13.389 55.493 13.4459 55.3222C13.5598 55.0375 13.6167 54.6958 13.7306 54.4111C15.8376 46.9513 17.2612 39.3206 17.7168 31.5761C18.0585 25.9385 17.9446 20.301 16.6918 14.7203C16.1223 12.2148 15.4959 9.76612 14.2431 7.48832C13.6737 6.52026 12.9903 5.60913 12.1931 4.8119C11.4528 4.07161 10.5986 4.12856 9.97222 5.03968C9.40276 5.83691 8.89026 6.74804 8.54859 7.65916C7.29579 10.7911 6.84023 14.0939 6.55551 17.4537C5.98605 24.7996 6.38467 32.0886 7.63746 39.3776C8.54859 44.5596 9.85833 49.6277 12.2501 54.3541C12.5348 54.7528 12.7626 55.2653 13.1612 55.9486ZM77.2814 4.9258C77.4523 4.24245 77.5662 3.78688 77.6231 3.38828C77.8509 1.79381 78.1356 0.256294 78.3064 -1.33817C78.9328 -7.08963 78.762 -12.7841 77.3384 -18.4217C76.5981 -21.3259 75.5731 -24.0593 73.9217 -26.5649C73.2953 -27.476 72.555 -28.2732 71.7578 -29.0135C70.6758 -29.9246 69.9355 -29.6968 69.1952 -28.501C68.9105 -28.0454 68.6827 -27.5329 68.5688 -27.0204C68.2841 -25.7107 67.9424 -24.344 67.8285 -22.9773C67.4299 -18.0231 68.1133 -13.1828 69.4799 -8.39936C70.6758 -4.29931 72.4411 -0.483994 75.2314 2.81882C75.8009 3.50216 76.4842 4.12856 77.2814 4.9258ZM44.7657 -7.71602C44.6519 -7.71602 44.481 -7.71602 44.3671 -7.65907C44.0824 -7.14657 43.6838 -6.69101 43.456 -6.1785C43.0574 -5.09654 42.6018 -3.95765 42.3171 -2.81874C40.9504 2.64799 40.7226 8.22861 41.0074 13.8662C41.2351 18.9912 41.9185 24.1163 43.3991 29.0705C43.513 29.4691 43.6838 29.8677 43.8546 30.2664C44.1963 29.8108 44.4241 29.3552 44.481 28.8997C45.1644 25.5399 46.0185 22.2371 46.531 18.8773C47.5561 12.7842 47.8977 6.63414 47.1574 0.541019C46.9297 -1.509 46.3602 -3.55902 45.7908 -5.5521C45.6769 -6.34933 45.1644 -7.03267 44.7657 -7.71602Z" fill="white"/>
</g>
</g>
</g>
<defs>
<clipPath id="clip0_396_16894">
<path d="M0 0.941406H180C188.837 0.941406 196 8.10485 196 16.9414V206.941H0V0.941406Z" fill="white"/>
</clipPath>
<clipPath id="clip1_396_16894">
<rect width="196" height="206" fill="white" transform="translate(0 0.941406)"/>
</clipPath>
<clipPath id="clip2_396_16894">
<rect width="196" height="206" fill="white" transform="translate(0 0.941406)"/>
</clipPath>
</defs>
</svg>
