<svg width="91" height="17" viewBox="0 0 91 17" fill="none" xmlns="http://www.w3.org/2000/svg">
<g clip-path="url(#clip0_396_20118)">
<g clip-path="url(#clip1_396_20118)">
<g clip-path="url(#clip2_396_20118)">
<path fill-rule="evenodd" clip-rule="evenodd" d="M8.4799 11.5395L3.96571 13.9128L4.82784 8.88615L1.17578 5.32628L6.2228 4.5929L8.4799 0.0195312L10.737 4.5929L15.784 5.32628L12.132 8.88615L12.9941 13.9128L8.4799 11.5395Z" fill="#FFF0A8"/>
<path fill-rule="evenodd" clip-rule="evenodd" d="M27.0424 11.5395L22.5282 13.9128L23.3903 8.88615L19.7383 5.32628L24.7853 4.5929L27.0424 0.0195312L29.2995 4.5929L34.3465 5.32628L30.6945 8.88615L31.5566 13.9128L27.0424 11.5395Z" fill="#FFF0A8"/>
<path fill-rule="evenodd" clip-rule="evenodd" d="M45.601 11.5395L41.0868 13.9128L41.9489 8.88615L38.2969 5.32628L43.3439 4.5929L45.601 0.0195312L47.8581 4.5929L52.9051 5.32628L49.2531 8.88615L50.1152 13.9128L45.601 11.5395Z" fill="#FFF0A8"/>
<path fill-rule="evenodd" clip-rule="evenodd" d="M64.1596 11.5395L59.6454 13.9128L60.5075 8.88615L56.8555 5.32628L61.9025 4.5929L64.1596 0.0195312L66.4167 4.5929L71.4637 5.32628L67.8117 8.88615L68.6738 13.9128L64.1596 11.5395Z" fill="#FFF0A8"/>
<path fill-rule="evenodd" clip-rule="evenodd" d="M82.7221 11.5395L78.2079 13.9128L79.07 8.88615L75.418 5.32628L80.465 4.5929L82.7221 0.0195312L84.9792 4.5929L90.0262 5.32628L86.3742 8.88615L87.2363 13.9128L82.7221 11.5395Z" fill="#FFF0A8"/>
</g>
</g>
</g>
<defs>
<clipPath id="clip0_396_20118">
<rect width="90" height="16" fill="white" transform="translate(0.800781 0.0195312)"/>
</clipPath>
<clipPath id="clip1_396_20118">
<rect width="90" height="16" fill="white" transform="translate(0.800781 0.0195312)"/>
</clipPath>
<clipPath id="clip2_396_20118">
<rect width="90" height="16" fill="white" transform="translate(0.800781 0.0195312)"/>
</clipPath>
</defs>
</svg>
