<svg width="48" height="49" viewBox="0 0 48 49" fill="none" xmlns="http://www.w3.org/2000/svg">
<g clip-path="url(#clip0_396_16875)">
<g clip-path="url(#clip1_396_16875)">
<path d="M24.4 46.6099C24.1334 46.6099 23.9 46.5099 23.7 46.3099C23.5 46.1099 23.4 45.8544 23.4 45.5433C23.4 45.2766 23.5 45.0432 23.7 44.8432C23.9 44.6432 24.1334 44.5432 24.4 44.5432H41.6666C42.1112 44.5432 42.4888 44.3877 42.8 44.0766C43.1111 43.7655 43.2667 43.3877 43.2667 42.9432V22.7433C43.2667 20.1654 42.7445 17.7211 41.7 15.4099C40.6556 13.0988 39.2555 11.0654 37.5 9.3099C35.7445 7.55433 33.7 6.16545 31.3666 5.14323C29.0333 4.12101 26.5777 3.6099 24 3.6099C21.4223 3.6099 18.9667 4.12101 16.6334 5.14323C14.3 6.16545 12.2556 7.55433 10.5 9.3099C8.74445 11.0654 7.34444 13.0988 6.3 15.4099C5.25556 17.7211 4.73333 20.1654 4.73333 22.7433V38.0766C4.73333 38.3433 4.66666 38.5321 4.53333 38.6432C4.4 38.7543 4.22222 38.8099 4 38.8099C2.88889 38.8099 1.94444 38.4211 1.16667 37.6432C0.388888 36.8655 0 35.921 0 34.8099V29.4765C0 28.721 0.244445 28.021 0.733334 27.3765C1.22222 26.7322 1.86667 26.1654 2.66667 25.6766L2.73333 22.1433C2.82222 19.2543 3.44444 16.5543 4.6 14.0433C5.75555 11.5321 7.3 9.34323 9.23333 7.47656C11.1667 5.60989 13.4 4.14323 15.9333 3.07657C18.4666 2.0099 21.1555 1.47656 24 1.47656C26.8445 1.47656 29.5445 1.99878 32.1 3.04323C34.6555 4.08767 36.8889 5.54324 38.8 7.40989C40.7111 9.27656 42.2444 11.4655 43.4 13.9766C44.5555 16.4877 45.1777 19.2099 45.2667 22.1433L45.3333 25.5432C46.1333 25.9432 46.7778 26.4543 47.2666 27.0765C47.7556 27.6987 48 28.3654 48 29.0766V35.2099C48 35.921 47.7556 36.5877 47.2666 37.2099C46.7778 37.8322 46.1333 38.3433 45.3333 38.7432V42.9432C45.3333 43.921 44.9667 44.7765 44.2334 45.5099C43.5 46.2432 42.6445 46.6099 41.6666 46.6099H24.4ZM17 28.0766C16.5556 28.0766 16.1555 27.8988 15.8 27.5433C15.4445 27.1877 15.2667 26.7654 15.2667 26.2766C15.2667 25.8322 15.4445 25.4321 15.8 25.0766C16.1555 24.721 16.5778 24.5433 17.0667 24.5433C17.5112 24.5433 17.9111 24.721 18.2667 25.0766C18.6222 25.4321 18.8 25.8322 18.8 26.2766C18.8 26.7654 18.6222 27.1877 18.2667 27.5433C17.9111 27.8988 17.4889 28.0766 17 28.0766ZM31 28.0766C30.5111 28.0766 30.0889 27.8988 29.7333 27.5433C29.3778 27.1877 29.2 26.7654 29.2 26.2766C29.2 25.8322 29.3778 25.4321 29.7333 25.0766C30.0889 24.721 30.5111 24.5433 31 24.5433C31.4444 24.5433 31.8445 24.721 32.2 25.0766C32.5555 25.4321 32.7333 25.8322 32.7333 26.2766C32.7333 26.7654 32.5555 27.1877 32.2 27.5433C31.8445 27.8988 31.4444 28.0766 31 28.0766ZM9.93333 23.8766C9.75556 21.5655 10.0667 19.4544 10.8667 17.5432C11.6667 15.6322 12.7445 14.021 14.1 12.7099C15.4555 11.3988 17.0222 10.3877 18.8 9.67657C20.5777 8.96545 22.3555 8.60989 24.1334 8.60989C27.6889 8.60989 30.7223 9.74322 33.2333 12.0099C35.7445 14.2766 37.2889 17.0988 37.8667 20.4765C34.1778 20.4322 30.8889 19.4321 28 17.4765C25.1111 15.521 22.8889 13.0099 21.3333 9.94323C20.7111 13.0988 19.3777 15.9099 17.3333 18.3765C15.2889 20.8432 12.8222 22.6766 9.93333 23.8766Z" fill="#292B2E"/>
</g>
</g>
<defs>
<clipPath id="clip0_396_16875">
<rect width="48" height="48" fill="white" transform="translate(0 0.140625)"/>
</clipPath>
<clipPath id="clip1_396_16875">
<rect width="48" height="45.4737" fill="white" transform="translate(0 1.40234)"/>
</clipPath>
</defs>
</svg>
