<svg width="31" height="21" viewBox="0 0 31 21" fill="none" xmlns="http://www.w3.org/2000/svg">
<path d="M20.7083 5.25677C19.0833 3.62344 16.45 3.62344 14.8167 5.25677L13.6417 6.43177L12.4583 5.25677L13.6417 4.07344C15.9167 1.79844 19.6083 1.79844 21.8917 4.07344C24.1667 6.35677 24.1667 10.0484 21.8917 12.3234L20.7083 13.5068L19.5333 12.3234L20.7083 11.1484C22.3417 9.5151 22.3417 6.88177 20.7083 5.25677ZM18.9417 8.19844L13.05 14.0901L11.875 12.9151L17.7667 7.02344L18.9417 8.19844ZM8.925 8.7901L10.1083 7.60677L11.2833 8.7901L10.1083 9.9651C8.475 11.5984 8.475 14.2318 10.1083 15.8568C11.7333 17.4901 14.3667 17.4901 16 15.8568L17.175 14.6818L18.3583 15.8568L17.175 17.0401C14.9 19.3151 11.2083 19.3151 8.925 17.0401C6.65 14.7568 6.65 11.0651 8.925 8.7901Z" fill="#536471"/>
</svg>
