<svg width="80" height="25" viewBox="0 0 80 25" fill="none" xmlns="http://www.w3.org/2000/svg">
<path d="M7.83235 16.4172C7.43544 16.1618 7.00771 15.958 6.55984 15.8121C6.11135 15.6674 5.64273 15.5945 5.17222 15.5964C4.88035 15.5932 4.58849 15.6272 4.3048 15.6964C4.06452 15.753 3.83619 15.8505 3.62924 15.9857C3.45186 16.1015 3.30278 16.2562 3.1927 16.4386C3.08765 16.6185 3.03356 16.8242 3.0367 17.033C3.02915 17.2186 3.07633 17.4016 3.17194 17.5595C3.27132 17.7092 3.40531 17.8319 3.5613 17.9174C3.7563 18.0256 3.96388 18.1068 4.17963 18.1596C4.452 18.2288 4.72814 18.2835 5.00616 18.3225L5.66097 18.4125C6.0409 18.4659 6.4158 18.5509 6.78314 18.6647C7.13162 18.771 7.46123 18.9327 7.76002 19.144C8.04434 19.3466 8.28021 19.6108 8.45068 19.9177C8.63309 20.2656 8.72241 20.6556 8.71046 21.0493C8.71989 21.5003 8.61422 21.9463 8.40413 22.3445C8.20221 22.7188 7.91979 23.0427 7.57823 23.2918C7.21151 23.5579 6.80202 23.7554 6.36736 23.8761C5.89245 24.0114 5.40056 24.0787 4.90741 24.0762C4.57277 24.0743 4.23939 24.0466 3.90978 23.9919C3.55753 23.9384 3.21031 23.8573 2.87064 23.7497C2.54795 23.6409 2.23533 23.5057 1.93528 23.3446C1.63839 23.1911 1.36098 23.0018 1.10938 22.7817L1.93528 21.5444C2.11392 21.7079 2.31081 21.8488 2.52216 21.9652C3.00902 22.235 3.53551 22.4237 4.08087 22.5231C4.35701 22.5753 4.63692 22.6018 4.91747 22.6024C5.20745 22.6062 5.4968 22.576 5.77986 22.5131C6.02706 22.4583 6.2642 22.364 6.48184 22.2338C6.66992 22.1218 6.83095 21.969 6.95424 21.7865C7.07312 21.6079 7.13477 21.3966 7.131 21.1808C7.13855 20.8166 6.93537 20.4813 6.61142 20.3228C6.10066 20.0819 5.55216 19.9322 4.99044 19.8806L4.2526 19.7756C3.89909 19.7259 3.55123 19.6428 3.21345 19.5284C2.88888 19.4202 2.58443 19.256 2.31458 19.044C2.04725 18.8333 1.82898 18.5653 1.6755 18.2596C1.5 17.9074 1.41068 17.5174 1.41571 17.1224C1.40753 16.6776 1.50944 16.2386 1.71198 15.8436C1.90698 15.4718 2.18186 15.1497 2.51713 14.9013C2.8763 14.6371 3.2795 14.4415 3.70723 14.322C4.18026 14.1861 4.67027 14.1188 5.16216 14.1219C5.79747 14.1138 6.4309 14.2081 7.03727 14.4012C7.58829 14.5817 8.11226 14.8371 8.59661 15.1592L7.83235 16.4172ZM13.0023 17.1544C13.4294 17.15 13.8521 17.2362 14.244 17.4067C14.6132 17.5683 14.9428 17.8092 15.2108 18.1124C15.4876 18.4313 15.7008 18.8012 15.8392 19.2019C15.9958 19.6535 16.0732 20.1291 16.0681 20.6071V20.8808V21.1443H11.2461C11.2807 21.4123 11.3656 21.6714 11.4958 21.9073C11.6078 22.1105 11.7581 22.2891 11.9374 22.4338C12.1091 22.5697 12.3047 22.6716 12.5142 22.7338C12.7299 22.798 12.9539 22.8301 13.1791 22.8288C13.5131 22.8263 13.8433 22.764 14.1559 22.6445C14.4824 22.5206 14.7856 22.3426 15.0548 22.118L15.7561 23.1446C15.3894 23.4711 14.9592 23.7164 14.4937 23.8655C14.037 24.0045 13.5621 24.0737 13.0853 24.0711C12.6274 24.0762 12.172 23.9919 11.7449 23.8233C11.3549 23.6654 11.0008 23.427 10.7058 23.1232C10.4057 22.8118 10.1723 22.4414 10.0201 22.0337C9.85213 21.5796 9.7691 21.0978 9.77602 20.6128C9.77099 20.1335 9.85151 19.6573 10.015 19.2069C10.1616 18.8006 10.3874 18.4282 10.68 18.1124C10.9725 17.8048 11.3272 17.5639 11.7191 17.4067C12.1261 17.2368 12.562 17.1494 13.0023 17.1488V17.1544ZM12.9765 18.4332C12.7463 18.4288 12.5173 18.4685 12.3009 18.549C12.1066 18.6213 11.9298 18.7345 11.7814 18.8805C11.6348 19.0333 11.5172 19.212 11.4335 19.407C11.3392 19.6145 11.275 19.8341 11.241 20.0599H14.6082C14.5679 19.6152 14.3855 19.1956 14.0886 18.8647C13.7917 18.5691 13.3873 18.4112 12.9715 18.4282L12.9765 18.4332ZM20.5053 17.1544C20.972 17.15 21.4343 17.2394 21.8665 17.4174C22.2697 17.591 22.6263 17.8602 22.9056 18.2018L21.9967 19.1805C21.7872 18.9666 21.545 18.7893 21.2796 18.6546C21.0148 18.5345 20.7273 18.4754 20.438 18.4804C20.1769 18.4779 19.919 18.5301 19.6793 18.6333C19.4504 18.7421 19.2472 18.8981 19.0818 19.0912C18.905 19.283 18.7673 19.5089 18.6761 19.7548C18.4817 20.3077 18.4817 20.9122 18.6761 21.4651C18.7666 21.7129 18.9044 21.9407 19.0818 22.1338C19.2529 22.3187 19.4598 22.4659 19.6894 22.5653C19.9291 22.6691 20.1876 22.7206 20.448 22.7181C20.7543 22.7187 21.0563 22.6483 21.3312 22.5131C21.5941 22.3885 21.8363 22.2231 22.0482 22.0231L22.9264 23.0395C22.6351 23.3817 22.2684 23.6503 21.8564 23.8233C21.4261 24.0026 20.9651 24.0919 20.5002 24.0869C20.0197 24.0938 19.5429 24.0045 19.0975 23.8233C18.2785 23.4918 17.6363 22.8244 17.3306 21.9866C17.0048 21.1003 17.0048 20.1247 17.3306 19.239C17.6369 18.41 18.2716 17.7495 19.0818 17.4174C19.5322 17.2331 20.0146 17.1419 20.5002 17.1488L20.5053 17.1544ZM30.1953 21.1129C30.2079 21.5758 30.1192 22.0356 29.9355 22.4602C29.7802 22.8137 29.5499 23.1282 29.2606 23.3817C28.9782 23.6208 28.6517 23.8 28.2988 23.9076C27.5742 24.1328 26.7999 24.1328 26.0752 23.9076C25.7217 23.8 25.3927 23.6208 25.1091 23.3817C24.8178 23.1301 24.587 22.815 24.4335 22.4602C24.2536 22.035 24.1668 21.5752 24.1787 21.1129V17.3224H25.6022V21.0072C25.5953 21.2808 25.6355 21.5538 25.7217 21.813C25.7941 22.0117 25.9092 22.1916 26.0595 22.3394C26.2073 22.4797 26.3853 22.5822 26.5791 22.6395C26.9861 22.7628 27.4194 22.7628 27.8264 22.6395C28.0208 22.5822 28.1988 22.4797 28.346 22.3394C28.4963 22.1916 28.6114 22.0117 28.6838 21.813C28.7718 21.5538 28.814 21.2814 28.8083 21.0072V17.3224H30.2318L30.1953 21.1129ZM35.3652 17.1544C35.5621 17.1532 35.7584 17.1689 35.9527 17.2016C36.1301 17.2305 36.3044 17.2777 36.4723 17.3438L36.1345 18.7647C35.9703 18.6817 35.7955 18.6213 35.6149 18.5861C35.4319 18.5458 35.2457 18.5251 35.0589 18.5226C34.8457 18.52 34.6337 18.5597 34.4355 18.6389C34.2493 18.7138 34.082 18.8308 33.9468 18.9805C33.8053 19.1434 33.6977 19.3334 33.6304 19.5391C33.5505 19.7793 33.5115 20.0322 33.5159 20.2863V23.9026H32.071V17.3224H33.4744V18.0646C33.6744 17.7627 33.9531 17.5218 34.2795 17.3702C34.6198 17.2186 34.9884 17.1437 35.3602 17.1488L35.3652 17.1544ZM40.12 17.1544C40.5465 17.15 40.9692 17.2362 41.3617 17.4067C41.7303 17.5683 42.0599 17.8092 42.3279 18.1124C42.6141 18.4288 42.8361 18.7993 42.9827 19.2019C43.1393 19.6535 43.2167 20.1291 43.211 20.6071V20.8808V21.1443H38.3581C38.3933 21.4123 38.4776 21.6714 38.6078 21.9073C38.7198 22.1105 38.8701 22.2891 39.0494 22.4338C39.2211 22.5697 39.4167 22.6716 39.6262 22.7338C39.842 22.798 40.0659 22.8301 40.2911 22.8288C40.6251 22.8263 40.956 22.764 41.268 22.6445C41.5944 22.5206 41.8982 22.3426 42.1668 22.118L42.8739 23.1396C42.5065 23.466 42.0769 23.7113 41.6108 23.8604C41.1541 23.9994 40.6798 24.0686 40.203 24.0655C39.7445 24.0705 39.2897 23.9869 38.8626 23.8183C38.472 23.6604 38.1178 23.422 37.8234 23.1182C37.5228 22.8068 37.2894 22.4357 37.1372 22.0287C36.9692 21.5746 36.8868 21.0921 36.8931 20.6071C36.8881 20.1278 36.9692 19.6516 37.1322 19.2019C37.2756 18.7962 37.4982 18.4238 37.787 18.1068C38.0795 17.7992 38.4336 17.5589 38.8261 17.4016C39.235 17.2331 39.6728 17.1469 40.1143 17.1488L40.12 17.1544ZM40.0936 18.4332C39.8634 18.4288 39.6344 18.4685 39.418 18.549C39.2236 18.6213 39.0469 18.7345 38.8984 18.8805C38.7519 19.0333 38.6343 19.212 38.5506 19.407C38.4569 19.6145 38.3921 19.8341 38.3581 20.0599H41.736C41.6957 19.6152 41.5133 19.1956 41.2164 18.8647C40.917 18.5666 40.5081 18.4081 40.0885 18.4282L40.0936 18.4332ZM49.2955 14.0905C49.7063 14.0892 50.1164 14.1351 50.5164 14.2276C50.897 14.315 51.265 14.449 51.6128 14.6277C51.9456 14.7981 52.2551 15.0126 52.5325 15.2642C52.8036 15.5083 53.0363 15.7926 53.2237 16.1065L51.9456 16.9701C51.6606 16.5443 51.2769 16.1952 50.8284 15.9543C50.3485 15.6989 49.8119 15.5724 49.2697 15.5857C48.8112 15.5806 48.3558 15.6662 47.9293 15.8385C47.5387 16.0027 47.1845 16.2468 46.8901 16.5544C46.5851 16.8714 46.3467 17.2469 46.1888 17.6595C45.8491 18.576 45.8491 19.5856 46.1888 20.5021C46.3467 20.9147 46.5851 21.2902 46.8901 21.6073C47.1845 21.9149 47.5387 22.1589 47.9293 22.3231C48.3558 22.4948 48.8112 22.581 49.2697 22.576C50.3246 22.5992 51.3203 22.0803 51.9141 21.1971L53.1615 22.1231C52.9583 22.4244 52.7174 22.6967 52.4444 22.9339C52.1764 23.1798 51.8795 23.3924 51.5612 23.5654C51.2209 23.7384 50.8618 23.8692 50.4907 23.9554C49.4232 24.1944 48.3105 24.1101 47.2902 23.7132C46.0995 23.2415 45.1578 22.2872 44.6923 21.0808C44.2049 19.8007 44.2049 18.3823 44.6923 17.1016C45.1578 15.8958 46.0995 14.9415 47.2902 14.4698C47.928 14.2131 48.6093 14.0842 49.2955 14.0905ZM57.6609 17.133C58.1377 17.1274 58.6107 17.2167 59.0535 17.3966C59.4655 17.5627 59.8417 17.8099 60.16 18.1225C60.4738 18.4345 60.7229 18.8069 60.8928 19.2176C61.245 20.0989 61.245 21.0846 60.8928 21.9652C60.7229 22.3766 60.4738 22.7483 60.16 23.0603C59.8417 23.3736 59.4655 23.6201 59.0535 23.7868C58.1578 24.1391 57.1639 24.1391 56.2688 23.7868C55.8556 23.6214 55.4794 23.3742 55.1618 23.0603C54.8447 22.7559 54.5906 22.391 54.4139 21.9866C54.061 21.1053 54.061 20.1196 54.4139 19.239C54.5824 18.8289 54.8296 18.4565 55.141 18.1439C55.4587 17.83 55.8348 17.5828 56.2475 17.4174C56.6978 17.2331 57.1803 17.1419 57.6665 17.1488L57.6609 17.133ZM57.6609 18.4861C57.3854 18.4829 57.1117 18.5351 56.8557 18.6389C56.6142 18.7364 56.3946 18.883 56.2116 19.0704C56.0279 19.261 55.8826 19.4862 55.7851 19.7334C55.5776 20.2844 55.5776 20.8933 55.7851 21.4444C55.8826 21.6916 56.0279 21.9174 56.2116 22.1073C56.3946 22.2942 56.6142 22.4414 56.8557 22.5395C57.3734 22.7445 57.9483 22.7445 58.4666 22.5395C58.9573 22.3445 59.3479 21.9545 59.5473 21.4601C59.7549 20.9091 59.7549 20.3002 59.5473 19.7491C59.4485 19.5013 59.302 19.2755 59.1158 19.0862C58.9302 18.8993 58.7094 18.7528 58.4666 18.6546C58.2119 18.5515 57.9401 18.4993 57.6665 18.5018L57.6609 18.4861ZM65.4186 17.133C66.2136 17.1022 66.9748 17.4627 67.4604 18.1017V13.9961H68.8788V23.8975H67.4604V23.1075C67.2339 23.4006 66.9465 23.6396 66.6187 23.8076C66.2451 23.9913 65.8337 24.0818 65.4186 24.0711C64.5518 24.0793 63.7202 23.7277 63.117 23.0974C62.8157 22.7772 62.5804 22.3998 62.4257 21.9866C62.0917 21.0908 62.0917 20.1027 62.4257 19.2069C62.5823 18.7993 62.8176 18.4276 63.117 18.1124C63.7202 17.4822 64.5518 17.1299 65.4186 17.1387V17.133ZM65.5897 18.4861C65.3072 18.4817 65.0273 18.5389 64.7688 18.6546C64.5361 18.7603 64.3272 18.9144 64.1561 19.1069C63.9863 19.3025 63.8555 19.5296 63.7712 19.7756C63.5906 20.3039 63.5906 20.8789 63.7712 21.4072C63.8555 21.6532 63.9863 21.8803 64.1561 22.0759C64.3272 22.2684 64.5361 22.4225 64.7688 22.5288C65.2877 22.7477 65.8715 22.7477 66.3904 22.5288C66.6244 22.4263 66.8345 22.2759 67.0081 22.0866C67.1773 21.9048 67.3113 21.6922 67.4031 21.4601C67.5931 20.9185 67.5931 20.3278 67.4031 19.7863C67.3138 19.5409 67.1779 19.3151 67.0031 19.1226C66.8295 18.9339 66.6187 18.7836 66.3847 18.6804C66.135 18.5653 65.8645 18.5043 65.5897 18.5018V18.4861ZM73.5914 17.133C74.0185 17.1293 74.4412 17.2148 74.8331 17.3859C75.2024 17.5476 75.532 17.7879 75.7999 18.091C76.0767 18.41 76.2899 18.7798 76.4283 19.1805C76.5849 19.6321 76.6623 20.1077 76.6573 20.5864V20.86V21.1229H71.8616C71.8956 21.3915 71.9799 21.6507 72.1107 21.8866C72.2227 22.0891 72.373 22.2684 72.5523 22.413C72.724 22.5489 72.9203 22.6508 73.1291 22.7131C73.3449 22.7772 73.5694 22.8093 73.794 22.8074C74.128 22.8049 74.4589 22.7427 74.7708 22.6231C75.0973 22.4992 75.4011 22.3212 75.6697 22.0973L76.3767 23.1182C76.0094 23.4446 75.5798 23.69 75.1143 23.8397C74.6576 23.9787 74.1827 24.0479 73.7059 24.0447C73.2474 24.0498 72.7926 23.9655 72.3655 23.7975C71.9748 23.639 71.6213 23.4006 71.3263 23.0974C71.0257 22.7861 70.7923 22.4149 70.6401 22.0073C70.4727 21.5532 70.3897 21.0713 70.396 20.5864C70.391 20.1071 70.4721 19.6309 70.635 19.1805C70.7822 18.7742 71.008 18.4018 71.2999 18.086C71.593 17.7784 71.9472 17.5381 72.3397 17.3803C72.7385 17.2236 73.1637 17.145 73.5914 17.1488V17.133ZM77.3379 23.8818V23.5654H77.4674V23.4975H77.1297V23.5654H77.2756V23.8975L77.3379 23.8818ZM77.987 23.8818V23.4818H77.8832L77.7637 23.7554L77.6442 23.4818H77.5404V23.8818H77.6134V23.5818L77.7222 23.8397H77.7952L77.904 23.5818V23.8818H77.987ZM73.5656 18.4125C73.3354 18.4081 73.1065 18.4471 72.8901 18.5282C72.6957 18.5999 72.5189 18.7131 72.3705 18.8597C72.2239 19.0126 72.1063 19.1906 72.0226 19.3862C71.9289 19.5938 71.8641 19.8133 71.8302 20.0391H75.1973C75.1602 19.5881 74.9778 19.1629 74.6777 18.8283C74.3758 18.5471 73.9745 18.403 73.5656 18.4282V18.4125Z" fill="#BBBBC1"/>
<path d="M12.4942 10.3384H10.904V2.1373L8.03062 9.35468H6.35743L3.49475 2.21656V10.3384H1.89453V0.374163H4.33135L7.19403 7.49593L10.0517 0.374163H12.4885L12.4942 10.3384ZM20.8595 10.3384H19.3889V9.52263C19.1543 9.82708 18.8561 10.0749 18.5158 10.2491C18.129 10.4378 17.7031 10.5297 17.2741 10.5177C16.3746 10.5271 15.5103 10.1617 14.8838 9.5069C14.5737 9.17981 14.3297 8.79297 14.1674 8.37026C13.8202 7.44057 13.8202 6.41464 14.1674 5.48558C14.3297 5.06225 14.5737 4.67603 14.8838 4.34831C15.5103 3.6935 16.3746 3.32804 17.2741 3.33747C17.7037 3.32615 18.1302 3.41987 18.5158 3.61172C18.8561 3.78848 19.1536 4.0382 19.3889 4.34328V3.52178H20.8595V10.3384ZM17.4458 4.74333C17.1527 4.7383 16.8621 4.79743 16.5935 4.91694C16.3526 5.02702 16.1368 5.18616 15.9595 5.38556C15.7833 5.58874 15.6475 5.82462 15.5594 6.08C15.372 6.62914 15.372 7.22608 15.5594 7.77521C15.6487 8.03122 15.7865 8.26773 15.9651 8.47028C16.1419 8.66905 16.3576 8.82882 16.5985 8.93827C17.1376 9.1666 17.7434 9.1666 18.2824 8.93827C18.524 8.83197 18.7416 8.67597 18.9215 8.48034C19.1027 8.28032 19.2436 8.04569 19.3373 7.79094C19.5336 7.22922 19.5336 6.61593 19.3373 6.05421C19.2436 5.79883 19.1027 5.56483 18.9215 5.36418C18.7416 5.16918 18.524 5.01319 18.2824 4.90625C18.0182 4.7924 17.7327 4.73704 17.4458 4.74333ZM27.5982 5.22768C27.4756 5.15597 27.3491 5.09118 27.2189 5.03268C27.0503 4.95846 26.8767 4.89493 26.6994 4.84335C26.5081 4.78485 26.3144 4.73704 26.1175 4.70119C25.9118 4.66282 25.703 4.64332 25.4941 4.64332C25.1658 4.62445 24.8387 4.70307 24.5538 4.86976C24.3468 4.99179 24.2198 5.21636 24.221 5.45916C24.2172 5.56609 24.2487 5.67177 24.3097 5.7592C24.3713 5.84286 24.4512 5.91142 24.5431 5.95923C24.655 6.01647 24.7739 6.05925 24.8966 6.08567C25.0318 6.11712 25.1771 6.14542 25.3331 6.16995L26.0295 6.275C26.6484 6.33979 27.2403 6.56498 27.7492 6.92792C28.1763 7.24872 28.4191 7.76326 28.3983 8.3017C28.4015 8.61432 28.3304 8.92317 28.1908 9.20183C28.0448 9.47105 27.8404 9.70316 27.5932 9.88054C27.3032 10.0919 26.9774 10.2466 26.6321 10.3384C26.2087 10.4529 25.7715 10.5083 25.3331 10.502C25.1601 10.502 24.9589 10.4913 24.7305 10.4705C24.4833 10.4466 24.2386 10.4045 23.9977 10.3441C23.7279 10.2755 23.4637 10.1856 23.2077 10.0755C22.9366 9.95854 22.6799 9.8082 22.444 9.62831L23.1246 8.51242C23.2504 8.61055 23.3825 8.7005 23.5197 8.78039C23.6738 8.86908 23.8354 8.9433 24.0027 9.0018C24.1977 9.06973 24.3971 9.12069 24.6003 9.15465C24.8463 9.19491 25.0947 9.21441 25.3432 9.21252C25.737 9.23454 26.1301 9.15717 26.4867 8.98607C26.7207 8.87662 26.8717 8.64137 26.8761 8.38033C26.8723 8.18219 26.766 7.99977 26.5956 7.90164C26.3238 7.74816 26.0225 7.65507 25.7124 7.62802L25.0111 7.53304C24.3915 7.48209 23.8002 7.25186 23.3064 6.87005C22.9196 6.53856 22.7032 6.04603 22.7195 5.53275C22.7151 5.21636 22.7831 4.9031 22.9171 4.6169C23.0454 4.34579 23.236 4.10928 23.4731 3.92749C23.7354 3.73061 24.0311 3.58405 24.3456 3.49536C24.723 3.38905 25.113 3.33747 25.5042 3.34314C26.0093 3.33999 26.5125 3.40352 27.0007 3.53247C27.4359 3.64192 27.8517 3.8193 28.2323 4.05896L27.5982 5.22768ZM34.5715 4.86976H31.9737V7.83811C31.9731 8.0394 32.0064 8.2388 32.0718 8.42814C32.1196 8.5747 32.1976 8.70931 32.3008 8.82253C32.3939 8.92443 32.5096 9.0018 32.6386 9.04898C32.7732 9.09867 32.916 9.12383 33.0594 9.12257C33.2997 9.12069 33.5374 9.07477 33.7607 8.98607C33.9891 8.8999 34.2086 8.79045 34.4156 8.65961L34.9974 9.84909C34.7112 10.0428 34.4042 10.2038 34.0828 10.3284C33.7154 10.4661 33.3261 10.5341 32.9348 10.5284C32.28 10.5668 31.6378 10.3328 31.1579 9.88054C30.6855 9.32512 30.4533 8.60049 30.5131 7.87019V4.8748H29.1777V3.52178H30.5131V1.45859H31.9888V3.52178H34.5866L34.5715 4.86976ZM39.0917 3.33747C39.5345 3.33181 39.9729 3.41987 40.3805 3.59537C40.763 3.76332 41.1052 4.01304 41.3832 4.32755C41.6713 4.65841 41.8933 5.04275 42.038 5.45916C42.199 5.92778 42.2783 6.42093 42.2714 6.91723V7.20154V7.47014H37.2682C37.3046 7.74753 37.3927 8.0155 37.5279 8.25956C37.6462 8.46273 37.8009 8.64137 37.9852 8.78605C38.1632 8.92632 38.3658 9.03136 38.5828 9.09678C38.8067 9.16409 39.0395 9.19743 39.2735 9.1968C39.6282 9.19743 39.9805 9.13327 40.3126 9.00683C40.6491 8.88417 40.963 8.70616 41.2429 8.48034L41.9757 9.53332C41.5946 9.87111 41.1486 10.1258 40.6661 10.2806C40.1925 10.4259 39.7006 10.4988 39.2062 10.4969C38.7231 10.5139 38.2412 10.4353 37.7877 10.2648C37.3776 10.1025 37.0059 9.85538 36.6964 9.53836C36.3844 9.21504 36.1422 8.83008 35.9843 8.40675C35.8101 7.93561 35.7239 7.43617 35.7302 6.93295C35.7239 6.43602 35.8063 5.94225 35.9743 5.47489C36.1265 5.05281 36.3617 4.66596 36.6656 4.33761C36.9574 4.0231 37.3116 3.77401 37.7047 3.60607C38.1444 3.42365 38.6161 3.33433 39.0917 3.34314V3.33747ZM39.0659 4.66408C38.8262 4.65967 38.5885 4.70056 38.3645 4.78548C38.1695 4.86348 37.9922 4.98173 37.845 5.13269C37.694 5.28492 37.5707 5.46356 37.4808 5.65919C37.3782 5.87746 37.3065 6.10957 37.2682 6.3486H40.7599C40.7127 5.88501 40.5158 5.44972 40.1988 5.11194C39.8962 4.81315 39.4873 4.65213 39.0659 4.66408ZM47.379 3.33747C47.5828 3.33622 47.786 3.35257 47.9873 3.38528C48.1647 3.4161 48.3389 3.46579 48.5069 3.53247L48.1534 5.00626C47.9892 4.92198 47.8143 4.8597 47.6338 4.82196C47.4438 4.7817 47.2507 4.76032 47.057 4.75906C46.8368 4.75717 46.6179 4.79806 46.4129 4.87983C46.2147 4.95657 46.0367 5.07923 45.8933 5.23774C45.7448 5.40632 45.6316 5.60321 45.5605 5.81707C45.4775 6.06616 45.4372 6.32783 45.441 6.59076V10.3441H43.9704V3.50102H45.4253V4.26968C45.6316 3.96335 45.9153 3.71992 46.2462 3.56392C46.599 3.41044 46.9796 3.33496 47.3633 3.34314L47.379 3.33747ZM52.4036 3.33747C52.888 3.33244 53.3686 3.42553 53.8171 3.61172C54.2442 3.78848 54.6222 4.06902 54.9185 4.42757L53.9781 5.44343C53.7598 5.22831 53.5088 5.05093 53.2352 4.91694C52.9603 4.7924 52.6628 4.7295 52.3621 4.73264C52.0923 4.73013 51.8256 4.78359 51.5771 4.89053C51.3375 4.99368 51.1217 5.14591 50.9437 5.33776C50.7613 5.53779 50.6204 5.77241 50.5279 6.02779C50.3254 6.60083 50.3254 7.22796 50.5279 7.80163C50.6204 8.05701 50.7619 8.29101 50.9437 8.49104C51.1217 8.68352 51.3375 8.83574 51.5771 8.93827C51.8256 9.0452 52.0923 9.0993 52.3621 9.09678C52.6741 9.0993 52.9836 9.03136 53.266 8.89675C53.5397 8.76151 53.79 8.5835 54.0089 8.37026L54.9134 9.39683C54.6109 9.75285 54.2297 10.0321 53.8013 10.2126C53.3547 10.3982 52.876 10.4913 52.3929 10.4862C51.8954 10.4932 51.4004 10.4001 50.938 10.2126C50.0926 9.87111 49.4271 9.18548 49.1044 8.32246C48.7666 7.40409 48.7666 6.39326 49.1044 5.47489C49.4271 4.6125 50.0926 3.92686 50.938 3.58531C51.401 3.40855 51.8935 3.32678 52.3879 3.34314L52.4036 3.33747ZM62.7278 10.3384H61.2571V9.52263C61.0225 9.82708 60.7243 10.0749 60.3847 10.2491C59.9978 10.4378 59.572 10.5297 59.1423 10.5177C58.2428 10.5271 57.3786 10.1617 56.7527 9.5069C56.4419 9.17981 56.1979 8.79297 56.0356 8.37026C55.689 7.44057 55.689 6.41464 56.0356 5.48558C56.1985 5.06225 56.4419 4.67603 56.7527 4.34831C57.3786 3.6935 58.2428 3.32804 59.1423 3.33747C59.5726 3.32615 59.9984 3.41987 60.3847 3.61172C60.7243 3.78848 61.0225 4.0382 61.2571 4.34328V3.52178H62.7278V10.3384ZM59.3191 4.74333C59.026 4.7383 58.7354 4.79743 58.4674 4.91694C58.2258 5.02702 58.0101 5.18616 57.8333 5.38556C57.6572 5.58874 57.5213 5.82462 57.4333 6.08C57.2452 6.62914 57.2452 7.22608 57.4333 7.77521C57.5213 8.03059 57.6572 8.26647 57.8333 8.47028C58.0101 8.66905 58.2258 8.82882 58.4674 8.93827C59.0058 9.16598 59.6122 9.16598 60.1506 8.93827C60.3922 8.83197 60.6098 8.67597 60.7897 8.48034C60.9715 8.28032 61.113 8.04632 61.2055 7.79094C61.403 7.22922 61.403 6.61593 61.2055 6.05421C61.113 5.79883 60.9715 5.56421 60.7897 5.36418C60.6098 5.16918 60.3922 5.01319 60.1506 4.90625C59.8896 4.79429 59.6078 4.7383 59.3248 4.74333H59.3191ZM68.3028 3.34314C68.5066 3.34188 68.7097 3.3576 68.911 3.39031C69.0884 3.42176 69.2627 3.47083 69.4306 3.5375L69.0771 5.01193C68.9129 4.92701 68.738 4.86537 68.5575 4.82762C68.3676 4.78674 68.1744 4.76598 67.9807 4.76409C67.7606 4.7622 67.5416 4.80309 67.3366 4.88549C67.1384 4.96223 66.9604 5.08489 66.817 5.2434C66.6686 5.41135 66.5553 5.60886 66.4843 5.8221C66.4012 6.07119 66.361 6.33287 66.3648 6.5958V10.3491H64.8947V3.50605H66.3648V4.27471C66.5711 3.96586 66.8567 3.72055 67.1913 3.56392C67.5435 3.41044 67.9247 3.33496 68.3084 3.34314H68.3028ZM73.1248 3.34314C73.5544 3.33118 73.9803 3.42554 74.3665 3.61676C74.7062 3.79351 75.0043 4.04324 75.2396 4.34831V0.0898438H76.7096V10.3384H75.2396V9.52263C75.0043 9.82708 74.7068 10.0749 74.3665 10.2491C73.9797 10.4378 73.5538 10.5297 73.1248 10.5177C72.2247 10.5271 71.3604 10.1617 70.7346 9.5069C70.4182 9.18107 70.1697 8.79422 70.0017 8.37026C69.6552 7.44057 69.6552 6.41464 70.0017 5.48558C70.1647 5.06225 70.4087 4.67603 70.7188 4.34831C71.3453 3.6935 72.209 3.32804 73.1091 3.33747L73.1248 3.34314ZM78.4243 9.7126C78.4835 9.71071 78.5413 9.7214 78.596 9.74404C78.6483 9.76606 78.6961 9.79814 78.7363 9.8384C78.776 9.87803 78.8074 9.92457 78.83 9.97553C78.8753 10.0831 78.8753 10.2051 78.83 10.3126C78.8074 10.3636 78.776 10.4101 78.7363 10.4491C78.6961 10.4894 78.6483 10.5215 78.596 10.5441C78.5419 10.5687 78.4835 10.5806 78.4243 10.5806C78.2495 10.5831 78.0903 10.48 78.0192 10.3177C77.9733 10.2101 77.9733 10.0881 78.0192 9.98055C78.0639 9.87488 78.1476 9.79185 78.2532 9.74908C78.3086 9.72455 78.369 9.71197 78.43 9.7126H78.4243ZM78.4243 10.4862C78.469 10.4869 78.5137 10.4774 78.5545 10.4598C78.5935 10.4422 78.6288 10.4171 78.6583 10.3862C78.7873 10.2529 78.7873 10.0403 78.6583 9.90696C78.6288 9.87614 78.5935 9.85098 78.5545 9.83336C78.5118 9.82456 78.4671 9.82456 78.4243 9.83336C78.3816 9.82519 78.3375 9.82519 78.2947 9.83336C78.201 9.87928 78.1343 9.96735 78.1136 10.0705C78.0935 10.1736 78.1218 10.2806 78.191 10.3598C78.2205 10.3906 78.2557 10.4158 78.2947 10.4334C78.3356 10.4592 78.3816 10.4749 78.43 10.4806L78.4243 10.4862ZM78.4243 9.9598C78.4671 9.95728 78.5099 9.97049 78.5438 9.99691C78.5722 10.0196 78.5872 10.0548 78.5854 10.0912C78.5872 10.1227 78.5759 10.1535 78.5545 10.1755C78.5288 10.2 78.496 10.2145 78.4608 10.2177L78.591 10.3705H78.4866L78.3671 10.2177H78.3312V10.3705H78.2476V9.96483L78.4243 9.9598ZM78.3256 10.0334V10.1384H78.4243C78.4413 10.1434 78.4595 10.1434 78.4765 10.1384C78.4828 10.1252 78.4828 10.1101 78.4765 10.0969C78.4841 10.0837 78.4841 10.0674 78.4765 10.0548C78.4595 10.0498 78.4413 10.0498 78.4243 10.0548L78.3256 10.0334ZM73.2752 4.76975C72.982 4.76472 72.6914 4.82385 72.4235 4.94336C72.1819 5.05344 71.9662 5.21258 71.7894 5.41198C71.6133 5.61515 71.4774 5.85104 71.3894 6.10642C71.2019 6.65556 71.2019 7.2525 71.3894 7.80163C71.4774 8.05701 71.6133 8.29289 71.7894 8.4967C71.9662 8.69547 72.1819 8.85524 72.4235 8.96469C72.9619 9.19239 73.5683 9.19239 74.1067 8.96469C74.3483 8.85838 74.5659 8.70239 74.7458 8.50676C74.9452 8.29793 75.0993 8.04884 75.1981 7.77521C75.395 7.2135 75.395 6.6002 75.1981 6.03786C75.105 5.7831 74.9641 5.54848 74.7823 5.34845C74.6024 5.15345 74.3848 4.99746 74.1432 4.89053C73.8778 4.78233 73.5928 4.73201 73.3066 4.74333L73.2752 4.76975Z" fill="#96969D"/>
</svg>
