<svg width="33" height="21" viewBox="0 0 33 21" fill="none" xmlns="http://www.w3.org/2000/svg">
<path d="M22.2201 4.96771C20.5951 3.33438 17.9617 3.33438 16.3284 4.96771L15.1534 6.14271L13.9701 4.96771L15.1534 3.78438C17.4284 1.50938 21.1201 1.50938 23.4034 3.78438C25.6784 6.06771 25.6784 9.75938 23.4034 12.0344L22.2201 13.2177L21.0451 12.0344L22.2201 10.8594C23.8534 9.22604 23.8534 6.59271 22.2201 4.96771ZM20.4534 7.90938L14.5617 13.801L13.3867 12.626L19.2784 6.73438L20.4534 7.90938ZM10.4367 8.50104L11.6201 7.31771L12.7951 8.50104L11.6201 9.67604C9.98672 11.3094 9.98672 13.9427 11.6201 15.5677C13.2451 17.201 15.8784 17.201 17.5117 15.5677L18.6867 14.3927L19.8701 15.5677L18.6867 16.751C16.4117 19.026 12.7201 19.026 10.4367 16.751C8.16172 14.4677 8.16172 10.776 10.4367 8.50104Z" fill="#536471"/>
</svg>
