<svg width="57" height="25" viewBox="0 0 57 25" fill="none" xmlns="http://www.w3.org/2000/svg">
<path fill-rule="evenodd" clip-rule="evenodd" d="M22.9593 12.8984L20.1701 20.4209L19.8725 18.8928C19.1775 17.0185 17.6733 15.0518 15.9219 14.2552L18.4739 23.9151L21.491 23.9138L25.9771 12.8984H22.9593Z" fill="#96969D"/>
<path fill-rule="evenodd" clip-rule="evenodd" d="M25.3516 23.9253L27.1349 12.8867H29.9852L28.2006 23.9253H25.3516Z" fill="#96969D"/>
<path fill-rule="evenodd" clip-rule="evenodd" d="M38.5413 13.1597C37.9779 12.9371 37.0896 12.6953 35.9873 12.6953C33.1675 12.6953 31.1869 14.1942 31.1696 16.3376C31.1517 17.9249 32.5862 18.8105 33.6645 19.3381C34.7774 19.8783 35.1488 20.2244 35.1455 20.7074C35.1349 21.4469 34.2552 21.7838 33.438 21.7838C32.2985 21.7838 31.6912 21.6177 30.757 21.2071L30.387 21.031L29.9883 23.5013C30.6554 23.8089 31.8859 24.0754 33.1655 24.0893C36.1574 24.0893 38.1041 22.6077 38.1274 20.3194C38.1394 19.0604 37.3779 18.1069 35.7322 17.3203C34.7389 16.8087 34.1243 16.4691 34.1336 15.9509C34.1343 15.4925 34.6485 15.0015 35.7661 15.0015C36.6996 14.9862 37.3713 15.2001 37.8995 15.426L38.1533 15.5529L38.5413 13.1597ZM45.8512 12.8992H43.6493C42.9663 12.8992 42.4547 13.0939 42.1537 13.8155L37.9228 23.9299H40.9159C40.9159 23.9299 41.4056 22.5685 41.5166 22.2702C41.8428 22.2702 44.7503 22.2768 45.1655 22.2768C45.2532 22.6615 45.5124 23.9299 45.5124 23.9299H48.1587L45.8512 12.8992ZM42.3365 20.0125C42.573 19.3786 43.4719 16.9269 43.4719 16.9269C43.454 16.9568 43.7058 16.2884 43.8507 15.8752L44.0407 16.8266C44.0407 16.8266 44.5882 19.461 44.7024 20.0125H42.3365Z" fill="#96969D"/>
<path fill-rule="evenodd" clip-rule="evenodd" d="M17.5846 12.8945H12.9875L12.9609 13.0846C16.5348 13.9988 18.8928 16.2432 19.8748 18.8975L18.8755 13.8247C18.7041 13.1264 18.2038 12.9191 17.5846 12.8945Z" fill="#BBBBC1"/>
<path fill-rule="evenodd" clip-rule="evenodd" d="M4.36394 10.2243H2.54611L0.449219 0.773028L2.4584 0.4375L3.89287 7.83376L7.54649 0.535166H9.47596L4.36394 10.2243Z" fill="#96969D"/>
<path fill-rule="evenodd" clip-rule="evenodd" d="M13.8157 7.13595H9.48166C9.36339 8.45016 9.97399 9.02356 11.0085 9.02356C11.8756 9.02356 12.6383 8.70198 13.4589 8.1844L13.4522 9.49861C12.6476 10.0022 11.7175 10.3238 10.6265 10.3238C8.73951 10.3238 7.49307 9.24747 7.86713 6.81438C8.20532 4.61982 9.7235 3.29165 11.4856 3.29165C13.5127 3.29165 14.1871 4.81516 13.8921 6.73066C13.8708 6.87086 13.831 7.03828 13.8157 7.13595ZM11.265 4.45172C10.5939 4.45172 9.96668 4.98325 9.67102 6.08751H12.3553C12.4045 5.03906 12.0756 4.45172 11.265 4.45172ZM16.6408 6.31142L16.0448 10.1842H14.3671L15.4063 3.43118H16.8328L16.8334 4.78725C17.4015 4.00457 18.1736 3.34746 19.2307 3.29165L19.2406 4.95535C18.1809 5.02511 17.2281 5.58455 16.6408 6.31142ZM19.2187 10.1842L20.2578 3.43118H21.9355L20.8963 10.1842H19.2187ZM21.285 2.29902C20.7256 2.29902 20.3389 1.90701 20.4246 1.34824C20.513 0.774853 21.0226 0.369561 21.582 0.369561C22.1275 0.369561 22.5122 0.774853 22.4238 1.34824C22.3375 1.90701 21.8305 2.29902 21.285 2.29902ZM26.5817 1.58544C26.0083 1.58544 25.6622 1.83725 25.5698 2.43854L25.417 3.43118H26.7033L26.702 4.8012H25.2057L24.3772 10.1842H22.7135L23.5427 4.8012H22.5634L22.7746 3.43118H23.7527L23.9314 2.27045C24.1619 0.774854 25.1984 0.215415 26.5824 0.215415C26.8767 0.215415 27.096 0.24399 27.2594 0.271231L27.2721 1.64191C27.1086 1.61401 26.8615 1.58544 26.5817 1.58544ZM26.5997 10.1842L27.6395 3.43118H29.3171L28.278 10.1842H26.5997ZM28.6667 2.29902C28.1072 2.29902 27.7205 1.90701 27.8063 1.34824C27.8946 0.774853 28.4042 0.369561 28.9637 0.369561C29.5085 0.369561 29.8938 0.774853 29.8055 1.34824C29.7198 1.90701 29.2122 2.29902 28.6667 2.29902ZM35.8217 7.13595H31.4878C31.3688 8.45016 31.9801 9.02356 33.0146 9.02356C33.8817 9.02356 34.6437 8.70198 35.465 8.1844L35.4576 9.49861C34.6537 10.0022 33.7229 10.3238 32.6326 10.3238C30.745 10.3238 29.4992 9.24747 29.8732 6.81438C30.2114 4.61982 31.7296 3.29165 33.491 3.29165C35.5188 3.29165 36.1925 4.81516 35.8982 6.73066C35.8762 6.87086 35.8364 7.03828 35.8217 7.13595ZM33.2711 4.45172C32.5993 4.45172 31.9728 4.98325 31.6771 6.08751H34.3614C34.4105 5.03906 34.0816 4.45172 33.2711 4.45172ZM40.7909 10.1842L40.7956 9.24746C40.2315 9.82085 39.4973 10.3238 38.5605 10.3238C37.1479 10.3238 36.1779 9.27537 36.528 6.99643C36.9154 4.47962 38.4714 3.36141 40.0375 3.36141C40.6806 3.36141 41.1809 3.47304 41.5649 3.61323L42.0659 0.355611L43.7848 0.0898438L42.2314 10.1842H40.7909ZM41.3517 4.99721C40.9623 4.8012 40.656 4.70353 40.0826 4.70353C39.2016 4.70353 38.4488 5.41645 38.2209 6.89876C38.019 8.21231 38.4834 8.82756 39.2242 8.82756C39.8395 8.82756 40.3703 8.46478 40.9039 7.90535L41.3517 4.99721ZM47.3706 10.2474C46.5766 10.2474 45.9288 10.1205 45.3262 9.90856L46.4298 2.73952L47.7314 2.53754L47.2543 5.64102C47.6344 5.30217 48.1632 4.96332 48.8091 4.96332C49.8894 4.96332 50.6129 5.76792 50.3485 7.48344C50.0588 9.36839 48.8961 10.2474 47.3706 10.2474ZM48.3081 6.08552C47.8842 6.08552 47.459 6.37121 47.0829 6.75325L46.7255 9.07206C46.9759 9.16707 47.1493 9.20959 47.5095 9.20959C48.3141 9.20959 48.8768 8.72258 49.0556 7.55786C49.2077 6.57253 48.8802 6.08552 48.3081 6.08552ZM53.3424 10.4593C52.6932 11.7197 52.0507 12.1117 51.0661 12.1117C50.8435 12.1117 50.7199 12.0898 50.6083 12.0586L50.5997 11.0101C50.7631 11.0526 50.9378 11.0839 51.1817 11.0839C51.5524 11.0839 51.8747 10.9151 52.0906 10.5444L52.2594 10.2055L51.1817 5.16397L52.5318 4.99521L53.157 8.63753L54.8506 5.06896H56.1103L53.3424 10.4593Z" fill="#96969D"/>
</svg>
