<svg width="45" height="17" viewBox="0 0 45 17" fill="none" xmlns="http://www.w3.org/2000/svg">
<path d="M21.2941 3.24012V7.28341H23.9603C24.253 7.2909 24.5441 7.24156 24.8153 7.13852C25.0865 7.03547 25.3319 6.88096 25.5358 6.68478C25.8349 6.39772 26.0364 6.03445 26.1149 5.64069C26.1935 5.24694 26.1455 4.8403 25.9771 4.47194C25.8087 4.10359 25.5273 3.78998 25.1684 3.57059C24.8096 3.3512 24.3892 3.23582 23.9603 3.23899H21.2941V3.24012ZM21.2941 8.70699V13.3975H19.6992V1.82107H23.93C24.4348 1.81136 24.9366 1.89494 25.4067 2.06701C25.8767 2.23908 26.3057 2.49624 26.6689 2.82369C27.0302 3.1364 27.3185 3.51542 27.5156 3.93701C27.7127 4.35859 27.8145 4.81364 27.8145 5.27365C27.8145 5.73366 27.7127 6.18871 27.5156 6.61029C27.3185 7.03187 27.0302 7.4109 26.6689 7.72361C25.9297 8.38221 25.0167 8.71114 23.93 8.71038H21.2941V8.70699Z" fill="#7E7E86"/>
<path d="M29.4323 10.973C29.4312 11.1627 29.4787 11.35 29.5708 11.5192C29.6629 11.6883 29.797 11.8342 29.962 11.9451C30.3148 12.2034 30.7523 12.34 31.2005 12.3321C31.8737 12.3313 32.519 12.0814 32.9954 11.6373C33.2434 11.4329 33.442 11.1816 33.578 10.9001C33.7141 10.6186 33.7844 10.3132 33.7843 10.0044C33.2875 9.63698 32.5938 9.45365 31.7035 9.45441C31.0571 9.45441 30.517 9.60001 30.0831 9.89121C29.6493 10.1824 29.4323 10.543 29.4323 10.973ZM31.4926 5.21875C32.6722 5.21875 33.6013 5.5126 34.28 6.10028C34.9587 6.68797 35.2992 7.49369 35.3017 8.51743V13.4004H33.7819V12.3004H33.7116C33.0531 13.2057 32.1749 13.6583 31.0769 13.6583C30.1413 13.6583 29.356 13.4003 28.727 12.8821C28.4245 12.6445 28.1827 12.3469 28.0192 12.0109C27.8556 11.675 27.7745 11.3092 27.7817 10.9402C27.7817 10.1224 28.1138 9.47063 28.7779 8.98479C29.442 8.49894 30.3308 8.2564 31.4441 8.25716C32.3918 8.25716 33.1723 8.4186 33.7855 8.74149V8.402C33.7872 8.15037 33.7289 7.90154 33.6149 7.67353C33.5008 7.44552 33.3339 7.24404 33.1263 7.08366C32.7032 6.72849 32.1523 6.53534 31.5835 6.54275C30.6948 6.54275 29.9898 6.89317 29.4687 7.59403L28.0629 6.76907C28.8353 5.73553 29.9785 5.21875 31.4926 5.21875Z" fill="#7E7E86"/>
<path d="M44.0631 5.47266L38.7392 16.8907H37.0922L39.0688 12.8961L35.5664 5.47266H37.3006L39.8323 11.1658H39.8663L42.3289 5.47266H44.0631Z" fill="#7E7E86"/>
<path d="M14.847 7.69779C14.8483 7.24274 14.8077 6.78842 14.7258 6.33984H7.99609V8.9075H11.856C11.7774 9.31708 11.6105 9.70749 11.3655 10.0551C11.1205 10.4027 10.8025 10.7002 10.4308 10.9297V12.5943H12.7334C14.0799 11.4355 14.8555 9.7234 14.8555 7.69779" fill="#7E7E86"/>
<path d="M7.99847 14.2012C9.9242 14.2012 11.5446 13.6116 12.725 12.5943L10.4223 10.9297C9.78241 11.3325 8.95831 11.5668 7.99847 11.5668C6.13818 11.5668 4.55905 10.3967 3.99915 8.82031H1.625V10.537C2.21945 11.6394 3.13013 12.5659 4.25549 13.2133C5.38085 13.8607 6.67668 14.2035 7.99847 14.2035" fill="#7E7E86"/>
<path d="M3.99238 8.82029C3.69342 7.99413 3.69342 7.09915 3.99238 6.273V4.55859H1.62308C1.12349 5.48557 0.863281 6.5089 0.863281 7.54664C0.863281 8.58438 1.12349 9.60771 1.62308 10.5347L3.99238 8.82029Z" fill="#7E7E86"/>
<path d="M7.99847 3.5266C9.01594 3.51103 9.9992 3.86949 10.7362 4.52469L12.7722 2.6247C11.4803 1.49314 9.76971 0.871937 7.99847 0.891053C6.67668 0.891045 5.38086 1.23384 4.25549 1.88123C3.13013 2.52862 2.21945 3.45515 1.625 4.55751L3.9943 6.27191C4.55905 4.69443 6.13818 3.52547 7.99362 3.52547" fill="#7E7E86"/>
</svg>
