<svg width="20" height="21" viewBox="0 0 20 21" fill="none" xmlns="http://www.w3.org/2000/svg">
<path d="M9.9987 17.0456C13.7987 17.0456 16.8737 13.9706 16.8737 10.1706C16.8737 6.37057 13.7987 3.29557 9.9987 3.29557C6.1987 3.29557 3.1237 6.37057 3.1237 10.1706C3.1237 13.9706 6.1987 17.0456 9.9987 17.0456ZM18.5404 10.1706C18.5404 14.8872 14.7154 18.7122 9.9987 18.7122C5.28203 18.7122 1.45703 14.8872 1.45703 10.1706C1.45703 5.45391 5.28203 1.62891 9.9987 1.62891C14.7154 1.62891 18.5404 5.45391 18.5404 10.1706ZM8.7487 13.0872C8.7487 12.3956 9.30703 11.8372 9.9987 11.8372C10.6904 11.8372 11.2487 12.3956 11.2487 13.0872C11.2487 13.7789 10.6904 14.3372 9.9987 14.3372C9.30703 14.3372 8.7487 13.7789 8.7487 13.0872ZM9.16536 10.7539L8.95703 6.00391H11.0404L10.832 10.7539C10.832 10.7539 10.4154 10.5872 9.9987 10.5872C9.58203 10.5872 9.16536 10.7539 9.16536 10.7539Z" fill="black"/>
</svg>
