<svg width="24" height="25" viewBox="0 0 24 25" fill="none" xmlns="http://www.w3.org/2000/svg">
<path d="M20.0274 12.3086C20.0274 12.4088 20.013 12.5053 19.9844 12.5981C19.9558 12.6914 19.8985 12.7739 19.8126 12.8455L15.0663 17.5918C14.9518 17.7207 14.8049 17.7851 14.6256 17.7851C14.4469 17.7851 14.2931 17.7207 14.1643 17.5918C14.0497 17.463 13.9925 17.3089 13.9925 17.1296C13.9925 16.951 14.0497 16.7972 14.1643 16.6683L17.9012 12.9529H4.67163C4.4855 12.9529 4.33144 12.8919 4.20946 12.7699C4.08804 12.6485 4.02734 12.4947 4.02734 12.3086C4.02734 12.1225 4.08804 11.9684 4.20946 11.8464C4.33144 11.725 4.4855 11.6643 4.67163 11.6643H17.9012L14.1643 7.92733C14.0497 7.81279 13.9887 7.66589 13.9813 7.48663C13.9744 7.30795 14.0354 7.15418 14.1643 7.02532C14.2931 6.89646 14.4469 6.83203 14.6256 6.83203C14.8049 6.83203 14.9518 6.89646 15.0663 7.02532L19.8126 11.7717C19.8985 11.8433 19.9558 11.9254 19.9844 12.0182C20.013 12.1116 20.0274 12.2084 20.0274 12.3086Z" fill="#292B2E"/>
</svg>
