<svg width="49" height="49" viewBox="0 0 49 49" fill="none" xmlns="http://www.w3.org/2000/svg">
<g clip-path="url(#clip0_396_20052)">
<g clip-path="url(#clip1_396_20052)">
<g clip-path="url(#clip2_396_20052)">
<path d="M43.5491 37.5486L42.1221 36.1216C43.2031 34.4783 44.0356 32.6837 44.6194 30.7378C45.2032 28.7918 45.4951 26.7593 45.4951 24.6405C45.4951 18.7161 43.4194 13.6782 39.268 9.52691C35.1167 5.37556 30.0788 3.29987 24.1545 3.29987C22.0355 3.29987 20.0032 3.59177 18.0572 4.17556C16.1113 4.75934 14.2734 5.59176 12.5437 6.67284L11.1815 5.18095C13.0842 3.97014 15.1274 3.01879 17.3113 2.32689C19.495 1.63501 21.7761 1.28906 24.1545 1.28906C27.3978 1.28906 30.4355 1.90528 33.268 3.1377C36.1004 4.37014 38.5653 6.03501 40.6626 8.1323C42.7598 10.2296 44.4248 12.6945 45.6572 15.527C46.8897 18.3593 47.5059 21.3972 47.5059 24.6405C47.5059 27.0188 47.1599 29.2998 46.468 31.4837C45.7761 33.6675 44.8031 35.689 43.5491 37.5486ZM44.4572 47.7324L15.0734 18.4134C14.468 19.3216 14.0032 20.2945 13.6788 21.3324C13.3545 22.3702 13.1923 23.4729 13.1923 24.6405C13.1923 26.1107 13.4518 27.4836 13.9707 28.7594C14.4897 30.035 15.2032 31.1702 16.1113 32.1648C16.3274 32.3809 16.4464 32.608 16.468 32.8459C16.4896 33.0837 16.3707 33.3324 16.1113 33.5918C15.895 33.808 15.6572 33.9053 15.3978 33.8837C15.1383 33.8621 14.9004 33.7431 14.6843 33.527C13.6031 32.4026 12.7491 31.0729 12.1221 29.5378C11.495 28.0026 11.1815 26.3702 11.1815 24.6405C11.1815 23.2134 11.3977 21.8621 11.8302 20.5864C12.2626 19.3107 12.868 18.1323 13.6464 17.0513L7.67882 11.0188C6.12207 12.8783 4.92207 14.9647 4.07882 17.2783C3.23558 19.5918 2.81396 22.0459 2.81396 24.6405C2.81396 27.5809 3.34368 30.3053 4.40315 32.8134C5.4626 35.3215 6.94368 37.5269 8.84639 39.4297C8.97612 39.6458 9.06261 39.8837 9.10585 40.1432C9.14909 40.4026 9.04099 40.6621 8.78153 40.9216C8.60856 41.0945 8.38153 41.181 8.10045 41.181C7.81936 41.181 7.57072 41.0728 7.3545 40.8567C5.32206 38.7377 3.72207 36.2945 2.5545 33.527C1.38693 30.7593 0.803146 27.7972 0.803146 24.6405C0.803146 21.7864 1.28963 19.0836 2.26261 16.5324C3.23558 13.981 4.56531 11.6674 6.2518 9.59176L1.06261 4.33772C0.846389 4.16474 0.738281 3.93771 0.738281 3.65662C0.738281 3.37555 0.846389 3.1269 1.06261 2.91068C1.23558 2.73771 1.46261 2.65122 1.74369 2.65122C2.02477 2.65122 2.27341 2.73771 2.48963 2.91068L45.8843 46.3053C46.0572 46.5215 46.1437 46.7702 46.1437 47.0513C46.1437 47.3323 46.0572 47.5593 45.8843 47.7324C45.668 47.9485 45.4193 48.0567 45.1383 48.0567C44.8572 48.0567 44.6302 47.9485 44.4572 47.7324ZM35.9599 29.9594L34.4032 28.4675C34.6193 27.8621 34.7924 27.2458 34.9221 26.6189C35.0518 25.9917 35.1167 25.3323 35.1167 24.6405C35.1167 21.6134 34.0464 19.0297 31.9059 16.8891C29.7653 14.7486 27.1815 13.6782 24.1545 13.6782C23.4625 13.6782 22.8031 13.7431 22.1761 13.8728C21.549 14.0026 20.9328 14.1756 20.3275 14.3918L18.8356 12.835C19.6572 12.4458 20.5112 12.1539 21.3978 11.9593C22.2842 11.7647 23.2031 11.6674 24.1545 11.6674C27.7436 11.6674 30.8032 12.9323 33.3329 15.4621C35.8626 17.9918 37.1275 21.0512 37.1275 24.6405C37.1275 25.5918 37.0302 26.5107 36.8356 27.3972C36.641 28.2837 36.3491 29.1377 35.9599 29.9594Z" fill="#1C1B1F"/>
</g>
</g>
</g>
<defs>
<clipPath id="clip0_396_20052">
<rect width="48" height="48" fill="white" transform="translate(0.589844 0.941406)"/>
</clipPath>
<clipPath id="clip1_396_20052">
<rect width="48" height="48" fill="white" transform="translate(0.589844 0.941406)"/>
</clipPath>
<clipPath id="clip2_396_20052">
<rect width="48" height="48" fill="white" transform="translate(0.589844 0.941406)"/>
</clipPath>
</defs>
</svg>
