<svg width="70" height="19" viewBox="0 0 70 19" fill="none" xmlns="http://www.w3.org/2000/svg">
<g clip-path="url(#clip0_396_19694)">
<g clip-path="url(#clip1_396_19694)">
<g clip-path="url(#clip2_396_19694)">
<path d="M18.7848 6.65234H25.6869V7.93725H22.9693V15.1805H21.4797V7.93725H18.7734L18.7848 6.65234ZM25.3913 9.00611H26.6648V10.2001H26.6876C26.733 10.0295 26.8126 9.87031 26.9264 9.71111C27.0401 9.55192 27.1765 9.4041 27.3471 9.27902C27.5063 9.14257 27.6882 9.04023 27.8929 8.96063C28.0862 8.88104 28.2909 8.83555 28.4955 8.83555C28.6547 8.83555 28.7684 8.84692 28.8253 8.84692C28.8822 8.85829 28.9504 8.86967 29.0072 8.86967V10.1773C28.9163 10.1546 28.8139 10.1432 28.7116 10.1318C28.6093 10.1205 28.5183 10.1091 28.4159 10.1091C28.1885 10.1091 27.9725 10.1546 27.7678 10.2455C27.5631 10.3365 27.3926 10.473 27.2334 10.6435C27.0855 10.8255 26.9605 11.0415 26.8695 11.303C26.7785 11.5646 26.733 11.8716 26.733 12.2127V15.1464H25.3685L25.3913 9.00611ZM35.2612 15.1805H33.9195V14.3163H33.8967C33.7262 14.6347 33.476 14.8735 33.1462 15.0668C32.8165 15.2601 32.4754 15.3511 32.1342 15.3511C31.3269 15.3511 30.7356 15.1578 30.3717 14.7484C30.0079 14.3504 29.8259 13.7364 29.8259 12.9291V9.00611H31.1904V12.7926C31.1904 13.3384 31.2928 13.725 31.5088 13.9411C31.7135 14.1685 32.0092 14.2822 32.3844 14.2822C32.6687 14.2822 32.9075 14.2367 33.1008 14.1458C33.2941 14.0548 33.4533 13.9411 33.567 13.7933C33.6921 13.6455 33.7717 13.4635 33.8285 13.2588C33.8854 13.0542 33.9081 12.8267 33.9081 12.588V9.00611H35.2726V15.1805H35.2612ZM37.5809 13.202C37.6264 13.6 37.7742 13.8729 38.0357 14.0434C38.2973 14.2026 38.6157 14.2822 38.9795 14.2822C39.1046 14.2822 39.2524 14.2709 39.4116 14.2481C39.5708 14.2254 39.73 14.1913 39.8665 14.1344C40.0143 14.0775 40.128 13.9979 40.219 13.8842C40.3099 13.7705 40.3554 13.6341 40.344 13.4635C40.3327 13.293 40.2758 13.1451 40.1507 13.0314C40.0257 12.9177 39.8778 12.8381 39.6959 12.7585C39.514 12.6903 39.2979 12.6334 39.0591 12.588C38.8203 12.5425 38.5816 12.4856 38.3314 12.4288C38.0812 12.3719 37.8311 12.3037 37.5923 12.2241C37.3535 12.1445 37.1488 12.0422 36.9555 11.8943C36.7736 11.7579 36.6144 11.5873 36.512 11.3713C36.3983 11.1552 36.3415 10.9051 36.3415 10.5867C36.3415 10.2455 36.4211 9.97264 36.5916 9.74522C36.7508 9.51781 36.9669 9.33587 37.217 9.19942C37.4672 9.06297 37.7515 8.96063 38.0585 8.90378C38.3655 8.84692 38.6611 8.82418 38.934 8.82418C39.2524 8.82418 39.5594 8.8583 39.8437 8.92652C40.128 8.99475 40.4009 9.09708 40.6283 9.25628C40.8671 9.4041 41.0604 9.60877 41.2082 9.84756C41.3674 10.0864 41.4584 10.382 41.5039 10.7231H40.0825C40.0143 10.3934 39.8665 10.1773 39.639 10.0636C39.4003 9.9499 39.1387 9.89305 38.8317 9.89305C38.7407 9.89305 38.6157 9.90442 38.4906 9.91579C38.3541 9.93853 38.2404 9.96127 38.1153 10.0068C38.0016 10.0522 37.8993 10.1205 37.8197 10.2001C37.7401 10.2797 37.6946 10.3934 37.6946 10.5298C37.6946 10.7004 37.7515 10.8255 37.8652 10.9278C37.9789 11.0301 38.1267 11.1097 38.32 11.1893C38.502 11.2576 38.718 11.3144 38.9568 11.3599C39.1956 11.4054 39.4457 11.4622 39.6959 11.5191C39.9461 11.5759 40.1849 11.6442 40.4236 11.7238C40.6624 11.8034 40.8785 11.9057 41.0604 12.0535C41.2423 12.19 41.4015 12.3605 41.5153 12.5652C41.629 12.7699 41.6858 13.0314 41.6858 13.3271C41.6858 13.6909 41.6062 13.998 41.4357 14.2595C41.2651 14.5096 41.049 14.7257 40.7875 14.8849C40.526 15.0441 40.219 15.1578 39.9006 15.2374C39.5708 15.3056 39.2524 15.3511 38.934 15.3511C38.5474 15.3511 38.1836 15.3056 37.8538 15.2146C37.5241 15.1237 37.2284 14.9872 36.9896 14.8167C36.7508 14.6347 36.5575 14.4187 36.4211 14.1458C36.2846 13.8842 36.205 13.5659 36.1937 13.1906H37.5695V13.202H37.5809ZM42.0724 9.00611H43.1072V7.14128H44.4717V8.99474H45.6997V10.0068H44.4717V13.3043C44.4717 13.4521 44.4831 13.5659 44.4944 13.6796C44.5058 13.7819 44.5399 13.8729 44.574 13.9411C44.6195 14.0093 44.6877 14.0662 44.7673 14.1003C44.8583 14.1344 44.972 14.1571 45.1312 14.1571C45.2222 14.1571 45.3245 14.1571 45.4155 14.1458C45.5064 14.1344 45.6088 14.123 45.6997 14.1003V15.1578C45.5519 15.1805 45.4041 15.1919 45.2563 15.2033C45.1085 15.226 44.972 15.226 44.8128 15.226C44.4489 15.226 44.1647 15.1919 43.9486 15.1237C43.7326 15.0554 43.562 14.9531 43.4369 14.828C43.3119 14.6916 43.2323 14.5324 43.1868 14.3391C43.1413 14.1458 43.1186 13.907 43.1072 13.6568V10.0181H42.0724V8.98338V9.00611ZM46.6549 9.00611H47.9398V9.84756H47.9626C48.1559 9.48369 48.4174 9.23353 48.7585 9.07434C49.0997 8.91515 49.4635 8.83555 49.8729 8.83555C50.3618 8.83555 50.7825 8.91515 51.1464 9.09708C51.5103 9.26765 51.8059 9.49506 52.0447 9.80208C52.2835 10.0977 52.4654 10.4502 52.5792 10.8482C52.6929 11.2462 52.7611 11.6783 52.7611 12.1217C52.7611 12.5425 52.7042 12.9405 52.6019 13.3271C52.4882 13.7137 52.329 14.0662 52.1129 14.3618C51.8969 14.6575 51.624 14.8963 51.2829 15.0782C50.9417 15.2601 50.5551 15.3511 50.1003 15.3511C49.907 15.3511 49.7023 15.3283 49.509 15.2942C49.3157 15.2601 49.1224 15.2033 48.9405 15.1237C48.7585 15.0441 48.588 14.9417 48.4401 14.8167C48.2809 14.6916 48.1559 14.5438 48.0535 14.3846H48.0308V17.4661H46.6663V9.00611H46.6549ZM51.4193 12.099C51.4193 11.8261 51.3852 11.5532 51.3056 11.2917C51.2374 11.0301 51.1237 10.8027 50.9759 10.598C50.828 10.3934 50.6461 10.2342 50.4414 10.1091C50.2254 9.98402 49.9752 9.92716 49.7023 9.92716C49.1338 9.92716 48.7017 10.1205 48.406 10.5184C48.1218 10.9164 47.9739 11.4509 47.9739 12.1104C47.9739 12.4288 48.008 12.713 48.0876 12.9746C48.1672 13.2361 48.2696 13.4635 48.4288 13.6568C48.5766 13.8501 48.7585 13.9979 48.9746 14.1117C49.1906 14.2254 49.4294 14.2822 49.7137 14.2822C50.0321 14.2822 50.2822 14.214 50.4983 14.0889C50.7143 13.9638 50.8849 13.7933 51.0327 13.6C51.1692 13.3953 51.2715 13.1679 51.3284 12.9063C51.3852 12.6334 51.4193 12.3719 51.4193 12.099ZM53.8186 6.65234H55.1831V7.93725H53.8186V6.65234ZM53.8186 9.00611H55.1831V15.1805H53.8186V9.00611ZM56.3998 6.65234H57.7643V15.1805H56.3998V6.65234ZM61.9261 15.3511C61.4371 15.3511 60.9936 15.2715 60.607 15.1009C60.2204 14.9304 59.902 14.7143 59.6291 14.43C59.3676 14.1458 59.1629 13.7933 59.0265 13.3953C58.89 12.9973 58.8104 12.5538 58.8104 12.0876C58.8104 11.6214 58.8786 11.1893 59.0265 10.7914C59.1629 10.3934 59.3676 10.0522 59.6291 9.7566C59.8907 9.47232 60.2204 9.24491 60.607 9.08571C60.9936 8.92652 61.4371 8.83555 61.9261 8.83555C62.415 8.83555 62.8585 8.91515 63.2451 9.08571C63.6317 9.24491 63.9501 9.47232 64.223 9.7566C64.4845 10.0409 64.6892 10.3934 64.8256 10.7914C64.9621 11.1893 65.0417 11.6214 65.0417 12.0876C65.0417 12.5652 64.9735 12.9973 64.8256 13.3953C64.6778 13.7933 64.4845 14.1344 64.223 14.43C63.9615 14.7143 63.6317 14.9417 63.2451 15.1009C62.8585 15.2601 62.4264 15.3511 61.9261 15.3511ZM61.9261 14.2709C62.2217 14.2709 62.4946 14.2026 62.7107 14.0775C62.9381 13.9525 63.1086 13.7819 63.2565 13.5772C63.4043 13.3726 63.5066 13.1338 63.5748 12.8836C63.6431 12.6221 63.6772 12.3605 63.6772 12.0876C63.6772 11.8261 63.6431 11.5646 63.5748 11.303C63.5066 11.0415 63.4043 10.8141 63.2565 10.6094C63.1086 10.4047 62.9267 10.2455 62.7107 10.1205C62.4832 9.99539 62.2217 9.92716 61.9261 9.92716C61.6304 9.92716 61.3575 9.99539 61.1415 10.1205C60.914 10.2455 60.7435 10.4161 60.5957 10.6094C60.4478 10.8141 60.3455 11.0415 60.2773 11.303C60.209 11.5646 60.1749 11.8261 60.1749 12.0876C60.1749 12.3605 60.209 12.6221 60.2773 12.8836C60.3455 13.1451 60.4478 13.3726 60.5957 13.5772C60.7435 13.7819 60.9254 13.9525 61.1415 14.0775C61.3689 14.214 61.6304 14.2709 61.9261 14.2709ZM65.451 9.00611H66.4858V7.14128H67.8503V8.99474H69.0784V10.0068H67.8503V13.3043C67.8503 13.4521 67.8617 13.5659 67.8731 13.6796C67.8844 13.7819 67.9185 13.8729 67.9526 13.9411C67.9981 14.0093 68.0664 14.0662 68.146 14.1003C68.2369 14.1344 68.3506 14.1571 68.5098 14.1571C68.6008 14.1571 68.7031 14.1571 68.7941 14.1458C68.8851 14.1344 68.9874 14.123 69.0784 14.1003V15.1578C68.9305 15.1805 68.7827 15.1919 68.6349 15.2033C68.4871 15.226 68.3506 15.226 68.1914 15.226C67.8276 15.226 67.5433 15.1919 67.3272 15.1237C67.1112 15.0554 66.9406 14.9531 66.8156 14.828C66.6905 14.6916 66.6109 14.5324 66.5654 14.3391C66.5199 14.1458 66.4972 13.907 66.4858 13.6568V10.0181H65.451V8.98338V9.00611Z" fill="#292B2E"/>
<path d="M17.1916 6.65046H10.9489L9.02725 0.714844L7.0942 6.65046L0.851562 6.63909L5.90025 10.3119L3.96719 16.2475L9.01588 12.5747L14.0646 16.2475L12.1429 10.3119L17.1916 6.65046Z" fill="#51B37F"/>
<path d="M12.5751 11.6542L12.143 10.3125L9.02734 12.5753L12.5751 11.6542Z" fill="white"/>
</g>
</g>
</g>
<defs>
<clipPath id="clip0_396_19694">
<rect width="69" height="18" fill="white" transform="translate(0.078125 0.0898438)"/>
</clipPath>
<clipPath id="clip1_396_19694">
<rect width="69" height="18" fill="white" transform="translate(0.078125 0.0898438)"/>
</clipPath>
<clipPath id="clip2_396_19694">
<rect width="69" height="18" fill="white" transform="translate(0.078125 0.0898438)"/>
</clipPath>
</defs>
</svg>
