<svg width="37" height="36" viewBox="0 0 37 36" fill="none" xmlns="http://www.w3.org/2000/svg">
<g clip-path="url(#clip0_396_15578)">
<g clip-path="url(#clip1_396_15578)">
<path fill-rule="evenodd" clip-rule="evenodd" d="M11.4759 10.056C9.88754 9.73981 8.24105 9.90182 6.74471 10.5215C5.24838 11.1412 3.96942 12.1907 3.06958 13.5373C2.16975 14.8839 1.68945 16.4671 1.68945 18.0867C1.68945 19.7063 2.16975 21.2895 3.06958 22.6361C3.96942 23.9827 5.24838 25.0322 6.74471 25.6518C8.24105 26.2715 9.88754 26.4335 11.4759 26.1174C13.0547 25.8032 14.5056 25.0307 15.6474 23.8967C16.7821 22.8645 17.7836 21.6982 18.6306 20.4252C19.4777 21.6982 20.4791 22.8645 21.614 23.8967C22.7558 25.0307 24.2066 25.8032 25.7853 26.1174C27.3738 26.4335 29.0202 26.2715 30.5166 25.6518C32.0129 25.0322 33.2918 23.9827 34.1916 22.6361C35.0915 21.2895 35.5718 19.7063 35.5718 18.0867C35.5718 16.4671 35.0915 14.8839 34.1916 13.5373C33.2918 12.1907 32.0129 11.1412 30.5166 10.5215C29.0202 9.90182 27.3738 9.73981 25.7853 10.056C24.2066 10.3702 22.7557 11.1427 21.6139 12.2766C20.4791 13.3089 19.4777 14.4752 18.6306 15.7481C17.7836 14.4752 16.7821 13.3089 15.6474 12.2766C14.5056 11.1427 13.0547 10.3702 11.4759 10.056ZM7.653 12.7148C8.71552 12.2748 9.88466 12.1597 11.0126 12.3842C12.1386 12.6083 13.173 13.1608 13.9855 13.9719L14.0106 13.9964L14.0362 14.0202C15.3297 15.1942 16.4254 16.5674 17.2823 18.0867C16.4244 19.6077 15.3272 20.9824 14.0316 22.1573C14.0172 22.1703 14.0033 22.1837 13.9895 22.1974C13.1765 23.0107 12.1405 23.5647 11.0126 23.7891C9.88466 24.0136 8.71552 23.8986 7.653 23.4586C6.59048 23.0185 5.68232 22.2733 5.04336 21.3171C4.4044 20.3609 4.06336 19.2367 4.06336 18.0867C4.06336 16.9366 4.4044 15.8124 5.04336 14.8562C5.68232 13.9 6.59048 13.1548 7.653 12.7148ZM26.2487 12.3842C27.3766 12.1597 28.5458 12.2748 29.6083 12.7148C30.6708 13.1548 31.579 13.9 32.2179 14.8562C32.8569 15.8124 33.1979 16.9366 33.1979 18.0867C33.1979 19.2367 32.8569 20.3609 32.2179 21.3171C31.579 22.2733 30.6708 23.0185 29.6083 23.4586C28.5458 23.8986 27.3766 24.0136 26.2487 23.7891C25.1208 23.5647 24.0847 23.0107 23.2718 22.1974C23.258 22.1837 23.244 22.1703 23.2296 22.1573C21.9341 20.9824 20.8369 19.6077 19.9789 18.0867C20.8369 16.5656 21.9341 15.191 23.2296 14.016C23.244 14.003 23.258 13.9897 23.2717 13.976C24.0847 13.1626 25.1208 12.6087 26.2487 12.3842Z" fill="#292B2E" stroke="white" stroke-width="0.67765" stroke-linecap="round"/>
</g>
</g>
<defs>
<clipPath id="clip0_396_15578">
<rect width="36" height="36" fill="white" transform="translate(0.630859)"/>
</clipPath>
<clipPath id="clip1_396_15578">
<rect width="36" height="36" fill="white" transform="translate(0.630859)"/>
</clipPath>
</defs>
</svg>
