<svg width="25" height="25" viewBox="0 0 25 25" fill="none" xmlns="http://www.w3.org/2000/svg">
<g clip-path="url(#clip0_396_19731)">
<g clip-path="url(#clip1_396_19731)">
<path fill-rule="evenodd" clip-rule="evenodd" d="M8.53112 8.17352C7.68727 8.00557 6.81257 8.09164 6.01764 8.42084C5.22271 8.75004 4.54326 9.30758 4.06523 10.023C3.58719 10.7383 3.33203 11.5794 3.33203 12.4398C3.33203 13.3002 3.58719 14.1412 4.06523 14.8566C4.54326 15.572 5.22271 16.1295 6.01764 16.4587C6.81257 16.7879 7.68727 16.874 8.53112 16.706C9.3698 16.5391 10.1406 16.1287 10.7472 15.5263C11.3501 14.9779 11.8821 14.3583 12.3321 13.6821C12.7821 14.3583 13.3141 14.9779 13.9169 15.5263C14.5236 16.1287 15.2943 16.5391 16.133 16.706C16.9768 16.874 17.8515 16.7879 18.6465 16.4587C19.4414 16.1295 20.1208 15.572 20.5989 14.8566C21.0769 14.1412 21.3321 13.3002 21.3321 12.4398C21.3321 11.5794 21.0769 10.7383 20.5989 10.023C20.1208 9.30758 19.4414 8.75004 18.6465 8.42084C17.8515 8.09164 16.9768 8.00557 16.133 8.17352C15.2943 8.34045 14.5235 8.75084 13.9169 9.35324C13.3141 9.90164 12.782 10.5212 12.3321 11.1974C11.8821 10.5212 11.3501 9.90164 10.7472 9.35323C10.1406 8.75083 9.3698 8.34044 8.53112 8.17352ZM6.50017 9.58601C7.06463 9.35225 7.68574 9.29114 8.28494 9.4104C8.88313 9.52946 9.43266 9.82294 9.86428 10.2538L9.8776 10.2668L9.89125 10.2795C10.5785 10.9031 11.1605 11.6327 11.6158 12.4398C11.16 13.2478 10.5771 13.9781 9.8888 14.6023C9.88118 14.6092 9.87373 14.6163 9.86646 14.6236C9.43451 15.0556 8.88414 15.3499 8.28494 15.4692C7.68574 15.5884 7.06463 15.5273 6.50017 15.2936C5.93571 15.0598 5.45324 14.6639 5.1138 14.1559C4.77435 13.6479 4.59317 13.0507 4.59317 12.4398C4.59317 11.8288 4.77435 11.2316 5.1138 10.7236C5.45324 10.2156 5.93571 9.81977 6.50017 9.58601ZM16.3792 9.4104C16.9784 9.29114 17.5995 9.35225 18.1639 9.58601C18.7284 9.81977 19.2109 10.2156 19.5503 10.7236C19.8898 11.2316 20.0709 11.8288 20.0709 12.4398C20.0709 13.0507 19.8898 13.6479 19.5503 14.1559C19.2109 14.6639 18.7284 15.0598 18.1639 15.2936C17.5995 15.5273 16.9784 15.5884 16.3792 15.4692C15.78 15.3499 15.2296 15.0556 14.7977 14.6236C14.7904 14.6163 14.7829 14.6092 14.7753 14.6023C14.087 13.9781 13.5041 13.2478 13.0484 12.4398C13.5041 11.6317 14.087 10.9014 14.7753 10.2773C14.7829 10.2703 14.7904 10.2632 14.7977 10.256C15.2296 9.82393 15.78 9.52966 16.3792 9.4104Z" fill="#292B2E"/>
</g>
</g>
<defs>
<clipPath id="clip0_396_19731">
<rect width="25" height="24" fill="white" transform="translate(0 0.0898438)"/>
</clipPath>
<clipPath id="clip1_396_19731">
<rect width="25" height="24" fill="white" transform="translate(0 0.0898438)"/>
</clipPath>
</defs>
</svg>
