<svg width="8" height="6" viewBox="0 0 8 6" fill="none" xmlns="http://www.w3.org/2000/svg">
<g clip-path="url(#clip0_396_20181)">
<g clip-path="url(#clip1_396_20181)">
<g clip-path="url(#clip2_396_20181)">
<path d="M4 4.85553C3.91277 4.85553 3.82878 4.84306 3.74804 4.81814C3.66679 4.79322 3.59502 4.74338 3.53271 4.66861L0.149533 1.30413C0.0498441 1.19198 0 1.06114 0 0.911605C0 0.762072 0.0560747 0.631231 0.168224 0.519082C0.280374 0.419393 0.411215 0.369549 0.560748 0.369549C0.71028 0.369549 0.841121 0.419393 0.953271 0.519082L4 3.56581L7.06542 0.519082C7.16511 0.406932 7.28972 0.353848 7.43925 0.359829C7.58879 0.366309 7.71963 0.419393 7.83178 0.519082C7.94392 0.631231 8 0.765063 8 0.920577C8 1.07659 7.94392 1.20444 7.83178 1.30413L4.46729 4.66861C4.40498 4.74338 4.33346 4.79322 4.25271 4.81814C4.17146 4.84306 4.08723 4.85553 4 4.85553Z" fill="#292B2E"/>
</g>
</g>
</g>
<defs>
<clipPath id="clip0_396_20181">
<rect width="8" height="5" fill="white" transform="translate(0 0.359375)"/>
</clipPath>
<clipPath id="clip1_396_20181">
<rect width="8" height="5" fill="white" transform="translate(0 0.359375)"/>
</clipPath>
<clipPath id="clip2_396_20181">
<rect width="8" height="5" fill="white" transform="translate(0 0.359375)"/>
</clipPath>
</defs>
</svg>
