<svg width="37" height="41" viewBox="0 0 37 41" fill="none" xmlns="http://www.w3.org/2000/svg">
<g clip-path="url(#clip0_396_15982)">
<g clip-path="url(#clip1_396_15982)">
<g clip-path="url(#clip2_396_15982)">
<path fill-rule="evenodd" clip-rule="evenodd" d="M11.5052 12.4466C9.91684 12.1304 8.27035 12.2924 6.77401 12.9121C5.27768 13.5318 3.99871 14.5813 3.09887 15.9279C2.19904 17.2745 1.71875 18.8577 1.71875 20.4773C1.71875 22.0969 2.19904 23.6801 3.09887 25.0267C3.99871 26.3733 5.27768 27.4228 6.77401 28.0424C8.27035 28.6622 9.91684 28.8242 11.5052 28.508C13.084 28.1938 14.5349 27.4213 15.6767 26.2873C16.8114 25.2551 17.8129 24.0888 18.6599 22.8159C19.507 24.0888 20.5084 25.2551 21.6433 26.2873C22.7851 27.4213 24.2359 28.1938 25.8146 28.508C27.4031 28.8242 29.0495 28.6622 30.5459 28.0424C32.0422 27.4228 33.3211 26.3733 34.2209 25.0267C35.1208 23.6801 35.6011 22.0969 35.6011 20.4773C35.6011 18.8577 35.1208 17.2745 34.2209 15.9279C33.3211 14.5813 32.0422 13.5318 30.5459 12.9121C29.0495 12.2924 27.4031 12.1304 25.8146 12.4466C24.2359 12.7608 22.785 13.5333 21.6432 14.6673C20.5084 15.6995 19.507 16.8658 18.6599 18.1387C17.8129 16.8658 16.8114 15.6995 15.6767 14.6672C14.5349 13.5333 13.084 12.7608 11.5052 12.4466ZM7.6823 15.1054C8.74482 14.6654 9.91396 14.5504 11.0419 14.7748C12.1679 14.9989 13.2023 15.5514 14.0148 16.3625L14.0399 16.3871L14.0655 16.4108C15.359 17.5848 16.4547 18.958 17.3116 20.4773C16.4537 21.9984 15.3565 23.373 14.0609 24.5479C14.0465 24.5609 14.0326 24.5744 14.0188 24.588C13.2058 25.4013 12.1698 25.9553 11.0419 26.1798C9.91396 26.4042 8.74482 26.2892 7.6823 25.8492C6.61978 25.4091 5.71162 24.6639 5.07266 23.7077C4.4337 22.7515 4.09265 21.6273 4.09265 20.4773C4.09265 19.3273 4.4337 18.2031 5.07266 17.2469C5.71162 16.2907 6.61978 15.5454 7.6823 15.1054ZM26.278 14.7748C27.4059 14.5504 28.5751 14.6654 29.6376 15.1054C30.7001 15.5454 31.6083 16.2907 32.2472 17.2469C32.8862 18.2031 33.2272 19.3273 33.2272 20.4773C33.2272 21.6273 32.8862 22.7515 32.2472 23.7077C31.6083 24.6639 30.7001 25.4091 29.6376 25.8492C28.5751 26.2892 27.4059 26.4042 26.278 26.1798C25.1501 25.9553 24.114 25.4013 23.3011 24.588C23.2873 24.5744 23.2733 24.5609 23.2589 24.5479C21.9634 23.373 20.8662 21.9984 20.0082 20.4773C20.8662 18.9562 21.9634 17.5816 23.2589 16.4067C23.2733 16.3936 23.2873 16.3803 23.301 16.3666C24.114 15.5533 25.1501 14.9993 26.278 14.7748Z" fill="#292B2E" stroke="white" stroke-width="0.67765" stroke-linecap="round"/>
</g>
</g>
</g>
<defs>
<clipPath id="clip0_396_15982">
<rect width="36" height="40" fill="white" transform="translate(0.660156 0.390625)"/>
</clipPath>
<clipPath id="clip1_396_15982">
<rect width="36" height="40" fill="white" transform="translate(0.660156 0.390625)"/>
</clipPath>
<clipPath id="clip2_396_15982">
<rect width="36" height="18" fill="white" transform="translate(0.660156 11.3906)"/>
</clipPath>
</defs>
</svg>
