<svg width="99" height="22" viewBox="0 0 99 22" fill="none" xmlns="http://www.w3.org/2000/svg">
<path d="M0.130859 0.990156H5.32286C6.87756 0.990156 8.13156 1.40086 9.08486 2.22216C10.0529 3.02886 10.5369 4.20946 10.5369 5.76416C10.5369 6.77616 10.3096 7.64146 9.85486 8.36016C9.41486 9.07886 8.80626 9.62146 8.02886 9.98816C7.25156 10.3549 6.37886 10.5382 5.41086 10.5382H2.33086V16.3902H0.130859V0.990156ZM5.16886 8.55816C6.18086 8.55816 6.95826 8.31616 7.50086 7.83216C8.05826 7.34816 8.33686 6.65146 8.33686 5.74216C8.33686 4.84746 8.05826 4.16546 7.50086 3.69616C6.94356 3.21216 6.16626 2.97016 5.16886 2.97016H2.33086V8.55816H5.16886ZM15.4764 16.6982C14.7284 16.6982 14.0684 16.5589 13.4964 16.2802C12.9244 15.9869 12.4844 15.5909 12.1764 15.0922C11.8684 14.5789 11.7144 14.0069 11.7144 13.3762C11.7144 12.4375 12.0371 11.6675 12.6824 11.0662C13.3424 10.4502 14.4351 10.0322 15.9604 9.81216L18.5784 9.43816V9.19616C18.5784 7.71486 17.8011 6.97416 16.2464 6.97416C15.4984 6.97416 14.9264 7.15016 14.5304 7.50216C14.1491 7.83946 13.9071 8.32345 13.8044 8.95415L11.8904 8.49216C12.4184 6.30685 13.8851 5.21416 16.2904 5.21416C17.6251 5.21416 18.6958 5.55146 19.5024 6.22616C20.3238 6.90086 20.7344 7.88346 20.7344 9.17416V16.3902H18.9084L18.6884 15.3342C18.0284 16.2435 16.9578 16.6982 15.4764 16.6982ZM16.0044 14.9162C16.7231 14.9162 17.3318 14.7109 17.8304 14.3002C18.3291 13.8895 18.5784 13.2955 18.5784 12.5182V11.0882L16.1364 11.4622C15.3591 11.5795 14.7724 11.7775 14.3764 12.0562C13.9951 12.3202 13.8044 12.7235 13.8044 13.2662C13.8044 13.7649 14.0024 14.1682 14.3984 14.4762C14.7944 14.7695 15.3298 14.9162 16.0044 14.9162ZM33.0288 5.50016V16.1922C33.0288 17.1309 32.8455 17.9742 32.4788 18.7222C32.1122 19.4849 31.5548 20.0862 30.8068 20.5262C30.0735 20.9662 29.1568 21.1862 28.0568 21.1862C26.7808 21.1862 25.7542 20.8709 24.9768 20.2402C24.1995 19.6242 23.6642 18.7809 23.3708 17.7102L25.3948 17.2702C25.7175 18.6342 26.6048 19.3162 28.0568 19.3162C28.9808 19.3162 29.6775 19.0449 30.1468 18.5022C30.6308 17.9595 30.8728 17.2042 30.8728 16.2362V14.7402C30.4328 15.2829 29.9415 15.6935 29.3988 15.9722C28.8562 16.2362 28.1742 16.3682 27.3528 16.3682C26.1942 16.3682 25.2482 16.0162 24.5148 15.3122C23.7815 14.5935 23.4148 13.5155 23.4148 12.0782V5.50016H25.5708V11.5942C25.5708 12.5915 25.7835 13.3029 26.2088 13.7282C26.6342 14.1535 27.2355 14.3662 28.0128 14.3662C28.8488 14.3662 29.5308 14.0949 30.0588 13.5522C30.6015 12.9949 30.8728 12.2249 30.8728 11.2422V5.50016H33.0288ZM46.0442 16.6982C44.8709 16.6982 43.9029 16.4195 43.1402 15.8622C42.3776 15.2902 41.8496 14.4689 41.5562 13.3982L43.4922 12.8042C43.6682 13.4202 43.9396 13.9189 44.3062 14.3002C44.6876 14.6815 45.2669 14.8722 46.0442 14.8722C46.7189 14.8722 47.2616 14.7402 47.6722 14.4762C48.0976 14.1975 48.3102 13.8235 48.3102 13.3542C48.3102 13.0022 48.1562 12.7015 47.8482 12.4522C47.5402 12.1882 46.9316 11.9755 46.0222 11.8142C44.7316 11.5795 43.7269 11.2275 43.0082 10.7582C42.2896 10.2742 41.9302 9.52616 41.9302 8.51416C41.9302 7.53146 42.3116 6.73945 43.0742 6.13815C43.8516 5.52215 44.8416 5.21416 46.0442 5.21416C47.1442 5.21416 48.0462 5.49286 48.7502 6.05016C49.4689 6.59286 49.9384 7.36286 50.1584 8.36016L48.2442 8.91016C48.1122 8.35286 47.8702 7.90546 47.5182 7.56816C47.1809 7.21616 46.6896 7.04016 46.0442 7.04016C45.3402 7.04016 44.8196 7.17946 44.4822 7.45816C44.1449 7.72216 43.9762 8.04486 43.9762 8.42616C43.9762 8.85146 44.1742 9.17416 44.5702 9.39416C44.9662 9.59946 45.5749 9.77546 46.3962 9.92216C47.6869 10.1715 48.6696 10.5529 49.3442 11.0662C50.0194 11.5649 50.3564 12.3202 50.3564 13.3322C50.3564 13.9775 50.1734 14.5569 49.8064 15.0702C49.4396 15.5835 48.9262 15.9869 48.2662 16.2802C47.6062 16.5589 46.8656 16.6982 46.0442 16.6982ZM55.9744 16.6982C55.2264 16.6982 54.5664 16.5589 53.9944 16.2802C53.4224 15.9869 52.9824 15.5909 52.6744 15.0922C52.3664 14.5789 52.2124 14.0069 52.2124 13.3762C52.2124 12.4375 52.5354 11.6675 53.1804 11.0662C53.8404 10.4502 54.9334 10.0322 56.4584 9.81216L59.0764 9.43816V9.19616C59.0764 7.71486 58.2994 6.97416 56.7444 6.97416C55.9964 6.97416 55.4244 7.15016 55.0284 7.50216C54.6474 7.83946 54.4054 8.32345 54.3024 8.95415L52.3884 8.49216C52.9164 6.30685 54.3834 5.21416 56.7884 5.21416C58.1234 5.21416 59.1934 5.55146 60.0004 6.22616C60.8214 6.90086 61.2324 7.88346 61.2324 9.17416V16.3902H59.4064L59.1864 15.3342C58.5264 16.2435 57.4554 16.6982 55.9744 16.6982ZM56.5024 14.9162C57.2214 14.9162 57.8294 14.7109 58.3284 14.3002C58.8274 13.8895 59.0764 13.2955 59.0764 12.5182V11.0882L56.6344 11.4622C55.8574 11.5795 55.2704 11.7775 54.8744 12.0562C54.4934 12.3202 54.3024 12.7235 54.3024 13.2662C54.3024 13.7649 54.5004 14.1682 54.8964 14.4762C55.2924 14.7695 55.8274 14.9162 56.5024 14.9162ZM64.7924 7.43616H62.8784V5.50016H64.7924V3.69616C64.7924 2.77216 65.0644 2.03886 65.6064 1.49616C66.1494 0.938856 66.8464 0.660156 67.6964 0.660156C68.4004 0.660156 68.9504 0.762856 69.3464 0.968156C69.7574 1.15886 70.0504 1.35686 70.2264 1.56216L69.1704 3.03616C69.0974 2.94816 68.9654 2.86016 68.7744 2.77216C68.5984 2.66946 68.3784 2.61816 68.1144 2.61816C67.3374 2.61816 66.9484 3.05816 66.9484 3.93816V5.50016H69.9184V7.43616H66.9484V16.3902H64.7924V7.43616ZM72.6284 11.6162C72.6724 12.2029 72.8344 12.7455 73.1124 13.2442C73.4064 13.7429 73.8024 14.1462 74.3004 14.4542C74.7994 14.7475 75.3644 14.8942 75.9944 14.8942C76.7574 14.8942 77.3954 14.7109 77.9084 14.3442C78.4364 13.9629 78.7884 13.5155 78.9644 13.0022L80.8124 13.5962C80.4904 14.5055 79.9184 15.2535 79.0964 15.8402C78.2754 16.4122 77.2414 16.6982 75.9944 16.6982C74.9384 16.6982 73.9924 16.4489 73.1564 15.9502C72.3354 15.4369 71.6904 14.7402 71.2204 13.8602C70.7664 12.9802 70.5384 12.0049 70.5384 10.9342C70.5384 9.87816 70.7734 8.91746 71.2424 8.05216C71.7264 7.17216 72.3794 6.48286 73.2004 5.98416C74.0364 5.47086 74.9604 5.21416 75.9724 5.21416C76.9994 5.21416 77.8944 5.44886 78.6564 5.91816C79.4344 6.37286 80.0354 7.01816 80.4604 7.85416C80.8864 8.69016 81.0984 9.65816 81.0984 10.7582V11.6162H72.6284ZM79.1624 9.92216C79.1044 9.14486 78.7884 8.47016 78.2164 7.89816C77.6594 7.31146 76.9184 7.01816 75.9944 7.01816C75.0704 7.01816 74.3154 7.29686 73.7284 7.85416C73.1424 8.41146 72.7824 9.10086 72.6504 9.92216H79.1624ZM83.4624 0.990156H85.6184V16.3902H83.4624V0.990156ZM98.1264 5.50016V16.1922C98.1264 17.1309 97.9434 17.9742 97.5764 18.7222C97.2094 19.4849 96.6524 20.0862 95.9044 20.5262C95.1714 20.9662 94.2544 21.1862 93.1544 21.1862C91.8784 21.1862 90.8514 20.8709 90.0744 20.2402C89.2974 19.6242 88.7614 18.7809 88.4684 17.7102L90.4924 17.2702C90.8154 18.6342 91.7024 19.3162 93.1544 19.3162C94.0784 19.3162 94.7754 19.0449 95.2444 18.5022C95.7284 17.9595 95.9704 17.2042 95.9704 16.2362V14.7402C95.5304 15.2829 95.0394 15.6935 94.4964 15.9722C93.9534 16.2362 93.2714 16.3682 92.4504 16.3682C91.2914 16.3682 90.3454 16.0162 89.6124 15.3122C88.8794 14.5935 88.5124 13.5155 88.5124 12.0782V5.50016H90.6684V11.5942C90.6684 12.5915 90.8814 13.3029 91.3064 13.7282C91.7314 14.1535 92.3334 14.3662 93.1104 14.3662C93.9464 14.3662 94.6284 14.0949 95.1564 13.5522C95.6994 12.9949 95.9704 12.2249 95.9704 11.2422V5.50016H98.1264Z" fill="#292B2E"/>
</svg>
