<svg width="8" height="6" viewBox="0 0 8 6" fill="none" xmlns="http://www.w3.org/2000/svg">
<g clip-path="url(#clip0_396_16150)">
<g clip-path="url(#clip1_396_16150)">
<g clip-path="url(#clip2_396_16150)">
<path d="M4 0.889546C4.09 0.889546 4.17 0.909546 4.25 0.929546C4.33 0.959546 4.4 1.00955 4.47 1.07955L7.85 4.44955C7.95 4.55955 8 4.68955 8 4.83955C8 4.98955 7.94 5.11955 7.83 5.22955C7.72 5.32955 7.59 5.37955 7.44 5.37955C7.29 5.37955 7.16 5.32955 7.05 5.22955L4 2.17955L0.93 5.22955C0.83 5.33955 0.71 5.39955 0.56 5.38955C0.41 5.37955 0.28 5.32955 0.17 5.22955C0.0600001 5.11955 0 4.97955 0 4.82955C0 4.66955 0.0600001 4.53955 0.17 4.44955L3.53 1.07955C3.6 1.00955 3.67 0.959546 3.75 0.929546C3.83 0.909546 3.91 0.889546 4 0.889546Z" fill="#292B2E"/>
</g>
</g>
</g>
<defs>
<clipPath id="clip0_396_16150">
<rect width="8" height="5" fill="white" transform="translate(0 0.890625)"/>
</clipPath>
<clipPath id="clip1_396_16150">
<rect width="8" height="5" fill="white" transform="translate(0 0.890625)"/>
</clipPath>
<clipPath id="clip2_396_16150">
<rect width="8" height="5" fill="white" transform="translate(0 0.890625)"/>
</clipPath>
</defs>
</svg>
