<svg width="17" height="16" viewBox="0 0 17 16" fill="none" xmlns="http://www.w3.org/2000/svg">
<g clip-path="url(#clip0_396_16041)">
<g clip-path="url(#clip1_396_16041)">
<g clip-path="url(#clip2_396_16041)">
<path d="M5.84227 14.9071L4.79955 13.2035L2.86223 12.769C2.70838 12.7367 2.58801 12.6617 2.50112 12.5439C2.41423 12.4261 2.38075 12.2903 2.40069 12.1365L2.57163 10.1437L1.25397 8.67355C1.15236 8.552 1.10156 8.4181 1.10156 8.27185C1.10156 8.1256 1.15236 7.9917 1.25397 7.87014L2.57163 6.40007L2.40069 4.4072C2.38075 4.25335 2.41423 4.11754 2.50112 3.99979C2.58801 3.88202 2.70838 3.807 2.86223 3.77472L4.79955 3.34026L5.84227 1.63655C5.91919 1.515 6.02532 1.42762 6.16066 1.37444C6.29597 1.32127 6.43676 1.32317 6.583 1.38014L8.40921 2.17074L10.2354 1.38014C10.3816 1.32317 10.5224 1.32127 10.6577 1.37444C10.7931 1.42762 10.8992 1.515 10.9761 1.63655L12.0189 3.34026L13.9562 3.77472C14.1101 3.807 14.2304 3.88202 14.3173 3.99979C14.4042 4.11754 14.4376 4.25335 14.4177 4.4072L14.2468 6.40007L15.5645 7.87014C15.6661 7.9917 15.7168 8.1256 15.7168 8.27185C15.7168 8.4181 15.6661 8.552 15.5645 8.67355L14.2468 10.1437L14.4177 12.1365C14.4376 12.2903 14.4042 12.4261 14.3173 12.5439C14.2304 12.6617 14.1101 12.7367 13.9562 12.769L12.0189 13.2035L10.9761 14.9071C10.8992 15.0287 10.7931 15.1161 10.6577 15.1693C10.5224 15.2224 10.3816 15.2205 10.2354 15.1636L8.40921 14.373L6.583 15.1636C6.43676 15.2205 6.29597 15.2224 6.16066 15.1693C6.02532 15.1161 5.91919 15.0287 5.84227 14.9071ZM7.46476 9.32029L6.22543 8.09236C6.12288 7.98981 6.0113 7.93734 5.89069 7.93496C5.77009 7.93259 5.65851 7.98269 5.55595 8.08525C5.44863 8.19257 5.39497 8.30723 5.39497 8.42925C5.39497 8.55128 5.44863 8.66595 5.55595 8.77325L7.05167 10.269C7.17323 10.3905 7.31092 10.4513 7.46476 10.4513C7.6186 10.4513 7.7563 10.3905 7.87786 10.269L11.2624 6.88436C11.3603 6.78657 11.4116 6.67308 11.4163 6.54392C11.4211 6.41477 11.3698 6.29892 11.2624 6.19636C11.16 6.0938 11.0496 6.0437 10.9312 6.04607C10.813 6.04845 10.7027 6.10092 10.6001 6.20347L7.46476 9.32029Z" fill="#2065CE"/>
</g>
</g>
</g>
<defs>
<clipPath id="clip0_396_16041">
<rect width="16" height="15" fill="white" transform="translate(0.410156 0.769531)"/>
</clipPath>
<clipPath id="clip1_396_16041">
<rect width="16" height="15" fill="white" transform="translate(0.410156 0.769531)"/>
</clipPath>
<clipPath id="clip2_396_16041">
<rect width="16" height="14.2222" fill="white" transform="translate(0.410156 1.16016)"/>
</clipPath>
</defs>
</svg>
