<svg width="51" height="55" viewBox="0 0 51 55" fill="none" xmlns="http://www.w3.org/2000/svg">
<g clip-path="url(#clip0_396_19864)">
<g clip-path="url(#clip1_396_19864)">
<g clip-path="url(#clip2_396_19864)">
<path d="M12.5104 22.5369C12.6956 22.7684 12.9387 22.8841 13.2396 22.8841C13.5405 22.8841 13.7836 22.7684 13.9687 22.5369L16.3299 20.1758L18.691 22.5369C18.8299 22.722 19.0614 22.8262 19.3854 22.8494C19.7094 22.8726 19.9872 22.7684 20.2187 22.5369C20.4503 22.3054 20.566 22.0508 20.566 21.773C20.566 21.4952 20.4503 21.2406 20.2187 21.0091L17.6493 18.4397C17.4642 18.2545 17.2558 18.1156 17.0243 18.023C16.7928 17.9304 16.5382 17.8841 16.2604 17.8841C16.0289 17.8841 15.809 17.9304 15.6007 18.023C15.3924 18.1156 15.1956 18.2545 15.0104 18.4397L12.441 21.0091C12.2558 21.1943 12.1516 21.4373 12.1285 21.7383C12.1053 22.0393 12.2326 22.3054 12.5104 22.5369ZM30.2882 22.5369C30.4733 22.7684 30.7164 22.8841 31.0174 22.8841C31.3183 22.8841 31.5844 22.7684 31.816 22.5369L34.1771 20.1758L36.4688 22.5369C36.6539 22.722 36.8969 22.8262 37.1979 22.8494C37.4989 22.8726 37.765 22.7684 37.9965 22.5369C38.2281 22.3054 38.3438 22.0508 38.3438 21.773C38.3438 21.4952 38.2281 21.2406 37.9965 21.0091L35.4965 18.4397C35.3114 18.2545 35.1031 18.1156 34.8715 18.023C34.64 17.9304 34.4086 17.8841 34.1771 17.8841C33.8993 17.8841 33.6447 17.9304 33.4132 18.023C33.1817 18.1156 32.9733 18.2545 32.7882 18.4397L30.2882 21.0091C30.0567 21.1943 29.941 21.4373 29.941 21.7383C29.941 22.0393 30.0567 22.3054 30.2882 22.5369ZM25.2188 52.6758C21.7465 52.6758 18.5058 52.0161 15.4965 50.6966C12.4873 49.3772 9.84838 47.5831 7.57986 45.3147C5.31135 43.0462 3.51736 40.4073 2.19792 37.398C0.878472 34.3887 0.21875 31.148 0.21875 27.6758C0.21875 24.2036 0.878472 20.9512 2.19792 17.9188C3.51736 14.8864 5.31135 12.2475 7.57986 10.0022C9.84838 7.75679 12.4873 5.97439 15.4965 4.65495C18.5058 3.3355 21.7465 2.67578 25.2188 2.67578C28.691 2.67578 31.9433 3.3355 34.9757 4.65495C38.0081 5.97439 40.6469 7.75679 42.8924 10.0022C45.1378 12.2475 46.9201 14.8864 48.2396 17.9188C49.559 20.9512 50.2188 24.2036 50.2188 27.6758C50.2188 31.148 49.559 34.3887 48.2396 37.398C46.9201 40.4073 45.1378 43.0462 42.8924 45.3147C40.6469 47.5831 38.0081 49.3772 34.9757 50.6966C31.9433 52.0161 28.691 52.6758 25.2188 52.6758ZM25.2188 50.523C31.5614 50.523 36.9549 48.2893 41.3993 43.8216C45.8437 39.354 48.066 33.972 48.066 27.6758C48.066 21.3331 45.8437 15.9397 41.3993 11.4952C36.9549 7.05078 31.5614 4.82856 25.2188 4.82856C18.9225 4.82856 13.5405 7.05078 9.07292 11.4952C4.60532 15.9397 2.37153 21.3331 2.37153 27.6758C2.37153 33.972 4.60532 39.354 9.07292 43.8216C13.5405 48.2893 18.9225 50.523 25.2188 50.523ZM25.2188 41.2174C27.3021 41.2174 29.3854 40.7198 31.4687 39.7244C33.5521 38.729 35.265 37.1665 36.6076 35.0369C36.8854 34.6202 36.9201 34.2498 36.7118 33.9258C36.5035 33.6018 36.1447 33.4397 35.6354 33.4397H14.7326C14.2697 33.4397 13.934 33.6018 13.7257 33.9258C13.5174 34.2498 13.5521 34.6202 13.8299 35.0369C15.2188 37.1665 16.9433 38.729 19.0035 39.7244C21.0636 40.7198 23.1354 41.2174 25.2188 41.2174Z" fill="#292B2E"/>
</g>
</g>
</g>
<defs>
<clipPath id="clip0_396_19864">
<rect width="50" height="54.39" fill="white" transform="translate(0.21875 0.480469)"/>
</clipPath>
<clipPath id="clip1_396_19864">
<rect width="50" height="54.39" fill="white" transform="translate(0.21875 0.480469)"/>
</clipPath>
<clipPath id="clip2_396_19864">
<rect width="50" height="50" fill="white" transform="translate(0.21875 2.67578)"/>
</clipPath>
</defs>
</svg>
