<svg width="16" height="16" viewBox="0 0 16 16" fill="none" xmlns="http://www.w3.org/2000/svg">
<g clip-path="url(#clip0_396_27747)">
<g clip-path="url(#clip1_396_27747)">
<g clip-path="url(#clip2_396_27747)">
<path d="M4.79019 12.5999C4.81333 12.5936 4.83803 12.5968 4.85874 12.6089L5.34351 12.8921C6.21561 13.4008 7.2075 13.6678 8.21708 13.6657C9.34726 13.6657 10.4521 13.3305 11.3918 12.7027C12.3315 12.0748 13.0639 11.1823 13.4964 10.1382C13.9289 9.09405 14.042 7.94511 13.8215 6.83664C13.601 5.72818 13.0569 4.70999 12.2577 3.91084C11.4585 3.11168 10.4403 2.56745 9.33188 2.34696C8.22342 2.12648 7.07447 2.23963 6.03032 2.67214C4.98617 3.10464 4.09372 3.83705 3.46583 4.77676C2.83793 5.71647 2.5028 6.82126 2.5028 7.95145C2.5028 8.97716 2.77208 9.96073 3.27708 10.8257L3.55968 11.3106C3.57172 11.3313 3.57498 11.3559 3.5687 11.3789L3.15306 12.9072C3.13494 12.9739 3.1961 13.0349 3.26273 13.0167L4.79019 12.5999ZM1.37842 15.012C1.24515 15.0485 1.12283 14.9262 1.1591 14.7929L2.04279 11.5458C1.40647 10.4549 1.07215 9.2143 1.07423 7.95145C1.07423 4.00645 4.27208 0.808594 8.21708 0.808594C12.1621 0.808594 15.3599 4.00645 15.3599 7.95145C15.3599 11.8964 12.1621 15.0943 8.21708 15.0943C6.95478 15.0964 5.7147 14.7623 4.62423 14.1264L1.37842 15.012ZM5.63923 4.60002C5.73494 4.59288 5.83137 4.59288 5.92708 4.59716C5.96566 4.60002 6.00423 4.60431 6.0428 4.60859C6.15637 4.62145 6.28137 4.69073 6.32351 4.78645C6.53637 5.2693 6.74352 5.75573 6.94351 6.24359C6.98779 6.35216 6.96137 6.49145 6.87708 6.62716C6.81912 6.71893 6.75642 6.80763 6.68923 6.89288C6.60851 6.99644 6.43493 7.18645 6.43493 7.18645C6.43493 7.18645 6.36422 7.27073 6.39137 7.37573C6.40137 7.41574 6.43423 7.47359 6.46423 7.52216L6.50637 7.59001C6.68923 7.89502 6.93494 8.20431 7.23494 8.49574C7.32065 8.57859 7.40422 8.66359 7.49422 8.74287C7.82851 9.03787 8.20708 9.27859 8.61566 9.45716L8.61922 9.45858C8.67994 9.48502 8.71065 9.4993 8.79922 9.53715C8.84351 9.55573 8.88922 9.57216 8.93565 9.5843C8.98363 9.59652 9.03416 9.59422 9.08083 9.57769C9.1275 9.56115 9.1682 9.53114 9.19779 9.49145C9.71494 8.86501 9.76208 8.8243 9.76637 8.8243V8.82572C9.80229 8.79222 9.84497 8.76679 9.89154 8.75114C9.93812 8.7355 9.98749 8.72999 10.0364 8.73502C10.0792 8.73787 10.1228 8.74573 10.1628 8.76359C10.5421 8.93716 11.1628 9.20787 11.1628 9.20787L11.5785 9.3943C11.6485 9.42788 11.7121 9.50715 11.7143 9.58359C11.717 9.63144 11.7213 9.70858 11.7049 9.85001C11.6821 10.035 11.6264 10.2572 11.5707 10.3736C11.5325 10.453 11.4819 10.5259 11.4206 10.5893C11.3486 10.665 11.2697 10.7338 11.1849 10.795C11.1556 10.8171 11.1259 10.8385 11.0956 10.8593C11.0068 10.9157 10.9155 10.9681 10.8221 11.0164C10.6382 11.1141 10.435 11.1702 10.2271 11.1807C10.0949 11.1879 9.9628 11.1979 9.82994 11.1907C9.82423 11.1907 9.42422 11.1286 9.42422 11.1286C8.40869 10.8615 7.46951 10.3611 6.68136 9.66716C6.51994 9.52501 6.37065 9.37215 6.2178 9.22001C5.58209 8.58788 5.10209 7.90573 4.81066 7.26145C4.66149 6.94523 4.58091 6.60102 4.57423 6.25145C4.57128 5.81776 4.71304 5.39549 4.97708 5.05145C5.02923 4.9843 5.07852 4.9143 5.16351 4.83359C5.25423 4.74788 5.31137 4.70216 5.37351 4.67074C5.45613 4.62933 5.54699 4.60575 5.63923 4.60002Z" fill="#292B2E"/>
</g>
</g>
</g>
<defs>
<clipPath id="clip0_396_27747">
<rect width="15" height="15" fill="white" transform="translate(0.71875 0.453125)"/>
</clipPath>
<clipPath id="clip1_396_27747">
<rect width="15" height="15" fill="white" transform="translate(0.71875 0.453125)"/>
</clipPath>
<clipPath id="clip2_396_27747">
<rect width="15" height="15" fill="white" transform="translate(0.71875 0.453125)"/>
</clipPath>
</defs>
</svg>
